<svg xmlns="http://www.w3.org/2000/svg" width="22" height="26" viewBox="0 0 22 26" fill="none">
  <path d="M18.5 25C19.3284 25 20 24.3284 20 23.5C20 22.6716 19.3284 22 18.5 22C17.6716 22 17 22.6716 17 23.5C17 24.3284 17.6716 25 18.5 25Z" fill="#1C0B54" stroke="#1C0B54" stroke-linecap="round" stroke-linejoin="round"/>
  <path d="M8.5 25C9.3284 25 10 24.3284 10 23.5C10 22.6716 9.3284 22 8.5 22C7.67157 22 7 22.6716 7 23.5C7 24.3284 7.67157 25 8.5 25Z" fill="#1C0B54" stroke="#1C0B54" stroke-linecap="round" stroke-linejoin="round"/>
  <path d="M21 7L19 18H6L4 7C3.83333 6.33333 3 5 1 5" stroke="#1C0B54" stroke-linecap="round" stroke-linejoin="round"/>
  <path d="M18.998 18H5.99805H4.22882C2.44451 18 1.49805 18.7812 1.49805 20C1.49805 21.2188 2.44451 22 4.22882 22H18.498" stroke="#1C0B54" stroke-linecap="round" stroke-linejoin="round"/>
  <path d="M10.0697 0.256204C10.2338 0.0921566 10.4564 0 10.6884 0C10.9204 0 11.143 0.0921566 11.3071 0.256204L11.8732 0.821488C11.9554 0.903644 12.0015 1.01507 12.0015 1.13126C12.0015 1.24744 11.9554 1.35887 11.8732 1.44103C11.7911 1.52318 11.6796 1.56934 11.5635 1.56934C11.4473 1.56934 11.3358 1.52318 11.2537 1.44103L10.6884 0.874866L6.75066 4.8126V10.3193C6.75066 10.4354 6.79676 10.5466 6.87881 10.6287C6.96086 10.7107 7.07215 10.7568 7.18819 10.7568C7.30422 10.7568 7.41551 10.8029 7.49756 10.885C7.57962 10.967 7.62571 11.0783 7.62571 11.1944C7.62571 11.3104 7.57962 11.4217 7.49756 11.5037C7.41551 11.5858 7.30422 11.6319 7.18819 11.6319C6.84007 11.6319 6.50621 11.4936 6.26005 11.2474C6.01389 11.0013 5.87561 10.6674 5.87561 10.3193V5.68766L5.74785 5.81629C5.66569 5.89845 5.55426 5.9446 5.43808 5.9446C5.32189 5.9446 5.21047 5.89845 5.12831 5.81629C5.04615 5.73414 5 5.62271 5 5.50652C5 5.39034 5.04615 5.27891 5.12831 5.19675L10.0697 0.256204ZM12.6949 1.13126C12.859 0.96721 13.0815 0.875053 13.3136 0.875053C13.5456 0.875053 13.7681 0.96721 13.9322 1.13126L15.5012 2.70023V1.56878C15.5012 1.45274 15.5473 1.34146 15.6293 1.25941C15.7114 1.17735 15.8227 1.13126 15.9387 1.13126H16.8138C16.9298 1.13126 17.0411 1.17735 17.1231 1.25941C17.2052 1.34146 17.2513 1.45274 17.2513 1.56878V4.45033L18.8736 6.07181C18.9558 6.15396 19.002 6.26539 19.002 6.38158C19.002 6.49776 18.9558 6.60919 18.8736 6.69134C18.7915 6.7735 18.6801 6.81965 18.5639 6.81965C18.4477 6.81965 18.3363 6.7735 18.2541 6.69134L18.1263 6.56271V11.1944C18.1263 11.5425 17.9881 11.8763 17.7419 12.1225C17.4957 12.3687 17.1619 12.5069 16.8138 12.5069H9.81334C9.46523 12.5069 9.13137 12.3687 8.88521 12.1225C8.63905 11.8763 8.50076 11.5425 8.50076 11.1944V6.56271L8.37301 6.69134C8.33233 6.73202 8.28403 6.76429 8.23088 6.78631C8.17773 6.80832 8.12077 6.81965 8.06324 6.81965C8.00571 6.81965 7.94874 6.80832 7.89559 6.78631C7.84244 6.76429 7.79415 6.73202 7.75347 6.69134C7.71279 6.65066 7.68052 6.60237 7.65851 6.54922C7.63649 6.49607 7.62516 6.4391 7.62516 6.38158C7.62516 6.32405 7.63649 6.26708 7.65851 6.21393C7.68052 6.16078 7.71279 6.11249 7.75347 6.07181L12.6949 1.13126ZM13.3136 1.74992L9.37582 5.68766V11.1944C9.37582 11.3104 9.42191 11.4217 9.50397 11.5037C9.58602 11.5858 9.69731 11.6319 9.81334 11.6319H16.8138C16.9298 11.6319 17.0411 11.5858 17.1231 11.5037C17.2052 11.4217 17.2513 11.3104 17.2513 11.1944V5.68766L13.3136 1.74992Z" fill="#1C0B54"/>
</svg>