<svg xmlns="http://www.w3.org/2000/svg" width="25" height="24" viewBox="0 0 25 24" fill="none">
  <g clip-path="url(#clip0_265_1416)">
    <path d="M24.4875 12.2247C24.4875 11.2414 24.4059 10.5239 24.2292 9.77979H12.7393V14.2178H19.4836C19.3477 15.3207 18.6134 16.9816 16.9817 18.0977L16.9588 18.2463L20.5917 20.9965L20.8434 21.021C23.1549 18.9349 24.4875 15.8654 24.4875 12.2247Z" fill="#4285F4"/>
    <path d="M12.7391 23.9173C16.0433 23.9173 18.8171 22.8543 20.8432 21.0206L16.9815 18.0973C15.9481 18.8016 14.5611 19.2932 12.7391 19.2932C9.50291 19.2932 6.75622 17.2071 5.77711 14.3237L5.63359 14.3356L1.85604 17.1925L1.80664 17.3267C3.81906 21.2332 7.95273 23.9173 12.7391 23.9173Z" fill="#34A853"/>
    <path d="M5.77726 14.3238C5.51892 13.5797 5.3694 12.7824 5.3694 11.9586C5.3694 11.1347 5.51892 10.3375 5.76367 9.59342L5.75683 9.43494L1.93194 6.53223L1.8068 6.59039C0.977385 8.21149 0.501465 10.0319 0.501465 11.9586C0.501465 13.8853 0.977385 15.7056 1.8068 17.3267L5.77726 14.3238Z" fill="#FBBC05"/>
    <path d="M12.7391 4.62403C15.0371 4.62403 16.5871 5.59402 17.471 6.40461L20.9248 3.10928C18.8036 1.1826 16.0433 0 12.7391 0C7.95273 0 3.81906 2.68406 1.80664 6.59056L5.76351 9.59359C6.75622 6.7102 9.50291 4.62403 12.7391 4.62403Z" fill="#EB4335"/>
  </g>
  <defs>
    <clipPath id="clip0_265_1416">
      <rect width="24" height="24" fill="white" transform="translate(0.5)"/>
    </clipPath>
  </defs>
</svg>