<svg width="24" height="24" viewBox="0 0 24 24" fill="none" xmlns="http://www.w3.org/2000/svg">
<path d="M12.0005 13.5002C12.6635 13.5002 13.2994 13.2369 13.7683 12.768C14.2371 12.2992 14.5005 11.6633 14.5005 11.0002C14.5005 10.3372 14.2371 9.70132 13.7683 9.23248C13.2994 8.76364 12.6635 8.50024 12.0005 8.50024C11.3374 8.50024 10.7016 8.76364 10.2327 9.23248C9.76388 9.70132 9.50049 10.3372 9.50049 11.0002C9.50049 11.6633 9.76388 12.2992 10.2327 12.768C10.7016 13.2369 11.3374 13.5002 12.0005 13.5002Z" fill="#418A6C"/>
<path d="M19.0717 3.42924H19.0727C22.9777 7.33424 22.9777 13.6662 19.0727 17.5712L13.6697 22.9742C13.2272 23.4164 12.6272 23.6647 12.0017 23.6647C11.3762 23.6647 10.7762 23.4164 10.3337 22.9742L4.9307 17.5712C1.0257 13.6662 1.0257 7.33424 4.9307 3.42924C8.8347 -0.475762 15.1667 -0.475762 19.0717 3.42924ZM5.9907 4.48924C4.39689 6.08326 3.50152 8.2461 3.50152 10.5002C3.50152 12.7544 4.39689 14.9162 5.9907 16.5102L6.0137 16.5342L11.3937 21.9142C11.5548 22.0751 11.7731 22.1654 12.0007 22.1654C12.2283 22.1654 12.4466 22.0751 12.6077 21.9142L18.0107 16.5102C19.5857 14.9123 20.465 12.7565 20.457 10.5129C20.4489 8.26925 19.5541 6.1198 17.9677 4.53324C16.3813 2.94667 14.2319 2.05169 11.9883 2.04345C9.74464 2.03521 7.58875 2.91437 5.9907 4.48924Z" fill="#418A6C"/>
</svg>
