<svg width="24" height="24" viewBox="0 0 24 24" fill="none" xmlns="http://www.w3.org/2000/svg">
<g clip-path="url(#clip0_646_2506)">
<path d="M11.9996 3C14.0665 2.99883 16.0708 3.70911 17.6757 5.01149C19.2807 6.31387 20.3884 8.12898 20.8129 10.1518C21.2373 12.1747 20.9526 14.282 20.0065 16.1196C19.0604 17.9573 17.5106 19.4133 15.6176 20.243L13.4246 14.641C14.0123 14.3239 14.4774 13.8198 14.7463 13.2085C15.0151 12.5972 15.0723 11.9136 14.9087 11.2662C14.7452 10.6187 14.3703 10.0443 13.8435 9.63394C13.3166 9.22359 12.6679 9.00077 12.0001 9.00077C11.3323 9.00077 10.6836 9.22359 10.1567 9.63394C9.62983 10.0443 9.25494 10.6187 9.09141 11.2662C8.92788 11.9136 8.98507 12.5972 9.2539 13.2085C9.52274 13.8198 9.98786 14.3239 10.5756 14.641L8.38258 20.244C6.489 19.4147 4.93865 17.9588 3.99209 16.121C3.04553 14.2832 2.76049 12.1756 3.18486 10.1524C3.60923 8.12923 4.71715 6.3138 6.3224 5.01127C7.92765 3.70875 9.93236 2.99853 11.9996 3V3Z" stroke="#1C0B54" stroke-width="2" stroke-linecap="round" stroke-linejoin="round"/>
</g>
<defs>
<clipPath id="clip0_646_2506">
<rect width="24" height="24" fill="white"/>
</clipPath>
</defs>
</svg>
