<svg xmlns="http://www.w3.org/2000/svg" width="24" height="25" viewBox="0 0 24 25" fill="none">
  <g clip-path="url(#clip0_2001_2189)">
    <path d="M8.5 10C9.05228 10 9.5 9.55228 9.5 9C9.5 8.44772 9.05228 8 8.5 8C7.94772 8 7.5 8.44772 7.5 9C7.5 9.55228 7.94772 10 8.5 10Z" fill="#346E56" stroke="#346E56" stroke-width="2" stroke-linecap="round" stroke-linejoin="round"/>
    <path d="M4 7.5V11.359C4 11.896 4.213 12.411 4.593 12.791L12.709 20.907C12.897 21.0951 13.1203 21.2443 13.366 21.346C13.6117 21.4478 13.875 21.5002 14.141 21.5002C14.407 21.5002 14.6703 21.4478 14.916 21.346C15.1617 21.2443 15.385 21.0951 15.573 20.907L20.407 16.073C20.5951 15.885 20.7443 15.6617 20.846 15.416C20.9478 15.1703 21.0002 14.907 21.0002 14.641C21.0002 14.375 20.9478 14.1117 20.846 13.866C20.7443 13.6203 20.5951 13.397 20.407 13.209L12.29 5.093C11.9104 4.7135 11.3957 4.50021 10.859 4.5H7C6.20435 4.5 5.44129 4.81607 4.87868 5.37868C4.31607 5.94129 4 6.70435 4 7.5V7.5Z" stroke="#346E56" stroke-linecap="round" stroke-linejoin="round"/>
  </g>
  <defs>
    <clipPath id="clip0_2001_2189">
      <rect width="24" height="24" fill="white" transform="translate(0 0.5)"/>
    </clipPath>
  </defs>
</svg>