<svg xmlns="http://www.w3.org/2000/svg" width="38" height="38" viewBox="0 0 38 38" fill="none">
  <path d="M5.8 1L33.6 1C34.0714 1 34.3071 1 34.4536 1.14645C34.6 1.29289 34.6 1.52859 34.6 2V4.6C34.6 7.42843 34.6 8.84264 33.7213 9.72132C32.8426 10.6 31.4284 10.6 28.6 10.6H35C35.9428 10.6 36.4142 10.6 36.7071 10.8929C37 11.1858 37 11.6572 37 12.6L37 20.2V29.8V35C37 35.9428 37 36.4142 36.7071 36.7071C36.4142 37 35.9428 37 35 37L5 37C3.11438 37 2.17157 37 1.58578 36.4142C1 35.8284 1 34.8856 1 33L1 5.8C1 4.11984 1 3.27976 1.32698 2.63803C1.6146 2.07354 2.07354 1.6146 2.63803 1.32698C3.27976 1 4.11984 1 5.8 1Z" fill="#1C0B54"/>
  <path d="M1 5.8V5.8C1 4.11984 1 3.27976 1.32698 2.63803C1.6146 2.07354 2.07354 1.6146 2.63803 1.32698C3.27976 1 4.11984 1 5.8 1L33.6 1C34.0714 1 34.3071 1 34.4536 1.14645C34.6 1.29289 34.6 1.5286 34.6 2V4.6C34.6 7.42843 34.6 8.84264 33.7213 9.72132C32.8426 10.6 31.4284 10.6 28.6 10.6H26.2M1 5.8V5.8C1 7.48016 1 8.32024 1.32698 8.96197C1.6146 9.52646 2.07354 9.9854 2.63803 10.273C3.27976 10.6 4.11984 10.6 5.8 10.6L35 10.6C35.9428 10.6 36.4142 10.6 36.7071 10.8929C37 11.1858 37 11.6572 37 12.6L37 20.2M1 5.8L1 33C1 34.8856 1 35.8284 1.58579 36.4142C2.17157 37 3.11438 37 5 37L35 37C35.9428 37 36.4142 37 36.7071 36.7071C37 36.4142 37 35.9428 37 35V29.8M37 29.8H29.4C28.4572 29.8 27.9858 29.8 27.6929 29.5071C27.4 29.2142 27.4 28.7428 27.4 27.8V22.2C27.4 21.2572 27.4 20.7858 27.6929 20.4929C27.9858 20.2 28.4572 20.2 29.4 20.2H37M37 29.8V20.2" stroke="#57B890"/>
</svg>