<svg width="36" height="36" viewBox="0 0 36 36" fill="none" xmlns="http://www.w3.org/2000/svg">
<g clip-path="url(#clip0_511_2648)">
<path d="M32.2425 9.1626H2.98831C2.72714 9.1626 2.46853 9.21405 2.22726 9.31401C1.98598 9.41398 1.76676 9.5605 1.58212 9.7452C1.39748 9.92991 1.25103 10.1492 1.15115 10.3905C1.05127 10.6318 0.999909 10.8904 1 11.1516V33.7721C1 34.2994 1.20948 34.8051 1.58236 35.178C1.95524 35.5509 2.46098 35.7604 2.98831 35.7604H32.2425C32.5036 35.7604 32.7622 35.7089 33.0035 35.609C33.2448 35.509 33.464 35.3625 33.6487 35.1778C33.8333 34.9931 33.9797 34.7738 34.0796 34.5325C34.1795 34.2912 34.2309 34.0325 34.2308 33.7714V11.1509C34.2306 10.6237 34.021 10.1181 33.6482 9.74541C33.2753 9.37268 32.7697 9.1626 32.2425 9.1626Z" fill="#1C0B54" stroke="#57B890" stroke-miterlimit="10" stroke-linecap="round" stroke-linejoin="round"/>
<path d="M22.0291 9.16254H13.2021V5.44277C13.2021 4.64662 13.8481 4 14.6442 4H20.587C21.3831 4 22.0291 4.64592 22.0291 5.44277V9.16392V9.16254Z" fill="#1C0B54" stroke="#57B890" stroke-miterlimit="10" stroke-linecap="round" stroke-linejoin="round"/>
<path d="M19.668 22.6889C19.668 21.7681 18.9203 21.0273 17.9995 21.0273C17.0787 21.0273 16.3311 21.7681 16.3311 22.6889C16.3311 23.1314 16.5068 23.5558 16.8197 23.8687C17.1326 24.1816 17.557 24.3573 17.9995 24.3573" stroke="#57B890" stroke-miterlimit="10" stroke-linecap="round" stroke-linejoin="round"/>
<path d="M16.3311 26.0249C16.3311 26.9388 17.0787 27.6864 17.9995 27.6864C18.9203 27.6864 19.668 26.9388 19.668 26.0249C19.668 25.1041 18.9203 24.3564 17.9995 24.3564" stroke="#57B890" stroke-miterlimit="10" stroke-linecap="round" stroke-linejoin="round"/>
<path d="M18 27.6865V28.5311" stroke="#57B890" stroke-miterlimit="10" stroke-linecap="round" stroke-linejoin="round"/>
<path d="M18 20.1826V21.0272" stroke="#57B890" stroke-miterlimit="10" stroke-linecap="round" stroke-linejoin="round"/>
<path d="M32.6272 15.2935H3.37307C2.84586 15.2935 2.34023 15.5028 1.96737 15.8756C1.59451 16.2483 1.38495 16.7539 1.38477 17.2811V32.8919C1.38477 33.4193 1.59425 33.925 1.96713 34.2979C2.34001 34.6707 2.84574 34.8802 3.37307 34.8802H32.6272C33.1546 34.8802 33.6603 34.6707 34.0332 34.2979C34.4061 33.925 34.6155 33.4193 34.6155 32.8919V17.2811C34.6154 16.7539 34.4058 16.2483 34.0329 15.8756C33.6601 15.5028 33.1544 15.2935 32.6272 15.2935Z" stroke="#57B890" stroke-miterlimit="10" stroke-linecap="round" stroke-linejoin="round"/>
<path d="M18.0002 30.6932C21.4995 30.6932 24.3363 27.8564 24.3363 24.3571C24.3363 20.8578 21.4995 18.021 18.0002 18.021C14.5008 18.021 11.6641 20.8578 11.6641 24.3571C11.6641 27.8564 14.5008 30.6932 18.0002 30.6932Z" stroke="#57B890" stroke-miterlimit="10" stroke-linecap="round" stroke-linejoin="round"/>
</g>
<defs>
<clipPath id="clip0_511_2648">
<rect width="36" height="36" fill="white"/>
</clipPath>
</defs>
</svg>
