<svg width="400" height="400" viewBox="0 0 400 400" fill="none" xmlns="http://www.w3.org/2000/svg">
<g clip-path="url(#clip0_267_7186)">
<path d="M216.899 166.9H151.413C151.413 166.9 154.668 162.661 158.259 162.13C158.259 162.13 165.239 141.346 176.928 141.198C187.795 141.061 192.151 153.981 192.151 153.981C192.151 153.981 197.185 148.186 201.995 150.835C206.804 153.485 209.528 161.07 209.528 161.07C209.528 161.07 214.937 163.986 216.899 166.9Z" fill="#418A6C"/>
<path d="M256.184 71.52H211.707C211.707 71.52 213.918 68.6408 216.357 68.2808C216.357 68.2808 221.097 54.1648 229.037 54.064C236.417 53.9704 239.376 62.7456 239.376 62.7456C239.376 62.7456 242.794 58.8096 246.061 60.6096C249.328 62.4088 251.177 67.5616 251.177 67.5616C251.177 67.5616 254.851 69.54 256.184 71.52Z" fill="#EBEBEB"/>
<path d="M292.358 116.651H375.171C375.171 116.651 375.171 111.358 363.762 110.323C363.762 110.323 353.346 87.1976 337.444 90.304C327.54 92.2384 322.478 105.836 322.478 105.836C322.478 105.836 314.994 95.136 309.008 97.2072C303.022 99.2784 299.467 110.669 299.467 110.669C299.467 110.669 293.294 113.66 292.358 116.651Z" fill="#1C0B54"/>
<path d="M67.6416 124.318H123.952C123.952 124.318 118.638 119.372 116.277 119.372C113.915 119.372 107.022 102.767 98.2136 103.474C89.4056 104.181 84.7328 116.546 84.7328 116.546C84.7328 116.546 74.0256 113.19 67.6416 124.318Z" fill="#EBEBEB"/>
<path d="M24.8301 164.911H54.1429C54.1429 164.911 51.3765 162.337 50.1469 162.337C48.9173 162.337 45.3293 153.693 40.7437 154.061C36.1589 154.429 33.7261 160.866 33.7261 160.866C33.7261 160.866 28.1533 159.118 24.8301 164.911Z" fill="#EBEBEB"/>
<path d="M297.789 190.955H345.943C345.943 190.955 343.55 187.838 340.91 187.448C340.91 187.448 335.777 172.165 327.182 172.056C319.191 171.955 315.988 181.455 315.988 181.455C315.988 181.455 312.287 177.194 308.75 179.142C305.213 181.09 303.211 186.669 303.211 186.669C303.211 186.669 299.232 188.812 297.789 190.955Z" fill="#EBEBEB"/>
<path d="M22.4629 260.614C22.4629 260.614 48.9541 242.877 58.4517 242.41C67.9485 241.944 74.1341 244.744 80.7885 244.277C87.4429 243.811 119.655 210.441 133.429 210.256C147.204 210.071 170.256 218.189 175.835 216.481C181.413 214.773 219.481 190.569 234.941 190.569C261.992 190.569 285.576 237.493 297.224 235.985C308.872 234.475 318.369 234.009 327.367 237.509C336.364 241.01 377.539 260.615 377.539 260.615H22.4629V260.614Z" fill="#EBEBEB"/>
<path opacity="0.6" d="M132.465 92.0919C144.091 87.3242 149.651 74.034 144.883 62.4075C140.116 50.781 126.826 45.2209 115.199 49.9886C103.573 54.7563 98.0125 68.0465 102.78 79.673C107.548 91.2995 120.838 96.8596 132.465 92.0919Z" fill="#FFC727"/>
<path d="M139.907 77.7556C143.614 68.8763 139.42 58.6734 130.54 54.9668C121.661 51.2602 111.458 55.4535 107.751 64.3328C104.045 73.2121 108.238 83.415 117.118 87.1216C125.998 90.8282 136.201 86.6349 139.907 77.7556Z" fill="#FFC727"/>
<path d="M10.7188 260.615L58.0396 260.42L105.36 260.35L200 260.215L294.641 260.349L341.961 260.419L389.282 260.615L341.961 260.811L294.641 260.881L200 261.014L105.36 260.88L58.0396 260.809L10.7188 260.615Z" fill="#418A6C"/>
<path d="M381.776 255.344C381.393 255.726 376.934 255.897 375.313 255.897C373.691 255.897 369.232 255.726 368.849 255.344C368.467 254.962 373.867 225.324 375.313 225.324C376.758 225.324 382.159 254.961 381.776 255.344Z" fill="#57B890"/>
<path d="M381.866 247.791C380.764 248.211 376.682 249.874 375.802 250.358C375.801 250.172 375.8 249.986 375.799 249.801C376.783 249.222 377.771 248.648 378.758 248.074C379.818 247.457 380.956 246.907 381.944 246.181C381.992 246.146 381.966 246.046 381.899 246.074C380.81 246.527 379.798 247.2 378.783 247.795C377.78 248.383 376.788 248.99 375.799 249.601C375.795 248.181 375.79 246.76 375.781 245.34C377.372 244.702 378.969 243.85 380.432 242.976C380.483 242.946 380.449 242.852 380.39 242.876C378.838 243.517 377.226 244.272 375.78 245.149C375.774 244.41 375.772 243.672 375.764 242.934C375.723 239.131 375.716 235.324 375.619 231.52C376.587 231.032 377.583 230.602 378.55 230.11C378.614 230.078 378.569 229.967 378.502 229.994C377.52 230.377 376.575 230.831 375.612 231.254C375.56 229.292 375.485 227.33 375.366 225.371C375.362 225.306 375.267 225.306 375.265 225.371C375.129 229.014 375.14 232.661 375.186 236.306C374.183 235.506 373.114 234.798 372.094 234.022C372.055 233.993 372.017 234.059 372.055 234.089C373.122 234.9 374.12 235.8 375.19 236.609C375.192 236.814 375.194 237.021 375.198 237.226C374.11 236.73 373.008 236.267 371.91 235.797C371.824 235.76 371.746 235.883 371.834 235.925C372.954 236.462 374.069 237.008 375.202 237.515C375.227 239.322 375.258 241.127 375.282 242.932C375.322 246.086 375.392 249.238 375.459 252.39C373.408 251.353 371.338 250.342 369.258 249.362C369.179 249.325 369.11 249.437 369.189 249.482C371.218 250.643 373.321 251.698 375.464 252.634C375.52 255.254 375.574 257.873 375.607 260.493C375.61 260.652 375.856 260.652 375.854 260.493C375.818 257.151 375.813 253.81 375.803 250.468C376.886 250.201 380.973 248.45 381.944 247.971C382.042 247.924 381.972 247.751 381.866 247.791Z" fill="#346E56"/>
<path d="M303.081 255.466C302.707 255.84 298.352 256.006 296.768 256.006C295.184 256.006 290.829 255.84 290.455 255.466C290.082 255.093 295.356 226.146 296.768 226.146C298.18 226.146 303.455 255.093 303.081 255.466Z" fill="#57B890"/>
<path d="M303.168 248.089C302.092 248.5 298.106 250.123 297.245 250.597C297.244 250.415 297.243 250.234 297.243 250.053C298.204 249.487 299.169 248.927 300.134 248.366C301.168 247.764 302.28 247.226 303.245 246.517C303.292 246.483 303.266 246.386 303.201 246.413C302.137 246.857 301.15 247.513 300.157 248.095C299.177 248.669 298.208 249.261 297.242 249.858C297.238 248.471 297.234 247.084 297.224 245.697C298.778 245.073 300.338 244.241 301.767 243.388C301.816 243.358 301.783 243.267 301.726 243.29C300.21 243.917 298.635 244.654 297.223 245.51C297.218 244.789 297.215 244.068 297.207 243.346C297.167 239.632 297.16 235.913 297.066 232.199C298.011 231.722 298.984 231.301 299.929 230.822C299.991 230.791 299.947 230.682 299.881 230.709C298.923 231.082 297.999 231.527 297.059 231.94C297.007 230.023 296.935 228.108 296.818 226.194C296.814 226.131 296.722 226.13 296.719 226.194C296.587 229.752 296.598 233.313 296.643 236.875C295.663 236.093 294.619 235.402 293.623 234.644C293.585 234.614 293.547 234.68 293.586 234.709C294.627 235.501 295.602 236.38 296.647 237.17C296.649 237.371 296.651 237.573 296.655 237.773C295.593 237.289 294.516 236.837 293.443 236.377C293.359 236.341 293.283 236.461 293.369 236.503C294.462 237.027 295.551 237.561 296.658 238.056C296.683 239.82 296.713 241.584 296.736 243.346C296.776 246.426 296.844 249.505 296.91 252.585C294.906 251.571 292.885 250.583 290.854 249.627C290.776 249.591 290.709 249.7 290.786 249.744C292.767 250.878 294.822 251.909 296.915 252.822C296.969 255.381 297.022 257.94 297.055 260.499C297.056 260.654 297.298 260.655 297.296 260.499C297.261 257.236 297.255 253.972 297.247 250.708C298.303 250.447 302.296 248.737 303.244 248.269C303.341 248.22 303.272 248.05 303.168 248.089Z" fill="#346E56"/>
<path d="M364.246 255.079C363.845 255.481 359.161 255.659 357.458 255.659C355.754 255.659 351.071 255.481 350.669 255.079C350.267 254.677 355.939 223.547 357.458 223.547C358.976 223.547 364.648 254.677 364.246 255.079Z" fill="#346E56"/>
<path d="M364.34 247.146C363.183 247.587 358.896 249.333 357.97 249.842C357.969 249.646 357.969 249.451 357.968 249.257C359.001 248.648 360.04 248.046 361.077 247.442C362.189 246.795 363.385 246.217 364.422 245.453C364.473 245.416 364.445 245.312 364.375 245.342C363.231 245.818 362.169 246.525 361.102 247.15C360.049 247.768 359.006 248.405 357.968 249.047C357.963 247.555 357.959 246.063 357.949 244.571C359.62 243.901 361.297 243.006 362.833 242.088C362.887 242.056 362.851 241.958 362.789 241.983C361.159 242.657 359.465 243.45 357.947 244.37C357.941 243.594 357.939 242.819 357.93 242.043C357.888 238.049 357.88 234.05 357.778 230.055C358.795 229.542 359.841 229.09 360.857 228.574C360.924 228.541 360.877 228.424 360.806 228.452C359.775 228.854 358.782 229.332 357.771 229.776C357.716 227.715 357.637 225.654 357.512 223.597C357.508 223.529 357.409 223.528 357.405 223.597C357.263 227.422 357.274 231.253 357.322 235.082C356.269 234.242 355.147 233.498 354.075 232.683C354.033 232.652 353.993 232.722 354.034 232.753C355.154 233.605 356.203 234.55 357.326 235.4C357.329 235.616 357.332 235.832 357.334 236.049C356.193 235.527 355.034 235.042 353.881 234.547C353.79 234.509 353.709 234.638 353.801 234.682C354.977 235.246 356.148 235.821 357.338 236.353C357.365 238.25 357.397 240.146 357.422 242.042C357.465 245.354 357.538 248.665 357.609 251.977C355.453 250.888 353.281 249.826 351.096 248.797C351.013 248.758 350.94 248.875 351.023 248.922C353.154 250.142 355.363 251.25 357.614 252.233C357.673 254.984 357.729 257.736 357.765 260.488C357.767 260.655 358.026 260.655 358.024 260.488C357.985 256.978 357.98 253.469 357.97 249.958C359.107 249.678 363.4 247.839 364.42 247.335C364.525 247.286 364.452 247.103 364.34 247.146Z" fill="#57B890"/>
<path d="M317.404 255.079C317.002 255.481 312.319 255.659 310.615 255.659C308.912 255.659 304.228 255.481 303.826 255.079C303.424 254.677 309.096 223.547 310.615 223.547C312.133 223.547 317.806 254.677 317.404 255.079Z" fill="#346E56"/>
<path d="M317.498 247.146C316.341 247.587 312.054 249.333 311.128 249.842C311.128 249.646 311.127 249.451 311.126 249.257C312.159 248.648 313.198 248.046 314.235 247.442C315.347 246.795 316.543 246.217 317.58 245.453C317.631 245.416 317.603 245.312 317.533 245.342C316.389 245.818 315.327 246.525 314.26 247.15C313.207 247.768 312.164 248.405 311.126 249.047C311.121 247.555 311.117 246.063 311.107 244.571C312.778 243.901 314.455 243.006 315.991 242.088C316.045 242.056 316.009 241.958 315.947 241.983C314.318 242.657 312.623 243.45 311.105 244.37C311.099 243.594 311.097 242.819 311.088 242.043C311.046 238.049 311.038 234.05 310.936 230.055C311.953 229.542 312.999 229.09 314.015 228.574C314.082 228.541 314.035 228.424 313.963 228.452C312.932 228.854 311.939 229.332 310.928 229.776C310.873 227.715 310.795 225.654 310.669 223.597C310.665 223.529 310.566 223.528 310.563 223.597C310.42 227.422 310.431 231.253 310.479 235.082C309.427 234.242 308.304 233.498 307.232 232.683C307.191 232.652 307.151 232.722 307.191 232.753C308.311 233.605 309.36 234.55 310.483 235.4C310.486 235.616 310.489 235.832 310.491 236.049C309.35 235.527 308.191 235.042 307.038 234.547C306.947 234.509 306.867 234.638 306.959 234.682C308.134 235.246 309.306 235.821 310.495 236.353C310.523 238.25 310.555 240.146 310.579 242.042C310.623 245.354 310.695 248.665 310.766 251.977C308.611 250.888 306.438 249.826 304.253 248.797C304.17 248.758 304.098 248.875 304.179 248.922C306.311 250.142 308.519 251.25 310.771 252.233C310.829 254.984 310.886 257.736 310.921 260.488C310.923 260.655 311.183 260.655 311.18 260.488C311.142 256.978 311.136 253.469 311.127 249.958C312.263 249.678 316.556 247.839 317.576 247.335C317.683 247.286 317.609 247.103 317.498 247.146Z" fill="#57B890"/>
<path d="M230.497 255.079C230.096 255.481 225.413 255.659 223.709 255.659C222.005 255.659 217.322 255.481 216.92 255.079C216.517 254.677 222.19 223.547 223.709 223.547C225.227 223.547 230.9 254.677 230.497 255.079Z" fill="#346E56"/>
<path d="M230.592 247.146C229.435 247.587 225.148 249.333 224.222 249.842C224.222 249.646 224.221 249.451 224.22 249.257C225.253 248.648 226.292 248.046 227.329 247.442C228.442 246.795 229.637 246.217 230.674 245.453C230.725 245.416 230.697 245.312 230.627 245.342C229.483 245.818 228.421 246.525 227.354 247.15C226.301 247.768 225.258 248.405 224.22 249.047C224.215 247.555 224.211 246.063 224.201 244.571C225.872 243.901 227.549 243.006 229.085 242.088C229.139 242.056 229.103 241.958 229.041 241.983C227.412 242.657 225.717 243.45 224.199 244.37C224.193 243.594 224.191 242.819 224.182 242.043C224.14 238.049 224.132 234.05 224.03 230.055C225.047 229.542 226.093 229.09 227.109 228.574C227.176 228.541 227.13 228.424 227.058 228.452C226.027 228.854 225.034 229.332 224.022 229.776C223.967 227.715 223.889 225.654 223.763 223.597C223.759 223.529 223.66 223.528 223.657 223.597C223.514 227.422 223.526 231.253 223.574 235.082C222.521 234.242 221.398 233.498 220.326 232.683C220.285 232.652 220.245 232.722 220.285 232.753C221.406 233.605 222.454 234.55 223.578 235.4C223.58 235.616 223.582 235.832 223.585 236.049C222.444 235.527 221.286 235.042 220.132 234.547C220.042 234.509 219.961 234.638 220.053 234.682C221.228 235.246 222.399 235.821 223.589 236.353C223.617 238.25 223.649 240.146 223.674 242.042C223.717 245.354 223.79 248.665 223.86 251.977C221.705 250.888 219.532 249.826 217.347 248.797C217.264 248.758 217.191 248.875 217.274 248.922C219.405 250.142 221.613 251.25 223.865 252.233C223.923 254.984 223.981 257.736 224.015 260.488C224.018 260.655 224.277 260.655 224.275 260.488C224.237 256.978 224.231 253.469 224.222 249.958C225.358 249.678 229.651 247.839 230.671 247.335C230.777 247.286 230.703 247.103 230.592 247.146Z" fill="#57B890"/>
<path d="M344.276 256.746C344.557 257.026 347.83 257.151 349.021 257.151C350.211 257.151 353.484 257.026 353.766 256.746C354.046 256.465 350.082 234.709 349.021 234.709C347.959 234.709 343.995 256.465 344.276 256.746Z" fill="#57B890"/>
<path d="M344.211 251.201C345.019 251.51 348.015 252.73 348.662 253.085C348.662 252.949 348.663 252.813 348.663 252.677C347.941 252.251 347.215 251.83 346.491 251.409C345.713 250.956 344.878 250.552 344.152 250.019C344.117 249.993 344.136 249.92 344.185 249.941C344.984 250.273 345.727 250.767 346.472 251.205C347.209 251.637 347.937 252.081 348.663 252.53C348.667 251.488 348.67 250.445 348.677 249.402C347.509 248.933 346.337 248.309 345.263 247.667C345.225 247.645 345.25 247.576 345.293 247.594C346.432 248.065 347.616 248.619 348.677 249.262C348.681 248.72 348.683 248.178 348.688 247.636C348.718 244.844 348.723 242.049 348.795 239.257C348.084 238.899 347.353 238.583 346.643 238.223C346.596 238.2 346.629 238.118 346.679 238.137C347.399 238.418 348.093 238.753 348.8 239.063C348.839 237.622 348.894 236.183 348.981 234.745C348.984 234.697 349.053 234.697 349.055 234.745C349.155 237.418 349.147 240.096 349.114 242.772C349.85 242.185 350.634 241.665 351.383 241.095C351.412 241.073 351.44 241.122 351.412 241.144C350.629 241.74 349.897 242.4 349.111 242.993C349.11 243.145 349.107 243.296 349.106 243.447C349.903 243.082 350.713 242.743 351.519 242.397C351.583 242.37 351.639 242.461 351.575 242.492C350.753 242.885 349.935 243.287 349.103 243.659C349.083 244.985 349.061 246.31 349.044 247.636C349.014 249.95 348.963 252.265 348.914 254.579C350.42 253.817 351.939 253.075 353.466 252.356C353.524 252.329 353.575 252.41 353.517 252.443C352.027 253.296 350.483 254.07 348.911 254.757C348.87 256.68 348.83 258.603 348.805 260.526C348.803 260.643 348.623 260.643 348.623 260.526C348.65 258.073 348.654 255.621 348.661 253.168C347.867 252.972 344.866 251.687 344.153 251.335C344.08 251.299 344.132 251.172 344.211 251.201Z" fill="#346E56"/>
<path d="M209.533 256.745C209.814 257.026 213.087 257.151 214.278 257.151C215.468 257.151 218.741 257.026 219.022 256.745C219.303 256.465 215.339 234.708 214.278 234.708C213.216 234.708 209.252 256.465 209.533 256.745Z" fill="#57B890"/>
<path d="M209.468 251.201C210.277 251.51 213.273 252.73 213.919 253.085C213.919 252.949 213.92 252.812 213.921 252.676C213.198 252.251 212.473 251.83 211.748 251.408C210.97 250.956 210.135 250.552 209.41 250.019C209.374 249.992 209.393 249.92 209.442 249.94C210.241 250.273 210.984 250.767 211.729 251.204C212.465 251.636 213.194 252.081 213.92 252.53C213.923 251.488 213.926 250.444 213.934 249.402C212.766 248.933 211.593 248.308 210.519 247.667C210.481 247.644 210.506 247.576 210.549 247.594C211.689 248.064 212.873 248.619 213.934 249.262C213.938 248.72 213.939 248.178 213.945 247.636C213.974 244.844 213.98 242.049 214.051 239.257C213.341 238.899 212.609 238.583 211.899 238.223C211.853 238.2 211.885 238.118 211.935 238.137C212.656 238.418 213.349 238.752 214.057 239.063C214.095 237.622 214.15 236.183 214.238 234.744C214.241 234.697 214.31 234.696 214.313 234.744C214.413 237.418 214.405 240.096 214.371 242.772C215.107 242.184 215.891 241.664 216.641 241.095C216.67 241.073 216.698 241.122 216.669 241.144C215.886 241.74 215.154 242.4 214.368 242.993C214.366 243.144 214.364 243.296 214.362 243.447C215.16 243.082 215.969 242.743 216.776 242.397C216.839 242.37 216.895 242.46 216.831 242.492C216.009 242.885 215.191 243.287 214.359 243.659C214.34 244.984 214.317 246.31 214.301 247.636C214.27 249.95 214.22 252.264 214.17 254.579C215.677 253.817 217.195 253.075 218.722 252.356C218.781 252.328 218.831 252.41 218.773 252.443C217.284 253.296 215.74 254.07 214.167 254.756C214.126 256.68 214.086 258.603 214.062 260.526C214.06 260.643 213.879 260.643 213.88 260.526C213.906 258.073 213.91 255.62 213.917 253.168C213.123 252.972 210.122 251.687 209.41 251.335C209.338 251.299 209.39 251.172 209.468 251.201Z" fill="#346E56"/>
<path d="M314.311 256.745C314.592 257.026 317.865 257.151 319.056 257.151C320.246 257.151 323.519 257.026 323.801 256.745C324.081 256.465 320.117 234.708 319.056 234.708C317.994 234.708 314.03 256.465 314.311 256.745Z" fill="#57B890"/>
<path d="M314.245 251.201C315.054 251.51 318.05 252.73 318.696 253.085C318.697 252.949 318.698 252.812 318.698 252.676C317.975 252.251 317.25 251.83 316.525 251.408C315.747 250.956 314.912 250.552 314.187 250.019C314.151 249.992 314.171 249.92 314.219 249.94C315.019 250.273 315.761 250.767 316.507 251.204C317.244 251.636 317.972 252.081 318.698 252.53C318.701 251.488 318.704 250.444 318.711 249.402C317.543 248.933 316.371 248.308 315.297 247.667C315.259 247.644 315.284 247.576 315.328 247.594C316.467 248.064 317.651 248.619 318.712 249.262C318.716 248.72 318.718 248.178 318.724 247.636C318.754 244.844 318.759 242.049 318.831 239.257C318.12 238.899 317.388 238.583 316.679 238.223C316.632 238.2 316.665 238.118 316.715 238.137C317.435 238.418 318.129 238.752 318.836 239.063C318.875 237.622 318.93 236.183 319.017 234.744C319.02 234.697 319.089 234.696 319.091 234.744C319.191 237.418 319.183 240.096 319.149 242.772C319.885 242.184 320.669 241.664 321.419 241.095C321.447 241.073 321.476 241.122 321.447 241.144C320.664 241.74 319.932 242.4 319.147 242.993C319.145 243.144 319.143 243.296 319.141 243.447C319.939 243.082 320.748 242.743 321.555 242.397C321.618 242.37 321.674 242.46 321.61 242.492C320.788 242.885 319.97 243.287 319.138 243.659C319.119 244.984 319.096 246.31 319.079 247.636C319.049 249.95 318.999 252.264 318.949 254.579C320.455 253.817 321.974 253.075 323.501 252.356C323.559 252.328 323.61 252.41 323.552 252.443C322.063 253.296 320.519 254.07 318.946 254.756C318.905 256.68 318.865 258.603 318.84 260.526C318.839 260.643 318.658 260.643 318.659 260.526C318.685 258.073 318.689 255.62 318.696 253.168C317.902 252.972 314.901 251.687 314.188 251.335C314.115 251.299 314.167 251.172 314.245 251.201Z" fill="#346E56"/>
<path d="M272.272 322.378C275.662 331.652 389.926 338.548 389.926 349.917C389.926 359.185 319.768 366.538 310.773 375.909C301.779 385.278 294.745 399.526 294.745 399.526H400V255C400 255 337.727 261.789 325.821 272.348C313.916 282.906 347.636 283.166 347.636 291.236C347.636 297.753 325.633 297.895 314.106 301.069C293.957 306.618 269.524 314.858 272.272 322.378Z" fill="#57B890"/>
<path d="M398.584 272.744C397.16 274.872 393.264 278.336 388.208 280.992C383.152 283.656 372.776 291.632 370.384 293.768C367.984 295.896 349.896 301.216 345.944 301.072C341.992 300.928 319.136 299.952 314.104 301.072C325.632 297.896 347.632 297.752 347.632 291.24C347.632 285.072 327.952 283.464 323.976 278.344C324.264 278.416 329 279.712 333.472 281.264C338.088 282.856 363.464 285.784 366.92 284.264C370.384 282.744 378.632 277.536 383.152 274.872C387.672 272.216 400 270.616 398.584 272.744Z" fill="#346E56"/>
<path d="M170.998 400C170.998 400 169.986 388.205 140.686 369.985C111.386 351.764 96.4608 344.777 97.4552 332.07C98.8144 314.693 176.157 307.186 225.931 299.997C259.495 295.149 281.326 292.351 281.326 284.331C281.326 275.818 243.525 271.988 243.525 266.135C243.525 259.41 331.365 260.614 331.365 260.614C331.365 260.614 242.473 256.167 223.382 256.167C204.292 256.167 167.521 236.834 150.129 234.705C132.737 232.577 123.158 238.997 104.114 238.429C85.0688 237.861 74.1016 219.847 49.256 213.442C24.408 207.038 0 232.577 0 232.577V400H170.998Z" fill="#57B890"/>
<path d="M115.505 354.408C101.689 348.568 64.0646 343.312 54.1446 335.296C44.2246 327.288 34.8486 311.192 33.0566 307.664C31.2566 304.136 55.9286 296.248 60.0086 292.52C64.0886 288.8 90.8726 303.576 98.4966 306.208C106.121 308.84 148.337 309.016 152.593 308.84C156.745 308.672 165.241 308.44 165.665 308.424C129.953 313.952 98.3206 321.016 97.4566 332.072C96.8086 340.384 102.969 346.24 115.505 354.408Z" fill="#346E56"/>
<path d="M177.065 291.104C176.566 292.745 156.314 289.685 152.945 286.67C149.575 283.655 144.964 279.221 144.254 277.448C143.545 275.674 153.654 279.221 156.314 280.995C158.974 282.769 167.665 284.542 170.502 285.961C173.34 287.379 177.336 290.209 177.065 291.104Z" fill="#346E56"/>
<path d="M0 400C0 400 23.1784 379.48 33.8672 371.62C40.7376 366.567 83.3008 365.952 88.976 364.626C94.6512 363.301 114.021 351.182 127.392 344.007C140.763 336.833 190.866 341.442 200 341.303C209.134 341.164 221.216 330.775 236.027 327.213C265.33 320.166 306.391 327.374 314.671 330.624C338.103 339.822 342.334 365.149 373.042 372.575C381.513 374.623 395.766 391.611 400 400H0Z" fill="#346E56"/>
<path opacity="0.5" d="M172.788 400C167.252 400 55.9277 400 55.9277 400C55.9277 400 99.8477 384.138 107.816 376.513C115.792 368.888 106.56 365.69 109.576 360.233C112.592 354.776 130.12 344.416 140.776 340.806L140.784 340.8C160.888 338.632 192.88 341.407 200 341.302C200.864 341.289 201.76 341.184 202.68 341.002C191.016 346.14 165.317 356.956 168.205 360.076C170.231 362.264 183.042 369.059 198.876 368.235C207.745 367.773 205.84 376.734 206.345 380.667C207.456 389.323 172.788 400 172.788 400Z" fill="#418A6C"/>
<path opacity="0.5" d="M350.432 381.472C348.84 379.088 337.384 380.272 317.6 382.888C297.816 385.488 279.016 382.944 283.12 380.176C286.016 378.224 311.744 377.584 317.6 375.544C323.448 373.488 336.864 372.944 342.184 369.984C347.504 367.024 340.728 353.896 335.144 345.768C344.88 356.136 353.72 367.904 373.04 372.576C381.512 374.624 395.768 391.608 400 400H242.256C242.256 400 286.312 396.24 296.816 395.368C307.32 394.504 352.024 383.864 350.432 381.472Z" fill="#418A6C"/>
<path d="M192.627 90.7118C192.055 90.4126 191.459 90.1694 190.849 89.9502C190.232 89.747 189.619 89.5454 188.911 89.503C188.729 89.4982 188.543 89.4942 188.308 89.5694C188.253 89.5846 188.185 89.6214 188.123 89.6566C188.075 89.6878 188.045 89.7134 188.005 89.7422C187.926 89.7982 187.865 89.8558 187.797 89.9126C187.537 90.143 187.313 90.383 187.091 90.6262C186.655 91.1166 186.267 91.6278 185.877 92.1534L186.359 91.9846C185.703 91.8014 185.055 91.6598 184.379 91.567C184.041 91.5262 183.702 91.4926 183.346 91.4942C183.167 91.4966 182.987 91.5022 182.795 91.5334C182.705 91.5414 182.598 91.5798 182.5 91.6054C182.401 91.6374 182.299 91.6974 182.204 91.7454C181.866 91.9686 181.643 92.2286 181.423 92.495C181.208 92.763 181.019 93.0406 180.839 93.3222C180.489 93.8926 180.172 94.475 179.917 95.0886C180.342 94.5798 180.752 94.067 181.19 93.5862C181.404 93.3438 181.623 93.1054 181.855 92.8918C182.081 92.6806 182.32 92.4622 182.551 92.3502C182.733 92.2622 183.027 92.2606 183.327 92.2742C183.627 92.2918 183.94 92.3422 184.251 92.4006C184.872 92.5126 185.507 92.6662 186.115 92.8326L186.422 92.9158L186.597 92.6638C186.953 92.1534 187.339 91.6486 187.725 91.1638C187.918 90.9214 188.116 90.6822 188.322 90.4758C188.373 90.4278 188.425 90.3718 188.475 90.3326L188.546 90.2726C188.554 90.2694 188.552 90.2606 188.575 90.2534C188.641 90.2182 188.779 90.1934 188.915 90.1854C189.485 90.1638 190.126 90.2606 190.744 90.3638C191.368 90.4646 191.994 90.595 192.627 90.7118Z" fill="#418A6C"/>
<path d="M185.635 109.604C184.882 108.997 184.076 108.466 183.245 107.965C182.398 107.486 181.556 107.012 180.527 106.743C180.262 106.683 179.99 106.623 179.623 106.665C179.538 106.671 179.426 106.705 179.326 106.74C179.245 106.772 179.194 106.8 179.126 106.831C178.994 106.89 178.888 106.957 178.77 107.021C178.322 107.285 177.922 107.57 177.526 107.864C176.74 108.457 176.021 109.095 175.296 109.753L176.053 109.646C175.142 109.186 174.233 108.789 173.267 108.456C172.782 108.297 172.293 108.148 171.77 108.047C171.507 107.998 171.241 107.955 170.95 107.944C170.814 107.929 170.646 107.953 170.494 107.964C170.338 107.982 170.173 108.04 170.018 108.084C169.457 108.313 169.053 108.63 168.651 108.957C168.258 109.288 167.899 109.641 167.551 110.001C166.871 110.737 166.235 111.5 165.682 112.328C166.454 111.704 167.207 111.071 167.99 110.492C168.376 110.198 168.767 109.912 169.17 109.665C169.564 109.421 169.979 109.169 170.351 109.073C170.644 108.997 171.075 109.079 171.512 109.187C171.949 109.3 172.394 109.465 172.833 109.642C173.713 109.988 174.6 110.4 175.447 110.821L175.873 111.033L176.204 110.713C176.876 110.067 177.59 109.438 178.299 108.838C178.653 108.538 179.015 108.245 179.377 108.001C179.466 107.945 179.558 107.878 179.642 107.836L179.764 107.768C179.777 107.766 179.777 107.753 179.811 107.748C179.918 107.716 180.128 107.719 180.331 107.747C181.175 107.882 182.089 108.211 182.967 108.543C183.858 108.873 184.738 109.247 185.635 109.604Z" fill="#418A6C"/>
<path d="M72.7091 65.8917C72.1931 65.5029 71.6443 65.1661 71.0795 64.8501C70.5035 64.5485 69.9323 64.2501 69.2403 64.0925C69.0619 64.0581 68.8795 64.0237 68.6355 64.0597C68.5779 64.0653 68.5051 64.0909 68.4387 64.1157C68.3859 64.1389 68.3523 64.1589 68.3075 64.1805C68.2203 64.2229 68.1507 64.2693 68.0739 64.3149C67.7803 64.4997 67.5195 64.6997 67.2619 64.9037C66.7507 65.3165 66.2843 65.7573 65.8139 66.2117L66.3163 66.1237C65.6987 65.8365 65.0835 65.5901 64.4323 65.3885C64.1059 65.2933 63.7755 65.2045 63.4243 65.1477C63.2483 65.1205 63.0691 65.0973 62.8747 65.0965C62.7835 65.0893 62.6715 65.1093 62.5715 65.1197C62.4683 65.1357 62.3587 65.1773 62.2563 65.2101C61.8867 65.3749 61.6235 65.5949 61.3627 65.8213C61.1067 66.0509 60.8755 66.2941 60.6507 66.5413C60.2131 67.0469 59.8051 67.5693 59.4531 68.1333C59.9555 67.7005 60.4443 67.2621 60.9539 66.8589C61.2051 66.6549 61.4595 66.4549 61.7235 66.2821C61.9811 66.1109 62.2531 65.9341 62.4987 65.8613C62.6923 65.8045 62.9819 65.8501 63.2755 65.9125C63.5699 65.9789 63.8699 66.0797 64.1667 66.1877C64.7611 66.3989 65.3619 66.6549 65.9363 66.9181L66.2243 67.0501L66.4387 66.8301C66.8731 66.3845 67.3363 65.9501 67.7963 65.5349C68.0259 65.3277 68.2611 65.1237 68.4979 64.9533C68.5563 64.9141 68.6163 64.8677 68.6715 64.8373L68.7515 64.7893C68.7603 64.7877 68.7603 64.7789 68.7827 64.7749C68.8539 64.7509 68.9939 64.7485 69.1291 64.7637C69.6955 64.8357 70.3115 65.0357 70.9043 65.2389C71.5075 65.4413 72.1035 65.6717 72.7091 65.8917Z" fill="#418A6C"/>
<path d="M88.5505 63.3263C88.0105 62.5231 87.3993 61.7768 86.7537 61.0528C86.0873 60.344 85.4241 59.6408 84.5217 59.0784C84.2865 58.9424 84.0441 58.8039 83.6817 58.7359C83.5977 58.7159 83.4825 58.716 83.3753 58.7184C83.2889 58.7248 83.2313 58.7368 83.1577 58.7464C83.0137 58.7632 82.8921 58.796 82.7617 58.8224C82.2553 58.94 81.7881 59.0944 81.3233 59.2576C80.3969 59.5912 79.5209 59.9864 78.6329 60.4L79.3873 60.5216C78.6545 59.812 77.9041 59.1624 77.0801 58.5576C76.6641 58.2624 76.2409 57.9744 75.7713 57.7232C75.5345 57.5984 75.2929 57.4775 75.0185 57.3815C74.8929 57.3271 74.7249 57.3008 74.5777 57.2648C74.4233 57.2368 74.2481 57.2423 74.0873 57.2375C73.4825 57.2895 73.0025 57.4728 72.5225 57.6656C72.0481 57.8648 71.6017 58.0959 71.1625 58.3359C70.2953 58.8367 69.4609 59.3767 68.6865 60.0031C69.6097 59.6367 70.5169 59.256 71.4361 58.9352C71.8921 58.7688 72.3505 58.612 72.8073 58.496C73.2569 58.38 73.7281 58.2631 74.1113 58.2807C74.4137 58.2951 74.8009 58.5024 75.1857 58.7344C75.5697 58.972 75.9449 59.2623 76.3121 59.5607C77.0505 60.1519 77.7753 60.8088 78.4593 61.4624L78.8025 61.7904L79.2137 61.584C80.0473 61.1664 80.9161 60.7783 81.7713 60.4159C82.1977 60.2343 82.6305 60.0615 83.0489 59.9367C83.1505 59.9095 83.2593 59.8736 83.3521 59.8576L83.4881 59.8288C83.5009 59.8312 83.5049 59.8184 83.5393 59.824C83.6513 59.8248 83.8505 59.8904 84.0353 59.9776C84.8017 60.3568 85.5761 60.9424 86.3161 61.5208C87.0697 62.1008 87.7993 62.7183 88.5505 63.3263Z" fill="#418A6C"/>
<path d="M208.239 104.966C207.7 104.163 207.088 103.417 206.443 102.693C205.776 101.984 205.113 101.281 204.211 100.718C203.975 100.582 203.733 100.444 203.371 100.376C203.287 100.356 203.171 100.356 203.065 100.358C202.979 100.365 202.921 100.377 202.847 100.386C202.703 100.403 202.582 100.436 202.451 100.462C201.945 100.58 201.478 100.735 201.013 100.898C200.087 101.231 199.211 101.626 198.323 102.04L199.077 102.162C198.344 101.452 197.594 100.802 196.77 100.198C196.354 99.9024 195.931 99.6144 195.461 99.3632C195.224 99.2384 194.983 99.1184 194.708 99.0216C194.583 98.9672 194.415 98.9408 194.268 98.9056C194.114 98.8776 193.939 98.8832 193.778 98.8784C193.173 98.9304 192.694 99.1136 192.213 99.3064C191.739 99.5056 191.292 99.7368 190.853 99.9768C189.986 100.478 189.151 101.018 188.377 101.644C189.3 101.278 190.207 100.897 191.127 100.576C191.582 100.41 192.041 100.253 192.498 100.137C192.947 100.021 193.419 99.904 193.802 99.9216C194.104 99.936 194.491 100.143 194.877 100.375C195.261 100.613 195.636 100.903 196.003 101.202C196.742 101.793 197.467 102.45 198.151 103.103L198.494 103.431L198.905 103.225C199.739 102.807 200.607 102.418 201.463 102.056C201.889 101.874 202.322 101.702 202.74 101.577C202.842 101.55 202.951 101.514 203.043 101.498L203.179 101.469C203.192 101.471 203.196 101.458 203.231 101.464C203.343 101.465 203.542 101.53 203.727 101.618C204.493 101.997 205.267 102.582 206.007 103.161C206.759 103.741 207.488 104.359 208.239 104.966Z" fill="#418A6C"/>
<path d="M313.127 289.511C313.127 289.511 314.038 325.482 314.038 325.506C314.017 332.154 313.88 337.983 313.527 340.991C313.528 341.007 313.528 341.023 313.521 341.04C313.389 342.175 313.227 342.899 313.024 343.092C313.008 343.109 313.001 343.126 312.985 343.134C311.002 344.468 257.863 345.847 255.994 345.271C254.118 344.703 255.619 339.322 257.638 337.623C259.674 335.924 279.774 326.297 279.774 326.297L279.194 290.344L313.127 289.511Z" fill="#F7A9A0"/>
<path d="M314.099 318.368C314.099 318.368 314.038 325.482 314.039 325.506C314.018 332.155 313.881 337.983 313.528 340.991C313.529 341.007 313.529 341.023 313.522 341.04C313.325 342.161 313.147 342.903 313.025 343.092C313.009 343.109 313.002 343.126 312.986 343.134C311.003 344.468 257.864 345.847 255.995 345.271C254.119 344.703 255.62 339.323 257.639 337.623C259.675 335.924 279.775 326.297 279.775 326.297L279.737 319.053L314.099 318.368Z" fill="white"/>
<path d="M276.519 326.317C280.058 325.735 284.357 326.367 286.997 328.936C287.1 329.036 286.956 329.179 286.843 329.142C283.388 327.971 280.156 327.199 276.523 326.763C276.268 326.732 276.265 326.359 276.519 326.317Z" fill="#418A6C"/>
<path d="M273.942 327.797C277.481 327.214 281.781 327.848 284.421 330.417C284.523 330.516 284.38 330.66 284.267 330.621C280.813 329.451 277.58 328.678 273.947 328.243C273.69 328.212 273.688 327.839 273.942 327.797Z" fill="#418A6C"/>
<path d="M271.364 329.276C274.903 328.693 279.203 329.326 281.843 331.895C281.945 331.994 281.802 332.138 281.688 332.1C278.234 330.929 275.001 330.156 271.368 329.721C271.113 329.691 271.111 329.318 271.364 329.276Z" fill="#418A6C"/>
<path d="M255.994 345.273C257.866 345.85 311 344.471 312.987 343.133C313.752 342.638 314.002 334.883 314.035 325.506C314.034 325.408 314.034 325.31 314.034 325.212L279.744 325.719L279.772 326.3C279.772 326.3 259.67 335.925 257.638 337.627C255.623 339.322 254.121 344.704 255.994 345.273Z" fill="#418A6C"/>
<path d="M314.04 325.207V325.51C313.999 334.883 313.757 342.638 312.988 343.134C312.088 343.741 300.571 344.358 288.125 344.802C273.231 345.328 257.013 345.591 255.991 345.278C254.121 344.702 255.627 339.322 257.639 337.623C259.671 335.925 279.773 326.298 279.773 326.298L279.742 325.722L291.178 325.55L314.04 325.207Z" fill="#1C0B54"/>
<path d="M256.541 343.198C265.493 342.745 301.638 341.766 310.521 341.999C310.593 342.001 310.594 342.05 310.521 342.055C301.66 342.697 265.507 343.383 256.545 343.344C256.356 343.343 256.353 343.207 256.541 343.198Z" fill="#418A6C"/>
<path opacity="0.1" d="M291.178 325.552C290.339 331.295 289.065 339.758 288.125 344.803C273.231 345.328 257.013 345.592 255.991 345.278C254.121 344.702 255.627 339.323 257.639 337.624C259.671 335.925 279.773 326.299 279.773 326.299L279.742 325.723L291.178 325.552Z" fill="#1C0B54"/>
<path d="M317.128 311.459L278.676 311.823C278.676 311.823 276.496 263.461 276.329 242.583C276.104 214.285 276.224 214.286 277.491 147.2H306.239C306.239 147.2 310.022 157.063 310.897 166.067C311.303 170.241 309.998 174.464 309.545 176.255L308.326 244.527L317.128 311.459Z" fill="#FFC727"/>
<path opacity="0.6" d="M317.128 311.459L278.676 311.823C278.676 311.823 276.496 263.461 276.329 242.583C276.104 214.285 276.224 214.286 277.491 147.2H306.239C306.239 147.2 310.022 157.063 310.897 166.067C311.303 170.241 309.998 174.464 309.545 176.255L308.326 244.527L317.128 311.459Z" fill="#1C0B54"/>
<path d="M314.276 304.725C313.284 304.543 312.221 304.552 311.215 304.481C310.079 304.4 308.946 304.315 307.808 304.267C305.62 304.175 303.432 304.137 301.243 304.128C296.828 304.111 292.412 304.146 287.999 304.283C285.488 304.362 282.978 304.462 280.47 304.605C280.372 304.611 280.376 304.759 280.474 304.763C284.851 304.923 289.23 304.991 293.609 305.075C297.98 305.159 302.366 305.246 306.736 305.161C307.991 305.137 309.246 305.126 310.5 305.054C311.738 304.983 313.036 305.052 314.261 304.872C314.335 304.862 314.364 304.741 314.276 304.725Z" fill="#418A6C"/>
<path d="M280.382 253.343C279.814 232.626 279.672 207.449 279.934 186.726C280.08 175.099 280.392 167.927 280.738 156.304C280.742 156.171 280.54 156.179 280.532 156.31C279.666 172.677 279.018 193.511 278.988 218.795C278.964 239.52 281.772 289.862 282.642 301.463C282.679 301.957 282.96 301.631 282.955 301.527C282.488 291.072 280.666 263.699 280.382 253.343Z" fill="#418A6C"/>
<path d="M272.135 294.946C272.135 294.946 271.841 329.711 271.842 329.735C271.82 336.384 271.684 342.213 271.331 345.222C271.332 345.238 271.332 345.254 271.324 345.271C271.192 346.406 271.031 347.13 270.828 347.323C270.812 347.339 270.804 347.355 270.788 347.364C268.805 348.699 215.667 350.078 213.798 349.502C211.921 348.935 213.423 343.553 215.442 341.854C217.477 340.155 237.578 330.527 237.578 330.527L238.201 295.779L272.135 294.946Z" fill="#F7A9A0"/>
<path d="M271.902 322.598C271.902 322.598 271.841 329.711 271.842 329.735C271.82 336.384 271.684 342.213 271.331 345.222C271.332 345.238 271.332 345.254 271.324 345.27C271.128 346.391 270.95 347.133 270.828 347.322C270.812 347.338 270.804 347.355 270.788 347.364C268.805 348.698 215.667 350.078 213.798 349.502C211.921 348.934 213.423 343.553 215.442 341.854C217.477 340.154 237.578 330.527 237.578 330.527L237.54 323.282L271.902 322.598Z" fill="white"/>
<path d="M234.18 330.828C237.719 330.246 242.018 330.879 244.658 333.447C244.761 333.547 244.618 333.691 244.504 333.652C241.05 332.482 237.817 331.709 234.184 331.274C233.929 331.243 233.926 330.87 234.18 330.828Z" fill="#418A6C"/>
<path d="M231.603 332.308C235.142 331.724 239.441 332.358 242.081 334.927C242.184 335.026 242.04 335.17 241.928 335.132C238.473 333.961 235.24 333.188 231.608 332.753C231.352 332.723 231.349 332.349 231.603 332.308Z" fill="#418A6C"/>
<path d="M229.026 333.786C232.564 333.204 236.864 333.837 239.504 336.406C239.607 336.505 239.464 336.649 239.35 336.61C235.896 335.44 232.663 334.667 229.03 334.232C228.774 334.201 228.772 333.828 229.026 333.786Z" fill="#418A6C"/>
<path d="M213.655 349.784C215.527 350.362 268.662 348.983 270.649 347.644C271.414 347.149 271.664 339.395 271.697 330.017C271.696 329.92 271.696 329.821 271.695 329.724L237.406 330.231L237.434 330.812C237.434 330.812 217.332 340.437 215.299 342.14C213.284 343.833 211.782 349.215 213.655 349.784Z" fill="#1C0B54"/>
<path d="M214.202 347.709C223.153 347.257 259.299 346.277 268.181 346.509C268.253 346.512 268.255 346.561 268.183 346.565C259.321 347.208 223.169 347.894 214.206 347.855C214.017 347.854 214.013 347.718 214.202 347.709Z" fill="#418A6C"/>
<path d="M289.702 179.269C289.694 179.293 273.929 233.439 273.643 242.578C273.4 250.367 274.397 314.285 274.397 314.285L234.464 314.522C234.464 314.522 237.837 249.023 238.461 240.903C239.728 224.409 247.068 194.537 255.278 165.194C256.828 159.657 262.437 146.918 262.437 146.918H305.489C305.489 146.918 305.114 161.911 296.271 175.973C296.271 175.973 292.267 177.826 289.702 179.269Z" fill="#FFC727"/>
<path opacity="0.6" d="M289.702 179.269C289.694 179.293 273.929 233.439 273.643 242.578C273.4 250.367 274.397 314.285 274.397 314.285L234.464 314.522C234.464 314.522 237.837 249.023 238.461 240.903C239.728 224.409 247.068 194.537 255.278 165.194C256.828 159.657 262.437 146.918 262.437 146.918H305.489C305.489 146.918 305.114 161.911 296.271 175.973C296.271 175.973 292.267 177.826 289.702 179.269Z" fill="#1C0B54"/>
<path d="M272.275 306.923C267.662 306.79 262.878 306.654 258.264 306.769C253.689 306.882 249.1 306.953 244.53 307.225C241.938 307.379 239.351 307.466 236.765 307.722C236.679 307.73 236.682 307.855 236.768 307.861C241.378 308.129 246.006 308.076 250.622 308.034C255.204 307.992 259.782 307.942 264.359 307.733C266.951 307.614 269.538 307.483 272.126 307.304C272.406 307.284 272.554 306.931 272.275 306.923Z" fill="#418A6C"/>
<path d="M252.248 215.331C252.185 215.642 252.114 215.954 252.043 216.265C250.734 222.444 249.621 227.857 249.096 230.857C247.396 240.569 246.64 250.335 246.55 260.19C246.47 270.089 246.604 279.998 246.63 289.907C246.665 299.806 246.808 293.7 246.541 303.599C246.541 303.715 246.363 303.724 246.354 303.608C246.309 302.37 246.283 301.133 246.265 299.896C246.088 289.943 246.007 296.014 245.936 286.061C245.873 276.162 245.668 266.245 245.882 256.345C246.087 246.605 247.208 236.981 249.069 227.429C249.559 224.892 250.449 220.69 251.526 215.803C251.588 215.482 251.668 215.153 251.74 214.824L251.793 214.877C251.936 215.002 252.087 215.162 252.248 215.331Z" fill="#418A6C"/>
<path d="M263.829 165.967C262.6 171.38 261.113 176.739 259.716 182.116C259.333 183.594 258.487 187.244 257.41 191.953C257.375 192.132 257.33 192.309 257.294 192.488C257.116 192.452 256.947 192.425 256.769 192.399C256.813 192.221 256.857 192.043 256.893 191.865C258.185 186.247 259.235 181.814 259.645 180.256C260.917 175.466 262.12 170.641 263.544 165.896C263.597 165.709 263.873 165.78 263.829 165.967Z" fill="#418A6C"/>
<path d="M279.827 180.228C281.816 180.193 283.799 180.057 285.757 179.69C287.735 179.32 289.581 178.663 291.503 178.097C293.326 177.56 295.266 177.477 297.136 177.176C299.033 176.871 300.927 176.374 302.658 175.531C302.739 175.491 302.808 175.614 302.727 175.656C301.009 176.536 299.279 177.368 297.435 177.95C295.541 178.548 293.562 178.63 291.64 179.1C289.663 179.583 287.76 180.226 285.727 180.461C283.757 180.689 281.766 180.682 279.806 180.361C279.728 180.347 279.755 180.23 279.827 180.228Z" fill="#418A6C"/>
<path d="M277.309 224.231C277.686 222.758 284.433 194.75 286.32 188.934C287.389 185.637 288.348 182.295 289.603 179.061C289.634 178.981 289.748 179.017 289.73 179.1C289.1 182.115 288.207 185.066 287.407 188.041C286.608 191.012 278.609 222.223 278.045 223.842C277.469 225.497 277.016 227.205 276.325 228.816C276.287 228.904 276.167 228.866 276.183 228.773C276.448 227.237 276.921 225.74 277.309 224.231Z" fill="#418A6C"/>
<path d="M267.067 209.781C267.649 206.661 267.463 207.644 268.035 204.521C268.596 201.459 269.263 198.401 269.72 195.322C269.773 194.968 269.815 194.675 269.443 194.439C268.868 194.076 267.808 194.007 267.156 193.857C265.252 193.422 263.339 193.025 261.419 192.668C257.451 191.929 252.974 191.158 248.959 190.798C248.582 190.765 248.496 191.271 248.88 191.314C255.092 192.009 261.742 193.141 267.834 194.572C268.17 194.651 268.945 194.741 269.128 195.052C269.17 195.123 269.003 195.712 269 195.733C268.871 196.413 268.741 197.094 268.612 197.775C268.354 199.137 268.096 200.497 267.838 201.859C267.322 204.581 267.557 203.197 267.04 205.92C266.803 207.168 266.567 208.416 266.334 209.664C266.207 210.345 266.08 211.026 265.953 211.707C265.89 212.045 265.849 212.397 265.76 212.728C265.578 213.41 265.385 213.686 264.63 213.935C263.377 214.349 261.98 214.558 260.683 214.861C259.216 215.205 257.751 215.548 256.284 215.89C255.581 216.055 254.675 216.424 253.935 216.397C253.107 216.366 252.337 215.372 251.792 214.879L246.794 210.348C246.368 209.962 245.768 209.216 245.519 208.717C245.188 208.059 247.923 193.857 248.981 190.977C249.029 190.846 248.663 190.734 248.616 190.866C247.639 193.585 244.447 207.013 244.439 208.413C244.432 209.603 245.438 210.33 246.329 211.132C247.583 212.26 248.836 213.389 250.091 214.517C250.74 215.101 251.383 215.693 252.043 216.269C252.503 216.669 252.957 217.09 253.623 217.153C254.192 217.206 254.787 216.993 255.315 216.866C256.167 216.66 257.021 216.458 257.875 216.253L262.812 215.072C263.903 214.811 265.639 214.702 266.227 213.717C266.499 213.258 266.531 212.672 266.625 212.164C266.77 211.37 266.919 210.576 267.067 209.781Z" fill="#418A6C"/>
<path d="M268.794 196.113C265.266 197.364 261.725 198.581 258.104 199.632C257.638 199.767 257.171 199.911 256.699 200.031C255.778 200.265 255.409 200.075 254.766 199.462C254.134 198.86 253.528 198.234 252.9 197.628C251.46 196.24 249.999 194.869 248.549 193.488C248.442 193.386 248.248 193.498 248.352 193.612C249.845 195.255 251.335 196.896 252.875 198.504C253.926 199.602 254.89 201.149 256.678 200.692C258.712 200.173 260.697 199.415 262.648 198.714C264.749 197.96 266.826 197.129 268.845 196.226C268.92 196.193 268.875 196.084 268.794 196.113Z" fill="#418A6C"/>
<path d="M256.999 198.273C256.972 198.01 256.882 197.72 256.62 197.558C256.313 197.369 255.93 197.429 255.621 197.553C255.48 197.611 255.574 197.817 255.716 197.759C255.843 197.708 255.975 197.662 256.118 197.687C256.18 197.698 256.241 197.719 256.292 197.756C256.32 197.776 256.361 197.823 256.368 197.834C256.401 197.885 256.428 197.944 256.452 197.997C256.464 198.026 256.476 198.055 256.485 198.085C256.476 198.057 256.492 198.116 256.494 198.121C256.523 198.245 256.543 198.385 256.536 198.511C256.523 198.729 256.368 198.933 256.13 199.006C255.99 199.049 255.854 199.015 255.76 198.906C255.656 198.789 255.631 198.64 255.613 198.498C255.608 198.462 255.541 198.457 255.54 198.495C255.529 198.737 255.567 199.012 255.827 199.158C256.086 199.304 256.432 199.202 256.64 199.049C256.891 198.863 257.029 198.57 256.999 198.273Z" fill="#418A6C"/>
<path d="M272.832 81.4027L261.076 79.8459L262.513 72.1299L274.041 74.9075L272.832 81.4027Z" fill="#418A6C"/>
<path d="M267.505 81.9897L250.226 79.7017L252.337 68.3601L269.282 72.4425L267.505 81.9897Z" fill="#346E56"/>
<path d="M255.453 80.9603L233.925 78.1099L236.555 63.9795L257.667 69.0659L255.453 80.9603Z" fill="#57B890"/>
<path d="M232.71 70.5737C231.983 74.4761 232.527 77.8497 233.924 78.1097C235.321 78.3697 237.043 75.4177 237.769 71.5153C238.495 67.6129 237.951 64.2393 236.555 63.9793C235.157 63.7193 233.436 66.6713 232.71 70.5737Z" fill="#57B890"/>
<path d="M239.06 64.5832C238.732 64.556 238.484 64.8032 238.302 65.0384C238.108 65.2776 237.965 65.5561 237.827 65.8321C237.553 66.3897 237.341 66.9784 237.153 67.572C236.775 68.7608 236.467 69.9745 236.247 71.2025C236.008 72.4241 235.886 73.6705 235.832 74.9169C235.803 75.5401 235.803 76.1657 235.857 76.7849C235.88 77.0945 235.919 77.404 235.994 77.7041C236.074 77.9913 236.176 78.3273 236.479 78.4473C236.156 78.3705 235.996 78.0217 235.893 77.7361C235.786 77.4345 235.717 77.1225 235.663 76.8089C235.567 76.1801 235.532 75.5457 235.525 74.9121C235.515 73.6441 235.642 72.3809 235.855 71.1289C236.11 69.8889 236.417 68.6577 236.863 67.4705C237.091 66.8793 237.337 66.2929 237.655 65.7393C237.824 65.4689 237.997 65.1985 238.223 64.9681C238.428 64.7409 238.733 64.508 239.06 64.5832Z" fill="#346E56"/>
<path d="M269.058 82.8L257.248 81.7216L258.37 73.9536L270.002 76.2616L269.058 82.8Z" fill="#418A6C"/>
<path d="M263.758 83.6033L246.4 82.0185L248.05 70.6001L265.147 73.9921L263.758 83.6033Z" fill="#346E56"/>
<path d="M251.673 83.0641L230.048 81.0889L232.103 66.8633L253.403 71.0897L251.673 83.0641Z" fill="#57B890"/>
<path d="M228.528 73.608C227.961 77.536 228.641 80.8856 230.047 81.0888C231.454 81.292 233.055 78.272 233.622 74.344C234.189 70.416 233.509 67.0664 232.103 66.8632C230.695 66.66 229.095 69.68 228.528 73.608Z" fill="#57B890"/>
<path d="M234.63 67.3646C234.301 67.351 234.063 67.6078 233.891 67.8502C233.707 68.0966 233.575 68.3814 233.447 68.6622C233.196 69.2302 233.009 69.827 232.845 70.4286C232.516 71.6318 232.256 72.8566 232.087 74.0934C231.898 75.3238 231.827 76.5742 231.823 77.8214C231.819 78.4454 231.845 79.0702 231.924 79.687C231.96 79.9958 232.011 80.303 232.098 80.5998C232.19 80.883 232.306 81.215 232.613 81.323C232.287 81.259 232.113 80.9174 231.999 80.6358C231.879 80.339 231.798 80.0294 231.731 79.719C231.611 79.0942 231.55 78.4622 231.517 77.8294C231.456 76.563 231.531 75.2958 231.693 74.0358C231.897 72.7862 232.155 71.5446 232.552 70.3398C232.755 69.7398 232.978 69.1438 233.272 68.5782C233.431 68.3014 233.592 68.0238 233.809 67.7846C234.005 67.5478 234.301 67.303 234.63 67.3646Z" fill="#346E56"/>
<path d="M232.937 67.0679C236.364 67.6543 239.785 68.2775 243.202 68.9135C246.615 69.5775 250.033 70.2079 253.44 70.9023L253.618 70.9383L253.592 71.1159L253.509 71.6719L253.36 71.4607L259.265 72.6663C261.23 73.0863 263.2 73.4823 265.161 73.9231L265.227 73.9383L265.217 74.0023L265.006 75.2679L264.973 75.2199L266.917 75.6495L264.956 75.3039L264.917 75.2967L264.921 75.2559L265.077 73.9823L265.133 74.0607C263.153 73.7191 261.181 73.3335 259.205 72.9719L253.286 71.8311L253.112 71.7975L253.137 71.6199L253.215 71.0631L253.367 71.2767C249.951 70.6303 246.548 69.9207 243.137 69.2439C239.733 68.5391 236.331 67.8223 232.937 67.0679Z" fill="#418A6C"/>
<path d="M280.273 103.706C282.936 104.032 285.484 99.6783 286.42 96.5431C286.492 96.3007 285.919 94.0247 285.327 91.2143C284.974 89.5079 284.622 87.5983 284.426 85.8335L273.654 89.7519C273.654 89.7519 275.154 93.3311 275.476 96.4103C275.5 96.6679 275.502 96.9103 275.48 97.1431C275.48 97.1767 275.474 97.2183 275.478 97.2647C275.406 98.6655 277.699 103.39 280.273 103.706Z" fill="#F7A9A0"/>
<path d="M275.476 97.1463L275.479 97.2647C275.826 97.2799 276.205 97.2519 276.617 97.1975C282.613 96.3967 283.669 88.9191 283.846 86.0439L273.654 89.7535C273.654 89.7535 275.153 93.3319 275.471 96.4127C275.496 96.6647 275.503 96.9095 275.476 97.1463Z" fill="#418A6C"/>
<path d="M288.8 71.4292C289.982 76.202 287.428 87.8524 283.927 90.698C278.851 94.8236 270.9 94.818 267.488 88.7988C264.179 82.9636 267.596 68.2732 271.473 65.7244C277.184 61.97 287.055 64.3796 288.8 71.4292Z" fill="#F7A9A0"/>
<path d="M268.273 72.4299C268.273 72.4299 267.93 75.2595 269.739 76.1915C269.884 76.2659 275.41 90.2003 285.42 89.4403C285.42 89.4403 293.189 81.1627 291.501 73.3491C290.411 68.2987 287.025 66.7715 287.025 66.7715C287.025 66.7715 280.172 60.2307 271.894 63.0803C263.616 65.9291 265.227 71.9659 268.273 72.4299Z" fill="#418A6C"/>
<path d="M264.762 135.18L262.435 146.919H306.379C306.379 146.919 301.746 112.08 290.122 99.4579C284.307 93.1451 277.48 93.6171 273.13 98.0307C272.029 99.1475 261.762 115.283 260.378 121.915C259.171 127.768 264.762 135.18 264.762 135.18Z" fill="#FFC727"/>
<path d="M307.615 150.188H260.727L261.741 144.722H306.961L307.615 150.188Z" fill="#418A6C"/>
<path d="M279.645 100.088C280.025 99.8967 282.598 100.102 282.469 99.6911C282.39 99.4439 281.848 96.8983 280.462 95.4695C279.545 94.5239 277.92 94.4191 277.033 94.5343C274.805 94.8239 266.051 109.746 264.74 114.845C263.429 119.944 264.178 135.678 265.087 138.146C265.996 140.616 269.536 148.394 270.519 147.885C271.502 147.375 273.096 144.42 273.096 143.837C273.096 143.254 269.549 136.054 268.893 134.496C268.238 132.939 268.164 118.044 268.382 115.57C268.601 113.095 277.415 96.4496 277.67 96.2072C277.925 95.9656 279.499 100.162 279.645 100.088Z" fill="#418A6C"/>
<path d="M234.003 131.623C230.745 127.141 231.868 116.589 234.902 94.8319C235.322 91.8207 256.77 91.5751 256.487 94.8135C256.13 98.8927 253.863 114.643 253.552 115.774C250.926 125.313 236.213 134.663 234.003 131.623Z" fill="#F7A9A0"/>
<path d="M260.288 71.0398C258.363 69.8342 256.574 71.3606 256.574 71.3606C256.574 71.3606 255.829 69.7078 254.207 69.0694C252.35 68.3382 250.39 70.9294 250.39 70.9294C250.39 70.9294 249.289 69.4126 247.509 68.911C245.661 68.3902 243.311 70.723 243.311 70.723C243.311 70.723 241.509 69.8734 239.659 70.5438C236.497 71.6894 235.42 76.7126 234.703 79.8982C233.986 83.0846 234.938 92.7934 234.932 94.6614L255.341 99.4374C255.341 99.4374 262.62 86.0638 262.931 82.1982C263.193 78.9406 262.448 72.3934 260.288 71.0398Z" fill="#F7A9A0"/>
<path d="M256.651 71.4093C257.203 74.9389 256.682 78.4389 256.36 81.9629C256.353 82.0413 256.231 82.0293 256.239 81.9501C256.599 78.4493 256.26 74.9229 256.481 71.4149C256.487 71.3181 256.635 71.3141 256.651 71.4093Z" fill="#418A6C"/>
<path d="M250.472 70.927C250.573 71.7294 250.409 72.5622 250.297 73.3558C250.175 74.2102 250.039 75.0622 249.89 75.9126C249.591 77.6142 249.253 79.3094 248.866 80.9934C248.849 81.0678 248.731 81.0606 248.744 80.9814C249.039 79.2846 249.308 77.5838 249.532 75.8758C249.644 75.0214 249.748 74.1662 249.847 73.3102C249.939 72.5142 249.97 71.6662 250.238 70.9046C250.276 70.7918 250.456 70.8062 250.472 70.927Z" fill="#418A6C"/>
<path d="M243.3 70.7941C243.416 71.4877 243.16 72.2917 243.026 72.9725C242.873 73.7445 242.725 74.5181 242.582 75.2925C242.295 76.8405 242.008 78.3885 241.775 79.9461C241.763 80.0237 241.641 80.0125 241.653 79.9341C241.882 78.3509 242.089 76.7645 242.332 75.1829C242.452 74.4061 242.575 73.6301 242.703 72.8549C242.812 72.1957 242.872 71.3597 243.224 70.7765C243.243 70.7437 243.295 70.7597 243.3 70.7941Z" fill="#418A6C"/>
<path d="M275.08 106.33C263.944 123.938 253.607 131.915 241.249 133.299C229.044 134.666 234.114 124.73 234.77 123.705C237.235 119.854 256.037 104.612 269.353 97.9032C282.571 91.244 277.834 101.977 275.08 106.33Z" fill="#F7A9A0"/>
<path d="M254.949 106.766L250.854 109.878C249.49 110.914 248.115 111.936 246.768 112.993C245.399 114.022 244.056 115.083 242.722 116.155C241.394 117.233 240.061 118.308 238.806 119.478C239.957 118.203 241.227 117.041 242.526 115.919C243.823 114.794 245.173 113.733 246.525 112.677C247.895 111.645 249.269 110.616 250.674 109.632C252.076 108.642 253.5 107.685 254.949 106.766Z" fill="#418A6C"/>
<path d="M317.196 164.48H271.989L272.848 105.495C272.876 103.494 274.508 101.886 276.509 101.886H310.44C313.682 101.886 316.323 104.489 316.37 107.73L317.196 164.48Z" fill="#418A6C"/>
<path d="M317.197 164.48H272.493C271.158 164.48 270.096 163.362 270.165 162.029L272.749 112.303L316.285 112.624L317.197 164.48Z" fill="#346E56"/>
<path d="M282.1 164.48L282.693 112.305C282.693 112.305 282.775 106.319 281.241 103.799C280.337 102.316 274.481 101.939 273.589 104.255C272.696 106.56 272.777 110.565 272.777 110.565L272.85 105.143C272.877 103.338 274.345 101.889 276.149 101.889H310.978C314.029 101.889 316.513 104.344 316.548 107.396L316.779 127.723C316.779 127.723 317.926 129.297 317.968 129.92C318.561 138.755 318.881 155.788 318.983 162.074C319.005 163.399 317.935 164.48 316.609 164.48H282.1Z" fill="#57B890"/>
<path d="M282.511 122.438C282.545 123.222 282.501 124.156 283.141 124.658C283.777 125.121 284.629 125.164 285.416 125.204C287.025 125.221 288.664 125.162 290.285 125.144L300.043 125.074L309.801 125.142L314.679 125.226C315.088 125.222 315.505 125.302 315.836 125.157C316.181 125.025 316.394 124.666 316.505 124.292C316.726 123.526 316.736 122.698 316.777 121.89C316.799 122.701 316.849 123.522 316.658 124.336C316.565 124.73 316.351 125.17 315.929 125.364C315.728 125.47 315.501 125.491 315.289 125.505L314.679 125.522L309.801 125.606L300.043 125.674L290.285 125.605C288.656 125.566 287.041 125.575 285.399 125.498C284.594 125.41 283.717 125.329 283.04 124.781C282.711 124.497 282.549 124.071 282.509 123.665C282.466 123.251 282.498 122.845 282.511 122.438Z" fill="#346E56"/>
<path d="M303.681 124.078H296.862V127.571H303.681V124.078Z" fill="#FFC727"/>
<path d="M276.86 134.549L274.249 134.504L274.197 137.507L276.808 137.551L276.86 134.549Z" fill="#DBDBDB"/>
<path d="M277.646 136.597L273.389 136.524L273.33 139.953L277.587 140.026L277.646 136.597Z" fill="#C7C7C7"/>
<path d="M280.428 144.324C280.374 147.429 280.157 160.016 280.157 160.016L270.037 159.841C270.037 159.841 270.254 147.255 270.308 144.149C270.361 141.044 272.355 138.68 275.46 138.733C278.57 138.787 280.481 141.218 280.428 144.324Z" fill="#FFC727"/>
<path opacity="0.1" d="M280.428 144.324C280.374 147.429 280.157 160.016 280.157 160.016L270.037 159.841C270.037 159.841 270.254 147.255 270.308 144.149C270.361 141.044 272.355 138.68 275.46 138.733C278.57 138.787 280.481 141.218 280.428 144.324Z" fill="#1C0B54"/>
<path d="M274.895 139.896C274.891 140.113 274.712 140.287 274.495 140.283C274.277 140.279 274.103 140.1 274.107 139.882C274.111 139.665 274.291 139.491 274.508 139.495C274.726 139.499 274.899 139.678 274.895 139.896Z" fill="white"/>
<path d="M279.859 143.53C279.855 143.748 279.676 143.921 279.459 143.917C279.241 143.913 279.067 143.734 279.071 143.516C279.075 143.299 279.255 143.125 279.472 143.129C279.69 143.133 279.863 143.312 279.859 143.53Z" fill="white"/>
<path d="M275.374 143.847C275.37 144.065 275.191 144.238 274.973 144.234C274.756 144.23 274.582 144.051 274.586 143.833C274.59 143.616 274.769 143.442 274.987 143.446C275.204 143.45 275.378 143.629 275.374 143.847Z" fill="white"/>
<path d="M275.703 147.623C275.699 147.84 275.52 148.014 275.302 148.01C275.085 148.006 274.911 147.827 274.915 147.609C274.919 147.392 275.098 147.218 275.316 147.222C275.533 147.226 275.707 147.405 275.703 147.623Z" fill="white"/>
<path d="M271.561 151.489C271.557 151.707 271.378 151.88 271.161 151.876C270.943 151.872 270.77 151.693 270.774 151.476C270.778 151.258 270.957 151.084 271.174 151.088C271.392 151.092 271.565 151.272 271.561 151.489Z" fill="white"/>
<path d="M271.228 147.98C271.224 148.197 271.044 148.371 270.827 148.367C270.609 148.363 270.436 148.184 270.44 147.966C270.444 147.749 270.623 147.575 270.84 147.579C271.058 147.582 271.231 147.761 271.228 147.98Z" fill="white"/>
<path d="M271.39 144.266C271.386 144.484 271.206 144.657 270.989 144.653C270.771 144.649 270.598 144.47 270.602 144.252C270.606 144.035 270.785 143.861 271.002 143.865C271.22 143.869 271.394 144.048 271.39 144.266Z" fill="white"/>
<path d="M273.139 142.024C273.135 142.242 272.955 142.416 272.738 142.412C272.52 142.408 272.347 142.228 272.351 142.011C272.355 141.793 272.534 141.62 272.751 141.624C272.969 141.627 273.142 141.807 273.139 142.024Z" fill="white"/>
<path d="M273.465 145.94C273.461 146.158 273.282 146.332 273.064 146.328C272.846 146.324 272.673 146.144 272.677 145.927C272.681 145.709 272.86 145.536 273.078 145.54C273.295 145.544 273.469 145.723 273.465 145.94Z" fill="white"/>
<path d="M277.396 141.753C277.392 141.97 277.213 142.144 276.996 142.14C276.778 142.136 276.604 141.957 276.608 141.739C276.612 141.521 276.792 141.348 277.009 141.352C277.227 141.356 277.4 141.535 277.396 141.753Z" fill="white"/>
<path d="M277.808 145.589C277.804 145.807 277.624 145.981 277.407 145.977C277.189 145.973 277.016 145.793 277.02 145.576C277.024 145.358 277.203 145.185 277.42 145.189C277.638 145.192 277.812 145.372 277.808 145.589Z" fill="white"/>
<path d="M273.614 149.613C273.61 149.83 273.431 150.004 273.213 150C272.996 149.996 272.822 149.817 272.826 149.599C272.83 149.381 273.009 149.208 273.227 149.212C273.445 149.216 273.618 149.395 273.614 149.613Z" fill="white"/>
<path d="M277.808 152.8C277.804 153.017 277.624 153.191 277.407 153.187C277.189 153.183 277.016 153.004 277.02 152.786C277.024 152.568 277.203 152.395 277.42 152.399C277.638 152.402 277.811 152.581 277.808 152.8Z" fill="white"/>
<path d="M277.697 155.764C277.693 155.981 277.514 156.155 277.296 156.151C277.079 156.147 276.905 155.968 276.909 155.75C276.913 155.532 277.092 155.359 277.31 155.363C277.528 155.366 277.701 155.546 277.697 155.764Z" fill="white"/>
<path d="M273.796 152.799C273.792 153.016 273.613 153.19 273.395 153.186C273.177 153.182 273.004 153.003 273.008 152.785C273.012 152.568 273.191 152.394 273.409 152.398C273.626 152.402 273.8 152.581 273.796 152.799Z" fill="white"/>
<path d="M271.795 157.388C271.791 157.605 271.612 157.779 271.394 157.775C271.177 157.771 271.003 157.592 271.007 157.374C271.011 157.156 271.19 156.983 271.408 156.987C271.625 156.99 271.798 157.17 271.795 157.388Z" fill="white"/>
<path d="M275.866 151.061C275.862 151.278 275.683 151.452 275.465 151.448C275.248 151.444 275.074 151.265 275.078 151.047C275.082 150.829 275.261 150.656 275.479 150.66C275.697 150.664 275.87 150.843 275.866 151.061Z" fill="white"/>
<path d="M275.86 154.264C275.856 154.481 275.677 154.655 275.46 154.651C275.242 154.647 275.068 154.468 275.072 154.25C275.076 154.032 275.256 153.859 275.473 153.863C275.691 153.867 275.864 154.046 275.86 154.264Z" fill="white"/>
<path d="M275.805 157.457C275.801 157.674 275.621 157.848 275.404 157.844C275.186 157.84 275.013 157.661 275.017 157.443C275.021 157.225 275.2 157.052 275.417 157.056C275.635 157.06 275.808 157.239 275.805 157.457Z" fill="white"/>
<path d="M277.784 158.969C277.78 159.187 277.601 159.361 277.383 159.357C277.166 159.353 276.992 159.173 276.996 158.956C277 158.738 277.179 158.565 277.397 158.569C277.615 158.572 277.788 158.752 277.784 158.969Z" fill="white"/>
<path d="M271.797 154.381C271.793 154.599 271.614 154.773 271.396 154.769C271.178 154.765 271.005 154.585 271.009 154.368C271.013 154.15 271.192 153.977 271.41 153.981C271.627 153.985 271.801 154.164 271.797 154.381Z" fill="white"/>
<path d="M273.743 155.834C273.739 156.052 273.56 156.225 273.342 156.221C273.125 156.217 272.951 156.038 272.955 155.821C272.959 155.603 273.138 155.429 273.356 155.433C273.574 155.437 273.746 155.617 273.743 155.834Z" fill="white"/>
<path d="M279.687 157.524C279.683 157.741 279.504 157.915 279.287 157.911C279.069 157.907 278.895 157.728 278.899 157.51C278.903 157.292 279.083 157.119 279.3 157.123C279.518 157.126 279.691 157.306 279.687 157.524Z" fill="white"/>
<path d="M273.779 158.932C273.775 159.149 273.596 159.323 273.378 159.319C273.161 159.315 272.987 159.136 272.991 158.918C272.995 158.7 273.174 158.527 273.392 158.531C273.61 158.535 273.783 158.714 273.779 158.932Z" fill="white"/>
<path d="M279.854 151.238C279.85 151.456 279.671 151.629 279.454 151.625C279.236 151.621 279.062 151.442 279.066 151.224C279.07 151.007 279.25 150.833 279.467 150.837C279.685 150.841 279.858 151.02 279.854 151.238Z" fill="white"/>
<path d="M279.801 154.332C279.797 154.549 279.618 154.723 279.4 154.719C279.182 154.715 279.009 154.536 279.013 154.318C279.017 154.101 279.196 153.927 279.414 153.931C279.631 153.935 279.805 154.114 279.801 154.332Z" fill="white"/>
<path d="M277.947 149.569C277.943 149.786 277.764 149.96 277.546 149.956C277.329 149.952 277.155 149.773 277.159 149.555C277.163 149.337 277.342 149.164 277.56 149.168C277.778 149.172 277.951 149.351 277.947 149.569Z" fill="white"/>
<path d="M280.115 147.64C280.111 147.857 279.932 148.031 279.714 148.027C279.497 148.023 279.323 147.844 279.327 147.626C279.331 147.408 279.51 147.235 279.728 147.239C279.946 147.243 280.118 147.422 280.115 147.64Z" fill="white"/>
<path d="M269.139 160.463C271.399 163.612 280.691 163.086 281.283 161.855C281.531 161.338 281.247 148.468 281.247 148.468C281.247 148.468 273.227 149.212 268.922 147.634C268.922 147.634 268.435 159.481 269.139 160.463Z" fill="#57B890"/>
<path d="M310.328 102.569H278.854C276.025 102.569 273.732 100.276 273.732 97.4472V96.4304C273.732 93.6016 276.025 91.3088 278.854 91.3088H310.175C312.709 91.3088 314.862 93.1624 315.24 95.668L315.392 96.6848C315.859 99.7824 313.46 102.569 310.328 102.569Z" fill="#FFC727"/>
<path opacity="0.3" d="M310.328 102.569H278.854C276.025 102.569 273.732 100.276 273.732 97.4472V96.4304C273.732 93.6016 276.025 91.3088 278.854 91.3088H310.175C312.709 91.3088 314.862 93.1624 315.24 95.668L315.392 96.6848C315.859 99.7824 313.46 102.569 310.328 102.569Z" fill="#1C0B54"/>
<path opacity="0.1" d="M277.555 100.99C279.113 100.99 280.376 99.1457 280.376 96.8702C280.376 94.5948 279.113 92.7502 277.555 92.7502C275.997 92.7502 274.734 94.5948 274.734 96.8702C274.734 99.1457 275.997 100.99 277.555 100.99Z" fill="#1C0B54"/>
<path d="M285.294 86.433C288.343 87.3362 294.257 93.141 294.59 98.0586C294.924 102.976 291.482 108.735 289.961 108.642C288.44 108.548 283.511 105.246 281.044 101.323C278.578 97.4002 283.793 85.989 285.294 86.433Z" fill="#418A6C"/>
<path d="M285.279 86.4457C285.199 86.3761 285.272 86.2185 285.378 86.2745C287.789 87.5297 289.893 89.7409 291.797 91.6473C293.333 93.1857 294.865 94.8497 295.653 96.9121C296.443 98.9753 296.305 101.048 295.311 103.01C294.226 105.148 292.526 107.518 290.469 108.806C290.409 108.843 290.313 108.77 290.372 108.709C293.658 105.353 297.293 101.044 294.85 96.1681C292.776 92.0273 288.648 89.3945 285.279 86.4457Z" fill="#418A6C"/>
<path d="M290.137 107.393C292.345 109.014 296.018 116.95 294.553 122.042C293.087 127.134 285.729 131.782 284.297 131.622C282.865 131.463 280.011 124.226 280.058 120.1C280.09 117.342 282.365 115.363 284.247 113.186C287.025 109.97 289.794 107.141 290.137 107.393Z" fill="#418A6C"/>
<path d="M278.948 118.743C280.789 113.748 285.918 110.632 289.787 107.342C289.828 107.307 289.89 107.367 289.854 107.409C286.778 110.918 282.395 113.171 280.021 117.308C278.612 119.763 278.129 122.67 279.33 125.318C280.371 127.612 282.26 129.443 283.908 131.303C284.017 131.427 283.817 131.577 283.708 131.459C280.358 127.86 277.048 123.898 278.948 118.743Z" fill="#418A6C"/>
<path d="M290.415 108.103C290.329 107.979 290.513 107.834 290.602 107.958C293.096 111.426 295.873 116.011 295.788 120.433C295.696 125.223 291.585 128.019 287.992 130.401C287.947 130.431 287.895 130.365 287.94 130.335C291.538 127.889 295.686 124.678 295.456 119.834C295.259 115.667 292.737 111.428 290.415 108.103Z" fill="#418A6C"/>
<path d="M284.093 131.352C282.057 131.468 278.377 133.226 276.342 136.304C272.858 141.574 271.214 139.495 264.325 138.236C258.503 137.172 254.766 142.552 256.27 146.704C256.27 146.704 256.262 142.356 260.594 142.159C265.769 141.924 273.459 150.682 280.949 146.858C290.64 141.909 284.093 131.352 284.093 131.352Z" fill="#418A6C"/>
<path d="M280.687 132.986C280.791 132.939 280.714 132.76 280.607 132.802C279.569 133.214 278.624 133.763 277.794 134.514C276.724 135.482 276.119 136.774 275.127 137.802C272.604 140.418 268.885 138.63 266.067 137.605C262.289 136.232 258.346 137.154 256.4 140.91C256.372 140.964 256.455 141.009 256.484 140.954C257.74 138.643 260.164 137.103 262.836 137.157C265.38 137.208 267.582 138.762 270.043 139.217C271.727 139.528 273.527 139.557 274.894 138.39C275.641 137.751 276.148 136.86 276.739 136.087C277.814 134.678 279.077 133.722 280.687 132.986Z" fill="#418A6C"/>
<path d="M284.748 132.47C284.726 132.429 284.653 132.459 284.671 132.504C285.832 135.478 287.112 138.513 286.373 141.774C285.578 145.283 282.477 147.769 279.077 148.586C275.269 149.502 272.693 147.103 269.8 145.073C267.707 143.604 265.491 142.29 262.893 142.07C262.813 142.063 262.801 142.194 262.878 142.209C266.875 142.984 269.709 145.542 273.012 147.704C275.709 149.47 278.445 149.48 281.323 148.057C287.67 144.918 287.679 138.104 284.748 132.47Z" fill="#418A6C"/>
<path d="M287.691 85.8208C288.644 85.4192 289.248 86.9072 288.294 87.3088C287.341 87.7096 286.737 86.2224 287.691 85.8208Z" fill="#FFC727"/>
<path d="M286.491 86.708C287.443 86.3064 288.048 87.7944 287.094 88.196C286.141 88.5968 285.537 87.1096 286.491 86.708Z" fill="#FFC727"/>
<path d="M285.14 87.3809C286.092 86.9793 286.697 88.4665 285.743 88.8689C284.791 89.2697 284.186 87.7825 285.14 87.3809Z" fill="#FFC727"/>
<path d="M283.754 87.8567C284.706 87.4551 285.31 88.9423 284.356 89.3447C283.404 89.7455 282.799 88.2583 283.754 87.8567Z" fill="#FFC727"/>
<path d="M282.273 88.0918C283.226 87.6902 283.83 89.1774 282.876 89.5798C281.924 89.9814 281.319 88.4942 282.273 88.0918Z" fill="#FFC727"/>
<path d="M280.829 88.0601C281.781 87.6585 282.386 89.1457 281.431 89.5481C280.479 89.9489 279.874 88.4617 280.829 88.0601Z" fill="#FFC727"/>
</g>
<defs>
<clipPath id="clip0_267_7186">
<rect width="400" height="400" rx="20.48" fill="white"/>
</clipPath>
</defs>
</svg>
