<svg width="401" height="300" viewBox="0 0 401 300" fill="none" xmlns="http://www.w3.org/2000/svg">
<path d="M400.5 0H0.5V300H400.5V0Z" fill="#CBE9DD"/>
<path d="M273.852 148.253C275.387 148.053 277.486 149.265 277.486 149.265L277.806 150.426C277.806 150.426 273.725 151.109 271.715 150.955C271.203 150.915 271.688 148.536 273.852 148.253Z" fill="#B9B3CA"/>
<path d="M268.931 142.774C268.989 142.929 269.98 146.303 269.658 146.635C269.496 146.802 267.026 148.619 267.026 148.619L268.931 142.774Z" fill="#B9B3CA"/>
<path d="M269.099 146.632L268.736 144.254L266.916 148.252L269.099 146.632Z" fill="#B9B3CA"/>
<path d="M279.398 146.914L277.484 149.266L280.368 154.818L283.45 150.579L279.398 146.914Z" fill="white"/>
<g opacity="0.37">
<path d="M156.758 274.487C156.758 275.356 130.32 276.061 97.7073 276.061C65.0944 276.061 38.6562 275.356 38.6562 274.487C38.6562 273.618 65.0944 272.913 97.7073 272.913C130.32 272.912 156.758 273.618 156.758 274.487Z" fill="#1C0B54"/>
</g>
<g opacity="0.37">
<path d="M308.242 275.645C335.232 275.645 357.111 275.073 357.111 274.368C357.111 273.663 335.232 273.091 308.242 273.091C281.253 273.091 259.374 273.663 259.374 274.368C259.374 275.073 281.253 275.645 308.242 275.645Z" fill="#1C0B54"/>
</g>
<path d="M151.062 274.486H114.34C112.902 274.486 111.736 273.224 111.736 271.666V245.13C111.736 243.572 112.902 242.31 114.34 242.31H151.062C152.5 242.31 153.666 243.572 153.666 245.13V271.666C153.666 273.223 152.501 274.486 151.062 274.486Z" fill="#0A041D"/>
<path d="M148.931 245.128V271.661C148.931 273.221 147.768 274.481 146.328 274.481H109.608C108.168 274.481 107.005 273.221 107.005 271.661V245.128C107.005 244.475 107.202 243.881 107.553 243.408C108.02 242.735 108.771 242.308 109.608 242.308H146.328C147.171 242.308 147.916 242.735 148.389 243.408C148.734 243.881 148.931 244.475 148.931 245.128Z" fill="#190A4C"/>
<path d="M148.932 245.128V251.253C148.932 253.948 146.915 256.133 144.427 256.133H111.51C109.023 256.133 107.006 253.949 107.006 251.253V245.128C107.006 244.479 107.203 243.882 107.549 243.409C108.022 242.736 108.77 242.308 109.61 242.308H146.329C147.168 242.308 147.916 242.736 148.389 243.409C148.734 243.882 148.932 244.478 148.932 245.128Z" fill="#B9B3CA"/>
<path d="M136.85 235.916C136.85 237.471 136.249 238.731 135.506 238.731C134.763 238.731 134.161 237.471 134.161 235.916C134.161 234.361 134.543 233.452 135.285 233.452C136.028 233.452 136.85 234.361 136.85 235.916Z" fill="#0A041D"/>
<path d="M139.268 244.716C137.206 238.711 134.87 236.875 129.277 236.875C129.268 236.875 129.259 236.875 129.25 236.875C119.815 236.883 118.501 244.136 118.45 244.444L115.668 243.932C115.683 243.83 117.362 233.828 129.248 233.818C129.257 233.818 129.266 233.818 129.275 233.818C136.114 233.818 139.421 236.394 141.912 243.65L139.268 244.716Z" fill="#0A041D"/>
<path d="M135.287 238.73H123.967C122.58 238.73 121.457 237.512 121.457 236.011C121.457 234.509 122.581 233.292 123.967 233.292L135.287 233.452C135.287 233.452 134.502 234.207 134.625 236.27C134.728 237.988 135.287 238.73 135.287 238.73Z" fill="#E8E7EE"/>
<path d="M117.06 250.776C115.721 250.776 114.635 249.6 114.635 248.148V242.31H119.485V248.148C119.485 249.6 118.399 250.776 117.06 250.776Z" fill="#E8E7EE"/>
<path d="M119.114 248.04C119.032 248.04 118.949 248.005 118.889 247.935L114.727 243.115C114.61 242.98 114.617 242.77 114.741 242.644C114.865 242.518 115.06 242.524 115.176 242.659L119.338 247.479C119.454 247.614 119.448 247.825 119.324 247.95C119.264 248.01 119.189 248.04 119.114 248.04Z" fill="#1C0B54"/>
<path d="M114.951 248.04C114.876 248.04 114.801 248.01 114.741 247.95C114.617 247.825 114.611 247.613 114.727 247.479L118.889 242.659C119.006 242.523 119.199 242.517 119.324 242.643C119.449 242.769 119.455 242.98 119.339 243.115L115.176 247.935C115.116 248.005 115.034 248.04 114.951 248.04Z" fill="#1C0B54"/>
<path d="M139.595 250.775H139.536C138.213 250.775 137.141 249.613 137.141 248.179V242.309H141.99V248.179C141.99 249.613 140.918 250.775 139.595 250.775Z" fill="#E8E7EE"/>
<path d="M141.645 248.041C141.563 248.041 141.48 248.006 141.42 247.936L137.258 243.116C137.142 242.981 137.148 242.77 137.272 242.644C137.396 242.519 137.591 242.525 137.707 242.66L141.869 247.48C141.986 247.614 141.979 247.826 141.855 247.951C141.796 248.011 141.72 248.041 141.645 248.041Z" fill="#1C0B54"/>
<path d="M137.483 248.04C137.407 248.04 137.332 248.01 137.272 247.95C137.148 247.825 137.142 247.614 137.258 247.479L141.421 242.659C141.537 242.524 141.731 242.518 141.856 242.644C141.98 242.77 141.986 242.98 141.87 243.115L137.707 247.935C137.646 248.005 137.565 248.04 137.483 248.04Z" fill="#1C0B54"/>
<path d="M122.278 130.553C121.291 133.046 120.145 134.506 118.888 133.922C117.632 133.338 116.739 130.931 117.727 128.438C118.714 125.945 120.533 124.398 121.79 124.982C123.047 125.566 123.265 128.061 122.278 130.553Z" fill="#0A041D"/>
<g opacity="0.37">
<path d="M202.91 276.222C223.107 276.222 239.479 275.741 239.479 275.147C239.479 274.553 223.107 274.071 202.91 274.071C182.714 274.071 166.342 274.553 166.342 275.147C166.342 275.741 182.714 276.222 202.91 276.222Z" fill="#1C0B54"/>
</g>
<path d="M192.746 180.714C159.61 192.055 147.617 172.544 147.617 172.544C160.055 164.137 185.606 172.781 185.606 172.781L192.746 180.714Z" fill="#418A6C"/>
<path d="M202.274 258.249V274.466C259.699 235.023 237.463 215.581 237.463 215.581C212.511 226.785 202.274 258.249 202.274 258.249Z" fill="#346E56"/>
<path d="M202.274 271.341V274.467C259.699 235.024 237.463 215.582 237.463 215.582L202.274 271.341Z" fill="#418A6C"/>
<path d="M202.907 258.248V274.465C145.483 235.022 167.719 215.58 167.719 215.58C192.671 226.784 202.907 258.248 202.907 258.248Z" fill="#346E56"/>
<path d="M202.907 271.34V274.466C145.483 235.023 167.719 215.581 167.719 215.581L202.907 271.34Z" fill="#418A6C"/>
<path d="M234.092 178.498L202.265 227.271L203.27 228.04L235.097 179.268L234.092 178.498Z" fill="#346E56"/>
<path d="M161.98 148.66L161.14 149.635L202.343 191.328L203.183 190.354L161.98 148.66Z" fill="#346E56"/>
<path d="M202.876 152.728V168.724C202.862 168.709 202.841 168.693 202.827 168.678C172.499 139.736 182.164 118.115 182.164 118.115C196.471 128.447 202.876 152.728 202.876 152.728Z" fill="#418A6C"/>
<path d="M202.982 165.66L202.876 167.762L202.827 168.679C172.499 139.737 182.164 118.116 182.164 118.116L202.876 165.416L202.982 165.66Z" fill="#346E56"/>
<path d="M202.869 152.728V168.724C202.883 168.709 202.904 168.694 202.918 168.678C233.246 139.736 223.581 118.116 223.581 118.116C209.275 128.448 202.869 152.728 202.869 152.728Z" fill="#418A6C"/>
<path d="M202.763 165.66L202.869 167.762L202.918 168.679C233.246 139.737 223.581 118.116 223.581 118.116L202.868 165.416L202.763 165.66Z" fill="#346E56"/>
<path d="M203.376 107.504H202.146V274.607H203.376V107.504Z" fill="#346E56"/>
<path d="M208.056 109.297C208.523 106.172 206.563 103.229 203.678 102.723C200.793 102.217 198.076 104.34 197.609 107.465C197.142 110.591 199.102 113.534 201.987 114.04C204.872 114.546 207.589 112.423 208.056 109.297Z" fill="#1C0B54"/>
<path d="M168.285 154.979C170.352 152.74 170.352 149.111 168.285 146.873C166.219 144.634 162.869 144.634 160.803 146.873C158.737 149.111 158.737 152.74 160.803 154.979C162.869 157.217 166.219 157.217 168.285 154.979Z" fill="#1C0B54"/>
<path d="M239.121 181.146C239.588 178.021 237.628 175.077 234.743 174.571C231.859 174.065 229.142 176.189 228.675 179.314C228.208 182.439 230.168 185.383 233.052 185.889C235.937 186.395 238.654 184.271 239.121 181.146Z" fill="#1C0B54"/>
<path d="M261.369 176.123C270.375 166.367 270.375 150.549 261.369 140.793C252.364 131.037 237.762 131.037 228.757 140.793C219.751 150.549 219.751 166.367 228.757 176.123C237.762 185.879 252.364 185.88 261.369 176.123Z" fill="#346E56"/>
<path d="M106.264 87.5576L111.085 113.259L129.792 127.899L142.462 121.345L122.03 104.236C122.03 104.236 122.426 83.5376 120.233 77.447C119.52 75.4676 119.001 73.3756 114.277 76.2723C113.067 77.0143 106.435 86.0736 106.264 87.5576Z" fill="#1C0B54"/>
<path d="M152.091 156.157C164.685 156.157 174.894 145.097 174.894 131.454C174.894 117.811 164.685 106.75 152.091 106.75C139.497 106.75 129.288 117.811 129.288 131.454C129.288 145.097 139.497 156.157 152.091 156.157Z" fill="#346E56"/>
<path d="M267.678 166.339C270.986 153.256 263.877 139.745 251.801 136.162C239.725 132.578 227.254 140.279 223.946 153.361C220.638 166.444 227.746 179.954 239.822 183.538C251.898 187.122 264.37 179.421 267.678 166.339Z" fill="#57B890"/>
<path d="M245.8 179.398C235.848 179.398 227.753 170.628 227.753 159.848C227.753 149.068 235.848 140.297 245.8 140.297C255.751 140.297 263.846 149.067 263.846 159.848C263.847 170.628 255.751 179.398 245.8 179.398ZM245.8 140.964C236.188 140.964 228.368 149.435 228.368 159.848C228.368 170.26 236.188 178.732 245.8 178.732C255.411 178.732 263.231 170.26 263.231 159.848C263.232 149.435 255.411 140.964 245.8 140.964Z" fill="#D1BE6F"/>
<path d="M239.82 161.404L240.539 160.223L243.108 162.061L242.278 163.423C241.598 164.539 241.621 165.357 242.348 165.877C243.215 166.497 243.989 166.25 244.669 165.133C244.963 164.651 245.145 164.142 245.217 163.605C245.289 163.069 245.281 162.546 245.19 162.037C245.1 161.528 244.977 161 244.822 160.451C244.667 159.902 244.516 159.329 244.368 158.733C244.22 158.137 244.118 157.54 244.063 156.941C244.009 156.343 244.059 155.699 244.214 155.008C244.368 154.317 244.649 153.637 245.055 152.971C246.508 150.585 248.244 149.809 250.26 150.639L251.045 149.35L253.102 150.821L252.317 152.111C253.076 152.943 253.465 153.878 253.482 154.916C253.498 155.954 253.147 157.063 252.428 158.244L252.097 158.786L249.729 157.092L250.162 156.381C250.857 155.241 250.79 154.373 249.959 153.78C249.121 153.181 248.355 153.452 247.66 154.592C247.366 155.074 247.185 155.585 247.117 156.125C247.049 156.664 247.063 157.191 247.16 157.703C247.257 158.217 247.386 158.751 247.55 159.305C247.712 159.859 247.865 160.43 248.007 161.016C248.15 161.603 248.246 162.193 248.294 162.786C248.342 163.38 248.287 164.021 248.128 164.709C247.969 165.397 247.687 166.075 247.281 166.741C246.562 167.922 245.751 168.711 244.848 169.11C243.945 169.507 242.991 169.491 241.987 169.061L241.223 170.315L239.166 168.843L239.93 167.59C239.163 166.753 238.772 165.81 238.756 164.761C238.741 163.712 239.095 162.593 239.82 161.404Z" fill="#D1BE6F"/>
<path d="M192.746 180.713C159.61 192.055 147.617 172.543 147.617 172.543L188.64 176.563L192.746 180.713Z" fill="#346E56"/>
<path d="M66.5576 147.188C66.5576 147.188 76.1976 151.998 83.3232 150.025C90.4487 148.052 88.8155 140.975 88.8155 140.975L82.5662 138.094L66.5576 147.188Z" fill="#0A041D"/>
<path d="M62.8687 266.933L47.7832 272.305C47.1087 272.545 47.0503 273.549 47.6903 273.882C48.5574 274.334 50.1586 274.823 53.1014 275.17C57.5635 275.697 73.5758 273.323 73.5758 273.323L73.8614 274.753L80.2392 274.475L79.5463 264.129L65.7223 263.182L62.8687 266.933Z" fill="#15083F"/>
<path d="M114.617 266.933L129.831 272.351C130.44 272.567 130.518 273.471 129.953 273.796C129.127 274.271 127.515 274.801 124.384 275.17C119.922 275.697 103.909 273.323 103.909 273.323L103.624 274.753L97.2461 274.475L97.939 264.129L111.763 263.182L114.617 266.933Z" fill="#15083F"/>
<path d="M114.021 119.243L115.043 143.473C115.258 148.577 111.496 152.842 106.78 152.842H90.4121L102.663 83.2207C103.023 79.3647 104.818 76.0761 107.394 73.8727C111.689 70.1987 119.569 79.0021 120.375 84.8661L114.021 119.243Z" fill="#1C0B54"/>
<path d="M108.912 138.094L114.022 265.164L96.6906 267.752L91.9404 150.469L108.912 138.094Z" fill="#469373"/>
<path d="M112.615 70.4814L115.398 71.4394C118.068 72.3588 119.399 75.1034 120.232 77.4468C120.808 79.0681 120.952 83.8761 120.232 86.5354L118.997 95.2528L108.333 83.6294L112.615 70.4814Z" fill="#0A041D"/>
<path d="M91.9405 156.534C101.341 156.534 108.962 148.278 108.962 138.094C108.962 127.91 101.341 119.654 91.9405 119.654C82.5397 119.654 74.9189 127.91 74.9189 138.094C74.9189 148.278 82.5397 156.534 91.9405 156.534Z" fill="#469373"/>
<path d="M215.962 106.074C232.169 98.1772 239.398 77.5424 232.109 59.985C224.819 42.4276 205.772 34.5963 189.565 42.4932C173.358 50.3902 166.129 71.0251 173.419 88.5825C180.708 106.14 199.756 113.971 215.962 106.074Z" fill="#57B890"/>
<path d="M202.763 101.808C188.754 101.808 177.355 89.4603 177.355 74.2823C177.355 59.1043 188.754 46.7563 202.763 46.7563C216.774 46.7563 228.172 59.1043 228.172 74.2823C228.172 89.4603 216.773 101.808 202.763 101.808ZM202.763 47.4237C189.093 47.4237 177.971 59.4723 177.971 74.283C177.971 89.093 189.093 101.142 202.763 101.142C216.435 101.142 227.557 89.0937 227.557 74.283C227.557 59.4723 216.435 47.4237 202.763 47.4237Z" fill="#D1BE6F"/>
<path d="M195.953 81.6481V79.5821H200.448V81.9641C200.448 83.9174 201.083 84.8941 202.354 84.8941C203.873 84.8941 204.631 83.9174 204.631 81.9641C204.631 81.1208 204.476 80.3408 204.165 79.6248C203.854 78.9081 203.455 78.2794 202.967 77.7381C202.479 77.1974 201.937 76.6601 201.341 76.1261C200.745 75.5921 200.136 75.0268 199.512 74.4294C198.889 73.8321 198.321 73.1934 197.811 72.5114C197.3 71.8301 196.882 71.0008 196.557 70.0241C196.232 69.0474 196.069 67.9761 196.069 66.8094C196.069 62.6361 197.607 60.1768 200.681 59.4321V57.1768H204.281V59.4321C205.824 59.7834 206.991 60.5848 207.783 61.8348C208.573 63.0854 208.969 64.7434 208.969 66.8094V67.7581H204.825V66.5148C204.825 64.5194 204.098 63.5214 202.646 63.5214C201.18 63.5214 200.448 64.5188 200.448 66.5148C200.448 67.3581 200.607 68.1374 200.924 68.8541C201.242 69.5708 201.65 70.2001 202.15 70.7408C202.649 71.2821 203.204 71.8194 203.813 72.3534C204.423 72.8874 205.032 73.4494 205.642 74.0394C206.252 74.6294 206.807 75.2654 207.306 75.9468C207.805 76.6288 208.214 77.4574 208.532 78.4341C208.85 79.4108 209.008 80.4821 209.008 81.6488C209.008 83.7148 208.606 85.3834 207.802 86.6548C206.997 87.9268 205.823 88.7381 204.28 89.0894V91.2814H200.681V89.0894C199.124 88.7381 197.947 87.9301 197.149 86.6654C196.352 85.4001 195.953 83.7274 195.953 81.6481Z" fill="#D1BE6F"/>
<path d="M189.742 31.0881L188.686 31.772L191.642 37.1324L192.698 36.4486L189.742 31.0881Z" fill="white"/>
<path d="M180.543 36.7536L179.762 37.7827L184.212 41.7502L184.994 40.7211L180.543 36.7536Z" fill="white"/>
<path d="M130.921 107.187L130.058 108.137L134.164 112.519L135.028 111.569L130.921 107.187Z" fill="white"/>
<path d="M138.881 101.376L137.781 101.976L140.373 107.553L141.473 106.954L138.881 101.376Z" fill="white"/>
<path d="M150.132 99.0651L148.902 99.1235L149.155 105.361L150.384 105.303L150.132 99.0651Z" fill="white"/>
<path d="M160.048 101.103L158.277 107.045L159.449 107.455L161.219 101.512L160.048 101.103Z" fill="white"/>
<path d="M203.161 28.7198L201.931 28.73L201.973 34.8153L203.204 34.8052L203.161 28.7198Z" fill="white"/>
<path d="M215.26 30.2074L212.36 35.9995L213.442 36.6351L216.342 30.843L215.26 30.2074Z" fill="white"/>
<path d="M224.19 35.0253L220.523 40.2817L221.505 41.0856L225.172 35.8292L224.19 35.0253Z" fill="white"/>
<path d="M161.636 73.438H160.405V88.214H161.636V73.438Z" fill="#1C0B54"/>
<path d="M164.269 78.8803L161.091 74.1016L157.913 78.8803L156.914 78.101L161.091 71.8203L165.267 78.101L164.269 78.8803Z" fill="#1C0B54"/>
<path d="M144.347 188.765H143.116V204.667H144.347V188.765Z" fill="#F2F8F9"/>
<path d="M148.238 195.904L143.824 189.268L139.411 195.904L138.412 195.125L143.824 186.986L149.237 195.125L148.238 195.904Z" fill="#F2F8F9"/>
<path d="M119.344 45.367C118.146 50.905 113.063 54.177 107.918 53.043C101.794 51.693 99.2575 43.067 98.375 38.8656C98.1104 37.6056 98.8286 35.8983 101.245 34.949L106.401 32.4636C108.667 31.3716 111.262 31.9443 113.108 33.7396C113.114 33.745 113.119 33.7503 113.124 33.755C115.214 35.6936 120.301 40.9456 119.344 45.367Z" fill="#0A041D"/>
<path d="M103.987 51.9766C103.987 51.9766 106.451 67.0592 99.3818 68.6272L112.758 72.8066C112.758 72.8066 110.49 64.7139 114.883 60.7252C114.883 60.7252 105.538 54.5679 103.987 51.9766Z" fill="white"/>
<path d="M104.272 53.9805C104.272 53.9805 104.272 62.1438 112.661 64.3505C112.661 64.3505 114.09 60.9038 115.093 60.0545C115.093 60.0545 105.35 55.6918 104.272 53.9805Z" fill="#B9B3CA"/>
<path d="M120.649 47.2626C120.848 51.408 120.047 54.9533 120.047 54.9533C119.732 56.0773 118.423 64.1386 113.909 63.116C111.776 62.6326 107.135 60.2606 104.956 55.9733L103.591 51.9746C103.591 51.9746 102.6 36.216 111.372 34.1813C116.037 33.0986 120.29 39.7693 120.649 47.2626Z" fill="white"/>
<path d="M105.83 48.9951C106.767 50.5278 106.788 52.3011 105.875 52.9558C104.963 53.6105 104.075 52.1178 102.527 51.3658C99.8591 50.0711 100.243 47.0031 101.818 46.6191C103.049 46.3198 104.893 47.4625 105.83 48.9951Z" fill="white"/>
<path d="M103.663 39.9861C102.813 39.8675 101.848 39.4015 100.958 38.8508C99.5493 37.9795 99.6484 35.7421 101.123 35.0108L105.762 32.7101C108.549 31.3281 111.577 30.6128 114.641 30.6128C117.067 30.6128 120.404 32.9935 119.76 35.5281L118.679 39.3368C118.679 39.3368 107.846 35.1881 104.103 41.7755C103.887 42.1555 103.663 39.9861 103.663 39.9861Z" fill="#0A041D"/>
<path d="M102.015 49.8162C101.986 49.8162 101.956 49.8055 101.932 49.7829C101.49 49.3769 101.324 48.8262 101.488 48.3109C101.612 47.9215 101.907 47.6515 102.222 47.6382C102.297 47.6469 102.353 47.6955 102.356 47.7722C102.359 47.8495 102.303 47.9142 102.232 47.9175C102.022 47.9262 101.821 48.1209 101.732 48.4022C101.604 48.8049 101.741 49.2409 102.098 49.5702C102.153 49.6202 102.159 49.7082 102.113 49.7669C102.089 49.7995 102.052 49.8162 102.015 49.8162Z" fill="#B9B3CA"/>
<path d="M102.95 50.676C102.909 50.676 102.869 50.6553 102.844 50.616C102.803 50.5527 102.818 50.4653 102.876 50.4213C102.982 50.3413 103.039 50.248 103.05 50.1347C103.073 49.8867 102.872 49.594 102.792 49.5027C102.743 49.4467 102.746 49.358 102.797 49.3047C102.849 49.252 102.931 49.254 102.979 49.3107C102.995 49.328 103.346 49.7387 103.306 50.1633C103.288 50.3587 103.193 50.5227 103.024 50.65C103.002 50.668 102.976 50.676 102.95 50.676Z" fill="#B9B3CA"/>
<path d="M105.269 40.1399C104.916 41.8139 104.272 47.3439 104.272 47.3439L102.44 46.2452C102.44 46.2452 105.516 38.9785 105.269 40.1399Z" fill="#0A041D"/>
<path d="M115.909 97.7916C114.902 102.718 113.799 107.444 113.032 110.642C112.43 113.127 112.026 114.685 112.026 114.685L107.722 131.168L79.3652 126.118L84.4262 79.6436C85.4262 71.3863 100.116 66.9937 100.116 66.9937L110.773 69.813C113.95 70.651 117.56 72.929 118.306 78.1896C118.826 81.8403 117.483 90.0683 115.909 97.7916Z" fill="#EFEFEF"/>
<path d="M74.9186 137.18L62.334 266.638L80.3808 267.015L91.9408 152.841L74.9186 137.18Z" fill="#469373"/>
<path d="M347.501 124.419L335.087 136.047C334.424 136.67 333.42 136.591 332.845 135.872L326.012 127.314L325.442 126.595L326.139 125.947L339.365 113.56L340.26 112.718L340.718 113.297L347.663 121.996C348.238 122.715 348.165 123.802 347.501 124.419Z" fill="#57B890"/>
<path d="M341.399 114.139L339.973 123.057C339.574 125.552 337.621 127.406 335.286 127.509L326.477 127.895L325.864 127.125L326.67 126.459L339.896 114.072L340.676 113.211L341.399 114.139Z" fill="#346E56"/>
<path d="M340.72 113.297L339.273 122.283C338.886 124.687 337.034 126.494 334.787 126.661L326.014 127.315L325.444 126.595L326.141 125.947L339.367 113.56L340.262 112.719L340.72 113.297Z" fill="#FFF2BB"/>
<path d="M115.907 97.7901C114.901 102.717 113.798 107.443 113.031 110.64C111.935 108.399 110.456 104.927 108.984 100.134C106.086 90.7415 106.265 73.3801 106.265 73.3801L108.984 73.2241C108.984 73.2241 112.387 86.1188 113.805 92.1581C114.284 94.1915 115.03 96.0835 115.907 97.7901Z" fill="#57B890"/>
<g opacity="0.5">
<path d="M76.1381 266.958L75.5264 266.884C77.7762 245.188 78.959 228.407 78.9707 228.24L79.5842 228.29C79.5725 228.456 78.3891 245.249 76.1381 266.958Z" fill="#0A041D"/>
</g>
<path d="M83.3212 166.843H39.499V168.176H83.3212V166.843Z" fill="white"/>
<path d="M67.6123 173.104H39.499V174.437H67.6123V173.104Z" fill="white"/>
<path d="M55.7556 179.899H39.499V181.233H55.7556V179.899Z" fill="white"/>
<g opacity="0.5">
<path d="M100.565 229.035L99.9502 229.068L101.709 266.966L102.323 266.932L100.565 229.035Z" fill="#0A041D"/>
</g>
<path d="M173.806 133.025C173.806 146.632 163.621 157.665 151.061 157.665C141.141 157.665 132.704 150.785 129.596 141.192C129.313 140.325 129.079 139.432 128.883 138.519C128.858 138.385 128.833 138.252 128.803 138.119V138.112C128.624 137.172 128.489 136.205 128.409 135.225C128.347 134.499 128.316 133.765 128.316 133.025C128.316 132.032 128.372 131.045 128.483 130.085C128.489 130.005 128.495 129.932 128.507 129.859C128.599 129.059 128.729 128.279 128.895 127.512C129.172 126.179 129.553 124.885 130.027 123.652C133.43 114.692 141.566 108.385 151.061 108.385C163.621 108.385 173.806 119.419 173.806 133.025Z" fill="#57B890"/>
<path d="M151.063 154.071C140.351 154.071 131.636 144.629 131.636 133.025C131.636 121.42 140.351 111.979 151.063 111.979C161.775 111.979 170.49 121.42 170.49 133.025C170.49 144.63 161.775 154.071 151.063 154.071ZM151.063 112.645C140.69 112.645 132.251 121.787 132.251 133.025C132.251 144.262 140.69 153.404 151.063 153.404C161.436 153.404 169.875 144.262 169.875 133.025C169.875 121.788 161.436 112.645 151.063 112.645Z" fill="#D1BE6F"/>
<path d="M150.176 140.383L149.413 139.248L151.882 137.298L152.762 138.606C153.484 139.679 154.194 139.94 154.893 139.389C155.726 138.73 155.782 137.865 155.06 136.792C154.748 136.329 154.375 135.968 153.94 135.71C153.504 135.45 153.052 135.279 152.584 135.193C152.116 135.108 151.62 135.048 151.095 135.012C150.57 134.978 150.027 134.931 149.463 134.873C148.9 134.816 148.352 134.71 147.82 134.558C147.288 134.405 146.751 134.13 146.212 133.735C145.672 133.34 145.188 132.821 144.756 132.18C143.213 129.888 143.149 127.87 144.563 126.127L143.73 124.888L145.707 123.327L146.541 124.566C147.519 124.089 148.456 124.023 149.352 124.366C150.25 124.711 151.08 125.45 151.844 126.584L152.193 127.105L149.917 128.902L149.458 128.22C148.72 127.124 147.952 126.89 147.154 127.521C146.349 128.157 146.315 129.023 147.053 130.119C147.364 130.582 147.74 130.942 148.179 131.198C148.618 131.454 149.076 131.622 149.55 131.702C150.024 131.783 150.528 131.838 151.06 131.866C151.592 131.896 152.135 131.94 152.687 132C153.24 132.06 153.78 132.168 154.307 132.326C154.832 132.484 155.364 132.762 155.9 133.161C156.435 133.56 156.918 134.08 157.35 134.72C158.113 135.855 158.509 136.946 158.538 137.994C158.566 139.041 158.22 139.996 157.503 140.858L158.312 142.063L156.335 143.624L155.525 142.42C154.54 142.902 153.594 142.968 152.689 142.62C151.781 142.27 150.944 141.525 150.176 140.383Z" fill="#D1BE6F"/>
<path d="M362.346 197.685V193.275H358.583C358.285 191.196 357.54 189.279 356.465 187.629L359.121 184.779L356.258 181.643L353.603 184.483C352.056 183.265 350.244 182.431 348.276 182.091V178.031H344.206V182.118C342.228 182.477 340.417 183.337 338.887 184.573L336.174 181.679L333.328 184.824L336.066 187.737C335.032 189.359 334.312 191.241 334.014 193.275H330.135V197.684H334.047C334.362 199.709 335.098 201.582 336.157 203.195L333.361 206.189L336.223 209.316L339.019 206.323C340.524 207.505 342.287 208.321 344.206 208.679V212.927H348.276V208.697C350.22 208.366 352.015 207.541 353.545 206.349L356.3 209.28L359.154 206.135L356.424 203.231C357.491 201.618 358.244 199.727 358.558 197.684H362.346V197.685ZM355.365 197.685C355.125 198.805 354.703 199.863 354.149 200.803C353.413 202.058 352.428 203.125 351.262 203.913C350.361 204.54 349.351 204.988 348.276 205.239C347.639 205.391 346.985 205.472 346.307 205.472C345.588 205.472 344.876 205.383 344.206 205.212C343.156 204.952 342.171 204.495 341.294 203.886C340.136 203.079 339.16 202.004 338.432 200.749C337.886 199.817 337.489 198.787 337.249 197.685C337.092 196.95 337.009 196.188 337.009 195.399C337.009 194.673 337.084 193.957 337.216 193.275C337.439 192.164 337.828 191.115 338.358 190.175C339.069 188.902 340.028 187.818 341.17 187.002C342.08 186.348 343.106 185.864 344.206 185.586C344.876 185.416 345.587 185.326 346.306 185.326C346.985 185.326 347.638 185.407 348.275 185.559C349.383 185.809 350.409 186.285 351.327 186.93C352.486 187.727 353.462 188.803 354.19 190.067C354.752 191.035 355.166 192.119 355.398 193.275C355.53 193.956 355.604 194.673 355.604 195.399C355.605 196.188 355.522 196.95 355.365 197.685Z" fill="#1C0B54"/>
<path d="M351.899 192.522C351.303 191.16 350.294 190.04 349.045 189.377C348.797 189.242 348.54 189.126 348.276 189.036C347.655 188.803 346.993 188.678 346.307 188.678C345.571 188.678 344.86 188.821 344.206 189.081C343.95 189.18 343.702 189.296 343.462 189.44C342.221 190.121 341.228 191.259 340.657 192.63C340.566 192.836 340.492 193.051 340.426 193.275C340.211 193.938 340.104 194.655 340.104 195.399C340.104 196.206 340.236 196.976 340.484 197.684C340.542 197.9 340.625 198.106 340.724 198.302C341.32 199.664 342.337 200.767 343.594 201.421C343.793 201.538 343.991 201.636 344.206 201.708C344.86 201.968 345.571 202.111 346.307 202.111C346.994 202.111 347.655 201.986 348.276 201.752C348.507 201.68 348.739 201.582 348.954 201.456C350.22 200.811 351.246 199.718 351.857 198.364C351.965 198.149 352.056 197.916 352.122 197.683C352.37 196.975 352.502 196.204 352.502 195.398C352.502 194.654 352.395 193.937 352.18 193.274C352.106 193.016 352.015 192.764 351.899 192.522ZM346.307 197.398C345.281 197.398 344.462 196.502 344.462 195.399C344.462 194.297 345.281 193.4 346.307 193.4C347.324 193.4 348.152 194.296 348.152 195.399C348.152 196.502 347.325 197.398 346.307 197.398Z" fill="#1C0B54"/>
<path d="M63.2304 61.7548C63.8471 63.4615 65.652 63.8162 67.2267 63.1482C68.8015 62.4802 69.5517 61.0415 68.9344 59.3348C68.3172 57.6282 66.5406 56.7868 64.9652 57.4548C63.3904 58.1235 62.6132 60.0488 63.2304 61.7548Z" fill="#0A041D"/>
<path d="M63.1514 59.511L66.2203 58.2077L67.6406 57.603C65.8991 53.7804 66.8616 52.6444 66.8616 52.6444L66.848 52.6484C68.0763 50.8924 68.4548 48.5184 67.6591 46.317C66.4413 42.9537 62.9385 41.2904 59.8253 42.609C59.093 42.919 58.453 43.3637 57.9114 43.9177C56.1545 45.6904 55.4757 48.5217 56.4074 51.091C57.2031 53.293 58.9766 54.761 60.9828 55.1444C62.5133 56.2237 63.1514 59.511 63.1514 59.511Z" fill="#FFFEFA"/>
<path d="M63.1532 59.5111L67.6424 57.6031C67.5845 57.4718 67.5261 57.3498 67.4762 57.2285L64.4073 58.5311C64.4073 58.5311 63.7692 55.2445 62.2387 54.1651C60.2332 53.7818 58.459 52.3131 57.6633 50.1118C56.7316 47.5425 57.4104 44.7111 59.1673 42.9385C56.5119 44.4858 55.2775 47.9745 56.4092 51.0911C57.2042 53.2925 58.9784 54.7611 60.9839 55.1445C62.515 56.2245 63.1532 59.5111 63.1532 59.5111Z" fill="#B9B3CA"/>
<path d="M62.0781 61.7003L69.7489 58.4456L69.4264 57.5536C69.3039 57.2156 68.9519 57.049 68.6399 57.181L62.0996 59.9556C61.7876 60.0883 61.6338 60.4696 61.7556 60.8076L62.0781 61.7003Z" fill="#E8E7EE"/>
<path d="M63.374 62.8846L69.5365 60.27C69.9531 60.0933 70.1586 59.584 69.9956 59.1326L69.7469 58.4453L62.0762 61.7L62.3248 62.3873C62.4879 62.8386 62.9574 63.0613 63.374 62.8846Z" fill="#1C0B54"/>
<g opacity="0.37">
<path d="M131.252 141.745C131.129 141.898 130.495 141.678 129.597 141.191C129.314 140.325 129.08 139.431 128.883 138.518C129.923 139.511 131.627 141.265 131.252 141.745Z" fill="#1C0B54"/>
</g>
<g opacity="0.37">
<path d="M130.648 129.252C129.818 129.432 128.95 129.692 128.507 129.859C128.599 129.059 128.728 128.279 128.895 127.512C129.805 127.599 130.605 127.579 131.184 127.359C132.476 126.865 132.039 128.959 130.648 129.252Z" fill="#1C0B54"/>
</g>
<g opacity="0.37">
<path d="M137.295 137.418C136.95 138.425 129.209 135.872 128.803 135.738C129.196 135.905 135.806 138.672 135.227 139.692C134.753 140.538 130.483 138.825 128.803 138.118V138.112C128.624 137.172 128.489 136.205 128.409 135.225C128.347 134.498 128.316 133.765 128.316 133.025C128.316 132.032 128.372 131.045 128.483 130.085C129.812 130.472 133.978 132.038 135.332 132.905C136.784 133.838 137.479 134.845 135.27 134.438C133.264 134.072 130.483 133.278 129.978 133.138C130.803 133.478 137.67 136.312 137.295 137.418Z" fill="#1C0B54"/>
</g>
<path d="M190.563 242.238L189.425 241.73C190.379 239.22 191.372 236.744 192.377 234.371L193.496 234.928C192.497 237.284 191.51 239.744 190.563 242.238ZM196.71 227.762L195.616 227.152C196.772 224.719 197.969 222.349 199.174 220.106L200.238 220.776C199.043 223 197.856 225.35 196.71 227.762ZM204.116 214.019L203.092 213.28C204.494 210.996 205.949 208.796 207.415 206.741L208.389 207.557C206.941 209.586 205.503 211.76 204.116 214.019ZM213.106 201.483L212.2 200.581C213.934 198.538 215.719 196.636 217.507 194.927L218.321 195.927C216.565 197.604 214.811 199.474 213.106 201.483ZM224.085 191.081L223.397 189.975C225.544 188.41 227.737 187.076 229.912 186.007L230.42 187.222C228.307 188.26 226.175 189.558 224.085 191.081ZM237.278 184.724L237.016 183.422C239.537 182.827 242.055 182.583 244.502 182.696L244.449 184.028C242.108 183.92 239.696 184.154 237.278 184.724Z" fill="white"/>
<path d="M199.707 259.234L198.488 259.047C198.839 256.359 199.237 253.695 199.668 251.125L200.879 251.365C200.45 253.916 200.056 256.563 199.707 259.234ZM202.358 243.561L201.158 243.263C201.723 240.596 202.341 237.979 202.997 235.482L204.181 235.847C203.531 238.321 202.917 240.917 202.358 243.561ZM206.395 228.26L205.234 227.819C206.072 225.23 206.978 222.709 207.929 220.325L209.059 220.855C208.12 223.209 207.223 225.7 206.395 228.26ZM212.243 213.705L211.159 213.073C212.373 210.629 213.668 208.307 215.01 206.173L216.027 206.923C214.709 209.019 213.436 211.301 212.243 213.705ZM220.505 200.683L219.586 199.795C221.309 197.704 223.128 195.823 224.992 194.205L225.762 195.246C223.952 196.818 222.182 198.647 220.505 200.683ZM231.837 190.989L231.286 189.797C233.592 188.545 235.976 187.633 238.373 187.087L238.626 188.392C236.333 188.914 234.049 189.788 231.837 190.989Z" fill="white"/>
<path d="M206.758 260.985L205.541 260.785C205.932 258.007 206.423 255.184 207.003 252.394L208.203 252.687C207.63 255.446 207.143 258.238 206.758 260.985ZM210.173 244.513L208.993 244.133C209.736 241.423 210.573 238.698 211.481 236.034L212.635 236.496C211.737 239.133 210.908 241.83 210.173 244.513ZM215.57 228.665L214.445 228.125C215.511 225.521 216.664 222.935 217.871 220.437L218.962 221.055C217.766 223.528 216.625 226.088 215.57 228.665ZM222.809 213.707L221.76 213.009C223.156 210.543 224.626 208.15 226.127 205.895L227.125 206.675C225.641 208.903 224.188 211.269 222.809 213.707ZM231.948 200.057L231.019 199.183C232.851 196.895 234.707 194.827 236.534 193.037L237.359 194.026C235.569 195.779 233.748 197.809 231.948 200.057Z" fill="white"/>
<path d="M60.8572 110.153C60.9563 108.778 60.7729 107.371 60.2861 106.034L62.5366 104.559L61.0763 101.945L58.84 103.412C57.9649 102.296 56.8929 101.448 55.7077 100.89L56.3428 98.1613L53.6055 97.4199L52.9704 100.149C51.6511 100.026 50.304 100.241 49.0197 100.806L47.672 98.3906L45.2591 99.9726L46.6135 102.403C45.5692 103.381 44.7864 104.597 44.2855 105.927L41.7108 105.269L41.0615 108.242L43.6578 108.907C43.5871 110.267 43.792 111.658 44.2855 112.98L41.9784 114.501L43.4388 117.115L45.7668 115.579C46.6277 116.656 47.6788 117.474 48.8424 118.017L48.1723 120.898L50.9095 121.639L51.5797 118.758C52.8634 118.873 54.176 118.674 55.4314 118.139L56.8424 120.668L59.2554 119.079L57.8443 116.565C58.8886 115.609 59.6788 114.425 60.1932 113.118L62.8037 113.791L63.4529 110.81L60.8572 110.153ZM53.2948 111.285C52.3563 111.896 51.1434 111.575 50.5784 110.566C50.0068 109.549 50.3101 108.235 51.2418 107.623C52.1729 107.005 53.3938 107.333 53.9581 108.342C54.5224 109.351 54.2264 110.673 53.2948 111.285Z" fill="#1C0B54"/>
<path d="M52.2607 117.17C48.3727 117.17 45.209 113.743 45.209 109.531C45.209 105.318 48.3727 101.891 52.2607 101.891C56.1493 101.891 59.3124 105.318 59.3124 109.531C59.3124 113.743 56.1493 117.17 52.2607 117.17ZM52.2607 102.558C48.7118 102.558 45.8244 105.686 45.8244 109.531C45.8244 113.376 48.7118 116.504 52.2607 116.504C55.8102 116.504 58.697 113.376 58.697 109.531C58.697 105.686 55.8096 102.558 52.2607 102.558Z" fill="#418A6C"/>
<path d="M100.088 66.9932L100.042 68.3472L105.926 77.7845L107.344 75.6405L106.264 68.8452L100.088 66.9932Z" fill="#57B890"/>
<path d="M103.695 63.6846L110.452 67.1066L106.264 75.9919L100.088 66.9932L103.695 63.6846Z" fill="white"/>
<path d="M114.915 71.8999L111.758 77.7839L110.631 75.9912L111.934 72.5726L114.915 71.8999Z" fill="#57B890"/>
<path d="M110.789 74.0874C110.789 74.0874 114.192 86.9841 115.609 93.0274C117.621 101.606 124.587 107.773 124.587 107.773L124.17 114.687H116.584C116.584 114.687 113.679 110.401 110.787 101.003C107.894 91.6054 108.071 74.2441 108.071 74.2441L110.789 74.0874Z" fill="#E8E7EE"/>
<path d="M112.259 66.5039L108.956 66.5479L112.359 75.8706L114.917 71.8999L112.259 66.5039Z" fill="white"/>
<path d="M109.35 66.5479L107.004 74.4232L108.251 76.9185L110.937 76.7419L111.99 74.8639L109.875 66.5479H109.35Z" fill="#E8E7EE"/>
<path d="M120.567 125.92C122.457 125.432 127.732 127.415 129.841 126.606C131.094 126.125 130.674 128.155 129.319 128.447C128.1 128.708 126.793 129.149 126.973 129.19C127.878 129.393 132.452 131.082 133.866 131.99C135.281 132.898 135.955 133.877 133.807 133.479C131.66 133.082 128.591 132.189 128.591 132.189C128.591 132.189 136.164 135.224 135.771 136.373C135.428 137.378 127.511 134.737 127.511 134.737C127.511 134.737 134.344 137.56 133.768 138.581C133.192 139.603 126.873 136.76 126.873 136.76C126.873 136.76 130.429 139.905 129.906 140.572C129.424 141.185 120.634 135.625 119.698 131.992C119.022 129.373 118.915 126.346 120.567 125.92Z" fill="white"/>
<path d="M119.443 124.859L122.552 126.261L120.112 132.957L116.328 130.202L119.443 124.859Z" fill="white"/>
<path d="M100.09 66.9932C100.09 66.9932 99.5518 84.0512 98.894 89.6898C97.742 99.5752 95.3617 118.99 93.8294 128.696C91.9364 140.686 79.3371 148.84 68.1881 147.4L66.5586 147.189C69.2983 134.584 79.9131 113.874 79.9131 113.874C79.9131 113.874 82.1592 90.7052 83.5118 83.0685C84.3106 78.5598 85.4423 71.4812 93.2934 68.9878C95.6374 68.2432 97.3543 67.7032 97.3771 67.7098L100.09 66.9932Z" fill="#346E56"/>
<path d="M87.8744 85.0513L95.4935 118.531L94.4037 124.887C94.4037 124.887 87.0744 115.841 87.1046 99.2319C87.1101 95.6266 87.8744 85.0513 87.8744 85.0513Z" fill="#1C0B54"/>
<path d="M86.7764 94.7347L95.8915 121.963L118.888 133.922C118.888 133.922 118.21 132.27 119.331 129.277C120.795 125.365 122.031 125.116 122.031 125.116L105.195 112.56L99.7961 74.8453C99.7961 74.8453 95.8638 74.6053 91.2988 77.8307C86.1388 81.4767 84.2152 88.6653 86.7764 94.7347Z" fill="#346E56"/>
<path d="M307.917 256.732C307.917 256.732 307.675 232.142 307.064 220.777C306.884 217.433 304.958 199.509 304.704 189.428C300.005 190.651 296.355 192.534 291.687 193.888L300.163 257.97C302.718 256.516 307.917 256.732 307.917 256.732Z" fill="white"/>
<path d="M308.376 261.993C307.999 264.271 306.048 265.844 304.018 265.508C301.989 265.171 300.648 263.051 301.025 260.773C301.403 258.495 303.354 256.922 305.384 257.258C307.414 257.595 308.753 259.715 308.376 261.993Z" fill="#0A041D"/>
<path d="M301.088 263.346C301.088 263.346 288.771 270.83 282.771 273.12C280.676 273.92 292.41 276.061 297.58 272.865C299.123 271.911 302.732 268.587 304.7 265.553C307 262.007 307.558 258.765 307.558 258.765L301.088 263.346Z" fill="#0A041D"/>
<path d="M308.312 262.296L307.559 273.177L305.694 273.267L304.043 264.387L308.312 262.296Z" fill="#0A041D"/>
<path d="M305.711 255.885C303.974 255.633 302.415 256.104 300.962 257.055C300.413 257.415 295.552 264.811 293.08 267.127C289.717 270.277 293.063 270.772 296.581 267.665C301.25 263.543 307.896 259.095 307.896 259.095L307.918 256.682C307.197 256.479 306.448 255.991 305.711 255.885Z" fill="white"/>
<path d="M293.423 195.14L306.91 218.718L306.426 212.165L295.548 195.14H293.423Z" fill="#B9B3CA"/>
<path d="M329.878 251.377C331.31 249.289 331.903 247.764 334.039 247.195C334.039 247.195 323.039 220.75 318.86 210.445C317.232 206.43 312.04 195.141 303.661 185.327C299.826 188.753 298.502 190.155 294.747 193.692L328.228 252.268C328.679 251.422 329.345 252.154 329.878 251.377Z" fill="white"/>
<path d="M336.859 251.917C337.496 254.125 336.438 256.498 334.494 257.216C332.551 257.934 330.458 256.725 329.821 254.517C329.182 252.308 330.241 249.935 332.185 249.217C334.128 248.499 336.221 249.708 336.859 251.917Z" fill="#0A041D"/>
<path d="M330.973 256.766C330.973 256.766 323.233 269 320.694 274.164C319.649 276.288 328.705 272.388 331.925 266.965C334.011 263.453 334.755 249.465 334.755 249.465L330.973 256.766Z" fill="#0A041D"/>
<path d="M336.932 252.218L339.678 263.014L338.313 263.87L333.821 256.51L336.932 252.218Z" fill="#0A041D"/>
<path d="M331.889 247.836C330.242 248.483 329.376 249.714 328.495 251.285C328.161 251.879 326.69 260.84 325.487 264.131C323.85 268.608 327.027 267.372 328.821 262.855C331.202 256.861 335.196 249.588 335.196 249.588L334.038 247.195C333.313 247.376 332.589 247.561 331.889 247.836Z" fill="white"/>
<path d="M287.055 101.628L279.832 124.333L263.739 141.833L268.432 144.08L284.501 131.641C285.957 130.514 287.089 128.964 287.766 127.17L295.244 107.373L287.055 101.628Z" fill="#1C0B54"/>
<path d="M282.526 56.5909C280.831 62.7102 284.036 69.1596 289.684 70.9962C295.332 72.8329 301.285 69.3602 302.98 63.2409C304.676 57.1216 301.47 50.6722 295.822 48.8356C290.174 46.9989 284.22 50.4709 282.526 56.5909Z" fill="#0A041D"/>
<path d="M282.664 72.9639L282.664 72.9699C282.738 73.0479 282.807 73.1253 282.875 73.2153C282.912 73.2573 282.943 73.2986 282.979 73.3473C283.031 73.4166 283.084 73.4793 283.136 73.5546C283.145 73.5746 283.155 73.5946 283.171 73.6093C283.425 73.9606 283.641 74.3339 283.822 74.7153C283.987 75.0699 284.123 75.4333 284.233 75.8073C284.243 75.8339 284.252 75.8599 284.261 75.8866C284.261 75.8926 284.261 75.8926 284.261 75.8926C284.335 76.1546 284.398 76.4213 284.448 76.6933C285.364 81.4379 282.611 86.8406 282.611 86.8406L297.608 85.0659C297.625 84.6426 296.83 85.0699 296.853 84.6539C292.763 80.5393 291.579 76.6973 291.61 72.8953C291.611 72.7053 291.616 72.5219 291.622 72.3386C291.646 71.6499 291.707 71.0033 291.778 70.4339L291.781 70.4086C291.873 69.6766 291.984 69.0613 292.079 68.6153C292.079 68.6153 292.08 68.6093 292.08 68.6026C292.174 68.1686 292.246 67.8979 292.258 67.8359C292.111 67.9653 291.964 68.1013 291.812 68.2239C288.496 71.0353 282.906 72.8826 282.664 72.9639Z" fill="white"/>
<path d="M282.487 74.8426C282.533 74.8719 282.574 74.9033 282.621 74.9386C282.688 74.9899 282.754 75.0346 282.823 75.0926C282.837 75.1093 282.852 75.1253 282.871 75.1346C283.204 75.3979 283.506 75.6933 283.775 76.0073C284.024 76.2993 284.682 77.5479 284.635 78.7799C286.535 78.1373 290.921 73.7379 291.588 70.3279C291.73 68.6379 290.725 70.5879 290.685 70.4093C290.535 69.7393 290.431 70.1106 290.356 69.5419L290.352 69.5173C290.257 68.7859 290.209 68.1606 290.188 67.7033C290.188 67.7033 290.187 67.6973 290.186 67.6906C290.113 67.4546 290.069 67.3286 290.069 67.3286C288.049 70.6659 283.778 73.9053 282.487 74.8426Z" fill="#B9B3CA"/>
<path d="M275.571 60.467C274.773 68.3916 277.867 76.3416 282.905 76.9376C287.944 77.533 293.02 70.549 293.819 62.6243C294.617 54.6996 291.179 47.7923 286.14 47.197C281.101 46.601 276.369 52.5423 275.571 60.467Z" fill="white"/>
<path d="M291.631 63.3586C290.552 64.9233 290.432 66.8026 291.364 67.5566C292.295 68.3106 293.925 67.6533 295.004 66.0886C296.084 64.5239 296.204 62.6446 295.272 61.8906C294.34 61.1366 292.71 61.7939 291.631 63.3586Z" fill="white"/>
<path d="M278.506 50.4248C279.165 52.4901 282.539 53.5341 284.523 53.9194C285.261 54.0608 285.976 54.3094 286.654 54.6288C290.935 56.6401 293.898 61.5354 293.898 61.5354L298.542 52.2801C298.542 52.2801 293.032 48.6701 288.379 45.8194L288.373 45.8208C287.362 45.1994 286.392 44.6148 285.53 44.1121C284.192 43.3348 282.742 43.3221 281.483 43.8368C280.973 44.0488 280.495 44.3448 280.07 44.7201C280.069 44.7141 280.065 44.7214 280.054 44.7294C279.51 45.2041 279.056 45.7908 278.745 46.4648C278.723 46.5141 278.71 46.5421 278.71 46.5421L278.712 46.5434C278.194 47.6708 278.058 49.0194 278.506 50.4248Z" fill="#0A041D"/>
<path d="M305.472 128.963C308.015 127.989 310.551 126.927 312.945 125.571C308.606 112.726 303.143 96.5505 303.143 96.5505C301.829 92.6865 299.481 82.8512 295.983 81.2405C292.355 79.5699 287.231 79.3965 282.962 86.0792C279.126 92.0852 283.612 105.899 286.517 118.303C288.083 124.984 287.176 130.638 288.81 135.837C294.093 132.856 299.858 131.113 305.472 128.963Z" fill="#346E56"/>
<path d="M313.167 126.23C311.081 127.401 308.885 128.354 306.685 129.225C300.759 131.573 294.616 133.329 289.02 136.504C291.004 142.762 292.578 146.969 292.578 146.969L290.11 195.14H311.316C311.316 195.14 319.421 161.736 318.171 141.043C318.159 141.011 315.916 134.37 313.167 126.23Z" fill="#346E56"/>
<path d="M273.666 149.307C273.454 149.904 272.923 150.161 272.48 149.876L272.416 149.841C272.217 149.709 272.012 149.585 271.814 149.459C271.711 149.397 271.602 149.327 271.5 149.272C264.91 145.293 260.026 145.571 257.385 150.099C254.969 154.223 255.02 160.709 256.193 164.834C256.469 165.827 256.809 166.688 257.199 167.341C257.507 167.861 257.443 168.611 257.052 169.021C257.033 169.042 257.013 169.063 256.988 169.077L254.712 166.341C253.084 161.299 253.161 153.432 255.981 148.619C258.257 144.745 262.974 141.363 272.563 147.293C272.743 147.405 272.929 147.523 273.115 147.641C273.134 147.655 273.159 147.669 273.179 147.683L273.219 147.778C273.661 148.062 273.877 148.709 273.666 149.307Z" fill="#B9B3CA"/>
<path d="M287.302 168.126L272.451 183.229C271.586 184.111 270.323 184.243 269.336 183.653C269.253 183.611 269.176 183.555 269.099 183.5C268.926 183.382 268.772 183.229 268.624 183.055L267.131 181.264L266.983 181.083L266.662 180.695L266.355 180.327L263.169 176.507L256.984 169.077L254.708 166.341L256.189 164.835L270.432 150.356L271.496 149.273L271.989 148.773L273.111 147.641L276.733 150.647L287.45 163.035C288.719 164.481 288.642 166.765 287.302 168.126Z" fill="#346E56"/>
<path d="M321.171 51.0957H319.889V72.033H321.171V51.0957Z" fill="#57B890"/>
<path d="M341.368 42.5884H340.086V72.0317H341.368V42.5884Z" fill="#57B890"/>
<path d="M327.899 60.2544H326.617V72.0317H327.899V60.2544Z" fill="#57B890"/>
<path d="M334.636 52.896H333.354V72.034H334.636V52.896Z" fill="#57B890"/>
<path d="M263.96 226.324H262.729V259.604H263.96V226.324Z" fill="#E8E7EE"/>
<path d="M268.059 233.746L263.441 226.801L258.823 233.746L257.824 232.966L263.441 224.52L269.057 232.966L268.059 233.746Z" fill="#E8E7EE"/>
<path d="M295.1 141.634L295.248 129.747L294.319 127.3L284.694 101.954C282.325 94.8338 282.522 83.5604 289.094 80.9938C290.62 80.4004 291.986 80.1138 293.217 80.1138C297.272 80.1138 299.82 83.2404 301.642 88.7071C301.642 88.7071 307.057 106.294 312.312 123.694C314.288 130.24 318.172 141.044 318.172 141.044L295.209 148.076L295.1 141.634Z" fill="#1C0B54"/>
<path d="M306.946 127.399L295.1 141.632L295.248 129.746L294.318 127.299L298.577 121.472C298.577 121.472 289.211 102.612 289.112 94.6725C289.1 93.4525 288.669 91.8325 289.518 89.8125C291.241 85.7058 297.054 93.8725 298.543 98.0791L308.485 119.212C309.481 122.033 308.885 125.226 306.946 127.399Z" fill="#1C0B54"/>
<path d="M282.611 86.8428L279.838 92.4848C279.838 92.4848 276.34 102.083 279.494 107.333L287.044 119.233L286.015 107.143L281.919 93.6781L282.611 86.8428Z" fill="#346E56"/>
<path d="M246.411 182.67C246.411 184.398 246.051 185.798 245.606 185.798C245.162 185.798 245.03 185.01 244.712 182.67C244.479 180.96 244.358 179.541 244.802 179.541C245.246 179.541 246.411 180.942 246.411 182.67Z" fill="#0A041D"/>
<path d="M269.469 180.041L269.366 180.062L245.906 185.562C245.945 185.506 245.983 185.395 246.015 185.249C246.021 185.207 246.028 185.158 246.041 185.11C246.131 184.582 246.144 183.7 246.022 182.756C246.003 182.59 245.971 182.416 245.939 182.242C245.881 181.916 245.804 181.582 245.702 181.263V181.256C245.567 180.826 245.388 180.409 245.163 180.048C245.054 179.868 244.933 179.694 244.798 179.542L263.201 172.917L263.951 172.646L266.816 176.612L266.842 176.646L267.291 177.285L267.522 177.612L268.771 179.126L269.342 179.82L269.469 180.041Z" fill="#346E56"/>
<g opacity="0.19">
<path d="M287.449 163.035L276.732 150.647L273.11 147.64L271.988 148.772L271.495 149.272L270.431 150.355L277.815 157.617L281.327 161.603C283.038 163.544 282.795 166.669 280.809 168.274L271.531 175.772C268.351 178.242 264.617 178.869 260.758 179.566L245.938 182.243C245.97 182.416 246.002 182.59 246.021 182.757C246.143 183.701 246.13 184.583 246.04 185.111C246.027 185.159 246.021 185.208 246.014 185.249C245.982 185.395 245.943 185.506 245.905 185.562L266.662 180.696L266.981 181.083L267.129 181.263L268.622 183.055C268.77 183.228 268.924 183.381 269.097 183.499C269.174 183.555 269.251 183.611 269.334 183.652C270.321 184.242 271.583 184.111 272.449 183.229L287.3 168.125C288.642 166.764 288.719 164.479 287.449 163.035Z" fill="#15083F"/>
</g>
<g opacity="0.19">
<path d="M263.179 171.822L260.96 173.709L260.026 172.587L254.727 166.319L256.723 164.301L263.179 171.822Z" fill="#15083F"/>
</g>
<path d="M149.16 42.4435C149.16 42.4502 149.166 42.4569 149.166 42.4569C149.166 42.4569 143.979 43.9435 139.96 45.0035C138.711 45.3302 137.573 45.6235 136.742 45.8102C136.526 45.8569 136.385 45.5769 136.545 45.4035C137.511 44.3369 139.197 41.9969 137.148 40.4769C134.213 38.5835 132.342 35.7102 132.342 32.4969C132.342 26.7835 138.262 23.7769 145.56 23.7769C146.083 23.7769 146.594 23.7902 147.099 23.8235C153.671 24.2169 158.773 27.1902 158.773 32.4969C158.773 37.2302 154.705 41.2169 149.16 42.4435Z" fill="white"/>
<path d="M158.772 32.4973C158.772 37.2307 154.704 41.2173 149.159 42.444C149.159 42.4507 149.159 42.4573 149.159 42.4573C149.159 42.4573 140.242 45.0173 136.735 45.8107C136.519 45.8573 136.384 45.5773 136.538 45.404C136.642 45.284 136.759 45.1507 136.882 45.004C140.901 43.944 146.088 42.4573 146.088 42.4573C146.088 42.4573 146.082 42.4507 146.082 42.444C151.627 41.2173 155.695 37.2307 155.695 32.4973C155.695 27.1907 150.593 24.2173 144.021 23.824C144.525 23.7907 145.036 23.7773 145.559 23.7773C152.858 23.7773 158.772 26.784 158.772 32.4973Z" fill="#B9B3CA"/>
<path d="M140.337 32.6579C140.337 33.5839 139.644 34.3339 138.79 34.3339C137.936 34.3339 137.243 33.5833 137.243 32.6579C137.243 31.7319 137.936 30.9819 138.79 30.9819C139.644 30.9813 140.337 31.7319 140.337 32.6579Z" fill="#CBE9DD"/>
<path d="M146.185 32.6584C146.185 33.5844 145.492 34.3344 144.638 34.3344C143.783 34.3344 143.091 33.5838 143.091 32.6584C143.091 31.7324 143.784 30.9824 144.638 30.9824C145.493 30.9818 146.185 31.7324 146.185 32.6584Z" fill="#CBE9DD"/>
<path d="M152.035 32.6579C152.035 33.5839 151.342 34.3339 150.488 34.3339C149.633 34.3339 148.94 33.5833 148.94 32.6579C148.94 31.7319 149.633 30.9819 150.488 30.9819C151.342 30.9813 152.035 31.7319 152.035 32.6579Z" fill="#CBE9DD"/>
<path d="M249.364 48.6061C249.363 48.6128 249.356 48.6181 249.356 48.6181C249.356 48.6181 254.159 51.2101 257.897 53.1281C259.059 53.7215 260.12 54.2581 260.899 54.6228C261.101 54.7155 261.292 54.4721 261.168 54.2675C260.42 53.0115 259.206 50.3501 261.496 49.3102C264.724 48.0988 267.092 45.6941 267.692 42.5468C268.758 36.9515 263.521 32.7108 256.373 31.1128C255.861 30.9981 255.358 30.8995 254.858 30.8215C248.348 29.7681 242.797 31.5628 241.807 36.7601C240.923 41.3961 244.163 46.1908 249.364 48.6061Z" fill="white"/>
<path d="M241.807 36.7612C240.924 41.3965 244.164 46.1918 249.366 48.6072C249.364 48.6138 249.363 48.6205 249.363 48.6205C249.363 48.6205 257.618 53.0798 260.906 54.6252C261.108 54.7178 261.293 54.4732 261.175 54.2698C261.095 54.1292 261.005 53.9732 260.912 53.8025C257.174 51.8845 252.371 49.2932 252.371 49.2932C252.371 49.2932 252.378 49.2878 252.38 49.2812C247.178 46.8658 243.938 42.0712 244.821 37.4352C245.811 32.2378 251.362 30.4432 257.872 31.4965C257.384 31.3532 256.886 31.2285 256.374 31.1138C249.226 29.5158 242.873 31.1658 241.807 36.7612Z" fill="#B9B3CA"/>
<path d="M251.552 39.0948C251.41 40.0075 250.613 40.6235 249.77 40.4708C248.928 40.3175 248.359 39.4535 248.5 38.5408C248.642 37.6282 249.439 37.0122 250.282 37.1648C251.124 37.3175 251.693 38.1815 251.552 39.0948Z" fill="#CBE9DD"/>
<path d="M257.207 40.5644C257.558 39.7202 257.21 38.7282 256.431 38.3486C255.652 37.969 254.736 38.3456 254.385 39.1897C254.035 40.0339 254.383 41.026 255.162 41.4056C255.941 41.7852 256.857 41.4086 257.207 40.5644Z" fill="#CBE9DD"/>
<path d="M263.092 41.1905C262.95 42.1032 262.153 42.7192 261.31 42.5665C260.467 42.4132 259.899 41.5492 260.04 40.6365C260.182 39.7239 260.979 39.1079 261.822 39.2605C262.665 39.4132 263.233 40.2772 263.092 41.1905Z" fill="#CBE9DD"/>
<path d="M265.418 148.55C265.418 148.55 265.403 148.565 265.377 148.59C265.224 148.737 264.615 149.16 264.312 148.948C263.958 148.699 264.034 147.99 264.034 147.99L265.44 147.144L265.418 148.55Z" fill="white"/>
<path d="M263.72 147.845C263.72 147.845 263.705 147.86 263.679 147.885C263.526 148.031 263.055 148.314 262.753 148.102C262.398 147.853 262.411 147.241 262.411 147.241L263.743 146.439L263.72 147.845Z" fill="white"/>
<path d="M262.491 146.651C262.491 146.651 262.476 146.666 262.449 146.691C262.297 146.838 261.565 147.366 261.263 147.154C260.909 146.905 261.049 145.209 261.049 145.209L262.513 145.246L262.491 146.651Z" fill="white"/>
<path d="M267.483 148.309C267.483 148.309 266.443 149.467 266.153 149.236C265.832 148.981 265.954 148.156 265.699 148.208L267.076 147.379L267.483 148.309Z" fill="white"/>
<path d="M261.071 145.939C260.501 144.291 262.156 142.177 263.742 140.631C266.252 138.989 268.317 141.043 269.096 142.941C269.285 143.407 268.922 146.003 268.468 146.873C268.21 147.365 267.192 148.933 266.673 148.915C266.428 148.904 266.137 148.862 265.814 148.786C265.661 148.759 265.504 148.717 265.34 148.671C265.322 148.665 265.3 148.662 265.282 148.657C265.13 148.613 264.982 148.567 264.826 148.511C264.558 148.421 264.281 148.317 264.009 148.199C263.85 148.134 263.688 148.059 263.532 147.986L263.287 147.865C263.133 147.78 262.98 147.701 262.831 147.615C262.682 147.529 262.537 147.441 262.407 147.349C262.25 147.254 262.112 147.152 261.984 147.047C261.535 146.695 261.201 146.315 261.071 145.939Z" fill="white"/>
<path d="M265.285 148.655L266.268 147.075C266.301 147.023 266.347 146.983 266.4 146.965C266.473 146.939 266.552 146.951 266.621 147.002C266.736 147.083 266.768 147.257 266.688 147.384L265.817 148.784C265.665 148.757 265.507 148.715 265.344 148.669C265.325 148.664 265.303 148.66 265.285 148.655Z" fill="#B9B3CA"/>
<path d="M263.527 147.984L264.378 146.516C264.409 146.458 264.457 146.424 264.515 146.403C264.583 146.379 264.66 146.386 264.727 146.432C264.848 146.511 264.882 146.678 264.809 146.808L264.004 148.196C263.846 148.132 263.684 148.056 263.527 147.984Z" fill="#B9B3CA"/>
<path d="M261.984 147.047L262.707 145.792C262.738 145.735 262.786 145.7 262.844 145.679C262.912 145.655 262.989 145.663 263.056 145.708C263.176 145.787 263.211 145.955 263.138 146.085L262.408 147.348C262.25 147.253 262.112 147.151 261.984 147.047Z" fill="#B9B3CA"/>
<path d="M277.486 149.266C277.486 149.266 271.023 153.949 270.311 154.406C269.234 155.098 268.72 155.843 270.356 155.54C271.992 155.238 274.597 154.297 274.597 154.297C274.597 154.297 268.56 156.87 268.859 157.745C269.121 158.511 275.154 156.498 275.154 156.498C275.154 156.498 269.947 158.649 270.386 159.427C270.824 160.205 275.64 158.039 275.64 158.039C275.64 158.039 272.93 160.436 273.329 160.944C273.696 161.411 280.61 156.489 281.323 153.721C281.837 151.726 277.486 149.266 277.486 149.266Z" fill="white"/>
<path d="M287.86 87.28C289.582 83.1767 295.032 83.374 296.522 87.5827L306.826 116.681C307.825 119.503 307.224 122.697 305.286 124.871L281.702 152.981L277.483 149.265L296.918 118.941C296.918 118.941 287.554 100.082 287.454 92.1407C287.438 90.9213 287.011 89.3033 287.86 87.28Z" fill="#1C0B54"/>
<path d="M294.045 65.3841C294.075 65.3841 294.105 65.3734 294.129 65.3507C294.571 64.9441 294.737 64.3941 294.572 63.8787C294.449 63.4894 294.153 63.2194 293.838 63.2061C293.763 63.2147 293.707 63.2634 293.704 63.3401C293.702 63.4174 293.757 63.4821 293.828 63.4854C294.038 63.4941 294.239 63.6887 294.328 63.9701C294.456 64.3727 294.319 64.8087 293.961 65.1381C293.907 65.1881 293.9 65.2761 293.947 65.3347C293.972 65.3674 294.009 65.3841 294.045 65.3841Z" fill="#B9B3CA"/>
<path d="M293.11 66.2414C293.151 66.2414 293.191 66.2208 293.216 66.1814C293.257 66.1181 293.243 66.0308 293.184 65.9868C293.078 65.9068 293.022 65.8134 293.011 65.7001C292.987 65.4521 293.189 65.1594 293.269 65.0681C293.317 65.0121 293.315 64.9234 293.263 64.8701C293.211 64.8174 293.13 64.8194 293.081 64.8761C293.066 64.8934 292.714 65.3041 292.754 65.7288C292.773 65.9241 292.867 66.0881 293.036 66.2154C293.059 66.2334 293.085 66.2414 293.11 66.2414Z" fill="#B9B3CA"/>
</svg>
