<svg width="297" height="297" viewBox="0 0 297 297" fill="none" xmlns="http://www.w3.org/2000/svg">
<g clip-path="url(#clip0_111_1286)">
<path d="M297 0H0V297H297V0Z" fill="white"/>
<path d="M148.501 257.203C208.535 257.203 257.203 208.535 257.203 148.501C257.203 88.4664 208.535 39.7988 148.501 39.7988C88.4664 39.7988 39.7988 88.4664 39.7988 148.501C39.7988 208.535 88.4664 257.203 148.501 257.203Z" fill="#EEF8F4"/>
<path d="M222.296 187.925C222.23 187.925 222.177 187.871 222.177 187.806V165.87C222.177 165.804 222.23 165.751 222.296 165.751C222.361 165.751 222.414 165.804 222.414 165.87V187.806C222.414 187.871 222.361 187.925 222.296 187.925Z" fill="#1E4032"/>
<path d="M196.159 240.489H84.1613C84.0956 240.489 84.0425 240.436 84.0425 240.37V75.4616C84.0425 75.396 84.0956 75.3428 84.1613 75.3428H115.283C115.348 75.3428 115.402 75.396 115.402 75.4616C115.402 75.5272 115.348 75.5804 115.283 75.5804H84.2801V240.252H196.159C196.224 240.252 196.277 240.305 196.277 240.37C196.277 240.436 196.224 240.489 196.159 240.489Z" fill="#1E4032"/>
<path d="M222.297 129.919C222.231 129.919 222.178 129.866 222.178 129.8V75.5804H189.134C189.069 75.5804 189.016 75.5272 189.016 75.4616C189.016 75.396 189.069 75.3428 189.134 75.3428H222.297C222.363 75.3428 222.416 75.396 222.416 75.4616V129.8C222.416 129.866 222.363 129.919 222.297 129.919Z" fill="#1E4032"/>
<path d="M98.2267 228.535H208.232L208.232 80.5064H98.2267L98.2267 228.535Z" fill="white"/>
<path d="M193.249 107.197H113.21V110.008H193.249V107.197Z" fill="#EEF8F4"/>
<path d="M193.249 112.565H113.21V143.593H193.249V112.565Z" fill="#EEF8F4"/>
<path d="M193.249 149.315H113.21V152.126H193.249V149.315Z" fill="#EEF8F4"/>
<path d="M193.249 154.685H113.21V185.713H193.249V154.685Z" fill="#EEF8F4"/>
<path d="M166.871 66.7621C166.871 57.8182 159.621 50.5679 150.677 50.5679C141.733 50.5679 134.483 57.8184 134.483 66.7621H116.725V88.1032H184.629V66.7621H166.871ZM138.744 66.7621C138.744 60.1719 144.087 54.8295 150.677 54.8295C157.267 54.8295 162.61 60.1719 162.61 66.7621H138.744Z" fill="#E8E7EE"/>
<path d="M187.3 85.67H119.159V64.0913H136.917C136.981 55.1505 144.274 47.897 153.23 47.897C162.185 47.897 169.478 55.1505 169.542 64.0913H187.3V85.67ZM119.397 85.4324H187.063V64.3289H169.305V64.2101C169.305 55.3461 162.094 48.1346 153.23 48.1346C144.366 48.1346 137.154 55.346 137.154 64.2101V64.3289H119.397V85.4324ZM165.281 64.3289H141.178V64.2101C141.178 57.5649 146.585 52.1587 153.23 52.1587C159.875 52.1587 165.281 57.5649 165.281 64.2101L165.281 64.3289ZM141.416 64.0913H165.043C164.979 57.6318 159.704 52.3963 153.23 52.3963C146.755 52.3963 141.481 57.6317 141.416 64.0913Z" fill="#4EA682"/>
<path d="M235.363 139.422H182.056V159.208H235.363V139.422Z" fill="#CBE9DD"/>
<path d="M201.69 154.321C201.528 154.321 201.364 154.311 201.199 154.292C199.04 154.036 197.725 152.358 196.937 150.652C195.198 151.165 192.986 150.691 192.11 149.038C192.079 148.98 192.101 148.908 192.159 148.877C192.217 148.847 192.289 148.869 192.32 148.927C193.135 150.464 195.2 150.906 196.839 150.433C196.275 149.139 196.007 147.862 195.898 147.212C194.811 140.77 195.773 133.981 198.605 128.096C199.75 125.717 201.832 123.386 204.241 123.973C206.895 124.62 207.452 128.075 207.123 130.836C206.467 136.333 204.551 141.708 201.581 146.381C200.579 147.956 199.301 149.675 197.415 150.48C197.333 150.515 197.249 150.548 197.164 150.578C197.925 152.218 199.184 153.813 201.227 154.056C203.348 154.307 205.284 152.786 206.263 151.167C206.375 150.982 206.48 150.793 206.577 150.6C204.925 149.075 204.1 146.66 204.573 144.418C204.772 143.472 205.428 142.57 206.167 142.225C206.613 142.018 207.064 142.023 207.471 142.241C208.259 142.661 208.525 143.682 208.263 145.276C207.984 146.976 207.672 148.873 206.87 150.543C207.147 150.785 207.448 151 207.769 151.185C210.05 152.502 213.162 152.11 215.008 150.273C215.211 150.071 215.396 149.854 215.563 149.624C215.01 148.924 214.638 148.04 214.511 147.069C214.301 145.462 214.8 143.911 215.846 142.922C215.872 142.897 215.907 142.886 215.942 142.89C215.977 142.894 216.009 142.914 216.028 142.944C217.294 144.92 217.179 147.662 215.86 149.612C216.181 149.985 216.558 150.296 216.981 150.526C218.179 151.177 219.727 151.169 221.122 150.504C222.516 149.839 223.497 148.641 223.745 147.299C223.757 147.235 223.819 147.192 223.884 147.204C223.948 147.216 223.991 147.278 223.979 147.343C223.717 148.759 222.687 150.02 221.224 150.718C219.761 151.416 218.132 151.422 216.867 150.734C216.436 150.5 216.05 150.186 215.719 149.811C215.554 150.034 215.373 150.245 215.175 150.442C213.257 152.351 210.021 152.76 207.65 151.391C207.334 151.209 207.037 150.998 206.761 150.763C206.669 150.941 206.571 151.118 206.467 151.29C205.523 152.85 203.718 154.32 201.69 154.321ZM206.817 142.31C206.638 142.31 206.454 142.354 206.268 142.441C205.602 142.751 204.987 143.603 204.805 144.467C204.355 146.605 205.127 148.906 206.685 150.377C207.451 148.752 207.756 146.9 208.029 145.238C208.272 143.755 208.047 142.818 207.359 142.45C207.184 142.357 207.003 142.31 206.817 142.31ZM203.486 124.119C201.509 124.119 199.809 126.143 198.82 128.199C196.008 134.041 195.054 140.779 196.132 147.172C196.24 147.814 196.506 149.083 197.065 150.361C197.152 150.331 197.238 150.298 197.321 150.262C199.148 149.482 200.398 147.798 201.38 146.253C204.331 141.611 206.235 136.27 206.887 130.808C207.205 128.143 206.688 124.814 204.185 124.204C203.949 124.146 203.715 124.119 203.486 124.119ZM215.905 143.197C214.986 144.138 214.554 145.561 214.747 147.039C214.864 147.94 215.202 148.762 215.704 149.419C216.908 147.591 217.027 145.064 215.905 143.197Z" fill="#1E4032"/>
<path d="M111.02 171.466C97.483 168.984 83.9459 166.502 70.4093 164.021C49.4007 196.082 50.8492 236.262 54.7411 247.272C59.8512 247.432 67.751 247.393 85.5968 247.331V205.514H91.5045L94.0192 247.265C108.361 247.215 126.445 247.186 130.503 247.272C121.901 210.51 113.293 177.441 111.02 171.466Z" fill="#1E4032"/>
<path d="M110.496 153.789C121.472 156.421 152.685 165.959 156.544 152.811C159.737 141.935 128.93 133.988 118.2 130.667C115.632 138.374 113.064 146.081 110.496 153.789Z" fill="#AF7F7A"/>
<path d="M136.131 145.291C136.131 145.29 136.131 145.29 136.131 145.289C147.167 128.011 154.666 115.541 157.133 111.782C157.391 111.388 157.844 110.691 158.655 109.979C161.664 107.339 164.782 108.716 169.211 107.384C174.237 105.872 176.211 102.176 177.333 102.909C178.114 103.418 177.762 105.022 175.91 107.766C175.91 107.767 175.911 107.767 175.911 107.767C177.557 105.844 179.903 103.333 180.963 104.246C182.131 105.365 179.721 108.639 178.166 110.548C180.048 108.237 181.74 107.571 182.204 108.228C182.935 109.261 181.893 111.392 179.287 114.35L179.287 114.35C181.657 112.81 182.461 112.79 182.73 113.47C183.221 114.712 181.033 117.103 178.775 118.92C176.232 120.966 173.551 121.671 171.85 122.075C171.849 122.075 171.849 122.075 171.848 122.076C165.373 134.978 160.643 143.025 156.209 153.811C153.384 160.685 137.051 156.497 136.131 145.291Z" fill="#AF7F7A"/>
<path d="M135.93 145.5C135.908 145.5 135.886 145.494 135.866 145.481C135.811 145.446 135.794 145.372 135.83 145.317C137.338 142.955 138.881 140.524 140.417 138.092C140.452 138.036 140.525 138.02 140.581 138.054C140.636 138.089 140.653 138.163 140.618 138.218C139.082 140.651 137.538 143.083 136.03 145.445C136.007 145.48 135.969 145.5 135.93 145.5Z" fill="#1E4032"/>
<path d="M165.434 109.554C167.944 105.008 167.886 102.836 167.152 102.462C165.92 101.831 162.188 104.836 157.683 111.018C159.879 110.804 163.238 109.768 165.434 109.554Z" fill="#AF7F7A"/>
<path d="M164.453 118.267C164.433 118.267 164.414 118.262 164.395 118.252C164.338 118.22 164.317 118.148 164.349 118.091C164.801 117.268 165.65 116.125 167.124 115.349C169.21 114.25 171.251 114.6 172.032 114.801C172.096 114.818 172.134 114.883 172.117 114.946C172.101 115.01 172.036 115.048 171.973 115.031C171.218 114.837 169.248 114.499 167.235 115.559C165.813 116.308 164.994 117.411 164.557 118.205C164.535 118.244 164.495 118.267 164.453 118.267Z" fill="#1E4032"/>
<path d="M161.027 108.921C160.977 108.921 160.93 108.888 160.914 108.838C160.894 108.775 160.929 108.708 160.991 108.689C162.086 108.342 163.241 108.264 164.464 108.181C165.035 108.143 165.626 108.103 166.243 108.035C166.309 108.027 166.367 108.074 166.374 108.139C166.382 108.205 166.335 108.263 166.269 108.271C165.647 108.34 165.054 108.38 164.479 108.418C163.272 108.5 162.131 108.577 161.063 108.915C161.051 108.919 161.039 108.921 161.027 108.921Z" fill="#1E4032"/>
<path d="M171.855 110.31C171.806 110.31 171.76 110.28 171.743 110.23C171.721 110.168 171.754 110.101 171.816 110.079C172.407 109.876 172.981 109.616 173.522 109.308C174.308 108.861 175.032 108.309 175.676 107.667C175.723 107.62 175.798 107.62 175.844 107.667C175.891 107.713 175.891 107.788 175.844 107.835C175.185 108.492 174.444 109.057 173.64 109.514C173.086 109.83 172.498 110.095 171.894 110.304C171.881 110.308 171.868 110.31 171.855 110.31Z" fill="#1E4032"/>
<path d="M174.344 112.785C174.295 112.785 174.249 112.754 174.232 112.705C174.211 112.643 174.244 112.576 174.306 112.554C174.896 112.35 175.47 112.091 176.011 111.783C176.797 111.336 177.522 110.784 178.165 110.142C178.212 110.095 178.287 110.095 178.333 110.142C178.38 110.188 178.38 110.263 178.333 110.31C177.674 110.967 176.933 111.532 176.129 111.99C175.575 112.305 174.988 112.57 174.383 112.779C174.37 112.783 174.357 112.785 174.344 112.785Z" fill="#1E4032"/>
<path d="M175.31 116.942C175.261 116.942 175.215 116.911 175.198 116.862C175.177 116.8 175.209 116.732 175.271 116.711C175.862 116.507 176.436 116.247 176.977 115.939C177.763 115.492 178.488 114.94 179.131 114.298C179.178 114.252 179.253 114.252 179.299 114.298C179.346 114.344 179.346 114.42 179.299 114.466C178.64 115.123 177.899 115.688 177.095 116.146C176.541 116.461 175.953 116.727 175.349 116.935C175.336 116.94 175.323 116.942 175.31 116.942Z" fill="#1E4032"/>
<path d="M43.9873 140.902C48.3905 136.104 69.3778 117.302 97.743 121.942C114.1 124.618 124.493 129.314 130.503 133.125C124.503 143.981 122.561 146.384 119.176 150.595C120.906 159.394 122.636 168.193 124.365 176.992C111.506 176.879 69.9926 175.638 56.9072 175.187C59.2385 167.742 61.5698 163.759 63.901 156.314C62.0962 157.818 62.4189 152.695 60.6141 154.199C56.4402 147.24 50.4145 144.207 43.9873 140.902Z" fill="#1C0B54"/>
<path d="M90.8027 215.301L66.9712 204.083L92.2091 178.679L116.04 189.898L90.8027 215.301Z" fill="white"/>
<path d="M47.6269 142.652C45.6258 152.169 37.3976 177.575 55.2165 181.998C61.9387 183.666 65.1271 163.925 67.7268 154.603C61.5502 150.054 54.0874 146.317 47.6269 142.652Z" fill="#AF7F7A"/>
<path d="M63.4776 165.911C70.5006 171.59 87.7016 184.144 89.3319 185.437C92.3793 187.853 108.398 201.242 106.716 203.763C105.913 204.968 102.71 202.528 101.652 201.671C102.166 202.785 104.603 206.846 103.383 207.916C101.949 209.174 98.3042 204.779 98.2043 204.747C98.841 205.824 101.551 210.014 100.667 210.852C99.5178 211.942 95.828 208.801 94.7668 207.809C94.7428 208.058 97.894 211.66 96.5788 213.018C95.6131 214.016 92.2324 211.128 90.762 209.88C88.0526 207.736 55.1929 184.501 49.6372 179.403C47.4627 177.408 58.6161 165.941 63.4776 165.911Z" fill="#AF7F7A"/>
<path d="M78.9762 177.731C78.9514 177.731 78.9262 177.723 78.9049 177.707C75.2414 174.946 65.773 167.633 63.4914 165.829C63.4399 165.788 63.4312 165.714 63.472 165.662C63.5126 165.611 63.5873 165.602 63.6388 165.643C65.9196 167.446 75.3853 174.757 79.0478 177.517C79.1002 177.557 79.1107 177.631 79.0712 177.684C79.0478 177.715 79.0123 177.731 78.9762 177.731Z" fill="#1E4032"/>
<path d="M101.778 201.707C101.739 201.707 101.7 201.687 101.677 201.65C101.254 200.961 100.779 200.296 100.266 199.673C99.3442 198.555 98.2803 197.548 97.1039 196.68C97.0512 196.641 97.0399 196.567 97.0789 196.514C97.118 196.461 97.1922 196.45 97.2449 196.489C98.437 197.368 99.515 198.389 100.449 199.522C100.969 200.153 101.45 200.827 101.879 201.526C101.914 201.582 101.896 201.655 101.84 201.689C101.821 201.701 101.8 201.707 101.778 201.707Z" fill="#1E4032"/>
<path d="M98.3267 204.835C98.2912 204.835 98.256 204.819 98.2327 204.789C98.1288 204.654 98.021 204.52 97.9092 204.384C96.9873 203.265 95.9236 202.258 94.7475 201.391C94.6947 201.352 94.6835 201.277 94.7224 201.225C94.7614 201.172 94.8356 201.161 94.8885 201.199C96.0803 202.078 97.1583 203.099 98.0925 204.233C98.2037 204.368 98.3141 204.506 98.4204 204.643C98.4607 204.695 98.4512 204.769 98.3993 204.81C98.3777 204.827 98.3521 204.835 98.3267 204.835Z" fill="#1E4032"/>
<path d="M94.7194 207.837C94.6885 207.837 94.6577 207.825 94.6344 207.801C93.9719 207.124 93.2466 206.494 92.4789 205.928C92.4262 205.889 92.4149 205.814 92.4539 205.762C92.4928 205.709 92.5671 205.698 92.6199 205.737C93.3979 206.31 94.1326 206.949 94.8042 207.635C94.8501 207.682 94.8492 207.757 94.8023 207.803C94.7794 207.825 94.7493 207.837 94.7194 207.837Z" fill="#1E4032"/>
<path d="M78.9915 132.085C78.2679 132.085 77.5609 131.716 76.9807 131.029C76.3557 130.29 75.9513 129.267 75.8419 128.149C75.7325 127.032 75.9309 125.95 76.4006 125.103C76.8783 124.242 77.5792 123.725 78.3742 123.647C79.1699 123.57 79.9571 123.941 80.5927 124.693C81.2177 125.432 81.6221 126.455 81.7315 127.573C81.8409 128.69 81.6425 129.772 81.1728 130.619C80.6952 131.48 79.9943 131.997 79.1993 132.075C79.1299 132.082 79.0606 132.085 78.9915 132.085ZM78.5809 123.875C78.5197 123.875 78.4587 123.878 78.3975 123.884C77.6826 123.954 77.0471 124.428 76.6084 125.218C76.1618 126.023 75.9735 127.056 76.0783 128.126C76.1831 129.196 76.568 130.173 77.1622 130.876C77.7459 131.567 78.4615 131.908 79.176 131.838C79.8911 131.768 80.5264 131.294 80.965 130.504C81.4117 129.699 81.5999 128.666 81.4951 127.596C81.3903 126.526 81.0054 125.549 80.4113 124.846C79.8776 124.215 79.2339 123.875 78.5809 123.875Z" fill="#E8E7EE"/>
<path d="M81.7384 136.913C80.5577 136.913 79.1912 136.166 78.2145 134.862C77.5411 133.964 77.1495 132.936 77.1119 131.968C77.0736 130.984 77.4046 130.179 78.044 129.7C78.6835 129.221 79.5496 129.129 80.4828 129.442C81.4009 129.75 82.2772 130.415 82.9507 131.314C83.624 132.213 84.0156 133.241 84.0532 134.208C84.0915 135.192 83.7605 135.998 83.1211 136.477C82.7265 136.772 82.2499 136.913 81.7384 136.913ZM79.4313 129.498C78.9594 129.498 78.5339 129.629 78.1864 129.89C77.6114 130.321 77.3141 131.056 77.3494 131.959C77.3851 132.879 77.7599 133.859 78.4048 134.72C79.7259 136.484 81.7781 137.186 82.9788 136.286C83.5538 135.856 83.8512 135.121 83.8159 134.217C83.7801 133.297 83.4053 132.317 82.7605 131.456C82.1157 130.596 81.28 129.961 80.4073 129.668C80.0682 129.554 79.7398 129.498 79.4313 129.498Z" fill="#E8E7EE"/>
<path d="M86.3457 140.796C85.4742 140.796 84.5011 140.525 83.5936 139.972C82.6345 139.388 81.889 138.579 81.4948 137.695C81.0937 136.795 81.1018 135.924 81.5174 135.242C81.933 134.56 82.7033 134.153 83.6863 134.097C84.6513 134.042 85.7135 134.334 86.6727 134.918C87.6317 135.502 88.3772 136.311 88.7715 137.196C89.1726 138.095 89.1646 138.966 88.749 139.648C88.2864 140.407 87.3889 140.796 86.3457 140.796ZM83.9204 134.329C83.8463 134.329 83.7729 134.331 83.6998 134.335C82.797 134.386 82.0941 134.752 81.7205 135.366C81.3466 135.979 81.3435 136.772 81.7118 137.598C82.0867 138.439 82.7989 139.21 83.7174 139.769C85.5994 140.916 87.7654 140.806 88.5461 139.524C88.9199 138.911 88.9228 138.118 88.5546 137.292C88.1796 136.452 87.4674 135.681 86.549 135.121C85.7037 134.606 84.779 134.329 83.9204 134.329Z" fill="#E8E7EE"/>
<path d="M91.3465 141.887C91.2398 141.887 91.1329 141.885 91.0254 141.879C88.694 141.758 86.866 140.334 86.9506 138.705C87.0353 137.075 89.0014 135.848 91.3324 135.969C93.6638 136.09 95.4918 137.514 95.4072 139.144C95.3658 139.942 94.8813 140.665 94.0431 141.182C93.2978 141.641 92.3502 141.887 91.3465 141.887ZM91.0134 136.198C88.9497 136.198 87.2623 137.288 87.1881 138.717C87.1102 140.215 88.8372 141.527 91.0378 141.642C92.1108 141.698 93.1347 141.462 93.9184 140.98C94.6881 140.505 95.1327 139.849 95.1699 139.131C95.2477 137.633 93.5207 136.321 91.3202 136.206C91.217 136.201 91.1146 136.198 91.0134 136.198Z" fill="#E8E7EE"/>
<path d="M96.5458 141.333C95.0562 141.333 93.8082 140.69 93.4311 139.584C92.9044 138.04 94.2737 136.17 96.4831 135.417C97.5462 135.054 98.6445 135 99.5764 135.263C100.524 135.531 101.188 136.095 101.445 136.851C101.703 137.607 101.522 138.459 100.936 139.25C100.359 140.027 99.4565 140.655 98.3936 141.018C97.7659 141.232 97.1367 141.333 96.5458 141.333ZM98.3388 135.336C97.7611 135.336 97.1553 135.439 96.5598 135.642C94.4742 136.353 93.1716 138.087 93.6559 139.508C94.1404 140.928 96.2311 141.504 98.3168 140.793C99.3345 140.446 100.197 139.848 100.745 139.108C101.284 138.382 101.453 137.607 101.221 136.927C100.989 136.247 100.382 135.737 99.5118 135.492C99.1442 135.388 98.7486 135.336 98.3388 135.336Z" fill="#E8E7EE"/>
<path d="M101.461 138.083C101.005 138.083 100.584 137.964 100.221 137.727C98.8554 136.834 98.7835 134.518 100.061 132.564C100.675 131.624 101.507 130.904 102.404 130.538C103.316 130.166 104.186 130.202 104.854 130.639C106.22 131.531 106.292 133.847 105.014 135.802C104.4 136.742 103.568 137.461 102.672 137.827C102.254 137.997 101.845 138.083 101.461 138.083ZM103.614 130.521C103.26 130.521 102.882 130.6 102.494 130.758C101.641 131.106 100.848 131.793 100.26 132.694C99.0542 134.538 99.095 136.707 100.351 137.528C100.952 137.921 101.744 137.949 102.582 137.607C103.434 137.259 104.227 136.572 104.815 135.671C106.021 133.827 105.98 131.658 104.724 130.838C104.402 130.627 104.024 130.521 103.614 130.521Z" fill="#E8E7EE"/>
<path d="M104.662 132.61C104.522 132.61 104.381 132.596 104.242 132.568C103.459 132.41 102.814 131.825 102.425 130.921C102.043 130.031 101.954 128.935 102.175 127.834C102.397 126.733 102.902 125.756 103.598 125.083C104.306 124.399 105.127 124.108 105.911 124.266C107.51 124.588 108.437 126.711 107.977 129C107.756 130.101 107.251 131.078 106.554 131.751C105.972 132.313 105.314 132.61 104.662 132.61ZM105.492 124.462C104.902 124.462 104.3 124.735 103.763 125.254C103.101 125.894 102.62 126.826 102.408 127.881C102.197 128.935 102.28 129.981 102.643 130.827C103 131.658 103.585 132.193 104.289 132.335C104.993 132.476 105.739 132.208 106.389 131.58C107.051 130.94 107.533 130.007 107.744 128.953C108.179 126.793 107.335 124.795 105.864 124.499C105.741 124.474 105.617 124.462 105.492 124.462Z" fill="#E8E7EE"/>
<path d="M69.6954 107.683C61.5639 107.683 54.9482 101.068 54.9482 92.9361C54.9482 84.8045 61.5639 78.189 69.6954 78.189C77.827 78.189 84.4426 84.8045 84.4426 92.9361C84.4426 101.068 77.827 107.683 69.6954 107.683ZM69.6954 78.4266C61.6948 78.4266 55.1858 84.9355 55.1858 92.9361C55.1858 100.937 61.6948 107.446 69.6954 107.446C77.6961 107.446 84.205 100.937 84.205 92.9361C84.205 84.9355 77.6959 78.4266 69.6954 78.4266Z" fill="#1E4032"/>
<path d="M85.2008 99.5752C92.3188 92.4573 92.3188 80.9167 85.2008 73.7988C78.0829 66.6808 66.5423 66.6808 59.4244 73.7988C52.3064 80.9168 52.3064 92.4573 59.4244 99.5752C66.5423 106.693 78.0829 106.693 85.2008 99.5752Z" fill="#1E4032"/>
<path d="M100.198 109.572C105 104.77 105 96.9846 100.198 92.1826C95.3963 87.3805 87.6107 87.3805 82.8086 92.1826C78.0066 96.9846 78.0066 104.77 82.8086 109.572C87.6107 114.374 95.3963 114.374 100.198 109.572Z" fill="#1E4032"/>
<path d="M101.558 115.941C98.841 117.871 91.1657 112.632 91.1657 112.632L86.7744 103.447C86.7744 98.7584 90.5749 94.958 95.263 94.958C99.9511 94.958 103.752 98.7585 103.752 103.447C103.752 103.447 104.325 113.976 101.558 115.941Z" fill="#AF7F7A"/>
<path d="M92.3966 129.315C97.8255 129.315 102.226 127.511 102.226 125.285C102.226 123.059 97.8255 121.255 92.3966 121.255C86.9678 121.255 82.5669 123.059 82.5669 125.285C82.5669 127.511 86.9678 129.315 92.3966 129.315Z" fill="#AF7F7A"/>
<path d="M97.266 103.352H86.7744V124.813H97.266V103.352Z" fill="#AF7F7A"/>
<path d="M102.776 105.679C102.776 105.679 105.157 108.173 105.03 108.832C104.879 109.618 102.227 110.098 102.227 110.098C102.227 110.098 102.839 105.685 102.776 105.679Z" fill="#AF7F7A"/>
<path d="M98.9517 116.535C98.9448 116.535 98.9378 116.534 98.9308 116.533C95.6198 115.944 91.1435 112.908 91.0988 112.877C91.0446 112.84 91.0306 112.766 91.0675 112.712C91.1045 112.658 91.1787 112.644 91.2326 112.681C91.2771 112.711 95.7119 115.719 98.9722 116.299C99.0369 116.311 99.0799 116.372 99.0685 116.437C99.0582 116.494 99.0081 116.535 98.9517 116.535Z" fill="#1E4032"/>
<path d="M94.2739 104.724C94.2739 104.724 95.8314 103.886 97.709 103.886C98.1084 103.886 97.3549 107.083 96.9757 106.902C95.3083 106.106 94.2739 104.724 94.2739 104.724Z" fill="white"/>
<mask id="mask0_111_1286" style="mask-type:luminance" maskUnits="userSpaceOnUse" x="94" y="103" width="9" height="5">
<path d="M94.2739 104.724C94.2739 104.724 96.5647 103.492 98.9388 104.016C101.313 104.541 102.872 106.623 102.872 106.623C102.872 106.623 100.581 107.855 98.2067 107.331C95.8325 106.806 94.2739 104.724 94.2739 104.724Z" fill="white"/>
</mask>
<g mask="url(#mask0_111_1286)">
<path d="M100.036 109.233C101.792 109.233 103.216 107.809 103.216 106.053C103.216 104.297 101.792 102.874 100.036 102.874C98.2796 102.874 96.856 104.297 96.856 106.053C96.856 107.809 98.2796 109.233 100.036 109.233Z" fill="#1E4032"/>
</g>
<path d="M99.7648 111.693C99.4952 111.693 99.2264 111.617 98.9924 111.465C98.5415 111.173 98.2914 110.637 98.355 110.1C98.3627 110.035 98.422 109.989 98.487 109.996C98.5521 110.004 98.5987 110.063 98.5909 110.128C98.538 110.576 98.7462 111.022 99.1216 111.266C99.5114 111.519 100.018 111.519 100.411 111.266C100.467 111.23 100.54 111.246 100.576 111.301C100.611 111.357 100.595 111.43 100.54 111.466C100.304 111.617 100.034 111.693 99.7648 111.693Z" fill="#1E4032"/>
<path d="M84.7082 105.678C84.7082 105.678 87.4148 104.592 90.2088 107.46L92.0199 106.468C92.0199 106.468 90.9709 94.9172 103.631 99.4574C103.631 99.4574 99.2891 89.7577 90.8199 93.3197C82.3509 96.8817 84.7082 105.678 84.7082 105.678Z" fill="#1E4032"/>
<path d="M84.6021 107.709C85.0974 109.368 86.6679 110.363 88.1103 109.932C89.5525 109.502 90.3202 107.808 89.825 106.149C89.3299 104.491 87.7592 103.495 86.3168 103.926C84.8746 104.357 84.1068 106.05 84.6021 107.709Z" fill="#AF7F7A"/>
<path d="M88.6986 106.549C88.6474 106.549 88.6001 106.516 88.5848 106.465C88.3207 105.58 87.4866 105.046 86.726 105.273C86.2708 105.409 85.923 105.797 85.7956 106.312C85.7798 106.375 85.7152 106.414 85.6518 106.398C85.5881 106.382 85.5492 106.318 85.565 106.254C85.7128 105.657 86.1215 105.205 86.658 105.045C87.5445 104.78 88.5109 105.387 88.8124 106.397C88.8312 106.46 88.7955 106.526 88.7326 106.544C88.7212 106.548 88.7098 106.549 88.6986 106.549Z" fill="#1E4032"/>
<path d="M87.3343 114.223C85.8735 114.223 84.6851 113.035 84.6851 111.574C84.6851 110.113 85.8735 108.925 87.3343 108.925C88.7952 108.925 89.9837 110.113 89.9837 111.574C89.9837 113.035 88.7951 114.223 87.3343 114.223ZM87.3343 109.162C86.0046 109.162 84.9227 110.244 84.9227 111.574C84.9227 112.904 86.0044 113.986 87.3343 113.986C88.6641 113.986 89.7461 112.904 89.7461 111.574C89.7461 110.244 88.6641 109.162 87.3343 109.162Z" fill="#1C0B54"/>
<path d="M154.324 85.4071C150.215 85.4071 146.872 82.0643 146.872 77.9555C146.872 73.8466 150.215 70.5039 154.324 70.5039C158.433 70.5039 161.775 73.8467 161.775 77.9555C161.775 82.0643 158.433 85.4071 154.324 85.4071ZM154.324 70.7415C150.346 70.7415 147.11 73.9777 147.11 77.9555C147.11 81.9333 150.346 85.1695 154.324 85.1695C158.302 85.1695 161.538 81.9333 161.538 77.9555C161.538 73.9777 158.302 70.7415 154.324 70.7415Z" fill="#1E4032"/>
<path d="M172.96 102.874C168.852 102.874 165.509 99.5316 165.509 95.4228C165.509 91.314 168.852 87.9712 172.96 87.9712C177.069 87.9712 180.412 91.314 180.412 95.4228C180.412 99.5317 177.069 102.874 172.96 102.874ZM172.96 88.2089C168.983 88.2089 165.746 91.4451 165.746 95.4229C165.746 99.4007 168.983 102.637 172.96 102.637C176.938 102.637 180.175 99.4007 180.175 95.4229C180.174 91.445 176.938 88.2089 172.96 88.2089Z" fill="#1E4032"/>
<path d="M147.668 102.781C147.637 102.781 147.607 102.77 147.584 102.747C147.537 102.7 147.537 102.625 147.584 102.579L179.532 70.6301C179.579 70.5836 179.654 70.5836 179.7 70.6301C179.747 70.6765 179.747 70.7516 179.7 70.798L147.752 102.747C147.728 102.77 147.698 102.781 147.668 102.781Z" fill="#1E4032"/>
<path d="M249.759 71.375L208.193 56.7701L209.81 45.833L251.376 60.4379L249.759 71.375Z" fill="#57B890"/>
<path d="M246.54 67.6109L211.623 55.3425L212.519 49.2827L247.436 61.5512L246.54 67.6109Z" fill="#1C0B54"/>
<path d="M249.786 71.3326L208.218 56.7275L196.356 90.4901L237.924 105.095L249.786 71.3326Z" fill="#57B890"/>
<path d="M238.065 96.7267L232.806 94.8789L230.958 100.138L236.217 101.986L238.065 96.7267Z" fill="#1C0B54"/>
<path d="M240.902 88.6559L235.643 86.8081L233.795 92.0673L239.054 93.9151L240.902 88.6559Z" fill="#1C0B54"/>
<path d="M243.737 80.5832L238.478 78.7354L236.63 83.9945L241.889 85.8423L243.737 80.5832Z" fill="white"/>
<path d="M246.573 72.5124L241.314 70.6646L239.466 75.9237L244.725 77.7715L246.573 72.5124Z" fill="white"/>
<path d="M230.206 93.965L224.947 92.1172L223.099 97.3764L228.359 99.2242L230.206 93.965Z" fill="white"/>
<path d="M233.043 85.8942L227.784 84.0464L225.936 89.3055L231.196 91.1534L233.043 85.8942Z" fill="white"/>
<path d="M235.878 77.8224L230.619 75.9746L228.771 81.2338L234.03 83.0816L235.878 77.8224Z" fill="white"/>
<path d="M238.715 69.7502L233.456 67.9023L231.608 73.1615L236.867 75.0093L238.715 69.7502Z" fill="white"/>
<path d="M222.347 91.2047L217.087 89.3569L215.24 94.6161L220.499 96.4639L222.347 91.2047Z" fill="white"/>
<path d="M225.184 83.1315L219.925 81.2837L218.077 86.5428L223.337 88.3907L225.184 83.1315Z" fill="white"/>
<path d="M228.019 75.0622L222.76 73.2144L220.912 78.4735L226.172 80.3213L228.019 75.0622Z" fill="white"/>
<path d="M230.856 66.9899L225.597 65.1421L223.749 70.4012L229.008 72.2491L230.856 66.9899Z" fill="white"/>
<path d="M214.49 88.442L209.23 86.5942L207.383 91.8534L212.642 93.7012L214.49 88.442Z" fill="white"/>
<path d="M217.324 80.3712L212.065 78.5234L210.217 83.7826L215.476 85.6304L217.324 80.3712Z" fill="white"/>
<path d="M220.162 72.3L214.903 70.4521L213.055 75.7113L218.314 77.5591L220.162 72.3Z" fill="white"/>
<path d="M222.997 64.2287L217.738 62.3809L215.89 67.64L221.149 69.4878L222.997 64.2287Z" fill="#1C0B54"/>
<path d="M209.343 77.9611L204.084 76.1133L199.524 89.0929L204.783 90.9408L209.343 77.9611Z" fill="white"/>
<path d="M212.302 69.5378L207.043 67.6899L205.195 72.9491L210.454 74.7969L212.302 69.5378Z" fill="white"/>
<path d="M215.138 61.467L209.879 59.6191L208.031 64.8783L213.29 66.7261L215.138 61.467Z" fill="#1C0B54"/>
<path d="M159.461 236.261H241.618V197.394H159.461V236.261Z" fill="#E8E7EE"/>
<path d="M244.102 197.512H242.732C242.666 197.512 242.613 197.459 242.613 197.393C242.613 197.328 242.666 197.275 242.732 197.275H243.983V194.828L196.633 184.57C196.569 184.556 196.528 184.493 196.542 184.429C196.556 184.364 196.619 184.324 196.683 184.338L244.127 194.616C244.182 194.628 244.221 194.677 244.221 194.733V197.393C244.221 197.459 244.168 197.512 244.102 197.512Z" fill="#1C0B54"/>
<path d="M148.198 236.261H195.996V175.921L172.097 158.845L148.198 175.921V236.261Z" fill="#57B890"/>
<path d="M195.997 174.344C195.973 174.344 195.949 174.337 195.928 174.322L172.097 157.295L148.267 174.322C148.214 174.36 148.139 174.347 148.101 174.294C148.063 174.241 148.075 174.166 148.129 174.128L172.028 157.052C172.069 157.022 172.125 157.022 172.166 157.052L196.066 174.128C196.119 174.166 196.131 174.241 196.093 174.294C196.07 174.327 196.034 174.344 195.997 174.344Z" fill="#1C0B54"/>
<path d="M154.472 191.717H189.597V175.85H154.472V191.717Z" fill="#1C0B54"/>
<path d="M173.855 236.261H189.722V209.454H173.855V236.261Z" fill="#1E4032"/>
<path d="M154.472 227.653H170.339V200.846H154.472V227.653Z" fill="#1C0B54"/>
<path d="M241.618 236.38C241.552 236.38 241.499 236.326 241.499 236.261V197.512H143.694C143.628 197.512 143.575 197.459 143.575 197.393C143.575 197.328 143.628 197.274 143.694 197.274H241.618C241.684 197.274 241.737 197.328 241.737 197.393V236.261C241.737 236.326 241.684 236.38 241.618 236.38Z" fill="#1C0B54"/>
<path d="M236.01 236.381C235.944 236.381 235.891 236.328 235.891 236.262V209.924H201.202V236.262C201.202 236.328 201.149 236.381 201.083 236.381C201.017 236.381 200.964 236.328 200.964 236.262V209.805C200.964 209.739 201.017 209.686 201.083 209.686H236.01C236.075 209.686 236.128 209.739 236.128 209.805V236.262C236.128 236.328 236.075 236.381 236.01 236.381Z" fill="#1C0B54"/>
<path d="M234.288 213.343H202.804C202.739 213.343 202.686 213.289 202.686 213.224C202.686 213.158 202.739 213.105 202.804 213.105H234.288C234.354 213.105 234.407 213.158 234.407 213.224C234.407 213.289 234.354 213.343 234.288 213.343Z" fill="#1C0B54"/>
<path d="M234.288 217.266H202.804C202.739 217.266 202.686 217.213 202.686 217.147C202.686 217.082 202.739 217.028 202.804 217.028H234.288C234.354 217.028 234.407 217.082 234.407 217.147C234.407 217.213 234.354 217.266 234.288 217.266Z" fill="#1C0B54"/>
<path d="M234.288 221.19H202.804C202.739 221.19 202.686 221.137 202.686 221.071C202.686 221.006 202.739 220.953 202.804 220.953H234.288C234.354 220.953 234.407 221.006 234.407 221.071C234.407 221.137 234.354 221.19 234.288 221.19Z" fill="#1C0B54"/>
<path d="M234.288 225.113H202.804C202.739 225.113 202.686 225.059 202.686 224.994C202.686 224.928 202.739 224.875 202.804 224.875H234.288C234.354 224.875 234.407 224.928 234.407 224.994C234.407 225.059 234.354 225.113 234.288 225.113Z" fill="#1C0B54"/>
<path d="M234.288 229.037H202.804C202.739 229.037 202.686 228.984 202.686 228.918C202.686 228.853 202.739 228.799 202.804 228.799H234.288C234.354 228.799 234.407 228.853 234.407 228.918C234.407 228.984 234.354 229.037 234.288 229.037Z" fill="#1C0B54"/>
<path d="M234.288 232.961H202.804C202.739 232.961 202.686 232.908 202.686 232.842C202.686 232.777 202.739 232.724 202.804 232.724H234.288C234.354 232.724 234.407 232.777 234.407 232.842C234.407 232.908 234.354 232.961 234.288 232.961Z" fill="#1C0B54"/>
<path d="M236.009 200.846H201.083V206.776H236.009V200.846Z" fill="#1C0B54"/>
</g>
<defs>
<clipPath id="clip0_111_1286">
<rect width="297" height="297" fill="white"/>
</clipPath>
</defs>
</svg>
