<svg width="240" height="240" viewBox="0 0 240 240" fill="none" xmlns="http://www.w3.org/2000/svg">
<path d="M133.649 221.788C125.376 217.871 122.075 208.562 120.909 199.888C120.714 198.441 120.299 196.95 120.77 195.571C121.242 194.192 122.693 193.059 124.085 193.447C125.239 193.77 125.915 194.934 126.687 195.862C127.715 197.095 129.091 198.027 130.609 198.515C131.606 198.836 132.789 198.935 133.61 198.283C134.735 197.388 134.592 195.648 134.34 194.217C133.872 191.552 133.404 188.886 132.936 186.221C132.685 184.791 132.434 183.33 132.649 181.896C132.864 180.461 133.635 179.033 134.932 178.421C136.23 177.809 138.047 178.31 138.571 179.662C138.79 180.225 138.773 180.851 138.913 181.438C139.054 182.026 139.442 182.637 140.034 182.706C140.634 182.777 141.138 182.275 141.495 181.783C142.728 180.088 143.416 178.056 144.04 176.045C144.664 174.035 145.253 171.985 146.327 170.182C147.401 168.378 149.044 166.815 151.075 166.352C153.106 165.889 155.504 166.785 156.363 168.71C157.224 170.641 156.393 172.887 155.388 174.738C153.897 177.484 152.011 180.008 149.807 182.207C149.41 182.603 148.979 183.032 148.896 183.591C148.747 184.599 149.812 185.393 150.807 185.548C151.934 185.723 153.074 185.416 154.212 185.359C155.351 185.301 156.644 185.589 157.245 186.573C158.078 187.937 157.114 189.678 156.08 190.886C154.009 193.306 151.524 195.361 148.769 196.934C147.781 197.497 146.73 198.023 146.006 198.906C145.282 199.791 144.987 201.163 145.67 202.085C146.355 203.007 147.726 203.107 148.795 202.716C149.863 202.325 150.749 201.559 151.733 200.985C153.575 199.909 156.139 199.615 157.687 201.102C158.704 202.08 159.04 203.624 158.847 205.027C158.654 206.43 157.998 207.722 157.275 208.933C154.747 213.166 151.214 216.827 146.918 219.182C142.622 221.536 138.465 222.68 133.649 221.788Z" fill="#CBE9DD"/>
<path d="M134.963 216.006C135.496 211.439 136.496 206.482 137.719 201.333C138.029 200.047 138.336 198.776 138.639 197.523C138.944 196.274 139.246 195.034 139.616 193.841C140.347 191.45 141.232 189.207 142.138 187.104C143.044 185 143.98 183.036 144.869 181.206C145.762 179.377 146.626 177.689 147.48 176.183C149.178 173.165 150.833 170.897 152.033 169.386C152.631 168.628 153.114 168.056 153.447 167.672C153.608 167.49 153.733 167.346 153.828 167.238C153.915 167.142 153.962 167.094 153.965 167.097C153.969 167.099 153.93 167.154 153.849 167.256C153.76 167.368 153.64 167.517 153.488 167.707C153.169 168.102 152.699 168.684 152.114 169.451C150.942 170.98 149.317 173.256 147.644 176.278C146.804 177.786 145.951 179.475 145.068 181.306C144.188 183.139 143.261 185.102 142.363 187.204C141.465 189.305 140.589 191.542 139.866 193.92C139.499 195.108 139.201 196.337 138.896 197.589C138.595 198.841 138.288 200.111 137.978 201.396C136.756 206.542 135.752 211.485 135.207 216.036" fill="#E8E7EE"/>
<path d="M139.685 193.817C139.668 193.823 139.582 193.614 139.442 193.23C139.3 192.847 139.113 192.287 138.891 191.591C138.448 190.2 137.901 188.257 137.306 186.114C136.711 183.969 136.137 182.04 135.674 180.66C135.444 179.969 135.253 179.411 135.116 179.028C134.98 178.643 134.913 178.427 134.93 178.419C134.947 178.412 135.046 178.615 135.212 178.989C135.38 179.362 135.599 179.911 135.852 180.596C136.363 181.966 136.967 183.894 137.563 186.041C138.145 188.158 138.671 190.072 139.073 191.536C139.258 192.196 139.415 192.752 139.542 193.198C139.65 193.591 139.703 193.812 139.685 193.817Z" fill="#E8E7EE"/>
<path d="M157.514 187.264C157.517 187.282 157.261 187.357 156.794 187.476C156.329 187.598 155.655 187.771 154.829 188.011C153.174 188.478 150.91 189.204 148.448 190.114C145.986 191.028 143.794 191.95 142.227 192.663C141.441 193.014 140.813 193.315 140.377 193.521C139.942 193.728 139.697 193.835 139.689 193.818C139.68 193.802 139.909 193.663 140.33 193.427C140.752 193.193 141.37 192.864 142.147 192.49C143.698 191.73 145.886 190.777 148.355 189.86C150.825 188.948 153.107 188.249 154.779 187.828C155.614 187.61 156.297 187.465 156.771 187.374C157.246 187.286 157.509 187.246 157.514 187.264Z" fill="#E8E7EE"/>
<path d="M135.127 215.628C135.119 215.634 135.063 215.564 134.963 215.425C134.847 215.26 134.706 215.058 134.536 214.813C134.167 214.279 133.653 213.493 133.032 212.514C131.787 210.555 130.153 207.796 128.391 204.727C126.627 201.656 125.021 198.885 123.819 196.904C123.231 195.941 122.747 195.15 122.388 194.561C122.234 194.305 122.106 194.095 122.002 193.921C121.917 193.773 121.875 193.694 121.883 193.688C121.89 193.683 121.947 193.753 122.047 193.892C122.163 194.057 122.304 194.259 122.475 194.503C122.843 195.037 123.357 195.824 123.978 196.803C125.223 198.761 126.857 201.521 128.621 204.591C130.383 207.661 131.99 210.431 133.192 212.413C133.78 213.375 134.263 214.167 134.622 214.755C134.776 215.011 134.904 215.222 135.008 215.395C135.093 215.543 135.135 215.623 135.127 215.628Z" fill="#E8E7EE"/>
<path d="M158.256 203.607C158.26 203.616 158.182 203.664 158.031 203.748C157.85 203.845 157.629 203.963 157.361 204.106C156.741 204.43 155.903 204.867 154.885 205.398C152.795 206.489 149.925 208.03 146.757 209.736C143.587 211.443 140.7 212.959 138.587 214.007C137.53 214.532 136.671 214.947 136.072 215.222C135.794 215.348 135.565 215.451 135.38 215.535C135.22 215.604 135.134 215.636 135.13 215.628C135.126 215.619 135.204 215.571 135.356 215.486C135.536 215.39 135.757 215.272 136.026 215.128C136.646 214.804 137.483 214.368 138.501 213.837C140.591 212.746 143.461 211.205 146.631 209.498C149.799 207.791 152.686 206.276 154.799 205.227C155.855 204.703 156.715 204.287 157.315 204.012C157.592 203.887 157.821 203.783 158.007 203.699C158.166 203.63 158.252 203.599 158.256 203.607Z" fill="#E8E7EE"/>
<path d="M73.6306 118.757C73.6306 118.757 67.9272 119.549 71.1293 132.04C74.3314 144.531 77.0472 150.969 77.0472 150.969C77.0472 150.969 77.4773 153.799 75.1968 153.711C72.9159 153.624 68.2661 151.772 66.6888 154.233C65.053 156.785 66.4829 159.861 70.0604 163.08C73.6373 166.299 81.216 173.639 81.8986 174.305C82.5692 174.96 83.077 176.345 81.5141 176.535C79.9508 176.725 68.8493 175.421 68.5464 180.726C68.2436 186.031 79.6824 193.362 80.918 194.187C82.153 195.013 82.3479 195.658 82.0709 196.376C81.794 197.093 78.1037 196.304 74.9314 196.062C71.7586 195.821 68.0376 196.097 68.1192 199.173C68.2008 202.248 74.2071 210.019 91.73 215.797L100.025 217.943L106.157 211.905C118.492 198.182 119.843 188.454 118.385 185.745C116.928 183.036 113.562 184.645 110.928 186.431C108.295 188.217 105.485 190.736 104.888 190.251C104.291 189.766 104.139 189.109 104.801 187.779C105.463 186.449 111.747 174.403 108.848 169.95C105.949 165.497 96.9624 172.145 95.5119 172.757C94.0613 173.37 93.8136 171.914 94.0704 171.013C94.3316 170.096 97.2605 159.96 98.7653 155.389C100.27 150.818 99.9826 147.438 97.2946 146.037C94.7026 144.685 91.5879 148.602 89.652 149.812C87.7162 151.021 86.6837 148.352 86.6837 148.352C86.6837 148.352 85.8413 141.416 82.4127 128.985C78.984 116.554 73.5173 118.782 73.5173 118.782" fill="#1C0B54"/>
<path d="M100.016 220.006C97.5342 210.867 93.3957 194.549 89.7697 180.558C86.1453 166.572 82.8515 153.912 80.4165 144.761C79.1963 140.195 78.2075 136.496 77.5211 133.927C77.1822 132.656 76.9182 131.665 76.7358 130.98C76.6509 130.651 76.5851 130.396 76.538 130.212C76.4948 130.039 76.4795 129.948 76.4795 129.948C76.4795 129.948 76.5126 130.034 76.5645 130.205C76.6177 130.387 76.6921 130.64 76.7877 130.967C76.9816 131.648 77.2619 132.635 77.6209 133.9C78.3419 136.448 79.359 140.143 80.5984 144.713C83.0804 153.852 86.403 166.505 90.0275 180.492C93.6534 194.483 97.7627 210.806 100.198 219.957" fill="#1C0B54"/>
<path d="M73.0892 157.086C73.0993 157.07 73.2932 157.175 73.6355 157.379C73.9792 157.581 74.4668 157.888 75.0659 158.272C76.2625 159.044 77.8883 160.151 79.6604 161.405C81.4033 162.648 82.9792 163.773 84.1849 164.633C84.7307 165.017 85.191 165.341 85.5611 165.602C85.887 165.829 86.0632 165.962 86.0536 165.978C86.044 165.994 85.8491 165.89 85.5049 165.689C85.1622 165.486 84.674 165.179 84.0788 164.789C82.8894 164.005 81.2785 162.877 79.5073 161.623C77.7568 160.393 76.1732 159.281 74.9617 158.429C74.4136 158.048 73.9513 157.726 73.5793 157.467C73.2544 157.235 73.0796 157.101 73.0892 157.086Z" fill="#1C0B54"/>
<path d="M86.7435 165.571C86.6816 165.531 88.8171 162.079 91.5123 157.861C94.2085 153.641 96.4438 150.254 96.5057 150.293C96.5677 150.333 94.4326 153.784 91.7365 158.004C89.0408 162.222 86.8054 165.611 86.7435 165.571Z" fill="#1C0B54"/>
<path d="M91.3424 187.304C91.3308 187.29 91.4936 187.134 91.7974 186.864C92.1444 186.561 92.5774 186.182 93.0915 185.732C94.1825 184.775 95.6835 183.446 97.2857 181.92C98.8923 180.396 100.298 178.967 101.307 177.925C101.783 177.434 102.183 177.021 102.504 176.69C102.788 176.4 102.953 176.245 102.966 176.258C102.98 176.27 102.842 176.448 102.581 176.76C102.319 177.072 101.934 177.516 101.444 178.053C100.469 179.131 99.08 180.585 97.4691 182.113C95.862 183.644 94.3371 184.953 93.2129 185.876C92.6489 186.334 92.1886 186.701 91.8627 186.944C91.5387 187.19 91.3539 187.318 91.3424 187.304Z" fill="#1C0B54"/>
<path d="M77.3039 182.348C77.3096 182.331 77.5117 182.381 77.8727 182.486C78.2859 182.614 78.7928 182.77 79.3914 182.956C80.6701 183.363 82.4307 183.944 84.3699 184.601C86.3101 185.258 88.0611 185.867 89.3245 186.321C89.9125 186.538 90.4103 186.721 90.8163 186.871C91.1667 187.006 91.3573 187.09 91.3515 187.107C91.3458 187.124 91.1437 187.074 90.7827 186.969C90.3699 186.841 89.8626 186.684 89.264 186.499C87.9853 186.092 86.2247 185.511 84.2845 184.854C82.3453 184.197 80.5943 183.588 79.3309 183.135C78.7434 182.918 78.2451 182.734 77.8391 182.585C77.4887 182.448 77.2976 182.365 77.3039 182.348Z" fill="#1C0B54"/>
<path d="M78.922 202.049C78.9277 202.032 79.186 202.098 79.6477 202.233C80.1556 202.388 80.8103 202.588 81.5965 202.828C83.2386 203.341 85.5009 204.067 87.9945 204.886C90.4885 205.704 92.7421 206.459 94.3689 207.019C95.1441 207.291 95.7901 207.518 96.2913 207.694C96.7434 207.859 96.9901 207.958 96.9844 207.976C96.9786 207.993 96.7209 207.927 96.2586 207.793C95.7508 207.638 95.0961 207.438 94.3098 207.198C92.6677 206.685 90.4055 205.958 87.9109 205.14C85.4173 204.322 83.1642 203.567 81.5375 203.008C80.7623 202.735 80.1162 202.508 79.6151 202.332C79.1634 202.166 78.9162 202.066 78.922 202.049Z" fill="#1C0B54"/>
<path d="M96.5923 207.712C96.5799 207.698 96.781 207.495 97.1549 207.14C97.5648 206.755 98.0995 206.252 98.7437 205.645C100.084 204.382 101.928 202.63 103.909 200.639C105.894 198.649 107.642 196.802 108.899 195.455C109.503 194.809 110.005 194.273 110.389 193.862C110.742 193.487 110.944 193.285 110.958 193.297C110.972 193.309 110.796 193.535 110.466 193.931C110.137 194.327 109.651 194.893 109.038 195.582C107.816 196.962 106.086 198.834 104.098 200.826C102.113 202.821 100.246 204.555 98.8714 205.784C98.1826 206.397 97.6205 206.887 97.2245 207.217C96.829 207.549 96.6043 207.726 96.5923 207.712Z" fill="#1C0B54"/>
<path d="M48.8625 44.275L44.1781 42.8134C44.1781 42.8134 42.9513 46.7465 38.842 45.5417C36.7079 44.9163 36.0412 43.1821 35.926 41.9773C35.7925 40.5781 36.3897 39.2173 37.4433 38.2875C38.6466 37.2253 40.7591 36.5777 43.7423 38.119L47.0375 27.5571L42.4055 26.1123L40.4754 32.299C40.4754 32.299 33.4554 31.9515 31.222 39.1107C29.085 45.9603 34.7313 49.4677 37.3607 50.288C39.3714 50.9153 46.3727 52.5661 48.8625 44.275Z" fill="#CBE9DD"/>
<path d="M43.0297 23.9193L47.7305 25.3857L49.1 20.9957L44.3993 19.5292L43.0297 23.9193Z" fill="#CBE9DD"/>
<path d="M61.7923 32.3497L63.6681 31.8549C63.6681 31.8549 63.2524 30.28 64.882 29.8197C65.7283 29.5806 66.3158 30.0213 66.6076 30.4005C66.946 30.8411 67.0324 31.4224 66.875 31.9552C66.6955 32.5638 66.1238 33.2243 64.8009 33.3352L65.9164 37.5649L67.7711 37.0758L67.1179 34.5981C67.1179 34.5981 69.5419 33.2392 68.7859 30.3726C68.0625 27.6294 65.4345 27.6414 64.3814 27.9193C63.5755 28.1315 60.8841 29.0502 61.7923 32.3497Z" fill="#418A6C"/>
<path d="M68.0231 37.9377L66.1406 38.4343L66.6045 40.1924L68.4869 39.6957L68.0231 37.9377Z" fill="#418A6C"/>
<path d="M216.739 80.931L218.563 81.592C218.563 81.592 219.118 80.0603 220.719 80.6099C221.551 80.895 221.784 81.592 221.808 82.0696C221.835 82.6245 221.575 83.1515 221.142 83.5C220.648 83.8979 219.802 84.1158 218.652 83.4539L217.162 87.5665L218.965 88.2198L219.838 85.8107C219.838 85.8107 222.604 86.0733 223.614 83.2854C224.58 80.6181 222.412 79.132 221.389 78.7614C220.607 78.4777 217.871 77.7006 216.739 80.931Z" fill="#418A6C"/>
<path d="M218.681 89.0716L216.851 88.4084L216.231 90.118L218.062 90.7811L218.681 89.0716Z" fill="#418A6C"/>
<path d="M23.1624 101.822L27.0226 100.335C27.0226 100.335 25.7741 97.0933 29.1197 95.7378C30.8573 95.0337 32.2061 95.83 32.9126 96.5663C33.7334 97.4207 34.0512 98.6327 33.8424 99.7986C33.6034 101.131 32.5469 102.664 29.7686 103.208L33.1219 111.912L36.9389 110.441L34.9747 105.343C34.9747 105.343 39.7949 101.896 37.5221 95.9965C35.3472 90.3517 29.7802 90.9906 27.6134 91.8258C25.9565 92.4647 20.4662 95.0399 23.1624 101.822Z" fill="#CBE9DD"/>
<path d="M37.6755 112.212L33.8018 113.704L35.1957 117.322L39.0695 115.83L37.6755 112.212Z" fill="#CBE9DD"/>
<path d="M218.241 116.467L215.505 117.521C215.505 117.521 216.39 119.818 214.019 120.779C212.788 121.277 211.833 120.713 211.331 120.192C210.75 119.586 210.525 118.727 210.673 117.901C210.842 116.957 211.591 115.87 213.56 115.485L211.184 109.317L208.479 110.359L209.871 113.972C209.871 113.972 206.455 116.414 208.065 120.595C209.606 124.595 213.552 124.142 215.087 123.551C216.261 123.097 220.152 121.272 218.241 116.467Z" fill="#CBE9DD"/>
<path d="M207.965 109.107L210.71 108.05L209.722 105.486L206.977 106.543L207.965 109.107Z" fill="#CBE9DD"/>
<path d="M225.97 222.61C225.97 222.679 178.521 222.735 120.005 222.735C61.4672 222.735 14.0293 222.679 14.0293 222.61C14.0293 222.542 61.4672 222.485 120.005 222.485C178.522 222.485 225.97 222.541 225.97 222.61Z" fill="#1C0B54"/>
<path d="M44.4642 210.144C44.9197 208.379 43.7624 206.607 42.465 205.326C41.1676 204.046 39.6162 202.898 38.9413 201.205C37.8479 198.461 39.3181 194.909 37.4519 192.62C36.3541 191.273 34.3852 190.823 33.4112 189.384C32.9 188.63 32.7349 187.703 32.5343 186.814C31.51 182.279 29.2405 178.033 26.0404 174.662C25.8176 178.7 26.7085 182.793 28.5882 186.373C29.3437 187.812 30.272 189.215 30.5226 190.822C30.9292 193.43 29.4733 196.116 30.1141 198.677C30.8466 201.606 34.1365 203.566 34.2925 206.581C34.4245 209.13 32.2031 211.367 32.3687 213.914C32.4393 214.998 32.9428 216.005 33.5029 216.936C35.4738 220.213 38.3687 222.469 42.7568 222.396L48.1314 222.584L44.4642 210.144Z" fill="#1C0B54"/>
<g opacity="0.3">
<path d="M44.4642 210.144C44.9197 208.379 43.7624 206.607 42.465 205.326C41.1676 204.046 39.6162 202.898 38.9413 201.205C37.8479 198.461 39.3181 194.909 37.4519 192.62C36.3541 191.273 34.3852 190.823 33.4112 189.384C32.9 188.63 32.7349 187.703 32.5343 186.814C31.51 182.279 29.2405 178.033 26.0404 174.662C25.8176 178.7 26.7085 182.793 28.5882 186.373C29.3437 187.812 30.272 189.215 30.5226 190.822C30.9292 193.43 29.4733 196.116 30.1141 198.677C30.8466 201.606 34.1365 203.566 34.2925 206.581C34.4245 209.13 32.2031 211.367 32.3687 213.914C32.4393 214.998 32.9428 216.005 33.5029 216.936C35.4738 220.213 38.3687 222.469 42.7568 222.396L48.1314 222.584L44.4642 210.144Z" fill="black"/>
</g>
<path d="M49.2163 222.727C49.2163 222.727 49.7289 222.846 50.6961 222.694C51.178 222.624 51.7708 222.496 52.4428 222.255C53.111 222.01 53.8713 221.662 54.5999 221.073C54.9499 220.768 55.2993 220.391 55.487 219.891C55.6723 219.394 55.7059 218.847 55.7399 218.286C55.7687 217.723 55.7692 217.139 55.8652 216.547C55.9559 215.955 56.1883 215.374 56.5219 214.819C57.1559 213.705 58.2076 212.651 58.5479 211.14C58.9156 209.653 58.6521 208.044 58.402 206.429C58.1524 204.817 57.911 203.059 58.5273 201.379C59.1038 199.699 60.2827 198.181 60.8716 196.286C61.4582 194.372 61.1851 192.314 61.3089 190.283C61.3655 189.263 61.5628 188.244 62.0092 187.299C62.4441 186.348 63.0475 185.451 63.5183 184.449C64.4721 182.424 64.6406 180.129 64.9017 177.88C65.0289 176.747 65.1575 175.602 65.2871 174.446C65.4153 173.284 65.5185 172.127 65.8843 171.008C66.2155 169.882 66.695 168.792 67.1702 167.682C67.4025 167.124 67.6487 166.565 67.7937 165.945C67.8988 165.311 67.9291 164.719 67.967 164.096C68.0275 162.864 67.9766 161.615 67.8239 160.376C67.678 159.136 67.4543 157.906 67.3209 156.663C67.3127 156.589 67.3046 156.516 67.2969 156.448L67.2691 156.2L67.0487 156.31C65.8977 156.887 64.9123 157.745 64.1553 158.752C63.3854 159.752 62.8252 160.881 62.3774 162.028C61.4798 164.337 61.1563 166.758 60.7036 169.066C60.2615 171.376 59.6793 173.647 58.4951 175.567C57.9062 176.524 57.1934 177.398 56.5699 178.332C55.9478 179.259 55.4006 180.277 55.2359 181.395C54.9182 183.669 56.1705 185.666 55.9099 187.679C55.8167 188.679 55.4188 189.615 54.9292 190.468C54.4411 191.327 53.8675 192.123 53.3231 192.924C52.7793 193.724 52.2614 194.536 51.8803 195.403C51.4924 196.268 51.2788 197.193 51.2198 198.098C51.0887 199.91 51.346 201.63 51.2131 203.253C51.1041 204.879 50.5329 206.353 49.8868 207.67C49.2369 208.993 48.5135 210.188 47.9078 211.348C47.603 211.927 47.3222 212.493 47.0932 213.061C46.8508 213.627 46.7318 214.208 46.6214 214.76C46.4447 215.875 46.462 216.912 46.5815 217.828C46.8153 219.669 47.5017 220.995 48.1195 221.74C48.2611 221.939 48.4252 222.079 48.5543 222.211C48.6806 222.347 48.8054 222.439 48.9071 222.511C49.1092 222.659 49.2163 222.727 49.2163 222.727C49.2398 222.699 48.7737 222.452 48.1756 221.697C47.5838 220.948 46.9271 219.632 46.7164 217.811C46.6084 216.907 46.6022 215.882 46.7851 214.788C46.8983 214.247 47.0198 213.678 47.2603 213.128C47.4887 212.574 47.7729 212.011 48.0801 211.438C48.6907 210.289 49.4217 209.098 50.0855 207.767C50.7446 206.443 51.3379 204.94 51.4583 203.272C51.5995 201.614 51.3499 199.889 51.4871 198.119C51.5491 197.234 51.7569 196.351 52.1351 195.515C52.5076 194.675 53.0179 193.879 53.5617 193.085C54.1055 192.29 54.6859 191.49 55.1879 190.614C55.69 189.743 56.1115 188.769 56.2137 187.71C56.4729 185.565 55.2297 183.555 55.5527 181.442C55.7078 180.396 56.2276 179.422 56.8415 178.512C57.455 177.595 58.1716 176.721 58.7783 175.739C59.9999 173.765 60.5918 171.45 61.0382 169.131C61.4951 166.807 61.8187 164.413 62.7004 162.151C63.1391 161.027 63.6878 159.927 64.4313 158.961C65.1633 157.988 66.1065 157.17 67.2028 156.619L66.9551 156.482C66.9628 156.55 66.971 156.625 66.9796 156.699C67.1145 157.957 67.3391 159.189 67.4836 160.415C67.6348 161.64 67.6847 162.864 67.6262 164.079C67.5911 164.678 67.5547 165.307 67.4611 165.871C67.3295 166.437 67.0886 166.994 66.8582 167.547C66.3863 168.653 65.9001 169.759 65.5627 170.91C65.1892 172.055 65.0822 173.256 64.9574 174.404C64.8292 175.562 64.702 176.707 64.5763 177.841C64.3195 180.1 64.151 182.358 63.2323 184.313C62.7782 185.286 62.1758 186.186 61.7284 187.168C61.2667 188.149 61.0617 189.226 61.0079 190.263C60.8908 192.337 61.1606 194.364 60.5995 196.202C60.0422 198.031 58.87 199.556 58.2772 201.29C57.6431 203.043 57.9057 204.858 58.162 206.465C58.4217 208.083 58.6823 209.658 58.3358 211.087C58.0252 212.531 57.0033 213.575 56.3563 214.72C56.0198 215.288 55.7783 215.903 55.6895 216.518C55.5955 217.13 55.6003 217.72 55.5767 218.277C55.5489 218.831 55.5172 219.374 55.3473 219.84C55.1783 220.304 54.8495 220.671 54.5135 220.971C53.8118 221.551 53.0649 221.907 52.4083 222.158C51.7473 222.407 51.1622 222.545 50.6865 222.625C50.2103 222.712 49.8407 222.724 49.5931 222.731C49.3444 222.722 49.2163 222.727 49.2163 222.727Z" fill="#1C0B54"/>
<path d="M66.2019 159.407C66.1962 159.406 66.1784 159.461 66.1501 159.569C66.1184 159.698 66.0795 159.857 66.0315 160.053C65.9259 160.476 65.7997 161.115 65.5971 161.914C65.3859 162.71 64.8982 163.611 64.4816 164.721C64.0482 165.823 63.6085 167.099 63.2043 168.534C62.7944 169.967 62.431 171.559 62.0514 173.264C61.6597 174.966 61.2685 176.791 60.331 178.513C59.8904 179.386 59.3946 180.27 59.0005 181.236C58.5968 182.203 58.3789 183.26 58.2267 184.32C57.9685 186.45 57.5778 188.612 57.068 190.823C55.9904 195.227 54.9637 199.423 54.0291 203.243C53.072 207.049 52.2094 210.48 51.4822 213.372C50.7747 216.237 50.1997 218.566 49.7941 220.208C49.6074 220.996 49.4595 221.618 49.352 222.071C49.3088 222.268 49.2738 222.428 49.2454 222.557C49.2234 222.668 49.2147 222.724 49.2205 222.726C49.2262 222.728 49.2464 222.673 49.2795 222.566C49.3165 222.439 49.3626 222.282 49.4192 222.088C49.5416 221.64 49.7106 221.023 49.9242 220.241C50.3552 218.605 50.9662 216.287 51.7184 213.432C52.4662 210.546 53.3528 207.122 54.3373 203.322C55.281 199.501 56.3168 195.305 57.405 190.899C57.9152 188.69 58.3098 186.488 58.5618 184.369C58.711 183.316 58.9189 182.297 59.3067 181.36C59.6864 180.418 60.175 179.539 60.6157 178.656C61.5613 176.902 61.9549 175.021 62.3317 173.326C62.6994 171.617 63.0478 170.029 63.4405 168.599C63.8278 167.168 64.2488 165.893 64.663 164.791C65.0586 163.684 65.5304 162.772 65.7282 161.95C65.9144 161.132 66.0166 160.499 66.1011 160.068C66.1357 159.869 66.1635 159.707 66.1861 159.577C66.2019 159.466 66.2077 159.408 66.2019 159.407Z" fill="#1C0B54"/>
<path d="M50.1656 222.741C53.6763 220.654 54.6839 214.32 53.2194 210.508C51.7549 206.695 49.1917 203.212 48.7962 199.147C48.4923 196.022 49.5157 192.815 48.788 189.761C47.8059 185.64 43.7821 182.447 43.8282 178.211C43.8541 175.834 45.2067 173.597 45.0987 171.222C44.9667 168.309 42.7309 165.998 41.3461 163.432C39.2264 159.504 39.0872 154.86 38.3624 150.456C37.6376 146.052 35.9595 141.336 32.0562 139.171C31.4797 142.91 30.4957 145.471 30.8048 150.536C30.9157 152.356 33.0291 155.838 33.3167 159.825C33.4885 162.208 33.6075 164.594 33.753 166.979C33.8946 169.3 34.0448 171.662 34.8767 173.833C35.5141 175.497 36.5384 177.008 37.0117 178.726C37.9021 181.957 36.7323 185.457 37.4514 188.731C38.0605 191.504 39.98 193.891 40.3722 196.704C40.9232 200.656 38.3658 204.762 39.6747 208.531C40.3247 210.401 41.8631 211.903 42.2994 213.834C42.6383 215.333 42.2687 216.919 42.5759 218.425C43.0703 220.85 47.696 222.734 50.1666 222.583" fill="#1C0B54"/>
<path d="M33.0267 142.884C33.0209 142.885 33.0262 142.956 33.042 143.095C33.0622 143.252 33.0886 143.455 33.1212 143.709C33.2019 144.249 33.2921 145.042 33.475 146.068C33.6713 147.099 34.2022 148.259 34.627 149.659C35.0748 151.054 35.5208 152.664 35.9144 154.466C36.3152 156.268 36.6502 158.261 37.002 160.407C37.3659 162.536 37.7374 164.89 38.8016 167.124C39.294 168.246 39.8465 169.369 40.2612 170.566C40.686 171.758 40.8819 173.041 41.0019 174.359C41.1833 177.008 41.5361 179.762 42.0315 182.538C43.1067 188.078 44.131 193.354 45.0632 198.157C46.0457 202.941 46.9308 207.251 47.6763 210.88C48.4289 214.482 49.0395 217.404 49.4672 219.451C49.6822 220.443 49.8512 221.223 49.9712 221.778C50.0292 222.028 50.0753 222.227 50.1108 222.381C50.144 222.516 50.1641 222.585 50.1699 222.584C50.1756 222.583 50.1675 222.511 50.1454 222.374C50.118 222.218 50.083 222.017 50.0393 221.764C49.9342 221.206 49.7868 220.422 49.5987 219.424C49.1969 217.372 48.6228 214.442 47.9153 210.831C47.1905 207.199 46.3304 202.884 45.3752 198.094C44.4516 193.292 43.4374 188.017 42.3718 182.479C41.8764 179.701 41.526 176.987 41.3388 174.328C41.2164 173.001 41.0124 171.68 40.5732 170.458C40.146 169.236 39.5859 168.108 39.0929 166.995C38.0345 164.794 37.663 162.496 37.2843 160.359C36.9204 158.217 36.57 156.218 36.1529 154.412C35.742 152.606 35.2779 150.993 34.8108 149.599C34.3649 148.194 33.8172 147.043 33.6065 146.039C33.4064 145.032 33.2926 144.231 33.1904 143.698C33.1438 143.446 33.1064 143.245 33.0776 143.089C33.0497 142.952 33.0329 142.883 33.0267 142.884Z" fill="#1C0B54"/>
<path d="M202.307 42.611H200.396C200.396 42.611 200.396 44.2152 198.728 44.244C197.862 44.2589 197.414 43.6915 197.231 43.2571C197.02 42.7526 197.083 42.1776 197.368 41.7096C197.692 41.1754 198.402 40.6896 199.69 40.9166V36.6082H197.8V39.132C197.8 39.132 195.15 39.817 195.15 42.7373C195.15 45.5314 197.656 46.1803 198.729 46.1803C199.549 46.1803 202.343 45.9821 202.307 42.611Z" fill="#1C0B54"/>
<path d="M197.776 35.7209H199.693V33.9301H197.776V35.7209Z" fill="#1C0B54"/>
<path d="M212.772 40.054C212.777 40.054 212.779 39.9724 212.776 39.8121C212.771 39.6364 212.764 39.4012 212.756 39.1017C212.749 38.9457 212.749 38.77 212.733 38.578C212.706 38.3855 212.677 38.1767 212.645 37.9511C212.612 37.7236 212.577 37.4798 212.54 37.2196C212.476 36.9628 212.409 36.6907 212.337 36.4027C212.042 35.2545 211.537 33.8635 210.61 32.4412C209.698 31.0199 208.393 29.543 206.62 28.3444C204.845 27.1679 202.611 26.2607 200.103 26.0203C199.476 25.9967 198.837 25.9209 198.188 25.9814C197.864 26.0039 197.535 25.9972 197.209 26.0447C196.882 26.0937 196.553 26.1436 196.222 26.1935C194.914 26.4609 193.573 26.8502 192.324 27.5246C191.073 28.1831 189.881 29.0327 188.821 30.0705C187.782 31.1284 186.88 32.3635 186.186 33.7387C185.485 35.1095 185.002 36.6287 184.813 38.2099C184.736 38.6015 184.736 39.0023 184.712 39.4022C184.686 39.8025 184.671 40.2043 184.69 40.6079C184.723 41.4143 184.824 42.2231 184.995 43.0223C185.365 44.759 186.072 46.3939 187.018 47.8295L187.003 47.6836C186.334 49.3497 185.678 50.9846 185.038 52.5801L184.921 52.87L185.222 52.7875C187.019 52.2935 188.767 51.8131 190.457 51.3484L190.328 51.3235C192.154 52.6977 194.239 53.5732 196.309 53.9361C197.344 54.118 198.376 54.1953 199.374 54.1267C199.874 54.1055 200.366 54.0815 200.845 53.9875C201.086 53.95 201.325 53.9131 201.562 53.8761C201.797 53.8324 202.025 53.7604 202.255 53.7048C205.939 52.7587 208.661 50.4892 210.218 48.2419C211.011 47.1167 211.579 46.007 211.933 44.9908C212.024 44.7374 212.112 44.4935 212.196 44.2583C212.257 44.0169 212.316 43.7851 212.372 43.5633C212.427 43.3416 212.48 43.1294 212.53 42.9273C212.569 42.7233 212.59 42.5265 212.618 42.3422C212.665 41.9721 212.729 41.6467 212.743 41.3615C212.752 41.0812 212.76 40.8417 212.767 40.642C212.771 40.4596 212.774 40.3151 212.776 40.2028C212.778 40.1044 212.776 40.054 212.772 40.054C212.768 40.054 212.761 40.1039 212.752 40.2023C212.743 40.3142 212.732 40.4587 212.717 40.6401C212.704 40.8383 212.688 41.0764 212.669 41.3548C212.647 41.6375 212.576 41.9596 212.521 42.3263C212.257 43.7673 211.682 45.9278 210.069 48.1348C208.511 50.3385 205.815 52.5503 202.193 53.4604C201.968 53.5137 201.744 53.5838 201.512 53.6251C201.279 53.6601 201.045 53.6952 200.809 53.7307C200.338 53.8209 199.854 53.8415 199.363 53.8603C198.384 53.9236 197.372 53.8439 196.359 53.662C194.331 53.2991 192.293 52.4351 190.508 51.0849L190.449 51.0407L190.378 51.0599C188.687 51.5212 186.938 51.9983 185.141 52.4884L185.325 52.6953C185.967 51.1003 186.625 49.4663 187.296 47.8012L187.327 47.7244L187.281 47.6548C186.357 46.2503 185.667 44.6519 185.305 42.9551C185.138 42.1742 185.039 41.3831 185.007 40.595C184.988 40.2004 185.003 39.8073 185.028 39.4161C185.052 39.0249 185.05 38.6328 185.126 38.2502C185.309 36.7041 185.78 35.219 186.464 33.8779C187.141 32.5324 188.021 31.3223 189.035 30.2851C190.071 29.2679 191.235 28.4332 192.458 27.7847C193.679 27.1204 194.991 26.7355 196.273 26.4681C196.597 26.4182 196.92 26.3683 197.239 26.3188C197.559 26.2708 197.882 26.2766 198.2 26.2531C198.836 26.1902 199.463 26.2631 200.079 26.2828C202.542 26.5075 204.741 27.3859 206.496 28.5311C208.248 29.699 209.546 31.1433 210.461 32.5377C211.391 33.9326 211.907 35.3015 212.218 36.4348C212.293 36.7195 212.365 36.9883 212.433 37.2417C212.475 37.499 212.514 37.7404 212.551 37.9655C212.588 38.1887 212.622 38.3961 212.653 38.5867C212.675 38.7772 212.679 38.9515 212.692 39.1065C212.713 39.4051 212.731 39.6388 212.743 39.8135C212.757 39.9724 212.766 40.054 212.772 40.054Z" fill="#1C0B54"/>
<path d="M69.634 96.664H97.3555C97.3555 96.664 97.3555 73.3883 121.544 72.9717C134.106 72.7552 140.62 80.9839 143.266 87.2882C146.339 94.6087 145.409 102.952 141.292 109.74C136.59 117.493 126.464 125.282 107.781 121.991L107.604 183.752H135.015V147.138C135.015 147.138 173.459 137.201 173.459 94.8333C173.459 54.2968 140.679 45.5402 123.062 44.9776C113.258 44.6647 109.705 44.2432 97.5801 45.9645C82.1289 48.1581 69.3072 66.0986 69.634 96.664Z" fill="#57B890"/>
<path d="M135.347 196.628H107.528V222.61H135.347V196.628Z" fill="#57B890"/>
<path opacity="0.1" d="M135.347 196.628H107.528V222.61H135.347V196.628Z" fill="black"/>
<path opacity="0.1" d="M69.634 96.664H97.3555C97.3555 96.664 97.3555 73.3883 121.544 72.9717C134.106 72.7552 140.62 80.9839 143.266 87.2882C146.339 94.6087 145.409 102.952 141.292 109.74C136.59 117.493 126.464 125.282 107.781 121.991L107.604 183.752H135.015V147.138C135.015 147.138 173.459 137.201 173.459 94.8333C173.459 54.2968 140.679 45.5402 123.062 44.9776C113.258 44.6647 109.705 44.2432 97.5801 45.9645C82.1289 48.1581 69.3072 66.0986 69.634 96.664Z" fill="black"/>
<path d="M58.1505 96.6647H85.872C85.872 96.6647 85.872 73.389 110.061 72.9724C122.623 72.7559 129.136 80.9846 131.783 87.2889C134.855 94.6094 133.926 102.953 129.808 109.741C125.106 117.493 114.803 124.54 96.1209 121.248V183.752H123.532V147.139C123.532 147.139 161.976 137.201 161.976 94.8335C161.976 54.297 125.624 44.8823 110.063 44.8823C98.1638 44.8833 57.6278 47.7599 58.1505 96.6647Z" fill="#57B890"/>
<path opacity="0.3" d="M58.1505 96.6647H85.872C85.872 96.6647 85.872 73.389 110.061 72.9724C122.623 72.7559 129.136 80.9846 131.783 87.2889C134.855 94.6094 133.926 102.953 129.808 109.741C125.106 117.493 114.803 124.54 96.1209 121.248V183.752H123.532V147.139C123.532 147.139 161.976 137.201 161.976 94.8335C161.976 54.297 125.624 44.8823 110.063 44.8823C98.1638 44.8833 57.6278 47.7599 58.1505 96.6647Z" fill="black"/>
<path d="M123.862 196.628H96.043V222.61H123.862V196.628Z" fill="#57B890"/>
<path opacity="0.3" d="M123.862 196.628H96.043V222.61H123.862V196.628Z" fill="black"/>
<path d="M113.19 73.1013C113.189 73.1099 113.046 73.1008 112.775 73.0759C112.504 73.0619 112.11 72.9856 111.594 72.9799C110.567 72.9117 109.073 72.9381 107.247 73.1603C105.424 73.3888 103.269 73.8405 100.972 74.6363C99.8302 75.0482 98.6427 75.521 97.4758 76.1402C96.2988 76.7368 95.1339 77.4669 94.0568 78.3544C92.9734 79.2328 92.0571 80.2581 91.2584 81.3112C90.4568 82.361 89.7627 83.4333 89.1612 84.4888C87.9824 86.6143 87.1769 88.6648 86.6787 90.4336C86.1689 92.2015 85.9462 93.6799 85.8449 94.7027C85.7859 95.2144 85.7705 95.6138 85.7561 95.885C85.7403 96.1557 85.7278 96.2983 85.7192 96.2983C85.7105 96.2983 85.7062 96.1557 85.7057 95.8835C85.7038 95.6114 85.7033 95.2096 85.748 94.6941C85.8195 93.6635 86.0168 92.1712 86.5083 90.3856C86.9883 88.5981 87.7822 86.5259 88.9601 84.376C89.5611 83.3085 90.2571 82.2242 91.064 81.1619C91.8656 80.0992 92.7939 79.0567 93.8979 78.161C94.9928 77.2591 96.1731 76.5223 97.363 75.9223C98.5438 75.2997 99.7433 74.8274 100.896 74.4184C103.215 73.6283 105.388 73.192 107.226 72.9847C109.065 72.784 110.57 72.7845 111.6 72.8829C112.117 72.9035 112.512 72.9957 112.782 73.0259C113.051 73.0672 113.191 73.0927 113.19 73.1013Z" fill="#57B890"/>
<path d="M154.957 68.1524C154.953 68.1548 154.923 68.1179 154.866 68.0435C154.804 67.9571 154.723 67.8471 154.624 67.7099C154.405 67.3993 154.099 66.9659 153.712 66.4153C153.512 66.1359 153.303 65.8153 153.051 65.4822C152.784 65.1587 152.495 64.8083 152.186 64.4324C151.875 64.0547 151.544 63.6519 151.194 63.2247C150.832 62.8062 150.412 62.3977 149.992 61.9503C149.562 61.5121 149.134 61.0302 148.647 60.5703C148.149 60.1206 147.632 59.6531 147.097 59.1692C146.826 58.9302 146.562 58.6743 146.275 58.4367C145.982 58.2059 145.684 57.9716 145.382 57.7335C144.773 57.2646 144.167 56.7524 143.507 56.2801C140.877 54.3745 137.8 52.5428 134.424 50.9156C133.57 50.5292 132.726 50.1476 131.895 49.7718C131.044 49.4415 130.206 49.1161 129.381 48.7964C128.564 48.4575 127.729 48.2166 126.922 47.9502C126.11 47.6982 125.328 47.4063 124.537 47.2215C123.751 47.0151 122.985 46.814 122.241 46.6182C121.497 46.4209 120.758 46.3043 120.052 46.1502C119.342 46.0177 118.665 45.8411 117.999 45.758C117.336 45.662 116.699 45.5699 116.09 45.482C114.877 45.2742 113.764 45.2329 112.793 45.135C112.306 45.0966 111.854 45.0447 111.436 45.0251C111.019 45.014 110.638 45.0035 110.292 44.9943C109.619 44.9727 109.089 44.9555 108.709 44.9435C108.539 44.9353 108.403 44.9291 108.297 44.9238C108.204 44.918 108.156 44.9127 108.156 44.9084C108.156 44.9041 108.204 44.9007 108.296 44.8983C108.403 44.8969 108.539 44.8955 108.709 44.8931C109.089 44.894 109.62 44.8955 110.295 44.8969C110.641 44.8998 111.024 44.9027 111.441 44.906C111.86 44.9185 112.314 44.9636 112.802 44.9953C113.777 45.0803 114.894 45.1095 116.112 45.3063C116.723 45.3894 117.363 45.4767 118.029 45.5675C118.698 45.6457 119.379 45.818 120.092 45.9467C120.801 46.0969 121.544 46.2097 122.291 46.4041C123.039 46.5971 123.809 46.7958 124.598 46.9993C125.394 47.1822 126.179 47.4721 126.995 47.7227C127.806 47.9881 128.645 48.2281 129.466 48.5665C130.294 48.8862 131.136 49.2116 131.991 49.5423C132.826 49.9196 133.674 50.3022 134.531 50.69C137.921 52.3239 141.008 54.17 143.643 56.0943C144.304 56.5715 144.91 57.0884 145.519 57.5627C145.821 57.8031 146.119 58.0403 146.412 58.2735C146.7 58.5135 146.964 58.7723 147.234 59.0142C147.768 59.5038 148.284 59.9771 148.781 60.4321C149.266 60.8977 149.692 61.3859 150.12 61.8294C150.537 62.283 150.955 62.6967 151.313 63.1211C151.66 63.554 151.987 63.9625 152.294 64.3455C152.599 64.7271 152.884 65.0828 153.146 65.4116C153.393 65.75 153.597 66.0759 153.791 66.3606C154.163 66.9236 154.456 67.3667 154.666 67.6839C154.757 67.827 154.83 67.9412 154.888 68.031C154.937 68.1087 154.96 68.1505 154.957 68.1524Z" fill="#57B890"/>
<path d="M152.07 127.67C152.077 127.675 152.004 127.774 151.86 127.958C151.699 128.158 151.486 128.423 151.221 128.753C150.944 129.099 150.598 129.517 150.175 129.983C149.754 130.451 149.289 130.998 148.731 131.562C148.185 132.136 147.583 132.762 146.903 133.4C146.242 134.058 145.492 134.715 144.711 135.415C143.123 136.784 141.314 138.218 139.326 139.599C137.327 140.967 135.344 142.148 133.499 143.145C132.567 143.626 131.687 144.094 130.836 144.478C129.998 144.886 129.199 145.226 128.468 145.533C127.743 145.854 127.066 146.094 126.479 146.32C125.893 146.55 125.38 146.725 124.958 146.861C124.555 146.992 124.233 147.096 123.987 147.176C123.765 147.245 123.646 147.278 123.644 147.27C123.641 147.261 123.754 147.213 123.971 147.128C124.212 147.038 124.529 146.919 124.925 146.77C125.341 146.62 125.848 146.432 126.428 146.19C127.009 145.952 127.679 145.701 128.398 145.371C129.123 145.055 129.915 144.706 130.747 144.292C131.591 143.901 132.464 143.428 133.39 142.944C135.221 141.939 137.194 140.757 139.184 139.394C141.164 138.019 142.97 136.597 144.561 135.242C145.342 134.55 146.095 133.902 146.76 133.252C147.443 132.622 148.051 132.006 148.604 131.441C149.169 130.887 149.641 130.349 150.07 129.891C150.503 129.435 150.859 129.028 151.147 128.692C151.426 128.374 151.651 128.12 151.821 127.927C151.978 127.752 152.063 127.664 152.07 127.67Z" fill="#57B890"/>
<path d="M123.047 181.576C122.978 181.576 122.922 173.866 122.922 164.357C122.922 154.845 122.978 147.136 123.047 147.136C123.116 147.136 123.171 154.845 123.171 164.357C123.171 173.866 123.116 181.576 123.047 181.576Z" fill="#57B890"/>
<path d="M124.102 220.849C124.033 220.849 123.978 215.438 123.978 208.765C123.978 202.09 124.034 196.681 124.102 196.681C124.171 196.681 124.227 202.09 124.227 208.765C124.227 215.438 124.171 220.849 124.102 220.849Z" fill="#57B890"/>
<path d="M151.394 92.9803C150.91 93.9471 152.703 94.7261 153.738 95.0391C154.773 95.352 155.877 95.3194 156.957 95.2608C158.387 95.1835 159.869 95.0501 161.113 94.3397C162.219 93.7085 163.043 92.6645 163.619 91.5293C164.195 90.3941 164.544 89.16 164.891 87.9351C164.891 87.9351 153.55 88.6776 151.394 92.9803Z" fill="#4EA682"/>
<g opacity="0.4">
<path d="M151.395 92.9803C150.91 93.9471 152.704 94.7261 153.739 95.0391C154.774 95.352 155.878 95.3194 156.958 95.2608C158.388 95.1835 159.87 95.0501 161.114 94.3397C162.22 93.7085 163.044 92.6645 163.62 91.5293C164.196 90.3941 164.545 89.16 164.892 87.9351C164.892 87.9351 153.551 88.6776 151.395 92.9803Z" fill="black"/>
</g>
<path d="M183.432 89.9069C185.282 91.2293 187.559 91.944 189.833 91.9167C190.922 91.9037 192.077 91.693 192.881 90.9581C193.251 90.6202 193.527 90.1877 193.909 89.8618C194.167 89.641 194.47 89.473 194.713 89.2354C194.956 88.9978 195.14 88.657 195.066 88.3248C194.991 87.985 194.706 87.4368 194.403 87.265C193.101 86.5258 191.547 86.5527 190.05 86.5868C188.553 86.6213 187.077 86.9703 185.658 87.4479C184.497 87.8386 183.28 88.3896 182.691 89.4639" fill="#4EA682"/>
<g opacity="0.4">
<path d="M195.066 88.324C194.991 87.9841 194.518 87.5315 194.215 87.3596C192.913 86.6204 191.547 86.5518 190.05 86.5864C188.553 86.6209 187.077 86.9699 185.658 87.4475C184.497 87.8382 183.28 88.3892 182.691 89.4635L183.432 89.907C185.282 91.2289 187.559 91.9441 189.833 91.9168C190.922 91.9038 192.077 91.6931 192.881 90.9582C193.251 90.6203 193.527 90.1878 193.908 89.8619C194.167 89.6411 194.469 89.4731 194.713 89.2355C194.956 88.9969 195.139 88.6561 195.066 88.324Z" fill="black"/>
</g>
<path d="M161.292 107.137L185.22 107.451C185.43 107.454 185.581 107.25 185.517 107.05L182.71 98.2944C182.71 98.2944 183.123 93.9197 183.695 88.6546C184.562 80.665 185.717 70.6195 185.732 70.6469C184.098 66.0605 174.441 65.2781 174.441 65.2781L163.434 65.9328L163.046 65.2867L159.879 66.7594C159.188 67.081 158.525 67.4558 157.892 67.8802C155.802 69.2803 150.758 72.4882 149.839 76.0675C147.714 84.3437 151.314 93.5842 151.314 93.5842L153.624 91.7784C154.228 91.32 154.802 90.9259 155.458 90.553L160.095 102.978C160.095 102.978 159.13 103.566 159.089 104.573C159.048 105.579 159.588 106.793 161.292 107.137Z" fill="#4EA682"/>
<g opacity="0.3">
<path d="M171.55 92.4872C172.309 88.4082 171.908 84.2134 171.504 80.0845C170.176 83.4627 170.224 87.2701 168.818 90.6166C168.666 90.9776 168.497 91.3376 168.444 91.7254C168.39 92.1133 168.475 92.5434 168.763 92.8078C169.145 93.1573 169.715 92.9691 170.229 92.9072C170.773 92.8419 171.06 92.6557 171.55 92.4872Z" fill="black"/>
</g>
<g opacity="0.4">
<path d="M162.736 101.93C164.668 102.6 166.699 101.358 168.732 101.137C170.075 100.991 171.419 101.299 172.753 101.516C175.447 101.953 178.201 102.021 180.913 101.716C181.327 101.669 181.751 101.611 182.114 101.406C182.476 101.202 182.768 100.63 182.741 100.215C178.222 99.7511 173.703 99.4746 169.184 99.0109C168.051 98.8948 166.882 98.782 165.794 99.1189C164.428 99.5423 163.375 100.615 162.413 101.673" fill="black"/>
</g>
<path d="M194.374 86.7431C192.418 82.3449 185.53 70.1711 185.53 70.1711L180.195 76.859L181.44 89.9875C181.44 89.9875 184.257 86.843 192.133 86.7806C193.968 86.7662 195.064 88.3243 195.064 88.3243L194.374 86.7431Z" fill="#4EA682"/>
<path d="M162.352 84.4195C162.285 84.4373 161.883 83.1518 161.453 81.5482C161.023 79.944 160.729 78.6298 160.796 78.612C160.862 78.5942 161.265 79.8797 161.695 81.4834C162.124 83.087 162.418 84.4018 162.352 84.4195Z" fill="#4EA682"/>
<path d="M179.794 75.9695C179.806 75.957 179.981 76.1063 180.288 76.389C180.587 76.6784 181.011 77.1104 181.476 77.6951C182.408 78.848 183.547 80.6509 184.023 82.9074C184.262 84.0292 184.301 85.1365 184.176 86.1229C184.052 87.105 183.864 87.9685 183.744 88.7C183.617 89.4296 183.542 90.0234 183.504 90.4357C183.466 90.8476 183.456 91.0775 183.437 91.0775C183.422 91.078 183.399 90.8476 183.407 90.43C183.416 90.0128 183.464 89.4095 183.57 88.6727C183.668 87.9354 183.839 87.0642 183.948 86.096C184.057 85.1327 184.012 84.0551 183.779 82.9597C183.315 80.7565 182.223 78.9719 181.337 77.804C180.449 76.6208 179.757 76.006 179.794 75.9695Z" fill="#4EA682"/>
<path d="M174.911 106.091C174.914 106.108 174.73 106.16 174.39 106.242C174.22 106.286 174.011 106.332 173.765 106.364C173.519 106.398 173.24 106.452 172.927 106.466C172.304 106.526 171.555 106.524 170.729 106.453C169.905 106.367 169.005 106.203 168.089 105.924C167.175 105.635 166.341 105.26 165.612 104.864C164.891 104.455 164.274 104.032 163.794 103.63C163.544 103.441 163.345 103.239 163.162 103.072C162.976 102.906 162.83 102.75 162.716 102.618C162.482 102.358 162.359 102.21 162.372 102.198C162.408 102.163 162.923 102.739 163.904 103.491C164.39 103.87 165.009 104.271 165.723 104.662C166.444 105.04 167.267 105.402 168.163 105.686C169.063 105.959 169.944 106.127 170.753 106.224C171.563 106.306 172.3 106.326 172.916 106.289C174.149 106.225 174.9 106.042 174.911 106.091Z" fill="#4EA682"/>
<path d="M182.3 103.354C182.329 103.347 182.422 103.609 182.485 104.054C182.542 104.496 182.554 105.134 182.356 105.804C182.165 106.476 181.765 107.004 181.415 107.29C181.064 107.582 180.795 107.675 180.783 107.65C180.761 107.614 180.995 107.468 181.294 107.161C181.594 106.858 181.937 106.361 182.116 105.732C182.479 104.464 182.206 103.359 182.3 103.354Z" fill="#4EA682"/>
<path d="M180.998 105.045C181.06 105.03 181.187 105.731 180.876 106.522C180.573 107.316 180.006 107.748 179.97 107.695C179.917 107.642 180.365 107.165 180.643 106.432C180.932 105.703 180.923 105.047 180.998 105.045Z" fill="#4EA682"/>
<path d="M176.713 89.25C176.764 89.3018 176.32 89.803 175.86 90.4788C175.394 91.1522 175.086 91.746 175.02 91.7172C174.959 91.6937 175.172 91.0346 175.654 90.3372C176.131 89.6378 176.669 89.2015 176.713 89.25Z" fill="#4EA682"/>
<path d="M160.292 77.6258C160.266 77.657 159.886 77.3503 159.231 76.9226C158.577 76.494 157.631 75.965 156.516 75.547C155.399 75.1318 154.337 74.9114 153.562 74.8068C152.787 74.7007 152.3 74.6834 152.3 74.6426C152.299 74.6143 152.789 74.5687 153.581 74.6311C154.372 74.6921 155.463 74.8894 156.603 75.3132C157.741 75.7399 158.694 76.3058 159.331 76.7777C159.97 77.249 160.311 77.6047 160.292 77.6258Z" fill="#4EA682"/>
<path d="M185.534 70.0119C185.58 70.0776 184.286 70.8682 183.109 72.2813C181.918 73.6824 181.36 75.0927 181.287 75.0581C181.258 75.0471 181.361 74.6818 181.621 74.1269C181.881 73.573 182.315 72.8381 182.918 72.12C183.523 71.4034 184.173 70.8499 184.674 70.5C185.176 70.1491 185.519 69.9864 185.534 70.0119Z" fill="#4EA682"/>
<path d="M175.652 66.0567C175.66 66.0534 175.697 66.1297 175.76 66.279C175.831 66.4259 175.904 66.6529 175.984 66.9519C176.136 67.5481 176.217 68.4649 175.975 69.5516C175.725 70.6249 175.126 71.8753 174.016 72.8598C172.916 73.8505 171.297 74.4385 169.6 74.4327C167.9 74.4212 166.305 73.8399 165.142 72.9423C163.964 72.0563 163.185 70.9489 162.688 69.9683C162.2 68.9756 161.973 68.1035 161.871 67.4982C161.821 67.1943 161.791 66.9582 161.784 66.796C161.773 66.6347 161.771 66.5502 161.78 66.5492C161.805 66.5463 161.835 66.8847 161.966 67.479C162.096 68.0723 162.346 68.9238 162.845 69.8872C163.352 70.839 164.128 71.9079 165.279 72.7571C166.414 73.6167 167.956 74.1702 169.601 74.1822C171.242 74.1875 172.802 73.6273 173.865 72.686C174.939 71.75 175.539 70.5481 175.803 69.5099C176.06 68.4591 176.008 67.5639 175.888 66.9726C175.77 66.3769 175.623 66.0678 175.652 66.0567Z" fill="#4EA682"/>
<g opacity="0.3">
<path d="M177.332 90.1013C177.324 89.8613 177.293 89.579 177.085 89.459C176.954 89.3837 176.785 89.4 176.65 89.4662C176.514 89.5325 176.405 89.6419 176.303 89.7528C175.721 90.3826 175.315 90.9979 175.02 91.8024L177.372 91.5994C177.358 91.1035 177.347 90.5976 177.332 90.1013Z" fill="black"/>
</g>
<g opacity="0.3">
<path d="M185.142 85.1517C184.961 83.8058 184.274 82.5746 183.437 81.5061C184.45 84.8282 184.111 86.7021 183.541 88.9768L183.664 88.6591C184.317 87.3295 185.322 86.4971 185.142 85.1517Z" fill="black"/>
</g>
<path d="M180.444 196.732L179.008 218.262L169.647 218.152L168.174 195.769L180.444 196.732Z" fill="#FFBE9D"/>
<path d="M179.272 215.428L179.274 216.05C179.274 216.05 189.825 220.297 189.936 222.299L168.979 222.176L169.305 215.204C172.412 216.666 175.673 216.847 179.272 215.428Z" fill="#4EA682"/>
<path d="M171.417 217.447C171.011 217.556 170.727 218.01 170.819 218.42C170.911 218.831 171.37 219.123 171.779 219.021C172.187 218.92 172.543 218.384 172.406 217.987C172.269 217.589 171.71 217.277 171.339 217.473" fill="white"/>
<path d="M168.979 222.177L169.058 220.5L189.115 221.232C189.115 221.232 190.045 221.643 189.936 222.3L168.979 222.177Z" fill="#4EA682"/>
<path d="M179.348 216.109C179.344 216.212 178.832 216.255 178.327 216.581C177.813 216.894 177.551 217.336 177.457 217.295C177.363 217.274 177.519 216.663 178.138 216.279C178.753 215.89 179.371 216.016 179.348 216.109Z" fill="#4EA682"/>
<path d="M181.54 217.032C181.563 217.131 181.118 217.303 180.768 217.734C180.405 218.154 180.315 218.622 180.213 218.616C180.117 218.632 180.05 218.032 180.495 217.505C180.936 216.974 181.538 216.934 181.54 217.032Z" fill="#4EA682"/>
<path d="M182.778 219.67C182.685 219.691 182.546 219.179 182.811 218.62C183.074 218.059 183.557 217.841 183.6 217.926C183.657 218.011 183.345 218.31 183.133 218.772C182.911 219.229 182.88 219.66 182.778 219.67Z" fill="#4EA682"/>
<path d="M178.735 39.2897C179.275 37.9433 178.621 36.3156 177.452 35.4564C176.283 34.5972 174.726 34.4119 173.294 34.639C171.861 34.8655 170.518 35.4636 169.193 36.0554C167.992 34.8487 166.094 34.3918 164.476 34.9202C162.857 35.4487 161.594 36.9382 161.337 38.621C160.305 38.3594 159.142 38.7118 158.429 39.5018C157.717 40.2919 157.485 41.4852 157.852 42.4846L164.34 44.7636L171.426 57.2278C173.498 58.9956 176.885 58.9481 178.906 57.1222C180.927 55.2962 181.317 51.9305 179.767 49.6908C180.168 49.3409 180.496 48.9185 180.763 48.4596C181.886 47.7655 182.765 46.6822 183.056 45.3886C183.673 42.6482 181.525 39.6166 178.735 39.2897Z" fill="#0A041D"/>
<path d="M174.448 65.2784C174.045 63.2495 173.764 61.8599 173.768 61.8743C173.768 61.8743 177.594 60.3848 177.33 55.041C177.199 52.3837 176.185 48.1938 175.245 44.7925C174.399 41.7311 171.545 38.3557 168.522 39.3315L159.381 43.796C158.463 44.0922 158.302 44.9547 158.518 45.8951L158.533 46.3535L162.09 61.0693L163.592 67.6463C164.257 70.4447 166.948 72.273 169.794 71.8607C172.945 71.4051 175.068 68.4008 174.448 65.2784Z" fill="#FFBE9D"/>
<path d="M175.187 48.3477C175.273 48.6952 175.049 49.0547 174.688 49.1512C174.328 49.2472 173.965 49.0441 173.879 48.6966C173.793 48.3491 174.016 47.9891 174.377 47.8931C174.738 47.7966 175.101 48.0001 175.187 48.3477Z" fill="#4EA682"/>
<path d="M174.787 47.327C174.723 47.4307 174.143 47.1643 173.429 47.316C172.715 47.4571 172.268 47.9342 172.172 47.8632C172.126 47.8324 172.177 47.6587 172.37 47.4451C172.56 47.2329 172.909 46.9915 173.354 46.9003C173.799 46.8096 174.208 46.8945 174.458 47.0169C174.712 47.1388 174.819 47.28 174.787 47.327Z" fill="#4EA682"/>
<path d="M168.239 49.9387C168.325 50.2862 168.101 50.6458 167.74 50.7422C167.379 50.8382 167.016 50.6352 166.93 50.2877C166.845 49.9402 167.068 49.5802 167.429 49.4842C167.791 49.3877 168.153 49.5912 168.239 49.9387Z" fill="#4EA682"/>
<path d="M167.887 49.0173C167.823 49.121 167.242 48.8546 166.529 49.0063C165.814 49.1474 165.367 49.6245 165.272 49.5535C165.226 49.5228 165.276 49.3495 165.47 49.1354C165.66 48.9228 166.009 48.6818 166.454 48.5901C166.899 48.4994 167.308 48.5849 167.558 48.7068C167.812 48.8297 167.919 48.9703 167.887 49.0173Z" fill="#4EA682"/>
<path d="M171.5 53.5327C171.488 53.4929 171.916 53.323 172.616 53.0806C172.794 53.0235 172.959 52.951 172.964 52.8204C172.979 52.6798 172.861 52.4993 172.729 52.3059C172.465 51.9007 172.189 51.4764 171.899 51.0315C170.736 49.2127 169.853 47.7017 169.927 47.6556C170.001 47.6095 171.003 49.0462 172.166 50.8649C172.448 51.3142 172.718 51.7428 172.975 52.1527C173.087 52.3452 173.255 52.5555 173.22 52.8483C173.199 52.9947 173.087 53.1214 172.976 53.1775C172.867 53.2375 172.765 53.2611 172.676 53.2855C171.959 53.4751 171.512 53.5726 171.5 53.5327Z" fill="#4EA682"/>
<path d="M173.761 61.8745C173.761 61.8745 170.329 62.8288 166.447 61.48C166.447 61.48 168.96 64.7632 174.034 63.1936L173.761 61.8745Z" fill="#EB996E"/>
<path d="M168.023 48.0002C167.975 48.2056 167.241 48.2003 166.405 48.4063C165.564 48.5954 164.909 48.9275 164.775 48.7648C164.715 48.6866 164.812 48.4869 165.065 48.2627C165.317 48.0391 165.732 47.8048 166.235 47.6858C166.738 47.5682 167.215 47.5922 167.54 47.68C167.866 47.7679 168.043 47.9032 168.023 48.0002Z" fill="#4EA682"/>
<path d="M174.512 45.054C174.397 45.247 173.78 45.2009 173.079 45.3401C172.374 45.4582 171.811 45.7198 171.638 45.5791C171.562 45.509 171.621 45.3276 171.847 45.1198C172.07 44.9134 172.47 44.6988 172.954 44.6105C173.437 44.5226 173.884 44.5822 174.162 44.6974C174.444 44.8111 174.56 44.9614 174.512 45.054Z" fill="#4EA682"/>
<path d="M161.623 40.3576C161.833 41.394 162.524 42.3223 163.456 42.8224C164.388 43.3226 165.544 43.384 166.524 42.9866C167.284 42.678 168.068 42.0991 168.839 42.378C169.651 42.6717 169.906 43.7503 170.659 44.1717C171.735 44.7741 173.032 43.7306 174.261 43.8338C175.21 43.9135 175.945 44.6522 176.689 45.2479C177.432 45.8436 178.464 46.3428 179.303 45.8916C179.079 45.0996 178.852 44.2994 178.453 43.5794C178.054 42.8594 177.462 42.2167 176.695 41.9167C176.275 41.7525 175.815 41.6944 175.414 41.4885C174.547 41.0436 174.159 40.036 173.527 39.2944C172.712 38.3388 171.414 37.8184 170.165 37.9471C169.126 38.0541 168.14 38.5773 167.096 38.5327C166.324 38.5 165.585 38.1568 164.813 38.1698C163.309 38.1948 162.179 39.5124 161.345 40.7637" fill="#0A041D"/>
<path d="M166.68 41.4561C165.993 41.4053 164.579 41.2603 164.114 40.7702C163.105 39.7051 161.6 39.1469 160.254 39.504C158.909 39.8606 157.825 41.2065 157.844 42.7017C156.2 43.056 154.808 44.4235 154.34 46.1438C153.873 47.8641 154.35 49.8681 155.539 51.1862C155.851 51.5313 156.327 52.3272 156.327 52.3272C156.327 52.3272 155.71 53.0976 155.473 53.6217C154.376 56.0501 157.353 56.9803 157.353 56.9803C157.362 58.6128 158.866 58.6051 159.832 58.6003C160.76 58.5955 161.331 61.1693 162.082 61.0694L161.319 53.1197C161.412 53.1566 161.526 53.1806 161.671 53.183C163.491 53.2157 163.016 49.7731 162.426 48.8827C162.94 48.1939 163.458 47.496 163.79 46.6867C164.123 45.8779 164.144 43.8561 163.861 43.0065C164.496 42.9134 166.982 41.4782 166.68 41.4561Z" fill="#0A041D"/>
<path d="M161.593 53.5401C161.31 52.451 159.959 51.9647 159.119 52.7145C158.658 53.1259 158.384 53.818 158.674 54.9767C159.449 58.0665 162.391 56.6515 162.374 56.5612C162.364 56.5055 161.925 54.8159 161.593 53.5401Z" fill="#FFBE9D"/>
<path d="M161.125 55.6293C161.108 55.623 161.08 55.6806 161 55.745C160.921 55.8078 160.776 55.8741 160.6 55.8544C160.243 55.8165 159.838 55.3672 159.684 54.8138C159.606 54.5344 159.597 54.2522 159.641 54.0055C159.679 53.7559 159.785 53.561 159.943 53.4909C160.097 53.4122 160.238 53.4813 160.297 53.5586C160.361 53.6344 160.356 53.7011 160.374 53.7026C160.385 53.7083 160.427 53.6339 160.371 53.513C160.342 53.4549 160.288 53.391 160.201 53.3498C160.111 53.308 159.995 53.3046 159.883 53.3459C159.649 53.4222 159.49 53.6949 159.441 53.9661C159.38 54.2416 159.383 54.5603 159.471 54.8742C159.647 55.492 160.111 55.9946 160.591 56.0118C160.822 56.0142 160.987 55.9029 161.062 55.8064C161.138 55.7056 161.137 55.6322 161.125 55.6293Z" fill="#EB996E"/>
<path d="M178.165 49.224C178.146 49.2004 178.444 49.0084 178.839 48.526C179.225 48.048 179.694 47.2339 179.803 46.1256C179.856 45.5779 179.829 44.9611 179.631 44.3457C179.433 43.7342 179.08 43.1188 178.534 42.6408C177.469 41.6721 175.704 41.2238 174.122 41.7816C173.977 41.8281 173.843 41.9001 173.706 41.9568C173.575 42.0254 173.452 42.1027 173.329 42.1713L173.139 42.2784L173.136 42.0667C173.131 41.6947 172.992 41.3342 172.748 41.0582C172.506 40.7803 172.194 40.5691 171.861 40.4246C171.187 40.128 170.463 40.1227 169.801 40.2739C168.476 40.5748 167.352 41.1806 166.29 41.3025C165.239 41.4369 164.366 41.1758 163.896 40.8216C163.653 40.6521 163.517 40.463 163.427 40.3416C163.35 40.2086 163.313 40.138 163.32 40.1342C163.345 40.114 163.474 40.4289 163.949 40.7452C164.414 41.0606 165.255 41.2852 166.267 41.134C166.77 41.0596 167.307 40.8801 167.879 40.6689C168.452 40.4596 169.064 40.2086 169.753 40.055C170.097 39.9816 170.459 39.9273 170.838 39.9465C171.214 39.9662 171.594 40.0516 171.956 40.2038C172.317 40.3584 172.661 40.5859 172.935 40.8988C173.211 41.2084 173.381 41.6332 173.385 42.0686L173.192 41.964C173.322 41.8896 173.454 41.8075 173.594 41.734C173.74 41.6731 173.883 41.5968 174.036 41.5473C175.72 40.9564 177.566 41.4374 178.687 42.4704C179.261 42.9811 179.631 43.6406 179.829 44.2857C180.028 44.9356 180.045 45.5788 179.979 46.1462C179.842 47.2934 179.331 48.1195 178.913 48.5899C178.701 48.827 178.515 48.9926 178.377 49.0867C178.242 49.1832 178.17 49.2312 178.165 49.224Z" fill="#455A64"/>
<path d="M177.537 38.3727C177.519 38.4078 177.208 38.1298 176.542 38.0314C176.214 37.9887 175.799 37.9906 175.36 38.1385C174.923 38.2743 174.462 38.5642 174.144 39.0231L174.027 39.1926L173.955 39.0006C173.566 37.9652 172.432 36.9807 171.027 36.8262C169.971 36.7047 169.011 37.1804 168.212 37.6398C167.407 38.1106 166.673 38.5714 165.981 38.7942C165.297 39.0346 164.691 39.061 164.292 38.9929C164.092 38.9578 163.942 38.9108 163.844 38.8695C163.746 38.8273 163.697 38.8014 163.7 38.7932C163.708 38.7706 163.914 38.857 164.304 38.8959C164.692 38.9324 165.266 38.881 165.92 38.6276C166.583 38.391 167.285 37.9297 168.095 37.4406C168.503 37.202 168.943 36.9572 169.44 36.7839C169.933 36.6068 170.491 36.518 171.052 36.5775C172.561 36.7441 173.758 37.8049 174.155 38.9233L173.966 38.9007C174.328 38.3982 174.837 38.1001 175.308 37.9695C175.78 37.8269 176.22 37.8433 176.562 37.9071C176.907 37.9743 177.157 38.0972 177.315 38.1946C177.471 38.2978 177.543 38.365 177.537 38.3727Z" fill="#455A64"/>
<path d="M171.219 54.9504C171.001 54.7401 170.676 54.6715 170.375 54.7056C170.093 54.7377 169.746 54.9897 169.567 55.296C169.562 55.3017 169.558 55.308 169.555 55.3142C169.547 55.3277 169.535 55.3397 169.528 55.3536L169.539 55.3454C169.474 55.4544 169.436 55.5821 169.449 55.7078C169.48 55.9915 169.695 56.2296 169.95 56.3568C170.356 56.5598 170.893 56.5008 171.208 56.1744C171.523 55.8485 171.545 55.2653 171.219 54.9504Z" fill="#4EA682"/>
<path d="M171.458 56.4436C171.42 56.4508 171.374 56.301 171.246 56.0999C171.121 55.8997 170.898 55.6487 170.578 55.5023C170.257 55.3573 169.921 55.3535 169.688 55.3914C169.452 55.4274 169.309 55.4903 169.29 55.4576C169.272 55.4327 169.39 55.3084 169.645 55.22C169.895 55.1312 170.294 55.1 170.681 55.2752C171.067 55.4519 171.306 55.7735 171.403 56.0197C171.504 56.2698 171.488 56.4402 171.458 56.4436Z" fill="#4EA682"/>
<path d="M161.663 57.0371C161.687 57.0222 161.801 57.2775 161.621 57.6414C161.531 57.8142 161.365 58.0052 161.109 58.1041C160.853 58.2073 160.524 58.1684 160.263 58.0033C160.001 57.8392 159.824 57.5593 159.806 57.2833C159.784 57.0092 159.885 56.7774 160.002 56.6219C160.252 56.3022 160.532 56.295 160.528 56.3223C160.545 56.3603 160.317 56.4313 160.148 56.7203C160.068 56.8614 160.006 57.0548 160.035 57.2584C160.058 57.46 160.193 57.6625 160.396 57.7916C160.6 57.9188 160.841 57.9524 161.032 57.8867C161.228 57.8243 161.376 57.6851 161.468 57.5516C161.656 57.2742 161.622 57.0385 161.663 57.0371Z" fill="#4EA682"/>
<path d="M160.04 56.8527C160.067 56.8652 160.026 57.0164 159.817 57.1186C159.715 57.1656 159.573 57.1954 159.418 57.1575C159.261 57.121 159.111 57.0044 159.025 56.8455C158.939 56.6866 158.923 56.4975 158.979 56.3458C159.032 56.1946 159.134 56.0928 159.23 56.0333C159.429 55.9143 159.579 55.9623 159.574 55.9916C159.577 56.029 159.457 56.0535 159.337 56.1735C159.215 56.2892 159.125 56.5124 159.246 56.726C159.358 56.9439 159.595 56.9904 159.758 56.9516C159.924 56.917 160.01 56.8301 160.04 56.8527Z" fill="#4EA682"/>
<path d="M165.322 99.4823C165.322 99.4823 177.206 100.172 184.231 100.236C189.672 100.286 192.098 98.8405 193.185 95.3447C194.099 92.4095 192.136 86.781 192.136 86.781C188.457 86.7992 186.186 87.3066 183.818 88.4164L184.45 90.9901L165.288 92.6423L165.322 99.4823Z" fill="#FFBE9D"/>
<path d="M188.443 93.7363C188.377 93.7809 187.819 92.7398 186.649 91.956C185.492 91.1534 184.318 91.0142 184.336 90.9364C184.339 90.9072 184.634 90.9 185.098 91.0032C185.561 91.1045 186.187 91.3396 186.79 91.7496C187.391 92.1614 187.839 92.6577 188.103 93.0513C188.368 93.4449 188.469 93.7229 188.443 93.7363Z" fill="#EB996E"/>
<path d="M160.97 88.399C160.97 88.399 157.294 89.2807 154.595 91.0855L157.465 98.8918C158.424 101.454 161.362 102.713 163.688 101.383C167.303 99.3185 168.578 93.2887 168.578 93.2887L172.55 76.0673L165.969 71.9441L160.97 88.399Z" fill="#FFBE9D"/>
<path d="M165.971 71.9439L166.236 66.2799L164.767 60.5435C164.685 60.2257 164.645 59.8292 164.903 59.6358C165.172 59.4337 165.574 59.4438 165.79 59.6641C166.192 60.0755 168.112 65.1135 168.112 65.1135C168.112 65.1135 171.024 63.3635 171.544 63.278C172.063 63.1926 172.711 64.7598 172.752 64.8836C172.793 65.0075 172.757 65.9363 172.757 65.9363C172.757 65.9363 174.558 65.99 174.72 66.2372C174.881 66.4844 174.928 67.7651 174.928 67.7651C174.928 67.7651 175.689 68.0094 175.812 68.5868C175.935 69.1647 176.179 70.1142 175.82 70.3225C175.461 70.5308 174.703 70.9479 174.703 70.9479C174.703 70.9479 174.398 73.8865 174.319 74.1539C174.241 74.4212 172.552 76.0667 172.552 76.0667L165.971 71.9439Z" fill="#FFBE9D"/>
<path d="M159.851 101.502C159.858 101.486 160.03 101.604 160.402 101.725C160.77 101.849 161.354 101.961 162.098 101.86C162.835 101.76 163.743 101.437 164.555 100.727C165.356 100.002 166.166 99.0424 166.839 97.8352C167.174 97.2313 167.476 96.5685 167.729 95.8523C167.988 95.1371 168.157 94.3614 168.345 93.5512C168.722 91.9336 169.127 90.1921 169.559 88.3417C170.425 84.639 171.394 80.4995 172.437 76.0408L172.444 76.0077L172.469 75.9832C172.8 75.6592 173.132 75.3256 173.461 74.9824C173.624 74.8105 173.788 74.6363 173.945 74.4573C174.021 74.368 174.102 74.2758 174.163 74.1865C174.219 74.1285 174.221 74.0128 174.243 73.8904C174.374 72.9294 174.475 71.9363 174.581 70.9365L174.588 70.8731L174.644 70.8414C174.944 70.6729 175.25 70.5021 175.559 70.3288C175.629 70.2875 175.731 70.2376 175.775 70.203C175.813 70.1723 175.847 70.1181 175.861 70.0422C175.897 69.8958 175.885 69.7173 175.867 69.5449C175.823 69.2065 175.744 68.8139 175.654 68.5014C175.534 68.2101 175.205 68.0003 174.89 67.8851L174.806 67.8549L174.803 67.7713C174.791 67.4934 174.772 67.2069 174.741 66.9227C174.725 66.7806 174.707 66.6371 174.677 66.5013C174.662 66.437 174.644 66.363 174.622 66.3237C174.607 66.292 174.614 66.316 174.592 66.2953C174.567 66.2843 174.546 66.2704 174.512 66.2617C173.978 66.1149 173.35 66.0933 172.754 66.0635L172.629 66.0573L172.633 65.9339C172.642 65.6377 172.655 65.307 172.641 64.996C172.649 64.9139 172.574 64.7896 172.529 64.6744C172.478 64.5587 172.422 64.4445 172.365 64.3321C172.249 64.1085 172.121 63.8896 171.972 63.6985C171.898 63.6049 171.816 63.5137 171.728 63.459C171.63 63.4005 171.589 63.387 171.473 63.4297C171.25 63.508 171.02 63.6285 170.796 63.7398C169.9 64.2059 169.03 64.7152 168.176 65.2221L168.051 65.2965L167.997 65.1621C167.543 64.0254 167.095 62.9032 166.653 61.7968C166.432 61.2438 166.213 60.6947 165.996 60.1499C165.916 59.8744 165.724 59.7189 165.468 59.656C165.214 59.5912 164.963 59.6694 164.844 59.8849C164.784 59.9867 164.758 60.1091 164.771 60.2267C164.785 60.3337 164.837 60.4955 164.869 60.627C164.942 60.904 165.014 61.1795 165.086 61.4536C165.23 62.0022 165.373 62.5461 165.515 63.0846C165.797 64.1617 166.075 65.2187 166.346 66.2536L166.351 66.2704L166.35 66.2877C166.254 68.2585 166.163 70.1502 166.075 71.9512L166.075 71.9646L166.071 71.9766C164.257 77.8792 162.753 82.7747 161.698 86.2062C161.168 87.9064 160.752 89.2437 160.464 90.1667C160.321 90.6136 160.211 90.9601 160.132 91.2054C160.055 91.4397 160.008 91.5582 160.008 91.5582C160.008 91.5582 160.035 91.4334 160.102 91.1958C160.173 90.9486 160.274 90.5992 160.404 90.148C160.679 89.2206 161.078 87.8781 161.584 86.1707C162.618 82.7329 164.093 77.8288 165.872 71.9152L165.868 71.9406C165.95 70.1392 166.035 68.248 166.125 66.2761L166.129 66.3102C165.854 65.2763 165.575 64.2198 165.289 63.1432C165.146 62.6046 165.002 62.0613 164.857 61.5126C164.785 61.2385 164.712 60.963 164.638 60.6861C164.604 60.5392 164.56 60.4283 164.533 60.2507C164.515 60.0827 164.551 59.9089 164.637 59.7621C164.724 59.6147 164.857 59.4952 165.026 59.4352C165.194 59.3795 165.362 59.3848 165.522 59.4193C165.681 59.4573 165.836 59.5283 165.962 59.643C166.09 59.7486 166.177 59.9305 166.22 60.0568C166.439 60.6016 166.658 61.1502 166.88 61.7032C167.323 62.8091 167.772 63.9313 168.227 65.068L168.048 65.008C168.906 64.4977 169.774 63.9889 170.682 63.5161C170.913 63.4014 171.135 63.2829 171.394 63.1912C171.465 63.1705 171.534 63.1451 171.636 63.1571C171.723 63.1696 171.804 63.2046 171.863 63.2478C171.992 63.3314 172.082 63.4365 172.167 63.5416C172.333 63.7547 172.465 63.9832 172.586 64.216C172.646 64.3326 172.703 64.4507 172.756 64.5707C172.801 64.6945 172.881 64.7963 172.889 64.9782C172.904 65.3185 172.891 65.6382 172.882 65.9421L172.761 65.8125C173.379 65.8461 173.976 65.8561 174.593 66.0251C174.631 66.0347 174.675 66.0582 174.717 66.0789C174.755 66.0971 174.831 66.1653 174.841 66.2046C174.888 66.2968 174.9 66.3698 174.92 66.4475C174.953 66.5997 174.971 66.747 174.988 66.8944C175.02 67.1886 175.039 67.4761 175.051 67.7617L174.964 67.648C175.335 67.7886 175.703 68.0041 175.882 68.4064C175.998 68.8019 176.059 69.1355 176.112 69.5176C176.13 69.7053 176.148 69.8949 176.1 70.1008C176.08 70.2006 176.027 70.3168 175.926 70.3974C175.826 70.4699 175.764 70.4929 175.681 70.5429C175.37 70.7166 175.063 70.8885 174.761 71.0569L174.824 70.9624C174.716 71.9656 174.614 72.9534 174.482 73.9264L174.451 74.1126C174.446 74.1697 174.401 74.2758 174.362 74.3219C174.286 74.4333 174.206 74.5225 174.125 74.6166C173.964 74.8005 173.798 74.9761 173.632 75.1489C173.3 75.4941 172.967 75.8277 172.634 76.1536L172.666 76.096C171.611 80.5513 170.63 84.6885 169.754 88.3888C169.314 90.2373 168.9 91.9768 168.516 93.5925C168.324 94.3974 168.148 95.1846 167.881 95.907C167.62 96.6309 167.311 97.3 166.967 97.9081C166.276 99.125 165.449 100.088 164.63 100.813C163.79 101.533 162.861 101.849 162.109 101.938C161.348 102.029 160.757 101.902 160.389 101.764C160.203 101.696 160.067 101.632 159.981 101.58C159.893 101.531 159.849 101.505 159.851 101.502Z" fill="#EB996E"/>
<path d="M172.756 65.9275C172.754 65.9625 172.593 65.9808 172.34 65.9928C172.087 66.0072 171.74 66.0144 171.383 66.1061C171.029 66.1977 170.741 66.3758 170.569 66.5409C170.393 66.7046 170.316 66.8438 170.281 66.8289C170.253 66.8198 170.272 66.6446 170.437 66.4233C170.597 66.202 170.917 65.9673 171.321 65.8636C171.722 65.7614 172.091 65.7854 172.346 65.8157C172.604 65.8497 172.758 65.8939 172.756 65.9275Z" fill="#EB996E"/>
<path d="M171.347 65.9798C171.282 65.9558 171.279 65.8075 171.338 65.6487C171.397 65.4898 171.498 65.3808 171.562 65.4053C171.627 65.4293 171.631 65.5776 171.572 65.7365C171.513 65.8949 171.412 66.0038 171.347 65.9798Z" fill="#EB996E"/>
<path d="M175.005 67.7232C175.004 67.7956 174.362 67.8705 173.581 67.92C173.194 67.9545 172.902 68.0932 172.788 68.3016C172.661 68.4979 172.703 68.6606 172.667 68.6712C172.644 68.6932 172.513 68.5094 172.63 68.2224C172.683 68.087 172.801 67.9368 172.973 67.8412C173.142 67.7438 173.347 67.6963 173.55 67.6723C174.357 67.62 175.007 67.6579 175.005 67.7232Z" fill="#EB996E"/>
<path d="M174.685 69.45C174.754 69.4533 174.794 69.8081 174.774 70.2425C174.754 70.6773 174.683 71.0268 174.614 71.0239C174.545 71.0205 174.505 70.6658 174.525 70.2314C174.544 69.7965 174.616 69.4466 174.685 69.45Z" fill="#EB996E"/>
<path d="M176.679 82.3782L177.105 80.9065C177.191 80.6113 177.563 80.5177 177.778 80.737L178.335 81.3054L178.683 79.9215C178.775 79.5567 179.273 79.5063 179.435 79.8457L180.221 81.4844L176.679 82.3782Z" fill="white"/>
<path d="M180.229 82.1141C180.246 82.1813 179.487 82.4265 178.534 82.6627C177.581 82.8989 176.795 83.0357 176.779 82.9685C176.762 82.9013 177.521 82.656 178.474 82.4198C179.427 82.1841 180.213 82.0473 180.229 82.1141Z" fill="white"/>
<path d="M151.682 73.9092C151.694 73.9188 151.504 74.094 151.255 74.4794C151.009 74.8644 150.737 75.4817 150.605 76.2919C150.463 77.1002 150.457 78.0828 150.518 79.1676C150.571 80.2538 150.659 81.4466 150.792 82.6946C151.055 85.1921 151.46 87.4322 151.805 89.0407C151.976 89.8457 152.129 90.4937 152.236 90.9415C152.283 91.1402 152.324 91.3101 152.359 91.457C152.387 91.5751 152.396 91.6385 152.396 91.6385C152.396 91.6385 152.373 91.5785 152.34 91.4623C152.299 91.3169 152.253 91.1484 152.198 90.9511C152.08 90.5061 151.915 89.8601 151.735 89.0561C151.373 87.4495 150.956 85.2074 150.692 82.7057C150.559 81.4557 150.473 80.2605 150.426 79.1724C150.37 78.0857 150.383 77.0949 150.535 76.2799C150.677 75.4629 150.964 74.8409 151.223 74.4583C151.484 74.0748 151.682 73.9092 151.682 73.9092Z" fill="white"/>
<path d="M161.782 67.3833C161.783 67.3867 161.746 67.4068 161.674 67.4423C161.576 67.4889 161.472 67.5388 161.357 67.5935C161.082 67.7241 160.686 67.9175 160.209 68.1806C159.25 68.6961 157.972 69.4929 156.603 70.4347C155.232 71.3769 154.017 72.2673 153.13 72.9014C152.722 73.1903 152.371 73.4385 152.076 73.6478C151.971 73.7198 151.876 73.7846 151.786 73.8455C151.719 73.8897 151.683 73.9118 151.681 73.9089C151.679 73.906 151.711 73.8787 151.774 73.8292C151.86 73.7635 151.952 73.6934 152.053 73.6161C152.343 73.4001 152.688 73.1428 153.088 72.8443C153.965 72.1958 155.173 71.2958 156.546 70.3521C157.917 69.4089 159.205 68.6193 160.176 68.1182C160.658 67.8623 161.06 67.678 161.341 67.558C161.459 67.5095 161.565 67.4654 161.666 67.4241C161.741 67.3939 161.78 67.3799 161.782 67.3833Z" fill="white"/>
<path d="M184.676 70.5057C184.674 70.5081 184.646 70.487 184.596 70.4452C184.527 70.3857 184.456 70.3238 184.38 70.258C184.191 70.0982 183.91 69.874 183.539 69.6311C182.806 69.1334 181.71 68.5723 180.453 68.0697C179.195 67.5671 178.02 67.21 177.164 66.9748C176.736 66.8563 176.387 66.7689 176.145 66.7094C176.048 66.6844 175.956 66.6609 175.868 66.6388C175.805 66.6215 175.772 66.611 175.772 66.6076C175.773 66.6043 175.808 66.6081 175.872 66.6191C175.962 66.6359 176.054 66.6532 176.154 66.6715C176.398 66.7195 176.75 66.7963 177.181 66.9067C178.044 67.1246 179.227 67.4721 180.49 67.9771C181.752 68.4815 182.85 69.0566 183.579 69.5731C184.315 70.0804 184.676 70.5057 184.676 70.5057Z" fill="white"/>
<path d="M161.919 107.145C161.916 107.151 161.849 107.13 161.732 107.081C161.614 107.031 161.448 106.95 161.255 106.826C160.879 106.587 160.365 106.119 160.211 105.412C160.053 104.72 160.202 104.066 160.397 103.656C160.494 103.448 160.596 103.292 160.675 103.192C160.753 103.092 160.804 103.042 160.809 103.046C160.825 103.057 160.635 103.27 160.462 103.684C160.288 104.091 160.156 104.724 160.309 105.39C160.454 106.061 160.934 106.517 161.295 106.767C161.663 107.024 161.927 107.128 161.919 107.145Z" fill="white"/>
<path d="M160.391 101.948C160.417 101.94 160.52 102.21 160.62 102.551C160.719 102.891 160.778 103.174 160.752 103.181C160.726 103.189 160.623 102.919 160.524 102.578C160.424 102.239 160.365 101.956 160.391 101.948Z" fill="white"/>
<path d="M166.88 209.567L181.522 209.493L181.257 158.873L181.121 107.383L161.29 107.137L157.725 113.858C156.287 116.57 155.31 119.516 154.982 122.569C154.733 124.895 156.476 132.481 157.085 134.411L162.543 151.721L166.88 209.567Z" fill="#1C0B54"/>
<path d="M185.417 107.453L201.504 151.311C203.394 157.189 202.762 163.017 199.521 168.447L180.842 204.905L170.34 191.767L185.969 159.105L172.191 136.784L174.509 107.5L180.999 107.396L185.417 107.453Z" fill="#1C0B54"/>
<path d="M179.784 122.146C179.784 122.146 179.796 122.222 179.806 122.371C179.816 122.53 179.83 122.75 179.848 123.032C179.88 123.625 179.925 124.479 179.984 125.574C180.091 127.795 180.246 130.987 180.436 134.927C180.618 138.88 180.835 143.582 181.075 148.801C181.192 151.413 181.315 154.153 181.443 156.994C181.534 158.414 181.493 159.862 181.51 161.331C181.514 162.8 181.519 164.29 181.523 165.798C181.543 177.862 181.562 188.781 181.575 196.697C181.57 200.642 181.565 203.838 181.562 206.061C181.555 207.157 181.55 208.012 181.546 208.606C181.542 208.888 181.538 209.108 181.535 209.268C181.531 209.417 181.523 209.494 181.523 209.494C181.523 209.494 181.515 209.417 181.51 209.268C181.507 209.108 181.502 208.888 181.495 208.606C181.488 208.012 181.478 207.157 181.465 206.061C181.449 203.838 181.426 200.642 181.398 196.698C181.366 188.782 181.322 177.865 181.273 165.803C181.269 164.295 181.265 162.805 181.261 161.337C181.245 159.868 181.288 158.42 181.198 157C181.075 154.16 180.957 151.419 180.845 148.808C180.624 143.589 180.426 138.887 180.259 134.934C180.103 130.993 179.975 127.799 179.886 125.578C179.848 124.483 179.818 123.628 179.798 123.034C179.791 122.752 179.785 122.532 179.781 122.372C179.778 122.223 179.784 122.146 179.784 122.146Z" fill="#455A64"/>
<path d="M179.417 108.319C179.434 108.317 179.469 108.487 179.518 108.795C179.568 109.104 179.628 109.552 179.691 110.108C179.82 111.218 179.954 112.757 180.032 114.461C180.108 116.166 180.112 117.711 180.085 118.829C180.071 119.387 180.052 119.839 180.031 120.151C180.01 120.463 179.99 120.635 179.973 120.635C179.936 120.634 179.926 119.943 179.908 118.828C179.891 117.712 179.858 116.172 179.782 114.472C179.705 112.773 179.599 111.236 179.516 110.124C179.433 109.012 179.381 108.322 179.417 108.319Z" fill="#455A64"/>
<path d="M176.191 109.306C176.217 109.338 175.941 109.462 175.866 109.854C175.831 110.04 175.87 110.279 176.052 110.439C176.226 110.6 176.529 110.681 176.772 110.57C177.015 110.458 177.153 110.176 177.143 109.939C177.141 109.697 176.986 109.511 176.822 109.416C176.477 109.218 176.203 109.344 176.196 109.305C176.189 109.292 176.242 109.241 176.366 109.205C176.488 109.169 176.687 109.16 176.904 109.259C177.115 109.349 177.356 109.59 177.373 109.927C177.397 110.247 177.235 110.626 176.877 110.797C176.513 110.956 176.12 110.831 175.893 110.604C175.65 110.371 175.624 110.031 175.694 109.812C175.761 109.584 175.898 109.438 176.005 109.369C176.113 109.3 176.186 109.293 176.191 109.306Z" fill="#455A64"/>
<path d="M168.508 108.437C168.522 108.434 168.581 108.594 168.64 108.896C168.7 109.198 168.737 109.649 168.683 110.201C168.63 110.753 168.463 111.404 168.129 112.061C167.797 112.716 167.281 113.37 166.589 113.874C165.889 114.368 165.105 114.649 164.377 114.753C163.648 114.86 162.977 114.81 162.438 114.684C161.898 114.559 161.483 114.38 161.216 114.226C160.948 114.074 160.815 113.967 160.823 113.955C160.846 113.906 161.413 114.312 162.473 114.511C163.508 114.717 165.103 114.623 166.443 113.671C167.773 112.707 168.372 111.225 168.507 110.179C168.658 109.111 168.455 108.444 168.508 108.437Z" fill="#455A64"/>
<path d="M187.343 112.639C187.343 112.663 186.979 112.691 186.421 112.53C185.864 112.374 185.132 111.982 184.531 111.322C183.933 110.66 183.613 109.893 183.511 109.324C183.405 108.753 183.467 108.393 183.491 108.396C183.536 108.396 183.538 108.749 183.683 109.284C183.824 109.819 184.15 110.527 184.716 111.154C185.286 111.778 185.959 112.171 186.477 112.363C186.996 112.559 187.347 112.595 187.343 112.639Z" fill="#455A64"/>
<path d="M193.062 159.922C193.079 159.945 192.785 160.238 192.213 160.597C191.926 160.773 191.564 160.963 191.121 161.074C190.683 161.188 190.152 161.204 189.647 161.036C188.625 160.698 187.987 159.93 187.597 159.404C187.206 158.859 187.009 158.498 187.034 158.48C187.065 158.458 187.316 158.787 187.736 159.295C188.156 159.788 188.788 160.492 189.724 160.798C190.663 161.111 191.563 160.742 192.126 160.444C192.703 160.134 193.038 159.889 193.062 159.922Z" fill="#455A64"/>
<path d="M189.397 162.724C189.341 162.764 188.662 161.907 187.882 160.809C187.101 159.712 186.514 158.789 186.57 158.749C186.626 158.709 187.305 159.567 188.086 160.664C188.866 161.762 189.453 162.684 189.397 162.724Z" fill="#455A64"/>
<path d="M164.798 123.849C164.733 123.874 164.562 123.598 164.416 123.231C164.269 122.865 164.202 122.547 164.267 122.521C164.331 122.495 164.501 122.772 164.648 123.138C164.795 123.505 164.862 123.823 164.798 123.849Z" fill="#FAFAFA"/>
<path d="M174.091 125.176C174.021 125.176 173.966 124.938 173.966 124.645C173.966 124.352 174.022 124.114 174.091 124.114C174.16 124.114 174.215 124.351 174.215 124.645C174.215 124.938 174.16 125.176 174.091 125.176Z" fill="#FAFAFA"/>
<path d="M170.272 130.222C170.203 130.227 170.127 129.933 170.102 129.567C170.077 129.2 170.112 128.899 170.181 128.895C170.251 128.89 170.326 129.184 170.351 129.55C170.376 129.917 170.341 130.218 170.272 130.222Z" fill="#FAFAFA"/>
<path d="M163.292 133.939C163.235 133.981 163.036 133.804 162.78 133.62C162.525 133.432 162.296 133.298 162.318 133.231C162.337 133.167 162.636 133.205 162.927 133.418C163.219 133.629 163.347 133.901 163.292 133.939Z" fill="#FAFAFA"/>
<path d="M175.595 138.63C175.537 138.592 175.61 138.383 175.756 138.163C175.903 137.943 176.068 137.796 176.126 137.834C176.183 137.872 176.111 138.082 175.964 138.301C175.818 138.521 175.652 138.669 175.595 138.63Z" fill="#FAFAFA"/>
<path d="M167.982 139.958C167.913 139.958 167.857 139.562 167.857 139.073C167.857 138.584 167.914 138.188 167.982 138.188C168.051 138.188 168.107 138.585 168.107 139.073C168.107 139.562 168.051 139.958 167.982 139.958Z" fill="#FAFAFA"/>
<path d="M165.517 145.343C165.476 145.398 165.226 145.285 164.956 145.09C164.687 144.895 164.502 144.691 164.543 144.635C164.583 144.579 164.834 144.692 165.103 144.888C165.373 145.083 165.558 145.287 165.517 145.343Z" fill="#FAFAFA"/>
<path d="M173.206 147.216C173.234 147.279 173.079 147.41 172.859 147.507C172.639 147.605 172.438 147.633 172.409 147.57C172.382 147.507 172.537 147.377 172.757 147.279C172.977 147.182 173.178 147.153 173.206 147.216Z" fill="#FAFAFA"/>
<path d="M167.985 155.98C167.923 156.01 167.675 155.639 167.431 155.151C167.186 154.661 167.038 154.24 167.1 154.209C167.162 154.179 167.41 154.55 167.654 155.039C167.899 155.527 168.047 155.949 167.985 155.98Z" fill="#FAFAFA"/>
<path d="M176.481 155.183C176.42 155.15 176.529 154.826 176.725 154.46C176.92 154.093 177.128 153.822 177.189 153.855C177.25 153.888 177.141 154.211 176.945 154.578C176.75 154.944 176.542 155.215 176.481 155.183Z" fill="#FAFAFA"/>
<path d="M172.763 162.618C172.692 162.608 172.698 162.229 172.624 161.778C172.556 161.327 172.434 160.969 172.497 160.936C172.555 160.904 172.794 161.244 172.871 161.74C172.951 162.234 172.828 162.632 172.763 162.618Z" fill="#FAFAFA"/>
<path d="M168.78 166.867C168.728 166.913 168.489 166.733 168.244 166.464C168 166.195 167.843 165.939 167.895 165.893C167.945 165.847 168.185 166.027 168.43 166.296C168.674 166.565 168.83 166.82 168.78 166.867Z" fill="#FAFAFA"/>
<path d="M178.448 168.479C178.398 168.431 178.575 168.172 178.842 167.901C179.109 167.631 179.365 167.45 179.414 167.499C179.463 167.547 179.287 167.806 179.02 168.077C178.753 168.347 178.497 168.527 178.448 168.479Z" fill="#FAFAFA"/>
<path d="M172.888 174.838C172.82 174.828 172.819 174.462 172.885 174.021C172.952 173.58 173.062 173.231 173.13 173.242C173.198 173.252 173.199 173.618 173.133 174.059C173.065 174.5 172.956 174.849 172.888 174.838Z" fill="#FAFAFA"/>
<path d="M169.146 177.924C169.087 177.959 168.877 177.712 168.678 177.372C168.479 177.032 168.365 176.728 168.425 176.693C168.485 176.658 168.695 176.905 168.894 177.245C169.092 177.586 169.206 177.889 169.146 177.924Z" fill="#FAFAFA"/>
<path d="M178.159 181.82C178.199 181.877 177.954 182.12 177.613 182.365C177.271 182.61 176.961 182.763 176.92 182.707C176.88 182.651 177.125 182.407 177.467 182.162C177.809 181.917 178.118 181.764 178.159 181.82Z" fill="#FAFAFA"/>
<path d="M170.653 186.876C170.586 186.851 170.671 186.464 170.711 185.987C170.756 185.51 170.739 185.114 170.809 185.102C170.874 185.088 171.007 185.494 170.961 186.009C170.916 186.525 170.715 186.901 170.653 186.876Z" fill="#FAFAFA"/>
<path d="M173.65 194.129C173.596 194.172 173.394 194.009 173.198 193.765C173.003 193.52 172.888 193.287 172.942 193.244C172.996 193.201 173.198 193.364 173.394 193.608C173.589 193.853 173.704 194.086 173.65 194.129Z" fill="#FAFAFA"/>
<path d="M170.373 198.998C170.316 199.037 170.052 198.752 169.783 198.36C169.515 197.969 169.343 197.621 169.399 197.581C169.456 197.543 169.721 197.828 169.989 198.219C170.258 198.61 170.43 198.959 170.373 198.998Z" fill="#FAFAFA"/>
<path d="M179.404 192.89C179.339 192.866 179.346 192.687 179.419 192.492C179.493 192.296 179.605 192.158 179.67 192.182C179.734 192.206 179.727 192.385 179.654 192.58C179.58 192.775 179.468 192.914 179.404 192.89Z" fill="#FAFAFA"/>
<path d="M175.421 204.486C175.358 204.453 175.478 204.111 175.571 203.683C175.668 203.256 175.704 202.896 175.775 202.893C175.841 202.887 175.92 203.273 175.815 203.737C175.713 204.203 175.479 204.519 175.421 204.486Z" fill="#FAFAFA"/>
<path d="M178.008 130.3C177.946 130.329 177.794 130.136 177.669 129.868C177.543 129.601 177.492 129.36 177.555 129.331C177.618 129.302 177.77 129.495 177.895 129.763C178.02 130.03 178.071 130.271 178.008 130.3Z" fill="#FAFAFA"/>
<path d="M171.347 115.351C171.384 115.412 171.046 115.682 170.69 116.066C170.33 116.447 170.082 116.801 170.019 116.768C169.959 116.739 170.122 116.304 170.507 115.895C170.891 115.484 171.314 115.294 171.347 115.351Z" fill="#FAFAFA"/>
<path d="M177.276 115.174C177.207 115.188 177.094 114.903 176.927 114.574C176.764 114.243 176.604 113.982 176.657 113.935C176.705 113.889 176.97 114.098 177.151 114.462C177.334 114.826 177.343 115.163 177.276 115.174Z" fill="#FAFAFA"/>
<path d="M158.802 120.051C158.738 120.026 158.803 119.708 158.948 119.34C159.094 118.973 159.263 118.696 159.328 118.721C159.392 118.747 159.326 119.065 159.181 119.432C159.036 119.8 158.866 120.077 158.802 120.051Z" fill="#FAFAFA"/>
<path d="M159.397 127.301C159.353 127.354 159.08 127.198 158.786 126.954C158.493 126.71 158.291 126.468 158.335 126.415C158.379 126.362 158.653 126.518 158.946 126.762C159.24 127.006 159.442 127.247 159.397 127.301Z" fill="#FAFAFA"/>
<path d="M171.524 109.598C171.459 109.623 171.328 109.446 171.23 109.202C171.132 108.958 171.106 108.739 171.169 108.713C171.234 108.687 171.365 108.865 171.463 109.109C171.561 109.353 171.587 109.572 171.524 109.598Z" fill="#FAFAFA"/>
<path d="M183.134 113.142C183.066 113.127 183.072 112.838 183.147 112.496C183.222 112.154 183.337 111.889 183.405 111.904C183.472 111.919 183.467 112.208 183.392 112.55C183.316 112.891 183.201 113.157 183.134 113.142Z" fill="#FAFAFA"/>
<path d="M185.865 118.626C185.801 118.6 185.888 118.242 186.059 117.826C186.23 117.41 186.421 117.095 186.484 117.121C186.548 117.148 186.461 117.506 186.29 117.922C186.119 118.337 185.929 118.653 185.865 118.626Z" fill="#FAFAFA"/>
<path d="M183.917 123.052C183.855 123.083 183.627 122.751 183.407 122.311C183.187 121.871 183.058 121.489 183.12 121.459C183.182 121.428 183.41 121.76 183.63 122.199C183.85 122.64 183.978 123.021 183.917 123.052Z" fill="#FAFAFA"/>
<path d="M188.077 127.478C188.012 127.453 188.059 127.176 188.181 126.858C188.304 126.54 188.455 126.303 188.519 126.327C188.584 126.352 188.537 126.63 188.415 126.948C188.292 127.265 188.141 127.503 188.077 127.478Z" fill="#FAFAFA"/>
<path d="M184.359 131.815C184.301 131.851 184.154 131.723 184.032 131.527C183.91 131.332 183.858 131.144 183.917 131.107C183.975 131.071 184.122 131.199 184.244 131.395C184.366 131.59 184.418 131.779 184.359 131.815Z" fill="#FAFAFA"/>
<path d="M185.151 140.758C185.101 140.805 184.802 140.566 184.484 140.223C184.167 139.881 183.95 139.566 184 139.519C184.051 139.472 184.349 139.711 184.667 140.054C184.985 140.396 185.202 140.711 185.151 140.758Z" fill="#FAFAFA"/>
<path d="M190.023 135.621C189.969 135.664 189.707 135.421 189.438 135.079C189.169 134.736 188.995 134.424 189.049 134.382C189.103 134.339 189.365 134.582 189.634 134.924C189.903 135.266 190.077 135.578 190.023 135.621Z" fill="#FAFAFA"/>
<path d="M192.696 142.711C192.634 142.681 192.743 142.32 192.94 141.906C193.136 141.49 193.346 141.178 193.409 141.208C193.471 141.237 193.362 141.597 193.165 142.013C192.969 142.427 192.759 142.74 192.696 142.711Z" fill="#FAFAFA"/>
<path d="M187.013 148.544C186.952 148.581 186.73 148.314 186.421 148.032C186.114 147.746 185.831 147.546 185.863 147.482C185.89 147.421 186.254 147.536 186.591 147.848C186.928 148.159 187.072 148.512 187.013 148.544Z" fill="#FAFAFA"/>
<path d="M187.368 154.563C187.368 154.632 187.131 154.688 186.838 154.688C186.544 154.688 186.307 154.632 186.307 154.563C186.307 154.494 186.544 154.438 186.838 154.438C187.13 154.438 187.368 154.494 187.368 154.563Z" fill="#FAFAFA"/>
<path d="M193.21 152.881C193.15 152.844 193.273 152.545 193.365 152.168C193.461 151.791 193.493 151.47 193.564 151.465C193.63 151.457 193.713 151.808 193.607 152.228C193.504 152.649 193.265 152.919 193.21 152.881Z" fill="#FAFAFA"/>
<path d="M199.014 154.9C198.948 154.923 198.771 154.587 198.618 154.149C198.464 153.712 198.392 153.339 198.458 153.316C198.523 153.293 198.7 153.629 198.854 154.067C199.007 154.504 199.079 154.877 199.014 154.9Z" fill="#FAFAFA"/>
<path d="M198.089 163.155C198.028 163.123 198.176 162.72 198.419 162.255C198.663 161.79 198.91 161.44 198.971 161.471C199.032 161.504 198.884 161.906 198.64 162.371C198.397 162.836 198.15 163.187 198.089 163.155Z" fill="#FAFAFA"/>
<path d="M192.793 168.007C192.729 168.034 192.531 167.701 192.352 167.264C192.173 166.828 192.079 166.453 192.143 166.426C192.207 166.4 192.404 166.733 192.583 167.169C192.763 167.606 192.857 167.981 192.793 168.007Z" fill="#FAFAFA"/>
<path d="M186.927 169.877C186.927 169.946 186.729 170.001 186.485 170.001C186.24 170.001 186.042 169.945 186.042 169.877C186.042 169.808 186.24 169.752 186.485 169.752C186.729 169.752 186.927 169.807 186.927 169.877Z" fill="#FAFAFA"/>
<path d="M190.29 177.577C190.223 177.595 190.089 177.313 189.992 176.946C189.894 176.579 189.869 176.268 189.936 176.25C190.003 176.232 190.136 176.515 190.233 176.881C190.331 177.248 190.356 177.559 190.29 177.577Z" fill="#FAFAFA"/>
<path d="M186.038 175.01C185.979 174.975 186.05 174.748 186.197 174.504C186.344 174.259 186.51 174.09 186.57 174.125C186.629 174.161 186.558 174.388 186.411 174.632C186.264 174.877 186.097 175.046 186.038 175.01Z" fill="#FAFAFA"/>
<path d="M185.953 183.508C185.884 183.516 185.789 183.186 185.74 182.77C185.691 182.354 185.707 182.011 185.776 182.003C185.845 181.995 185.94 182.325 185.988 182.741C186.037 183.156 186.022 183.499 185.953 183.508Z" fill="#FAFAFA"/>
</svg>
