<svg width="240" height="240" viewBox="0 0 240 240" fill="none" xmlns="http://www.w3.org/2000/svg">
<path d="M124.698 23.5392C121.996 22.2634 118.993 22.1194 117.083 22.4103C115.294 22.6824 112.704 23.365 110.526 25.0714C109.173 26.1312 108.166 27.4512 107.532 28.9949C106.781 30.8232 106.553 32.9789 106.852 35.4024C106.897 35.7658 107.083 36.0883 107.375 36.3101C107.669 36.5328 108.032 36.625 108.397 36.5698L113.087 35.856C113.749 35.7552 114.242 35.1749 114.236 34.5063C114.22 33.0039 114.716 30.3946 118.217 29.7999C120.885 29.3482 122.281 31.1151 122.759 31.8965C123.536 33.1675 123.636 34.8 123.027 36.2631C122.092 38.5109 119.844 39.1752 118.587 39.3711C117.142 39.5962 116.144 40.9493 116.363 42.3869L117.131 47.4341C117.243 48.1714 117.934 48.6797 118.671 48.5674L123.241 47.8719C123.978 47.7595 124.487 47.0688 124.374 46.332L124.213 45.2717C124.209 45.2463 124.222 45.2218 124.245 45.2098C125.225 44.689 127.098 43.5063 128.632 41.4341C130.59 38.7893 131.31 35.6501 130.77 32.1048C129.999 27.0307 127.043 24.6461 124.698 23.5392Z" fill="#CBE9DD"/>
<path d="M121.378 49.456L120.978 49.517C119.066 49.8078 117.748 51.5992 118.039 53.5106C118.33 55.4219 120.121 56.74 122.033 56.4491L122.433 56.3882C124.344 56.0973 125.662 54.3059 125.371 52.3946C125.08 50.4832 123.289 49.1651 121.378 49.456Z" fill="#CBE9DD"/>
<path d="M30.5619 105.015C29.2044 103.318 27.2878 102.263 25.9467 101.842C24.691 101.448 22.7806 101.066 20.8116 101.484C19.5886 101.745 18.5086 102.285 17.6009 103.091C16.5257 104.046 15.6871 105.381 15.1078 107.06C15.0209 107.312 15.0391 107.582 15.1596 107.82C15.2806 108.06 15.4879 108.236 15.7442 108.317L19.037 109.351C19.5017 109.497 20.01 109.275 20.2193 108.836C20.6892 107.849 21.8479 106.303 24.3257 107.034C26.2135 107.592 26.5611 109.194 26.623 109.857C26.7238 110.936 26.2673 112.034 25.4019 112.796C24.0723 113.965 22.3908 113.68 21.5066 113.407C20.49 113.092 19.4057 113.657 19.0889 114.666L17.9767 118.21C17.8145 118.727 18.103 119.28 18.6204 119.443L21.8287 120.45C22.3462 120.612 22.8991 120.323 23.0619 119.806L23.2956 119.062C23.3014 119.044 23.3172 119.032 23.3364 119.031C24.1433 119.004 25.7455 118.83 27.4107 117.967C29.5361 116.865 31.0097 115.044 31.7911 112.555C32.9086 108.992 31.7393 106.488 30.5619 105.015Z" fill="#CBE9DD"/>
<path d="M20.1031 120.887L19.8223 120.799C18.4802 120.378 17.046 121.127 16.625 122.468C16.2041 123.811 16.9529 125.245 18.2945 125.666L18.5753 125.754C19.9169 126.175 21.3516 125.426 21.7726 124.085C22.194 122.743 21.4447 121.309 20.1031 120.887Z" fill="#CBE9DD"/>
<path d="M172.822 220.023C184.505 219.515 199.325 215.785 208.387 208.161C195.878 208.485 183.228 212.704 172.822 220.023Z" fill="#CBE9DD"/>
<path d="M180.951 206.206C192.633 205.699 207.453 201.968 216.516 194.345C204.007 194.669 191.357 198.888 180.951 206.206Z" fill="#CBE9DD"/>
<path d="M189.688 193.045C201.371 192.538 216.19 188.807 225.254 181.185C212.745 181.508 200.094 185.727 189.688 193.045Z" fill="#CBE9DD"/>
<path d="M199.438 179.47C211.06 177.534 225.385 172.044 233.423 163.437C220.95 165.295 208.862 170.997 199.438 179.47Z" fill="#CBE9DD"/>
<path d="M208.008 169.454C218.326 163.548 229.826 153.473 234.107 142.838C222.945 148.977 213.662 158.444 208.008 169.454Z" fill="#CBE9DD"/>
<path d="M203.853 174.189C207.03 162.599 208.017 147.019 203.354 135.969C199.735 148.317 199.912 161.911 203.853 174.189Z" fill="#CBE9DD"/>
<path d="M195.584 185.263C197.836 172.97 197.435 156.7 191.552 145.58C188.909 158.695 190.343 172.809 195.584 185.263Z" fill="#CBE9DD"/>
<path d="M185.736 198.844C187.989 186.552 187.588 170.282 181.705 159.162C179.061 172.277 180.495 186.391 185.736 198.844Z" fill="#CBE9DD"/>
<path d="M175.233 216.053C177.486 203.76 177.085 187.49 171.202 176.37C168.559 189.485 169.992 203.6 175.233 216.053Z" fill="#CBE9DD"/>
<path d="M171.231 222.408C169.539 225.533 168.213 228.085 167.336 229.867C166.911 230.733 166.575 231.418 166.328 231.921C166.226 232.138 166.143 232.315 166.076 232.46C166.021 232.583 165.996 232.647 166.003 232.651C166.01 232.654 166.048 232.597 166.116 232.481C166.195 232.341 166.29 232.17 166.407 231.962C166.672 231.469 167.033 230.796 167.489 229.947C168.413 228.19 169.78 225.662 171.506 222.559C173.222 219.452 175.344 215.795 177.758 211.77C180.194 207.758 182.941 203.389 185.937 198.876C191.943 189.861 197.819 182.001 202.207 176.419C204.4 173.628 206.199 171.386 207.46 169.852C208.065 169.102 208.545 168.508 208.897 168.073C209.044 167.883 209.164 167.729 209.262 167.603C209.342 167.495 209.381 167.438 209.375 167.433C209.369 167.428 209.319 167.475 209.228 167.573C209.12 167.692 208.989 167.837 208.829 168.015C208.461 168.438 207.96 169.014 207.328 169.742C206.025 171.243 204.188 173.456 201.961 176.225C197.507 181.762 191.583 189.603 185.569 198.631" fill="#E8E7EE"/>
<path d="M151.069 141.595C155.333 131.069 158.015 116.47 154.936 105.388C150.176 116.57 148.8 129.449 151.069 141.595Z" fill="#CBE9DD"/>
<path d="M142.14 128.841C146.404 118.314 149.085 103.716 146.006 92.6333C141.246 103.816 139.871 116.695 142.14 128.841Z" fill="#CBE9DD"/>
<path d="M134.036 115.813C138.3 105.287 140.982 90.6887 137.903 79.606C133.142 90.789 131.767 103.667 134.036 115.813Z" fill="#CBE9DD"/>
<path d="M125.974 101.723C128.95 90.6745 129.878 75.8032 125.516 65.2288C122.126 76.9993 122.289 89.9795 125.974 101.723Z" fill="#CBE9DD"/>
<path d="M120.584 90.1108C119.529 78.6119 115.265 64.3876 107.596 56.3149C108.517 68.6543 113.136 80.6749 120.584 90.1108Z" fill="#CBE9DD"/>
<path d="M123.087 95.6906C114.129 88.2084 100.761 81.0516 89.1172 80.7146C98.5665 88.8928 110.649 94.2199 123.087 95.6906Z" fill="#CBE9DD"/>
<path d="M129.538 107.463C119.586 100.514 105.049 94.3059 92.8516 95.0177C103.372 102.643 116.421 107.07 129.538 107.463Z" fill="#CBE9DD"/>
<path d="M137.566 121.645C127.613 114.696 113.077 108.488 100.879 109.2C111.4 116.826 124.449 121.252 137.566 121.645Z" fill="#CBE9DD"/>
<path d="M148.533 137.864C138.58 130.916 124.043 124.707 111.846 125.419C122.366 133.046 135.416 137.472 148.533 137.864Z" fill="#CBE9DD"/>
<path d="M152.534 143.964C154.612 146.719 156.331 148.92 157.553 150.414C158.146 151.139 158.616 151.713 158.961 152.134C159.112 152.311 159.234 152.455 159.335 152.574C159.422 152.672 159.469 152.719 159.474 152.714C159.48 152.71 159.445 152.653 159.37 152.546C159.278 152.421 159.166 152.267 159.029 152.079C158.7 151.646 158.251 151.056 157.685 150.311C156.505 148.786 154.823 146.558 152.778 143.782C150.725 141.012 148.35 137.663 145.768 133.906C143.205 130.135 140.452 125.946 137.674 121.477C132.131 112.535 127.557 104.173 124.395 98.0448C122.813 94.981 121.559 92.4879 120.712 90.7546C120.293 89.917 119.962 89.2536 119.719 88.7669C119.612 88.561 119.524 88.3925 119.452 88.2548C119.389 88.1405 119.354 88.0834 119.347 88.0863C119.34 88.0896 119.362 88.1525 119.412 88.2735C119.474 88.4165 119.549 88.5908 119.641 88.8039C119.866 89.2992 120.173 89.9741 120.561 90.8266C121.362 92.5829 122.576 95.0981 124.124 98.1826C127.219 104.351 131.758 112.749 137.308 121.704" fill="#E8E7EE"/>
<path d="M232.396 100.385C230.429 98.0481 227.7 96.6335 225.802 96.0892C224.024 95.5794 221.327 95.1095 218.576 95.7661C216.867 96.1741 215.368 96.9709 214.122 98.1349C212.645 99.5135 211.514 101.419 210.759 103.798C210.645 104.154 210.68 104.533 210.858 104.864C211.036 105.196 211.334 105.436 211.696 105.54L216.358 106.877C217.016 107.066 217.722 106.737 218.001 106.113C218.627 104.71 220.2 102.498 223.706 103.438C226.378 104.156 226.922 106.393 227.032 107.322C227.212 108.834 226.609 110.394 225.42 111.493C223.593 113.183 221.221 112.842 219.97 112.488C218.531 112.081 217.027 112.913 216.617 114.342L215.179 119.358C214.969 120.091 215.394 120.858 216.126 121.068L220.668 122.37C221.401 122.58 222.168 122.155 222.377 121.423L222.68 120.369C222.687 120.343 222.709 120.326 222.736 120.324C223.868 120.258 226.113 119.958 228.422 118.687C231.369 117.065 233.375 114.455 234.386 110.932C235.831 105.888 234.101 102.413 232.396 100.385Z" fill="#CBE9DD"/>
<path d="M218.262 123.046L217.864 122.932C215.965 122.388 213.976 123.49 213.431 125.39C212.886 127.289 213.989 129.278 215.888 129.822L216.286 129.936C218.185 130.481 220.174 129.379 220.719 127.479C221.263 125.58 220.161 123.591 218.262 123.046Z" fill="#CBE9DD"/>
<path d="M78.5666 141.43C76.3024 139.737 73.5448 139.035 71.7189 138.943C70.0087 138.857 67.4786 139 65.1362 140.17C63.6813 140.897 62.4976 141.931 61.6183 143.242C60.5767 144.795 59.9565 146.751 59.7756 149.054C59.7482 149.4 59.8596 149.734 60.089 149.995C60.3194 150.257 60.6386 150.411 60.9871 150.429L65.4708 150.654C66.1034 150.686 66.6712 150.241 66.7912 149.62C67.061 148.223 68.0143 145.898 71.3728 146.009C73.9322 146.095 74.8927 147.997 75.1874 148.812C75.6669 150.138 75.4514 151.67 74.6104 152.912C73.3183 154.819 71.1084 155.01 69.906 154.954C68.5231 154.89 67.3423 155.955 67.2732 157.33L67.0303 162.154C66.9948 162.859 67.5391 163.461 68.2437 163.497L72.6127 163.716C73.3173 163.752 73.9192 163.208 73.9548 162.503L74.0056 161.489C74.0066 161.465 74.0229 161.445 74.0469 161.437C75.054 161.14 77.0143 160.398 78.8287 158.767C81.1447 156.685 82.4056 153.91 82.576 150.521C82.8204 145.67 80.5303 142.9 78.5666 141.43Z" fill="#CBE9DD"/>
<path d="M70.5841 164.832L70.202 164.812C68.3752 164.721 66.8137 166.132 66.722 167.959C66.6299 169.786 68.0416 171.348 69.8689 171.44L70.251 171.459C72.0779 171.551 73.6393 170.139 73.7315 168.312C73.8232 166.485 72.4115 164.924 70.5841 164.832Z" fill="#CBE9DD"/>
<path d="M55.2529 226.885H59.4006C61.8414 218.188 63.016 208.509 61.4176 200.418C57.6736 208.529 55.576 217.667 55.2529 226.885Z" fill="#CBE9DD"/>
<path d="M54.4668 186.524C49.3673 197.571 47.3114 210.52 48.6569 222.99C48.7029 223.088 48.75 223.187 48.7965 223.284C53.4079 212.746 56.7396 198.03 54.4668 186.524Z" fill="#CBE9DD"/>
<path d="M43.524 170.977C39.7863 182.367 39.0946 195.101 41.5296 206.967C41.6799 207.327 41.8339 207.695 41.9904 208.066C45.3653 196.939 47.0136 181.969 43.524 170.977Z" fill="#CBE9DD"/>
<path d="M36.3932 194.28C36.3529 194.153 36.3356 194.086 36.3423 194.083C36.349 194.081 36.3793 194.142 36.4321 194.263C36.4925 194.409 36.5669 194.588 36.6572 194.806C36.7301 194.991 36.8156 195.209 36.9073 195.441C37.0724 195.707 37.2308 195.978 37.3997 196.241C37.0594 184.357 33.8271 169.473 27.0039 160.699C27.1623 172.93 30.5852 185.066 36.6404 195.008C36.6207 194.953 36.5986 194.891 36.5804 194.84C36.5055 194.615 36.4441 194.431 36.3932 194.28Z" fill="#CBE9DD"/>
<path d="M39.2545 202.087C39.2194 201.997 39.1853 201.909 39.1513 201.82C31.0671 193.679 18.9485 185.683 8.04102 184.624C16.5001 193.565 27.5948 199.767 39.2545 202.087Z" fill="#CBE9DD"/>
<path d="M44.9132 214.631C44.8685 214.592 44.8215 214.554 44.7764 214.516C44.7917 214.55 44.8076 214.585 44.8229 214.62C44.8532 214.623 44.8834 214.628 44.9132 214.631Z" fill="#CBE9DD"/>
<path d="M10.7637 199.556C20.189 207.929 32.1299 213.252 44.3901 214.569C44.3022 214.368 44.2182 214.173 44.1318 213.973C35.0925 206.463 22.0677 199.583 10.7637 199.556Z" fill="#CBE9DD"/>
<path d="M17.5742 214.631C23.7475 220.115 31.0022 224.284 38.7163 226.885H48.203C39.3907 220.268 27.7809 214.656 17.5742 214.631Z" fill="#CBE9DD"/>
<path d="M40.3013 204.758C41.3717 207.461 42.6581 210.577 44.1322 213.973C44.2186 214.172 44.3026 214.368 44.3904 214.569C46.057 218.387 47.9611 222.551 50.0669 226.886H50.5282C49.9354 225.67 49.3579 224.469 48.7963 223.285C48.7498 223.187 48.7032 223.088 48.6566 222.99C47.2771 220.073 45.9955 217.265 44.8229 214.621C44.8075 214.586 44.7917 214.551 44.7763 214.516C43.763 212.229 42.8333 210.069 41.9904 208.066C41.8339 207.695 41.6798 207.327 41.5296 206.967C41.1931 206.161 40.871 205.38 40.5662 204.633C39.2395 201.386 38.1912 198.745 37.4861 196.912C37.2619 196.343 37.0714 195.858 36.9072 195.442C36.8155 195.209 36.7301 194.992 36.6571 194.807C36.5664 194.588 36.4925 194.41 36.432 194.263C36.3792 194.142 36.349 194.081 36.3422 194.084C36.3355 194.087 36.3528 194.153 36.3931 194.28C36.4435 194.431 36.5054 194.615 36.5808 194.84C36.599 194.891 36.6211 194.953 36.6408 195.008C36.8198 195.514 37.0512 196.165 37.3392 196.976C37.7875 198.236 38.401 199.877 39.1517 201.82C39.1858 201.909 39.2198 201.997 39.2549 202.087C39.5798 202.925 39.9274 203.813 40.3013 204.758Z" fill="#E8E7EE"/>
<path d="M225.785 226.697C225.785 226.77 178.419 226.828 120.005 226.828C61.5702 226.828 14.2148 226.77 14.2148 226.697C14.2148 226.625 61.5702 226.566 120.005 226.566C178.419 226.566 225.785 226.625 225.785 226.697Z" fill="#1C0B54"/>
<path d="M39.1552 73.0444C47.1166 69.9606 51.0706 61.0067 47.9868 53.0453C44.903 45.0839 35.9491 41.1298 27.9877 44.2136C20.0263 47.2974 16.0722 56.2514 19.156 64.2128C22.2398 72.1742 31.1938 76.1282 39.1552 73.0444Z" fill="white"/>
<path d="M49.0279 58.6298C49.0279 58.6298 49.0169 58.5448 49.0053 58.3797C48.9943 58.2079 48.9789 57.9635 48.9588 57.6458C48.9492 57.484 48.9386 57.3035 48.9266 57.1053C48.906 56.9075 48.8638 56.693 48.8287 56.4597C48.7917 56.2264 48.7519 55.9754 48.7092 55.7075C48.677 55.4373 48.5767 55.1627 48.5076 54.8647C48.2354 53.6704 47.6772 52.2592 46.7959 50.7635C45.9074 49.2741 44.6258 47.7179 42.8806 46.397C42.6612 46.2338 42.4394 46.0687 42.2153 45.9011C41.9815 45.748 41.7353 45.6074 41.4919 45.4576C41.2433 45.3165 41.0081 45.1447 40.7417 45.0237C40.4782 44.8975 40.2118 44.7698 39.943 44.6407C39.8081 44.5768 39.6727 44.5125 39.5369 44.4482C39.3953 44.3968 39.2532 44.345 39.1102 44.2927C38.8246 44.1885 38.5356 44.0834 38.2447 43.9773C37.9505 43.8803 37.6428 43.8175 37.3385 43.7349C37.0308 43.6653 36.7284 43.5568 36.4078 43.5242C35.7718 43.4339 35.1295 43.3029 34.4638 43.2991C34.1321 43.2875 33.798 43.2554 33.4615 43.2607C33.125 43.2779 32.7857 43.2957 32.4439 43.313C32.2735 43.325 32.1012 43.3235 31.9303 43.3461L31.4177 43.4248C31.0754 43.4815 30.7274 43.5218 30.3838 43.5928C29.7055 43.7771 29.0028 43.9149 28.3346 44.1943C27.6454 44.4151 26.9969 44.7554 26.3302 45.0751C26.0057 45.2512 25.6946 45.4562 25.373 45.6467C25.2161 45.7475 25.0481 45.833 24.8983 45.9467L24.4462 46.2856C23.8217 46.7143 23.2754 47.2504 22.7033 47.7669C22.4441 48.052 22.1839 48.3391 21.9223 48.6271L21.726 48.8435L21.5494 49.0773L21.1975 49.5482L20.8442 50.021L20.5346 50.5264L20.2255 51.0352L20.0705 51.2906L19.939 51.5594C19.7657 51.9189 19.5919 52.2803 19.4172 52.6427C19.279 53.0205 19.1398 53.3997 19.0006 53.7803C18.4994 55.3226 18.2297 56.9603 18.2076 58.6269C18.2297 60.2944 18.4985 61.9327 18.9996 63.4754C19.1393 63.856 19.278 64.2357 19.4162 64.6135C19.591 64.9763 19.7647 65.3373 19.938 65.6973L20.069 65.9661L20.2241 66.2215L20.5332 66.7303L20.8423 67.2362L21.1956 67.709L21.5474 68.1799L21.7236 68.4136L21.9199 68.6301C22.1815 68.9181 22.4422 69.2051 22.7009 69.4907C23.273 70.0072 23.8193 70.5439 24.4442 70.9725L24.8969 71.3114C25.0466 71.4251 25.2146 71.5111 25.3721 71.6114C25.6932 71.8019 26.0047 72.0069 26.3292 72.1831C26.9959 72.5027 27.6439 72.8435 28.3337 73.0639C29.0018 73.3432 29.7046 73.4805 30.3833 73.6653C30.7274 73.7363 31.0754 73.7767 31.4177 73.8333L31.9303 73.912C32.1012 73.9346 32.2735 73.9336 32.4439 73.9451C32.7857 73.9629 33.1246 73.9802 33.4615 73.9979C33.798 74.0032 34.1321 73.9706 34.4638 73.9595C35.13 73.9557 35.7722 73.8247 36.4082 73.7344C36.7289 73.7018 37.0313 73.5933 37.339 73.5237C37.6433 73.4407 37.951 73.3783 38.2452 73.2813C38.5366 73.1752 38.825 73.0701 39.1106 72.9659C39.2537 72.9136 39.3958 72.8623 39.5374 72.8104C39.6732 72.7461 39.809 72.6818 39.9434 72.6179C40.2122 72.4888 40.4786 72.3611 40.7422 72.2349C41.0086 72.1139 41.2442 71.9421 41.4924 71.801C41.7358 71.6507 41.9825 71.5106 42.2158 71.3575C42.4399 71.1904 42.6617 71.0248 42.881 70.8616C44.6268 69.5407 45.9079 67.9845 46.7964 66.4946C47.6772 64.9989 48.2359 63.5877 48.5076 62.3935C48.5772 62.0954 48.6775 61.8213 48.7092 61.5506C48.7519 61.2823 48.7917 61.0317 48.8287 60.7984C48.8633 60.5651 48.9055 60.3506 48.9266 60.1528C48.9382 59.9546 48.9492 59.7746 48.9588 59.6128C48.9789 59.2951 48.9948 59.0512 49.0053 58.8789C49.0169 58.7147 49.0279 58.6298 49.0279 58.6298C49.0279 58.6298 49.0303 58.7147 49.0255 58.8803C49.0193 59.0527 49.0101 59.2975 48.9981 59.6162C48.9914 59.7789 48.9837 59.9594 48.9756 60.1586C48.9578 60.3573 48.9185 60.5728 48.8868 60.8075C48.8522 61.0423 48.8153 61.2947 48.7759 61.5645C48.7466 61.8367 48.6487 62.1131 48.582 62.4131C48.3199 63.616 47.7689 65.0397 46.891 66.5512C46.0054 68.0565 44.7213 69.6319 42.9655 70.972C42.7447 71.1376 42.522 71.3051 42.2959 71.4746C42.0607 71.6301 41.8126 71.7727 41.5678 71.9253C41.3177 72.0688 41.0801 72.2431 40.8118 72.3659C40.5463 72.4946 40.278 72.6242 40.0068 72.7557C39.871 72.8205 39.7346 72.8858 39.5974 72.9515C39.4548 73.0043 39.3113 73.0571 39.1668 73.1099C38.8783 73.216 38.5874 73.3231 38.2932 73.4311C37.9966 73.5304 37.686 73.5947 37.3783 73.6792C37.0678 73.7503 36.7625 73.8607 36.4385 73.8947C35.7962 73.9879 35.1468 74.1218 34.4738 74.1271C34.1388 74.1395 33.8009 74.1727 33.4606 74.1683C33.1202 74.1515 32.777 74.1347 32.4319 74.1175C32.2596 74.1059 32.0849 74.1074 31.9125 74.0848L31.3942 74.0061C31.0481 73.9495 30.6958 73.9096 30.3478 73.8381C29.6609 73.6533 28.9495 73.5146 28.2732 73.2333C27.5753 73.0111 26.9182 72.6679 26.2438 72.3448C25.915 72.1672 25.5996 71.9603 25.2742 71.7679C25.1148 71.6661 24.9449 71.5792 24.7932 71.4645L24.3348 71.1223C23.7022 70.6888 23.1482 70.1469 22.5689 69.6242C22.3063 69.3357 22.0423 69.0453 21.7774 68.7539L21.5782 68.5351L21.3991 68.2989L21.0425 67.8227L20.6844 67.3442L20.371 66.8325L20.058 66.3175L19.901 66.0592L19.7681 65.7871C19.5924 65.4227 19.4162 65.057 19.2391 64.6898C19.099 64.3072 18.9578 63.9227 18.8162 63.5373C18.3084 61.9754 18.0353 60.3155 18.0137 58.6274C18.0358 56.9397 18.3094 55.2808 18.8172 53.7194C18.9588 53.3339 19.0994 52.9499 19.2401 52.5674C19.4172 52.2002 19.5934 51.8349 19.769 51.4706L19.9025 51.1989L20.0594 50.9407L20.3724 50.4256L20.6863 49.9139L21.0444 49.4354L21.401 48.9592L21.5801 48.7231L21.7788 48.5042C22.0438 48.2128 22.3078 47.9229 22.5703 47.6344C23.1497 47.1117 23.7036 46.5703 24.3362 46.1368L24.7946 45.7946C24.9463 45.6799 25.1162 45.593 25.2756 45.4912C25.601 45.2987 25.9164 45.0919 26.2447 44.9143C26.9196 44.5912 27.5762 44.2485 28.2742 44.0258C28.951 43.745 29.6618 43.6063 30.3487 43.4215C30.6967 43.3499 31.049 43.3101 31.3951 43.2535L31.9135 43.1752C32.0863 43.1527 32.2606 43.1541 32.4329 43.1426C32.7785 43.1258 33.1212 43.1085 33.4615 43.0917C33.8018 43.0874 34.1393 43.1205 34.4743 43.133C35.1473 43.1387 35.7967 43.2722 36.4385 43.3653C36.7625 43.3994 37.0678 43.5093 37.3783 43.5808C37.6855 43.6653 37.9961 43.7296 38.2932 43.8285C38.587 43.9365 38.8783 44.0435 39.1668 44.1496C39.3108 44.2029 39.4543 44.2557 39.5974 44.308C39.7346 44.3738 39.871 44.4386 40.0073 44.5039C40.2785 44.6349 40.5468 44.765 40.8122 44.8936C41.081 45.0165 41.3182 45.1907 41.5682 45.3343C41.8135 45.4864 42.0612 45.629 42.2964 45.7845C42.522 45.9539 42.7457 46.1215 42.966 46.2871C44.7218 47.6267 46.0058 49.2021 46.8914 50.7079C47.7698 52.2199 48.3209 53.6435 48.583 54.8464C48.6497 55.1464 48.7476 55.4229 48.7769 55.6951C48.8162 55.9648 48.8532 56.2173 48.8878 56.452C48.9194 56.6867 48.9588 56.9023 48.9765 57.101C48.9847 57.3002 48.9924 57.4811 48.9991 57.6439C49.0111 57.9626 49.0202 58.2074 49.0265 58.3797C49.0303 58.5448 49.0279 58.6298 49.0279 58.6298Z" fill="#1C0B54"/>
<path d="M28.0718 55.9801H31.0089C31.0089 55.9801 31.0089 53.5138 33.5717 53.4697C34.9027 53.4466 35.5925 54.3188 35.8733 54.9865C36.1987 55.7621 36.1003 56.6458 35.664 57.3653C35.1657 58.1866 34.0742 58.933 32.0947 58.5845V62.8945H34.9987V61.3277C34.9987 61.3277 39.0715 60.2746 39.0715 55.7861C39.0715 51.4916 35.22 50.4937 33.5717 50.4937C32.3112 50.4937 28.0161 50.7985 28.0718 55.9801Z" fill="#1C0B54"/>
<path d="M35.0331 64.0129H32.0859V66.7657H35.0331V64.0129Z" fill="#1C0B54"/>
<path d="M49.7311 73.0941C49.7311 74.3973 48.6746 75.4542 47.3709 75.4542C46.0672 75.4542 45.0107 74.3977 45.0107 73.0941C45.0107 71.7909 46.0672 70.7339 47.3709 70.7339C48.6746 70.7339 49.7311 71.7909 49.7311 73.0941Z" fill="white"/>
<path d="M49.7308 73.094C49.7102 73.0949 49.7174 72.8837 49.6204 72.5271C49.524 72.1772 49.2844 71.6655 48.7569 71.2728C48.2472 70.8788 47.4086 70.6594 46.5974 70.9618C46.198 71.1068 45.8174 71.3794 45.5472 71.7552C45.2692 72.1263 45.1132 72.6024 45.1084 73.0935C45.1132 73.5845 45.2692 74.0607 45.5472 74.4322C45.8174 74.8085 46.198 75.0812 46.5974 75.2261C47.4086 75.5285 48.2472 75.3087 48.7569 74.9151C49.2844 74.5224 49.524 74.0108 49.62 73.6608C49.7174 73.3042 49.7102 73.093 49.7308 73.094C49.7376 73.094 49.7414 73.1458 49.7428 73.2456C49.7462 73.345 49.7347 73.4933 49.6939 73.6796C49.6171 74.0463 49.3886 74.5935 48.8409 75.025C48.312 75.457 47.4163 75.7124 46.5364 75.3956C46.1035 75.2439 45.6888 74.952 45.3931 74.546C45.0897 74.1452 44.9174 73.6272 44.9131 73.094C44.9174 72.5612 45.0897 72.0432 45.3931 71.6429C45.6883 71.2368 46.103 70.945 46.536 70.7933C47.4153 70.4765 48.311 70.7319 48.8404 71.1634C49.3886 71.5944 49.6171 72.1421 49.6939 72.5088C49.7347 72.6946 49.7462 72.8429 49.7428 72.9428C49.7414 73.0421 49.7376 73.094 49.7308 73.094Z" fill="#1C0B54"/>
<path d="M216.892 60.5168C223.237 54.1726 223.237 43.8865 216.892 37.5423C210.548 31.198 200.262 31.198 193.918 37.5423C187.574 43.8865 187.574 54.1726 193.918 60.5168C200.262 66.861 210.548 66.8611 216.892 60.5168Z" fill="white"/>
<path d="M221.652 49.0288C221.652 49.0288 221.641 48.9395 221.629 48.7657C221.617 48.5853 221.601 48.3285 221.58 47.9944C221.569 47.8245 221.558 47.6349 221.546 47.4265C221.524 47.2187 221.48 46.9931 221.443 46.7478C221.404 46.5025 221.363 46.239 221.317 45.9573C221.284 45.6731 221.178 45.3846 221.105 45.0717C220.82 43.8169 220.233 42.3337 219.307 40.7617C218.373 39.1964 217.026 37.5611 215.192 36.1729C214.961 36.0016 214.729 35.8278 214.492 35.6521C214.247 35.4913 213.988 35.3435 213.732 35.1861C213.471 35.0377 213.224 34.8568 212.943 34.7301C212.666 34.5971 212.387 34.4632 212.104 34.3273C211.962 34.2601 211.82 34.1929 211.677 34.1248C211.528 34.0705 211.379 34.0163 211.229 33.9616C210.928 33.8521 210.625 33.7417 210.319 33.6304C210.01 33.5281 209.687 33.4624 209.367 33.3755C209.044 33.302 208.726 33.1883 208.389 33.1542C207.721 33.0596 207.045 32.9219 206.345 32.9181C205.997 32.9061 205.646 32.872 205.292 32.8777C204.938 32.896 204.582 32.9142 204.223 32.9329C204.044 32.9454 203.863 32.944 203.684 32.968L203.145 33.051C202.786 33.1105 202.42 33.1528 202.058 33.2276C201.346 33.4216 200.607 33.5665 199.905 33.8598C199.18 34.0917 198.499 34.4497 197.798 34.7857C197.457 34.9705 197.13 35.1861 196.793 35.3862C196.628 35.4918 196.451 35.582 196.294 35.7016L195.818 36.0577C195.162 36.5085 194.588 37.072 193.987 37.6144C193.715 37.9144 193.441 38.2158 193.166 38.5182L192.96 38.7453L192.774 38.9905L192.405 39.4854L192.033 39.9822L191.708 40.5136L191.384 41.0483L191.221 41.3166L191.083 41.5989C190.901 41.9771 190.718 42.3563 190.535 42.7374C190.39 43.1344 190.244 43.5333 190.097 43.9331C189.57 45.5536 189.287 47.2749 189.264 49.0264C189.287 50.7784 189.569 52.5006 190.095 54.1216C190.242 54.5219 190.388 54.9203 190.533 55.3177C190.716 55.6989 190.899 56.0785 191.081 56.4568L191.219 56.7395L191.382 57.0078L191.707 57.5425L192.032 58.0739L192.403 58.5707L192.773 59.0656L192.958 59.3113L193.164 59.5389C193.44 59.8417 193.713 60.1432 193.985 60.4432C194.587 60.9861 195.161 61.5496 195.817 62.0003L196.293 62.3565C196.45 62.476 196.626 62.5662 196.792 62.6718C197.13 62.872 197.457 63.0875 197.797 63.2728C198.498 63.6088 199.179 63.9669 199.904 64.1987C200.606 64.492 201.345 64.6369 202.058 64.8309C202.419 64.9057 202.785 64.948 203.145 65.0075L203.683 65.0905C203.863 65.1141 204.044 65.1131 204.223 65.1256C204.582 65.1443 204.939 65.1625 205.293 65.1808C205.646 65.1861 205.998 65.152 206.346 65.14C207.046 65.1361 207.721 64.9984 208.389 64.9033C208.726 64.8688 209.044 64.755 209.367 64.6816C209.687 64.5947 210.011 64.5289 210.32 64.4267C210.626 64.3153 210.929 64.2049 211.229 64.0955C211.38 64.0408 211.529 63.9865 211.678 63.9323C211.821 63.8646 211.963 63.7969 212.104 63.7297C212.387 63.5939 212.667 63.46 212.944 63.327C213.224 63.1998 213.471 63.0193 213.733 62.871C213.988 62.7136 214.247 62.5662 214.493 62.4049C214.729 62.2293 214.962 62.0555 215.192 61.8841C217.027 60.496 218.373 58.8601 219.307 57.2953C220.233 55.7233 220.819 54.2406 221.105 52.9859C221.178 52.6729 221.284 52.3845 221.317 52.1003C221.362 51.8185 221.404 51.555 221.443 51.3097C221.479 51.0645 221.524 50.8393 221.545 50.6315C221.558 50.4232 221.569 50.2336 221.579 50.0637C221.6 49.7296 221.617 49.4733 221.628 49.2928C221.641 49.1181 221.652 49.0288 221.652 49.0288C221.652 49.0288 221.654 49.1181 221.649 49.2918C221.642 49.4728 221.633 49.7301 221.62 50.0651C221.613 50.236 221.605 50.4261 221.596 50.6353C221.578 50.8441 221.536 51.0707 221.503 51.3174C221.467 51.5641 221.428 51.8291 221.387 52.1128C221.356 52.3989 221.253 52.6893 221.183 53.0046C220.907 54.2685 220.328 55.7646 219.405 57.3534C218.474 58.9355 217.125 60.591 215.28 61.9993C215.048 62.1731 214.813 62.3493 214.576 62.5273C214.329 62.691 214.068 62.8408 213.811 63.0006C213.548 63.1513 213.299 63.3342 213.016 63.4638C212.737 63.5987 212.455 63.7355 212.17 63.8733C212.027 63.9414 211.884 64.01 211.74 64.0792C211.589 64.1344 211.439 64.19 211.287 64.2457C210.984 64.3571 210.678 64.4694 210.37 64.5832C210.058 64.6873 209.731 64.755 209.408 64.8438C209.082 64.9187 208.761 65.0344 208.42 65.0704C207.745 65.1683 207.063 65.3089 206.356 65.3147C206.004 65.3276 205.649 65.3627 205.291 65.3579C204.934 65.3401 204.573 65.3224 204.21 65.3046C204.029 65.2926 203.846 65.2936 203.664 65.27L203.12 65.1875C202.756 65.128 202.386 65.0857 202.02 65.0108C201.298 64.8165 200.551 64.6705 199.84 64.3753C199.106 64.1416 198.416 63.7811 197.707 63.4417C197.361 63.255 197.03 63.0376 196.688 62.8355C196.521 62.7285 196.342 62.6373 196.183 62.5168L195.701 62.1572C195.036 61.7017 194.454 61.1325 193.845 60.5828C193.569 60.2795 193.292 59.9747 193.013 59.6684L192.804 59.4385L192.616 59.1899L192.241 58.6892L191.865 58.1862L191.535 57.6486L191.206 57.1072L191.041 56.8355L190.901 56.5494C190.717 56.1664 190.531 55.7824 190.345 55.3965C190.198 54.9942 190.049 54.5905 189.901 54.1854C189.367 52.5438 189.08 50.8 189.058 49.0259C189.081 47.2528 189.368 45.5089 189.902 43.8683C190.051 43.4632 190.199 43.0595 190.347 42.6577C190.533 42.2718 190.718 41.8878 190.903 41.5048L191.043 41.2192L191.208 40.948L191.537 40.4065L191.867 39.8689L192.243 39.3659L192.618 38.8653L192.806 38.6171L193.015 38.3872C193.293 38.0809 193.571 37.7761 193.847 37.4728C194.455 36.9237 195.037 36.3544 195.702 35.8989L196.184 35.5393C196.343 35.4189 196.522 35.3276 196.689 35.2206C197.031 35.018 197.362 34.8011 197.708 34.6144C198.417 34.275 199.107 33.9145 199.84 33.6808C200.551 33.3856 201.299 33.2397 202.021 33.0453C202.386 32.9704 202.756 32.9281 203.12 32.8686L203.664 32.7861C203.846 32.7625 204.029 32.764 204.21 32.752C204.573 32.7342 204.934 32.7165 205.291 32.6987C205.649 32.6939 206.004 32.7289 206.356 32.7419C207.063 32.7476 207.745 32.8883 208.42 32.9862C208.761 33.0222 209.082 33.1374 209.408 33.2128C209.731 33.3016 210.058 33.3692 210.369 33.4734C210.678 33.5872 210.984 33.6995 211.287 33.8109C211.439 33.8665 211.589 33.9222 211.739 33.9774C211.884 34.0465 212.027 34.1147 212.17 34.1828C212.455 34.3206 212.737 34.4574 213.016 34.5923C213.298 34.7214 213.547 34.9043 213.81 35.0555C214.068 35.2153 214.329 35.3656 214.576 35.5288C214.813 35.7068 215.048 35.883 215.28 36.0573C217.125 37.4656 218.474 39.1206 219.405 40.7027C220.328 42.2915 220.908 43.7877 221.183 45.052C221.253 45.3673 221.356 45.6577 221.387 45.9438C221.428 46.227 221.467 46.4925 221.503 46.7392C221.537 46.9859 221.578 47.2125 221.596 47.4213C221.605 47.6305 221.613 47.8206 221.62 47.9915C221.633 48.3265 221.642 48.5838 221.649 48.7648C221.654 48.94 221.652 49.0288 221.652 49.0288Z" fill="#1C0B54"/>
<path d="M199.628 46.2443H202.714C202.714 46.2443 202.714 43.6528 205.407 43.6062C206.806 43.5822 207.531 44.4985 207.826 45.2003C208.168 46.0153 208.064 46.9441 207.606 47.7001C207.082 48.5632 205.935 49.348 203.855 48.9813V53.5105H206.907V51.8641C206.907 51.8641 211.187 50.7577 211.187 46.0408C211.187 41.5273 207.14 40.4795 205.408 40.4795C204.082 40.479 199.569 40.7992 199.628 46.2443Z" fill="#1C0B54"/>
<path d="M206.944 54.686H203.847V57.579H206.944V54.686Z" fill="#1C0B54"/>
<path d="M190.289 63.0278C190.289 64.3977 189.179 65.5079 187.809 65.5079C186.439 65.5079 185.329 64.3977 185.329 63.0278C185.329 61.6578 186.439 60.5476 187.809 60.5476C189.179 60.5476 190.289 61.6578 190.289 63.0278Z" fill="white"/>
<path d="M190.289 63.028C190.267 63.0289 190.275 62.8072 190.172 62.4323C190.071 62.0646 189.82 61.527 189.265 61.1142C188.73 60.7005 187.848 60.4696 186.996 60.7873C186.577 60.9395 186.176 61.2261 185.893 61.6216C185.6 62.0118 185.436 62.512 185.431 63.0275C185.436 63.5435 185.6 64.0437 185.893 64.4339C186.177 64.8294 186.577 65.116 186.997 65.2681C187.849 65.5864 188.731 65.355 189.266 64.9413C189.821 64.5285 190.072 63.9913 190.173 63.6232C190.275 63.2488 190.267 63.027 190.289 63.028C190.296 63.028 190.3 63.0822 190.301 63.1873C190.304 63.292 190.292 63.448 190.25 63.6433C190.169 64.0288 189.929 64.6038 189.353 65.0569C188.797 65.5105 187.856 65.7793 186.931 65.4462C186.476 65.2869 186.041 64.9801 185.73 64.5534C185.411 64.132 185.23 63.5877 185.226 63.028C185.23 62.4683 185.411 61.924 185.73 61.503C186.041 61.0763 186.476 60.7696 186.931 60.6102C187.855 60.2771 188.796 60.5454 189.353 60.9995C189.929 61.4526 190.169 62.0281 190.249 62.4131C190.292 62.6085 190.304 62.7645 190.301 62.8691C190.3 62.9737 190.296 63.028 190.289 63.028Z" fill="#1C0B54"/>
<path d="M99.9929 182.336C94.8123 169.357 90.9248 160.343 90.9248 160.343L43.5516 167.544C43.5516 167.544 35.0369 189.371 35.7737 199.276C36.5105 209.181 39.9776 226.622 39.9776 226.622H97.303C97.303 226.622 105.174 195.315 99.9929 182.336Z" fill="#1C0B54"/>
<path d="M82.8958 74.0867C83.2673 70.3423 83.8289 66.5771 85.1993 63.0727C86.5697 59.5682 88.8147 56.3123 91.986 54.2863L92.8006 55.0437C93.3627 53.4343 94.8593 52.1906 96.5446 51.9323C98.2299 51.6741 100.03 52.4128 101.048 53.7799C102.866 53.2903 104.949 54.0323 106.048 55.5602C107.147 57.088 107.187 59.2999 106.144 60.8666C107.846 61.0826 109.35 62.4223 109.759 64.0888C110.167 65.7554 109.456 67.6389 108.047 68.6186C109.924 70.24 110.671 73.0476 109.85 75.3876C109.028 77.7276 106.689 79.4512 104.211 79.5434C104.764 81.6976 103.642 84.1634 101.654 85.1613C99.6665 86.1592 97.0189 85.5861 95.6216 83.8552C95.7953 86.0963 94.003 88.2179 91.8195 88.7512C89.636 89.2845 87.2566 88.4023 85.6635 86.8168C84.0699 85.2314 83.1953 83.033 82.8564 80.8111C82.5166 78.5896 82.6736 76.3235 82.8958 74.0867Z" fill="#1C0B54"/>
<path d="M92.9773 57.4956C95.156 58.2012 95.602 59.9657 96.0546 61.4359C97.029 64.6006 95.9332 69.2844 94.162 72.0818C92.3908 74.8798 90.4487 76.302 87.1712 76.7753C87.0647 71.7511 86.9581 66.7274 86.8516 61.7033L92.9773 57.4956Z" fill="#1C0B54"/>
<path d="M94.2077 66.1482C95.6957 64.2157 95.485 61.1807 93.7445 59.4724C94.6983 58.2738 94.356 56.4253 93.3864 55.2397C92.4168 54.0541 90.9768 53.3735 89.5863 52.7308C88.8231 49.2244 84.8866 46.7581 81.3989 47.6005C79.5816 44.9293 75.7099 44.5098 72.6087 45.4141C71.8507 45.6349 71.0943 45.9201 70.3047 45.9172C69.7258 45.9148 69.1603 45.7564 68.5863 45.6791C65.4307 45.2548 62.2987 47.4762 61.068 50.4129C60.8712 50.8823 60.7099 51.3772 60.3979 51.7794C59.9885 52.3074 59.3679 52.6175 58.8389 53.0255C57.6951 53.9073 56.9688 55.3089 56.9083 56.7517C56.857 57.9772 57.2472 59.278 56.7307 60.3906C56.472 60.9484 56.0045 61.3991 55.8034 61.9799C55.2197 63.6633 57.0859 65.3845 56.7403 67.1327C56.6698 67.4893 56.509 67.8215 56.4101 68.1714C56.208 68.8866 56.2767 69.6753 56.5997 70.3449C56.8488 70.8618 57.2506 71.3351 57.2842 71.9078C57.3101 72.3426 57.1167 72.7564 57.0293 73.1826C56.8162 74.2261 59.0679 78.25 59.9688 78.8169L86.9127 79.0578C88.9517 78.6426 90.6125 76.7946 90.8088 74.7229C90.8415 74.3783 90.8467 74.0044 91.0599 73.7322C91.2418 73.4999 91.5355 73.3938 91.7952 73.2541C93.5299 72.3225 93.7397 69.9407 93.5568 67.9799C93.5309 67.7053 93.5026 67.4241 93.5717 67.1572C93.6725 66.7694 93.9634 66.4655 94.2077 66.1482Z" fill="#1C0B54"/>
<path d="M86.4885 66.1868C86.5682 61.4185 83.5778 55.9388 78.8407 53.607C75.8546 52.1368 73.5252 52.1276 71.9556 51.9443C68.4386 51.5344 65.6009 53.2768 65.6009 53.2768C64.1157 53.6257 58.6735 58.6091 58.3908 64.0163C58.0769 70.0235 57.9305 77.3704 58.6898 81.842C60.2167 90.8334 67.1321 91.9062 67.1321 91.9062C67.133 91.8923 66.4884 106.853 66.4884 106.853L79.7791 117.746L83.8399 99.8617L86.4885 66.1868Z" fill="#FFBF9D"/>
<path d="M67.1282 91.9057C67.1282 91.9057 73.2319 92.233 79.1963 88.5605C79.1963 88.5605 76.0533 94.9436 67.0293 94.1972L67.1282 91.9057Z" fill="#FF9A6C"/>
<path d="M85.1264 74.7388C85.1207 74.0677 85.8791 72.478 86.5405 72.3676C88.3064 72.0729 91.4965 72.1809 91.5743 76.6727C91.6803 82.8133 85.6525 81.442 85.4797 81.4775C84.5005 81.6781 85.1456 77.0548 85.1264 74.7388Z" fill="#FFBF9D"/>
<path d="M87.1361 79.2048C87.163 79.1847 87.2446 79.2778 87.4265 79.3575C87.6046 79.4348 87.9089 79.4856 88.2267 79.3604C88.8713 79.1112 89.3998 78.0716 89.4104 76.9642C89.4161 76.405 89.2904 75.8746 89.0845 75.4373C88.8891 74.9914 88.5934 74.6828 88.2656 74.6304C87.9397 74.5608 87.7117 74.7605 87.6392 74.9343C87.56 75.1076 87.6013 75.23 87.5686 75.2405C87.5518 75.2564 87.4352 75.1402 87.4803 74.8858C87.5033 74.7634 87.5729 74.617 87.7155 74.4965C87.8605 74.3741 88.076 74.3093 88.304 74.33C88.7782 74.3549 89.2117 74.7831 89.4377 75.2626C89.6897 75.7445 89.8448 76.3397 89.8381 76.968C89.8203 78.206 89.2069 79.3748 88.3232 79.6469C87.8936 79.7669 87.5307 79.6431 87.3421 79.5015C87.1496 79.3532 87.1155 79.2164 87.1361 79.2048Z" fill="#FF9A6C"/>
<path d="M57.0735 63.1061C57.2688 60.8755 58.1573 58.7606 59.2335 56.7974C59.9784 55.4386 60.8352 54.1123 62.0074 53.099C62.9871 52.2523 64.1535 51.6538 65.3237 51.0989C68.4 49.6397 71.8315 48.4018 75.1531 49.1501C76.9363 49.5518 78.5415 50.4994 80.1034 51.4493C81.3 52.1774 82.5019 52.9229 83.5047 53.9016C84.384 54.7603 85.0911 55.7803 85.7151 56.8392C87.2021 59.3635 88.2519 62.1854 88.453 65.1086C88.6541 68.0314 90.8655 70.6157 89.1514 72.9922C89.0189 73.176 85.9666 73.8082 85.7559 73.8922C85.26 74.0894 84.7143 73.5514 84.7181 73.0176C84.7219 72.4838 85.0896 72.0235 85.4851 71.665C84.7253 71.6395 84.204 70.7933 84.252 70.0344C84.3 69.2755 84.7488 68.6074 85.2 67.9954C85.2586 67.9152 85.32 67.8307 85.332 67.7323C85.3637 67.4731 85.0704 67.3138 84.8463 67.1813C83.7523 66.5338 83.6304 64.7333 84.6274 63.9446C83.1624 63.6053 82.2135 61.8437 82.7352 60.4334C82.8178 60.2107 82.9301 59.9606 82.8235 59.748C82.7208 59.544 82.4674 59.4802 82.2485 59.4149C80.628 58.9344 79.5384 57.1032 79.8903 55.4496C79.0378 55.4942 78.1714 55.5379 77.3419 55.3363C76.5125 55.1352 75.7104 54.6499 75.3312 53.8853C74.7874 54.8645 73.7199 55.5322 72.6015 55.5917C71.4831 55.6517 70.3503 55.1021 69.7051 54.1867C68.2747 54.3235 66.8117 54.097 65.4898 53.5344C65.1653 54.8669 64.1141 55.9987 62.809 56.4206C62.5555 56.5027 62.2642 56.5824 62.1423 56.819C62.0645 56.9698 62.077 57.1488 62.0861 57.3182C62.1312 58.1755 61.5471 58.5408 61.0743 59.2574C60.6015 59.9741 59.7773 61.0416 58.9517 60.805C59.0434 62.2651 58.2624 63.3283 57.0293 64.1165L57.0735 63.1061Z" fill="#1C0B54"/>
<path d="M55.8037 61.9797C55.8037 61.9797 55.8628 61.7258 56.1287 61.3178C56.2568 61.1124 56.4388 60.8729 56.6096 60.5666C56.7767 60.2599 56.9092 59.8711 56.9437 59.4161C56.9888 58.9625 56.9471 58.4537 56.9034 57.8973C56.8597 57.3429 56.8127 56.7242 56.9356 56.0738C57.0522 55.4263 57.308 54.7533 57.7256 54.1322C57.9344 53.8221 58.1836 53.5255 58.4735 53.2562C58.7615 52.9841 59.0994 52.7546 59.4373 52.5261C59.7728 52.2948 60.1127 52.0476 60.3632 51.713C60.6152 51.3785 60.7688 50.9681 60.9349 50.5519C61.2685 49.7129 61.7552 48.8906 62.4056 48.1649C63.0517 47.4391 63.8389 46.7805 64.7692 46.3135C65.2261 46.0634 65.7296 45.8945 66.2428 45.7447C66.764 45.6271 67.3035 45.5345 67.8551 45.5479C68.1301 45.5441 68.4066 45.5801 68.6831 45.6065C68.9581 45.6468 69.2293 45.7025 69.5015 45.7481C70.0448 45.8513 70.5944 45.8623 71.1426 45.7356C71.6912 45.6223 72.2288 45.4197 72.7952 45.2733C73.3578 45.113 73.942 45.018 74.5333 44.9508C75.1256 44.885 75.7285 44.8845 76.3328 44.9186C76.9376 44.9637 77.5424 45.0703 78.1371 45.2349C79.3146 45.5834 80.4623 46.2329 81.2461 47.2485C81.3234 47.3493 81.4002 47.4497 81.4765 47.549L81.3781 47.5111C83.2323 47.0671 85.1744 47.5514 86.6749 48.5345C88.1855 49.5141 89.3096 51.0338 89.674 52.7124L89.6245 52.6514C90.37 52.9965 91.1072 53.3436 91.7869 53.7698C92.4651 54.1941 93.0882 54.7025 93.5576 55.3269C94.0228 55.9543 94.3074 56.693 94.3746 57.4399C94.4452 58.1839 94.2618 58.9538 93.8053 59.5212L93.7991 59.4185C94.6832 60.2901 95.1354 61.4546 95.2396 62.5596C95.3447 63.6698 95.121 64.7532 94.6266 65.6167C94.5143 65.8389 94.3612 66.0319 94.2239 66.2277C94.0756 66.4154 93.9244 66.5906 93.8058 66.7793C93.6863 66.9679 93.608 67.1705 93.5922 67.3831C93.573 67.5957 93.5975 67.8089 93.6147 68.0205C93.6863 68.8673 93.6748 69.6535 93.5692 70.3519C93.4621 71.0489 93.2658 71.6604 92.9797 72.1308C92.7003 72.6055 92.3485 72.9309 92.0327 73.1354C91.7173 73.3471 91.4375 73.4306 91.2829 73.5458C91.1221 73.6514 91.0659 73.7383 91.0607 73.733C91.0607 73.733 91.1096 73.6409 91.2695 73.5266C91.4236 73.4028 91.7029 73.3111 92.0072 73.097C92.3135 72.8897 92.6528 72.5657 92.9207 72.0967C93.1952 71.6321 93.3824 71.0282 93.4813 70.3394C93.5792 69.6487 93.585 68.8701 93.5077 68.0301C93.4895 67.8204 93.4616 67.6015 93.4803 67.3735C93.4952 67.1445 93.5821 66.9156 93.7064 66.7178C93.8308 66.5181 93.9839 66.3386 94.1283 66.1533C94.2613 65.9609 94.4092 65.7727 94.5167 65.5557C94.9933 64.7133 95.2064 63.6549 95.0994 62.573C94.9933 61.4959 94.5474 60.3665 93.6911 59.5279L93.6416 59.4794L93.6848 59.4252C94.1106 58.8914 94.2834 58.1661 94.2143 57.4538C94.148 56.7396 93.8716 56.0273 93.4237 55.4263C92.9701 54.8258 92.3629 54.33 91.6952 53.9153C91.0261 53.4981 90.2956 53.1549 89.5501 52.8113L89.5103 52.793L89.5007 52.7498C89.1455 51.1231 88.0501 49.6428 86.5746 48.6871C85.1096 47.7285 83.216 47.2601 81.4213 47.6906L81.3628 47.7045L81.3229 47.6527C81.2495 47.5572 81.1751 47.4602 81.1002 47.3628C80.3442 46.3831 79.2344 45.7524 78.0848 45.4116C77.504 45.2503 76.9122 45.1457 76.3189 45.101C75.7256 45.0669 75.1333 45.0669 74.5506 45.1313C73.9693 45.1965 73.3943 45.2897 72.8408 45.4466C72.2845 45.5887 71.7431 45.7927 71.1776 45.9089C70.8954 45.9679 70.6079 46.0049 70.3189 46.0053C70.03 46.0053 69.7467 45.9669 69.4712 45.9199C69.1952 45.8729 68.9255 45.8172 68.6567 45.7773C68.3874 45.7514 68.12 45.7154 67.8527 45.7188C67.317 45.7044 66.7919 45.7937 66.2831 45.9065C65.7824 46.0514 65.29 46.2146 64.8426 46.4585C63.9311 46.9125 63.1568 47.5567 62.5199 48.2666C61.8786 48.978 61.3986 49.781 61.0669 50.6057C60.8994 51.018 60.741 51.4409 60.4722 51.7956C60.2029 52.1508 59.8492 52.4037 59.5108 52.6346C59.1685 52.8636 58.8392 53.0849 58.5575 53.3479C58.2738 53.6085 58.0285 53.8965 57.8231 54.1985C57.4108 54.8028 57.1559 55.4599 57.0373 56.093C56.9125 56.7281 56.9524 57.3357 56.9912 57.8916C57.0296 58.4479 57.0666 58.9625 57.0152 59.4237C56.9749 59.8855 56.8328 60.2844 56.6576 60.594C56.4786 60.9026 56.2924 61.1373 56.1599 61.3389C56.0236 61.5381 55.9357 61.6994 55.8824 61.8108C55.8287 61.9207 55.8085 61.9812 55.8037 61.9797Z" fill="#4EA682"/>
<path d="M78.5044 46.2738C78.4953 46.2877 78.3417 46.1821 78.0417 46.0381C77.7427 45.8965 77.2881 45.7203 76.6996 45.6584C76.1159 45.5931 75.3926 45.6478 74.6836 45.9685C73.9795 46.2867 73.2959 46.8642 72.8596 47.647C72.7343 47.8717 72.6273 48.1107 72.5601 48.3445C72.4958 48.5768 72.4876 48.8235 72.61 48.991L72.7617 49.1989L72.5131 49.1307C71.8305 48.9435 71.1307 49.0789 70.6161 49.3717C70.0924 49.6635 69.7631 50.1138 69.5836 50.5165C69.4017 50.9235 69.3604 51.2859 69.3518 51.5302C69.3451 51.7765 69.3657 51.9114 69.3518 51.9133C69.3465 51.9142 69.3369 51.8816 69.323 51.8173C69.3086 51.7534 69.2951 51.657 69.2894 51.5307C69.2783 51.2806 69.3023 50.9029 69.4775 50.4714C69.6494 50.0451 69.9859 49.5579 70.5383 49.2368C71.0803 48.9162 71.8233 48.7606 72.5615 48.9574L72.4646 49.0971C72.2923 48.8581 72.3143 48.5499 72.3835 48.297C72.4579 48.0378 72.5668 47.7958 72.6988 47.5573C73.1563 46.7365 73.8748 46.1374 74.615 45.8134C75.3619 45.4866 76.1164 45.4453 76.7164 45.5293C77.3222 45.6104 77.7815 45.811 78.0758 45.9747C78.2231 46.0578 78.3331 46.1298 78.4031 46.185C78.4732 46.2382 78.5083 46.2685 78.5044 46.2738Z" fill="#4EA682"/>
<path d="M88.5255 53.2458C88.5327 53.2539 88.4607 53.3355 88.3128 53.4671C88.164 53.5971 87.938 53.7791 87.6216 53.9552C87.3068 54.128 86.894 54.2999 86.3996 54.3325C85.9138 54.3656 85.3349 54.2591 84.8712 53.8832L85.0071 53.8616C84.949 53.9442 84.8895 54.0291 84.829 54.1151C84.7642 54.1976 84.6912 54.2763 84.6212 54.3584C84.1728 54.8293 83.6261 55.1533 83.0943 55.3251C82.5629 55.5032 82.0527 55.5503 81.6322 55.5205C81.2103 55.4912 80.8815 55.3904 80.6626 55.3079C80.4476 55.2143 80.3357 55.149 80.341 55.1389C80.3535 55.1005 80.8186 55.3607 81.6384 55.3899C82.0445 55.4019 82.5327 55.3434 83.0381 55.1643C83.5445 54.9911 84.0615 54.6776 84.4858 54.2322C84.5516 54.1544 84.6207 54.08 84.6821 54.0023C84.7397 53.9211 84.7964 53.8415 84.8511 53.7637L84.9111 53.6792L84.9874 53.7416C85.4016 54.0815 85.9335 54.1909 86.3904 54.1693C86.8527 54.1491 87.2525 53.9999 87.565 53.8463C88.1885 53.5251 88.5053 53.2189 88.5255 53.2458Z" fill="#4EA682"/>
<path d="M91.8154 58.9156C91.8216 58.9171 91.8168 58.9555 91.8014 59.0289C91.7808 59.0999 91.7462 59.207 91.667 59.327C91.5178 59.5689 91.1846 59.8641 90.6826 59.9927C90.1781 60.1286 89.5517 60.0316 88.9267 59.8161C88.6133 59.7067 88.2878 59.5972 87.9542 59.4417C87.6302 59.2857 87.2765 59.0601 87.0998 58.6756C87.0864 58.642 87.073 58.6079 87.061 58.5772L87.2059 58.6199C86.6184 59.087 86.0117 59.494 85.393 59.7283C84.7781 59.9716 84.1589 60.0139 83.6698 59.9198C83.1768 59.831 82.813 59.6246 82.6032 59.4451C82.4962 59.3567 82.4232 59.2771 82.379 59.2195C82.3349 59.1619 82.3142 59.1302 82.319 59.1259C82.332 59.1143 82.429 59.2319 82.6469 59.3884C82.8619 59.5449 83.2176 59.723 83.6909 59.7916C84.1627 59.8646 84.7435 59.8123 85.3315 59.5699C85.9224 59.3361 86.5094 58.9377 87.0912 58.4745L87.1882 58.3972L87.2362 58.5177C87.2462 58.5436 87.2573 58.5715 87.2688 58.5998C87.4128 58.9185 87.7229 59.1278 88.033 59.2785C88.3469 59.4283 88.6757 59.5435 88.9814 59.6553C89.591 59.8751 90.181 59.9759 90.6514 59.866C91.1246 59.7614 91.4486 59.5022 91.607 59.2862C91.7722 59.0687 91.7966 58.9094 91.8154 58.9156Z" fill="#4EA682"/>
<path d="M71.9936 71.3854C71.9533 71.9845 72.427 72.5125 73.0515 72.5662C73.675 72.62 74.2146 72.1794 74.2554 71.5803C74.2957 70.9813 73.8219 70.4528 73.1984 70.399C72.5734 70.3448 72.0339 70.7869 71.9936 71.3854Z" fill="#1C0B54"/>
<path d="M60.9771 71.0831C60.9363 71.6821 61.4105 72.2102 62.035 72.2639C62.6585 72.3177 63.198 71.877 63.2383 71.2775C63.2787 70.6785 62.8049 70.1495 62.1814 70.0962C61.5569 70.0425 61.0174 70.4841 60.9771 71.0831Z" fill="#1C0B54"/>
<path d="M60.5223 67.3142C60.6582 67.4669 61.539 66.8578 62.7611 66.9005C63.9822 66.9254 64.8591 67.583 64.9959 67.4376C65.0636 67.3733 64.9283 67.1016 64.5471 66.8045C64.1718 66.5093 63.5247 66.2126 62.7635 66.191C62.0022 66.1709 61.3527 66.4306 60.9755 66.7056C60.591 66.9816 60.4551 67.2451 60.5223 67.3142Z" fill="#1C0B54"/>
<path d="M72.6848 67.9258C72.836 68.0636 73.6505 67.3676 74.8697 67.2845C76.0865 67.1837 77.0264 67.7477 77.1483 67.5893C77.2083 67.5183 77.048 67.262 76.6366 67.0057C76.2329 66.7498 75.5595 66.5218 74.7997 66.5789C74.0403 66.637 73.4211 66.962 73.0741 67.2745C72.7203 67.5884 72.6113 67.8648 72.6848 67.9258Z" fill="#1C0B54"/>
<path d="M68.1279 77.0992C68.136 77.0301 67.3805 76.8745 66.1546 76.6773C65.8435 76.635 65.5503 76.5635 65.5047 76.3489C65.4384 76.1209 65.5795 75.7888 65.7427 75.4307C66.0605 74.6853 66.3927 73.9033 66.7421 73.0845C68.1322 69.7427 69.1493 66.9909 69.0144 66.9361C68.8795 66.8814 67.6426 69.5454 66.2525 72.8872C65.9175 73.7113 65.5968 74.4971 65.292 75.2488C65.1624 75.5997 64.9464 75.9957 65.0909 76.4685C65.1677 76.7046 65.3909 76.8808 65.5891 76.9413C65.7874 77.0085 65.9626 77.0176 66.1167 77.032C67.3527 77.1385 68.1211 77.1688 68.1279 77.0992Z" fill="#1C0B54"/>
<path d="M70.0201 78.9159C70.478 78.9802 70.9355 79.2169 71.2028 79.5999C71.4697 79.983 71.6627 80.8796 71.3977 81.2281C71.1712 81.5257 70.1622 81.5242 69.4681 81.4369C69.1465 81.3966 68.8782 81.1734 68.7716 80.8676L68.4976 80.079C68.3416 79.6302 68.5748 79.1262 69.0289 78.9836C69.3366 78.8871 69.6803 78.8684 70.0201 78.9159Z" fill="#FF9A6C"/>
<path d="M72.1252 63.4638C72.3072 63.7671 73.4755 63.3788 74.916 63.2742C76.3555 63.1407 77.5708 63.3313 77.7004 63.0025C77.7566 62.846 77.4988 62.5777 76.978 62.3511C76.4615 62.1246 75.6772 61.9662 74.8137 62.0367C73.9502 62.1087 73.2028 62.3939 72.7305 62.7025C72.2548 63.0116 72.0446 63.3188 72.1252 63.4638Z" fill="#1C0B54"/>
<path d="M60.8355 65.3096C61.0918 65.5804 62.059 65.2664 63.2312 65.2208C64.4014 65.1402 65.4017 65.349 65.6221 65.0524C65.7185 64.9088 65.5544 64.6348 65.1137 64.3837C64.6789 64.1336 63.9579 63.9388 63.1529 63.9815C62.348 64.0252 61.6568 64.2959 61.2565 64.5911C60.8504 64.8877 60.7217 65.1772 60.8355 65.3096Z" fill="#1C0B54"/>
<path d="M102.945 116.059L91.4152 157.88L95.4597 169.868C80.2341 176.578 58.2251 178.711 40.876 170.304C40.876 170.304 46.7689 153.012 46.9696 149.646C47.1702 146.28 45.7216 126.617 47.3253 120.023C48.9289 113.429 53.5201 99.295 53.5201 99.295L67.0249 97.1508C73.2169 100.477 77.1817 100.972 83.8408 97.1177L96.4206 99.8614L102.945 116.059Z" fill="#4EA682"/>
<path d="M53.7253 99.2721C53.7253 99.2721 46.473 100.04 43.5526 106.005C40.6678 111.898 32.66 137.979 32.2241 142.335C31.7883 146.692 35.323 152.557 38.4046 153.368L47.7488 144.052L55.5013 144.743L65.7085 97.1169L53.7253 99.2721Z" fill="#4EA682"/>
<g opacity="0.3">
<path d="M48.2496 115.293C45.9945 121.143 45.3571 127.607 46.426 133.784C44.724 133.148 43.0224 132.512 41.3203 131.877C42.7113 133.798 44.5387 135.401 46.6252 136.53C45.2486 136.132 43.8379 135.73 42.4075 135.824C40.9776 135.917 39.4996 136.606 38.8564 137.887C40.5254 137.582 42.2241 137.276 43.9094 137.473C45.5947 137.669 47.2948 138.447 48.202 139.881C46.9435 134.449 46.4592 128.838 46.7678 123.27" fill="black"/>
</g>
<g opacity="0.3">
<path d="M46.1322 151.16L84.191 154.931C81.4478 154.873 79.3367 157.195 76.9617 158.568C72.5639 161.112 67.0871 160.401 62.0682 159.612C57.91 158.957 53.7518 158.304 49.5935 157.65C48.5443 157.485 47.4263 157.287 46.6531 156.559C45.2668 155.254 45.646 153 46.1322 151.16Z" fill="black"/>
</g>
<path d="M75.1982 148.031L81.5712 141.878C82.1899 141.281 83.0362 140.984 83.892 141.065C85.7112 141.236 88.7938 141.557 89.4274 141.803C90.3389 142.158 91.1995 142.664 91.453 143.12C91.7064 143.576 92.567 146.31 92.6174 146.715C92.6419 146.912 92.5829 147.48 92.5157 148.012C92.436 148.64 91.7448 149.011 91.1933 148.699C90.9456 148.559 90.72 148.374 90.5918 148.133C90.1867 147.373 90.2376 147.069 90.2376 147.069C90.2376 147.069 90.4402 149.804 88.212 149.854C88.212 149.854 89.2382 152.184 86.3702 153.146C86.3702 153.146 86.4763 154.665 84.0778 154.868C81.6792 155.071 79.5019 154.868 79.5019 154.868C79.5019 154.868 75.1176 158.017 72.0283 158.22C68.9395 158.422 62.0232 157.072 62.0232 157.072L61.1885 144.333L75.1982 148.031Z" fill="#FFBF9D"/>
<path d="M83.8312 144.128C83.8235 144.149 84.2128 144.314 84.8521 144.556C85.492 144.795 86.3828 145.114 87.3937 145.383C87.8939 145.525 88.3988 145.605 88.8184 145.72C89.2446 145.834 89.5014 146.153 89.6867 146.432C89.872 146.715 90.0188 146.955 90.1465 147.101C90.2718 147.249 90.3606 147.311 90.3668 147.304C90.3764 147.294 90.3049 147.216 90.1993 147.06C90.0904 146.906 89.9641 146.664 89.788 146.367C89.6977 146.22 89.5902 146.059 89.4404 145.912C89.2931 145.761 89.0881 145.641 88.8659 145.57C88.4171 145.438 87.939 145.36 87.4364 145.217C86.4337 144.951 85.5404 144.651 84.891 144.441C84.2435 144.23 83.8393 144.105 83.8312 144.128Z" fill="#FF9A6C"/>
<path d="M83.0099 148.033C83.0018 148.055 83.2725 148.181 83.7194 148.36C84.1663 148.54 84.7903 148.772 85.4872 149.005C86.1847 149.238 86.8221 149.428 87.2872 149.554C87.7523 149.679 88.0442 149.742 88.0509 149.719C88.0576 149.696 87.7778 149.593 87.3227 149.439C86.8058 149.266 86.2053 149.065 85.5415 148.843C84.8781 148.621 84.2776 148.419 83.7611 148.247C83.3037 148.097 83.0186 148.011 83.0099 148.033Z" fill="#FF9A6C"/>
<path d="M81.4365 151.665C81.4313 151.717 82.5463 151.831 83.8725 152.192C85.2012 152.547 86.2221 153.009 86.2437 152.961C86.2529 152.941 86.009 152.8 85.5933 152.615C85.1781 152.43 84.5877 152.209 83.9167 152.027C83.2457 151.847 82.6241 151.742 82.1719 151.693C81.7197 151.644 81.438 151.643 81.4365 151.665Z" fill="#FF9A6C"/>
<path d="M66.6763 157.88L38.4043 153.367C38.4043 153.367 41.8017 139.187 46.7582 139.187C47.4845 139.187 72.5971 147.345 72.5971 147.345L66.6763 157.88Z" fill="#4EA682"/>
<path d="M71.622 151.706C71.6398 151.722 71.8874 151.485 72.2849 151.099C72.7217 150.67 73.2478 150.153 73.8295 149.582C74.4295 148.985 74.9647 148.436 75.3406 148.027C75.7169 147.618 75.9338 147.352 75.917 147.336C75.8993 147.319 75.6516 147.557 75.2542 147.942C74.8174 148.372 74.2913 148.889 73.709 149.46C73.109 150.057 72.5738 150.606 72.1985 151.014C71.8226 151.423 71.6052 151.69 71.622 151.706Z" fill="#FF9A6C"/>
<path d="M72.5969 147.345C72.593 147.358 72.4692 147.335 72.2374 147.278C71.9609 147.204 71.6287 147.115 71.2298 147.009C70.2967 146.741 69.0535 146.383 67.5458 145.95C64.4402 145.038 60.1586 143.752 55.4369 142.307C52.8223 141.499 50.3455 140.735 48.1466 140.056L48.0895 140.038L48.0468 139.981C47.1804 138.815 45.9036 138.105 44.7516 137.754C43.5804 137.396 42.4845 137.354 41.5999 137.433C40.7105 137.506 40.025 137.701 39.5633 137.84C39.1029 137.988 38.8644 138.094 38.8548 138.076C38.8452 138.058 39.0693 137.916 39.5239 137.731C39.9799 137.554 40.6677 137.321 41.5769 137.215C42.4802 137.102 43.613 137.115 44.838 137.462C46.0524 137.815 47.3805 138.501 48.354 139.781L48.2541 139.706C50.4564 140.373 52.937 141.126 55.5554 141.919C60.2772 143.364 64.5453 144.694 67.6293 145.676C69.1212 146.16 70.3519 146.559 71.2754 146.859C71.6657 146.995 71.9906 147.107 72.2609 147.2C72.4855 147.282 72.6012 147.331 72.5969 147.345Z" fill="#1C0B54"/>
<path d="M65.1035 102.019C65.3397 101.233 66.6679 93.9677 67.2079 92.2781C67.9696 89.8949 74.1621 85.633 74.1621 85.633C74.1621 85.633 73.1911 83.3957 70.5544 84.5588C67.433 85.9354 65.8898 88.2529 65.1035 87.781C64.3173 87.3092 59.4141 82.3181 58.0768 82.4756C56.74 82.633 56.4463 84.0044 56.9181 84.5549C57.3899 85.1055 57.9194 86.0141 57.9194 86.0141C57.9194 86.0141 55.0883 85.1621 55.6389 88.262C55.6389 88.262 52.4147 86.2503 52.7291 90.4964C52.7291 90.4964 50.6061 89.6314 50.1343 91.1256C49.6624 92.6199 51.0616 94.3498 51.7696 95.5296C52.4776 96.709 54.7739 103.551 54.7739 103.551L54.8008 109.583L66.0746 107.266L65.1035 102.019Z" fill="#FFBF9D"/>
<path d="M65.1029 102.019C65.1116 102.019 65.1413 102.137 65.1917 102.365C65.2445 102.617 65.3146 102.952 65.4034 103.376C65.5834 104.291 65.8397 105.59 66.1666 107.248L66.1844 107.339L66.0927 107.358C63.3087 107.946 59.4586 108.759 54.8314 109.736L54.6447 109.775L54.6433 109.583C54.6293 107.726 54.614 105.694 54.5977 103.551L54.6068 103.606C53.8023 101.285 52.9661 98.7899 51.9159 96.2685C51.4023 95.0541 50.3324 93.9957 49.9465 92.5221C49.8519 92.1573 49.8082 91.7637 49.8716 91.3701C49.9306 90.9928 50.1092 90.557 50.4821 90.3194C50.8445 90.0794 51.2741 90.0271 51.662 90.0544C52.0575 90.0832 52.4285 90.1691 52.8039 90.3103L52.5279 90.5109C52.5121 90.0962 52.4957 89.6747 52.5553 89.2398C52.6325 88.816 52.7281 88.3432 53.0943 87.9851C53.449 87.6112 54.0073 87.5311 54.457 87.6112C54.9212 87.6875 55.3407 87.8526 55.7453 88.0888L55.4381 88.2962C55.3628 87.7264 55.2653 87.0319 55.6489 86.4074C55.8879 86.0147 56.3343 85.7901 56.749 85.732C57.1729 85.671 57.5727 85.7142 57.9764 85.8189L57.7426 86.1151C57.4599 85.6423 57.1565 85.1699 56.8196 84.7533C56.6017 84.5354 56.4869 84.1581 56.5052 83.8519C56.5215 83.5336 56.629 83.2269 56.8119 82.9701C56.9933 82.7128 57.2549 82.5141 57.5425 82.4018C57.6869 82.3495 57.8338 82.3067 57.9836 82.2866C58.1281 82.2664 58.3311 82.289 58.4717 82.3283C59.0506 82.516 59.4932 82.8395 59.9425 83.152C61.7012 84.4365 63.2084 85.9111 64.7285 87.2416C64.91 87.3899 65.1337 87.5997 65.2661 87.6371C65.4025 87.6818 65.6285 87.5762 65.8239 87.4595C66.2257 87.2099 66.6087 86.8888 66.9956 86.5893C67.7655 85.9783 68.5599 85.4066 69.3937 84.9381C70.2226 84.5008 71.0967 84.0155 72.0817 84.0563C73.07 84.077 73.9186 84.7346 74.3127 85.565L74.3703 85.6859L74.2546 85.768C71.8417 87.4831 69.6725 89.1717 68.138 90.9885C67.7559 91.4459 67.4583 91.9274 67.2884 92.4405C67.1305 92.9699 67.0081 93.497 66.8905 94.0005C66.6687 95.0099 66.4647 95.9378 66.2804 96.7773C65.9271 98.4333 65.6482 99.7394 65.4514 100.661C65.3521 101.107 65.2719 101.448 65.2109 101.676C65.1538 101.906 65.1029 102.019 65.1029 102.019C65.0924 102.019 65.1202 101.899 65.1629 101.667C65.2109 101.411 65.2748 101.072 65.3554 100.643C65.5311 99.7173 65.7802 98.405 66.0956 96.7413C66.2684 95.8979 66.4589 94.9658 66.6663 93.9515C66.7786 93.4437 66.8938 92.9167 67.0503 92.3699C67.225 91.8151 67.5457 91.2904 67.9297 90.8224C69.4868 88.9442 71.6429 87.2435 74.0674 85.4959L74.0093 85.6989C73.6623 84.9899 72.9173 84.4106 72.0692 84.4053C71.2177 84.3669 70.3853 84.8171 69.5722 85.2544C68.7625 85.7143 67.9911 86.2735 67.2279 86.884C66.841 87.185 66.4657 87.5061 66.0197 87.7859C65.7937 87.9069 65.5397 88.085 65.1716 88.0077C64.825 87.88 64.6954 87.6938 64.4799 87.5344C62.9425 86.1962 61.4357 84.7322 59.7125 83.4784C59.2844 83.177 58.8279 82.8621 58.3637 82.7162C58.2466 82.6903 58.1669 82.6749 58.045 82.6859C57.9226 82.7023 57.8074 82.7373 57.6937 82.7771C57.4705 82.865 57.2775 83.0143 57.1412 83.2077C56.87 83.5883 56.8018 84.1619 57.1335 84.4979C57.4973 84.9477 57.8002 85.421 58.0949 85.9125L58.3513 86.3397L57.8612 86.2087C57.2045 86.033 56.3401 86.0522 55.9925 86.6277C55.706 87.0703 55.7621 87.7005 55.8389 88.227L55.9009 88.6514L55.5317 88.4349C55.1866 88.2323 54.7853 88.0749 54.3989 88.0139C54.0101 87.9491 53.6233 88.0159 53.3794 88.2746C52.8807 88.8136 52.8946 89.7218 52.9297 90.4826L52.9436 90.7893L52.6537 90.6837C52.0181 90.4519 51.2242 90.315 50.7077 90.6501C50.4509 90.8123 50.3194 91.1099 50.2637 91.4368C50.2109 91.7608 50.245 92.0987 50.3295 92.4266C50.5004 93.0856 50.8474 93.7005 51.2122 94.2899C51.5708 94.8751 52.0052 95.4573 52.2677 96.1168C53.3242 98.6767 54.1445 101.163 54.9404 103.496L54.9495 103.523V103.551C54.9524 105.694 54.9553 107.726 54.9577 109.583L54.7695 109.431C59.4068 108.504 63.2655 107.732 66.0557 107.175L65.9818 107.284C65.6919 105.611 65.4649 104.3 65.3055 103.378C65.2369 102.952 65.1831 102.617 65.1423 102.364C65.1077 102.135 65.0948 102.018 65.1029 102.019Z" fill="#FF9A6C"/>
<path d="M57.9317 86.093C57.9015 86.1314 58.5379 86.6752 59.3002 87.3698C60.0639 88.0629 60.6653 88.6447 60.7008 88.6111C60.7344 88.5799 60.1839 87.9415 59.4149 87.2435C58.6479 86.5437 57.9595 86.0565 57.9317 86.093Z" fill="#FF9A6C"/>
<path d="M55.4106 88.0922C55.3703 88.109 55.6117 88.7191 56.1051 89.3517C56.5952 89.9873 57.1261 90.3732 57.1525 90.3381C57.1856 90.2997 56.7171 89.8658 56.2405 89.2471C55.7595 88.6313 55.4557 88.0697 55.4106 88.0922Z" fill="#FF9A6C"/>
<path d="M52.7742 90.3413C52.7358 90.3686 53.0012 90.8021 53.3665 91.3085C53.7323 91.8149 54.0592 92.2032 54.0976 92.1753C54.136 92.148 53.8705 91.715 53.5052 91.2081C53.1395 90.7017 52.8126 90.3134 52.7742 90.3413Z" fill="#FF9A6C"/>
<path d="M96.4198 99.8613L84.295 111.959L71.8558 127.587L66.9089 106.761L54.2686 109.359C54.2686 109.359 55.1604 132.884 59.0503 143.546C59.7905 145.576 61.9807 147.084 62.9575 147.548C69.0684 150.45 75.0343 145.96 75.0343 145.96C75.0343 145.96 100.529 128.849 103.292 117.395C104.597 111.986 104.074 105.555 101.85 102.907C99.8959 100.579 96.4198 99.8613 96.4198 99.8613Z" fill="#4EA682"/>
<path d="M103.291 117.394C103.291 117.394 103.262 117.521 103.194 117.765C103.114 118.005 103.05 118.382 102.853 118.836C102.532 119.774 101.872 121.086 100.851 122.663C99.8242 124.237 98.4091 126.057 96.6096 128.027C94.8039 129.991 92.64 132.128 90.1248 134.352C87.6192 136.587 84.7704 138.916 81.6346 141.312C80.0655 142.509 78.4229 143.721 76.7059 144.935C76.2744 145.236 75.84 145.539 75.4023 145.843C74.9693 146.142 74.5167 146.457 74.0443 146.723C73.0968 147.259 72.084 147.71 71.0175 148.043C68.8963 148.73 66.4973 148.868 64.2442 148.171C63.9571 148.104 63.6946 147.964 63.4176 147.863C63.145 147.751 62.8647 147.653 62.605 147.5C62.0823 147.212 61.5965 146.864 61.1333 146.484C60.2223 145.716 59.3899 144.776 58.9445 143.612C58.1367 141.325 57.5597 138.929 57.048 136.486C56.5839 134.034 56.1528 131.538 55.8312 128.997C54.9399 122.219 54.4325 115.616 54.1474 109.363L54.1426 109.261L54.2434 109.24C58.6551 108.336 62.8815 107.47 66.8851 106.65L66.9922 106.628L67.0171 106.734C68.8863 114.646 70.549 121.686 71.9381 127.566L71.7922 127.528C76.0618 122.935 79.4885 119.249 81.8539 116.704C83.0347 115.442 83.9491 114.464 84.5746 113.795C84.8832 113.469 85.1194 113.22 85.2835 113.046C85.4443 112.878 85.5307 112.797 85.5307 112.797C85.5307 112.797 85.4563 112.89 85.3013 113.063C85.141 113.24 84.9106 113.495 84.6096 113.828C83.9919 114.504 83.0885 115.492 81.9221 116.768C79.5701 119.325 76.1626 123.029 71.917 127.644L71.8085 127.762L71.7711 127.606C70.3675 121.73 68.6871 114.694 66.7978 106.786L66.9293 106.87C62.9266 107.695 58.7016 108.567 54.2909 109.476L54.3869 109.354C54.6773 115.597 55.188 122.197 56.0779 128.964C56.3995 131.501 56.8287 133.991 57.2909 136.437C57.7997 138.872 58.3743 141.26 59.173 143.527C59.5935 144.631 60.3979 145.548 61.2874 146.298C61.7386 146.67 62.2157 147.011 62.7202 147.29C62.9674 147.436 63.241 147.532 63.5079 147.642C63.7781 147.74 64.0349 147.878 64.3147 147.943C66.5127 148.626 68.8589 148.496 70.9479 147.824C71.9976 147.497 72.9975 147.054 73.9315 146.528C74.4019 146.263 74.8311 145.966 75.2755 145.66C75.7128 145.357 76.1472 145.055 76.5783 144.756C78.2947 143.547 79.9383 142.339 81.5079 141.148C84.6451 138.761 87.4968 136.443 90.0063 134.22C92.5253 132.008 94.6935 129.883 96.505 127.933C98.3103 125.977 99.7325 124.17 100.768 122.61C101.797 121.047 102.469 119.746 102.804 118.818C103.008 118.368 103.08 117.995 103.168 117.758C103.246 117.517 103.291 117.394 103.291 117.394Z" fill="#1C0B54"/>
<path d="M74.1552 137.151C74.1106 137.141 74.2589 136.539 74.3362 135.552C74.3842 135.059 74.3765 134.469 74.342 133.818C74.2892 133.168 74.1797 132.457 73.9939 131.727C73.621 130.264 72.9922 129.034 72.4844 128.186C71.9688 127.34 71.5868 126.853 71.6213 126.826C71.6348 126.815 71.7413 126.927 71.9232 127.14C72.1095 127.35 72.3519 127.676 72.6336 128.092C73.1861 128.926 73.8543 130.169 74.2359 131.664C74.4264 132.41 74.5311 133.138 74.5719 133.803C74.5944 134.469 74.5834 135.07 74.5123 135.569C74.4523 136.067 74.3727 136.468 74.2949 136.737C74.2205 137.009 74.172 137.156 74.1552 137.151Z" fill="#1C0B54"/>
<path d="M72.429 80.4997C72.4065 80.5665 72.1458 80.5372 71.7474 80.4561C71.3485 80.3774 70.8138 80.2554 70.2186 80.2093C69.6229 80.1594 69.0906 80.2026 68.7244 80.2986C68.35 80.386 68.1925 80.5377 68.1316 80.5127C68.1023 80.4988 68.1018 80.4162 68.1777 80.3039C68.2521 80.193 68.3985 80.0697 68.5972 79.9689C68.9941 79.7625 69.6081 79.6549 70.2585 79.7106C70.9122 79.7615 71.4748 79.9511 71.8545 80.1186C72.2361 80.2895 72.4511 80.4354 72.429 80.4997Z" fill="#1C0B54"/>
<g opacity="0.3">
<path d="M91.6891 157.614C91.6891 157.614 86.1389 156.933 83.1533 156.472C81.5213 156.219 79.0368 155.957 78.5669 155.501C77.9827 154.935 77.9865 153.992 77.9246 153.18C76.8662 139.334 81.6264 124.355 96.3403 115.422L100.093 116.409L99.8505 125.429L91.6891 157.614Z" fill="black"/>
</g>
<path d="M178.433 49.7C180.317 49.8685 182.209 48.4424 182.566 46.5858C182.923 44.7291 181.694 42.703 179.883 42.1611C181.022 40.9362 181.266 38.9663 180.462 37.4994C179.658 36.0325 177.866 35.18 176.221 35.4814C176.112 33.8336 175.087 32.276 173.617 31.5229C172.147 30.7698 170.285 30.849 168.883 31.724C167.022 30.2048 164.081 30.2178 162.233 31.7528C160.622 31.4955 158.895 32.3917 158.177 33.8567C157.459 35.3211 157.811 37.2359 159.002 38.3504" fill="#1C0B54"/>
<path d="M161.495 35.5786L162.343 35.559C170.871 35.3602 178.123 41.7423 179.006 50.2273C179.828 58.119 180.635 66.8482 180.681 71.091C180.777 79.8764 172.025 81.447 172.025 81.447L173.014 91.9815L151.683 91.8183L148.905 53.594C147.906 44.4922 152.37 36.3255 161.495 35.5786Z" fill="#FFBF9D"/>
<path d="M172.044 81.4456C172.044 81.4456 165.919 81.9016 159.934 78.3337C159.934 78.3337 163.502 84.7365 172.248 83.7409L172.044 81.4456Z" fill="#FF9A6C"/>
<path d="M176.32 59.7594C176.36 60.4213 175.831 60.9997 175.14 61.0529C174.452 61.1057 173.86 60.6142 173.821 59.9523C173.782 59.2904 174.31 58.7115 175 58.6578C175.69 58.6045 176.281 59.0974 176.32 59.7594Z" fill="#1C0B54"/>
<path d="M177.22 54.5686C177.069 54.7361 176.102 54.0545 174.753 54.0896C173.404 54.1049 172.429 54.8225 172.28 54.6608C172.206 54.5893 172.357 54.2902 172.781 53.9662C173.198 53.6437 173.916 53.3225 174.756 53.3067C175.597 53.2918 176.312 53.5846 176.725 53.8918C177.148 54.2009 177.295 54.4933 177.22 54.5686Z" fill="#1C0B54"/>
<path d="M164.704 59.7594C164.743 60.4213 164.214 60.9997 163.524 61.0525C162.835 61.1058 162.244 60.6138 162.205 59.9519C162.166 59.2905 162.695 58.7111 163.384 58.6578C164.074 58.6041 164.665 59.0975 164.704 59.7594Z" fill="#1C0B54"/>
<path d="M163.953 55.127C163.801 55.294 162.833 54.6134 161.485 54.6485C160.137 54.6643 159.162 55.3814 159.012 55.2196C158.939 55.1481 159.088 54.8491 159.514 54.5251C159.931 54.2025 160.648 53.8819 161.489 53.8656C162.329 53.8502 163.044 54.1435 163.458 54.4507C163.879 54.7598 164.028 55.0521 163.953 55.127Z" fill="#1C0B54"/>
<path d="M169.098 65.0266C169.09 64.9498 169.926 64.7851 171.281 64.5797C171.624 64.5365 171.949 64.4602 172.002 64.2235C172.077 63.9725 171.924 63.6043 171.748 63.2074C171.405 62.3813 171.045 61.5149 170.668 60.6067C169.165 56.9031 168.069 53.8551 168.219 53.7955C168.369 53.7365 169.708 56.6904 171.21 60.3936C171.573 61.3071 171.919 62.1778 172.248 63.0106C172.388 63.3994 172.622 63.8386 172.458 64.3589C172.371 64.6186 172.123 64.8115 171.903 64.8763C171.684 64.9488 171.49 64.957 171.32 64.9709C169.954 65.077 169.105 65.1029 169.098 65.0266Z" fill="#1C0B54"/>
<path d="M164.245 52.3408C164.075 52.6874 162.909 52.3432 161.484 52.3302C160.06 52.2851 158.866 52.5818 158.728 52.229C158.668 52.061 158.913 51.7475 159.42 51.4614C159.923 51.1758 160.692 50.9459 161.547 50.9622C162.401 50.9805 163.148 51.2406 163.624 51.5469C164.103 51.8526 164.32 52.1757 164.245 52.3408Z" fill="#1C0B54"/>
<path d="M177.156 49.0002C176.879 49.3132 175.758 49.0208 174.418 49.0376C173.078 49.0146 171.949 49.3012 171.68 48.9868C171.562 48.8336 171.734 48.5226 172.222 48.2207C172.704 47.9202 173.515 47.6644 174.437 47.6668C175.357 47.6696 176.162 47.9288 176.635 48.2317C177.115 48.536 177.278 48.848 177.156 49.0002Z" fill="#1C0B54"/>
<path d="M178.071 46.2195C178.071 46.2195 175.626 40.7735 172.944 39.5514C169.697 38.0725 168.397 41.6288 165.317 40.845C162.238 40.0611 159.138 38.6418 156.066 41.0797C152.704 43.7485 154.35 45.5274 154.229 49.4288C153.74 65.2477 150.959 69.7827 149.965 62.3605C149.856 61.5474 147.578 60.9517 147.162 57.5149C146.623 53.0581 146.325 47.6389 147.248 44.4459C148.026 41.7546 149.507 39.873 152.191 37.7739C156.428 34.461 162.35 34.2536 166.382 34.5647C170.413 34.8762 178.276 39.3239 178.071 46.2195Z" fill="#1C0B54"/>
<path d="M150.526 62.108C150.439 60.7534 149.246 59.7109 147.898 59.8707C146.264 60.0646 144.463 61.0371 144.65 64.4192C144.982 70.4192 150.937 68.8481 150.938 68.6758C150.939 68.5587 150.687 64.6179 150.526 62.108Z" fill="#FFBF9D"/>
<path d="M149.491 66.4922C149.463 66.4745 149.39 66.5714 149.218 66.6621C149.051 66.7505 148.757 66.821 148.438 66.7212C147.791 66.5239 147.201 65.5471 147.113 64.4671C147.067 63.9223 147.153 63.3957 147.323 62.9546C147.482 62.5053 147.748 62.1833 148.065 62.1089C148.378 62.0177 148.615 62.1962 148.697 62.3609C148.787 62.5241 148.756 62.646 148.788 62.6546C148.806 62.669 148.911 62.5466 148.849 62.3018C148.818 62.1842 148.74 62.0465 148.593 61.9389C148.442 61.83 148.227 61.782 148.006 61.8185C147.545 61.8761 147.152 62.3249 146.966 62.8087C146.754 63.2964 146.645 63.8887 146.696 64.5007C146.801 65.7074 147.483 66.8052 148.364 67.0073C148.792 67.0941 149.137 66.9473 149.312 66.7961C149.488 66.6377 149.512 66.5018 149.491 66.4922Z" fill="#FF9A6C"/>
<path d="M150.368 50.4734C151.16 50.9875 151.996 51.5169 152.938 51.5884C153.88 51.6595 154.942 51.095 155.078 50.1604C155.14 49.7404 155.026 49.258 155.293 48.9287C155.612 48.5356 156.22 48.6422 156.724 48.6839C158.474 48.8284 160.469 46.8527 160.874 45.1439C161.335 45.8001 162.315 45.9791 162.978 45.5289C163.642 45.0791 163.882 44.8252 164.395 44.2089C164.908 43.5931 165.636 43.0358 166.432 43.1299C166.878 43.1827 167.299 43.4371 167.745 43.3871C168.532 43.2988 168.896 42.3667 168.996 41.5809C169.098 40.7956 169.169 39.8803 169.827 39.4391C170.436 39.0302 171.244 39.2399 171.972 39.3297C172.701 39.4195 173.634 39.2275 173.803 38.5132C173.892 38.1388 173.723 37.7505 173.509 37.4303C172.54 35.9803 170.486 35.374 168.885 36.0652C168.251 34.0948 166.359 32.5939 164.296 32.4249C162.233 32.2555 160.123 33.4281 159.177 35.2694C157.881 34.1476 156.025 33.7075 154.364 34.1275C152.702 34.5475 151.279 35.8161 150.671 37.4193C149.202 37.0694 147.55 37.6727 146.652 38.8881C145.755 40.1035 145.664 41.8593 146.431 43.1611C145.366 43.8028 144.467 44.8967 144.474 46.1404C144.48 47.3836 145.72 48.5937 146.912 48.239C146.449 49.2177 146.875 50.5219 147.825 51.0407C148.775 51.5596 150.102 51.2121 150.675 50.2939" fill="#1C0B54"/>
<path d="M169.369 37.8215C169.374 37.822 169.374 37.8589 169.37 37.9314C169.364 38.0034 169.362 38.1128 169.34 38.253C169.291 38.5314 169.189 38.9447 168.931 39.4199C168.671 39.8884 168.263 40.4317 167.632 40.8704C167.015 41.314 166.162 41.66 165.189 41.6288L165.288 41.4935C165.486 42.0028 165.449 42.62 165.206 43.1538C164.976 43.6967 164.606 44.1815 164.213 44.6543C164.011 44.8818 163.838 45.1477 163.557 45.3589C163.284 45.562 162.953 45.6834 162.613 45.7343C161.939 45.8365 161.169 45.645 160.665 45.0868L160.887 45.0176C160.763 46.2148 160.111 47.4248 159.05 48.178C158.489 48.6037 157.789 48.8725 157.093 48.8701C156.397 48.8797 155.747 48.6906 155.14 48.489L155.299 48.4146C154.993 49.1687 154.513 49.8167 153.921 50.301C153.34 50.7844 152.559 51.0776 151.842 50.9197C150.418 50.6528 149.45 49.496 149.235 48.3906L149.373 48.4506C148.679 48.8504 147.925 48.9047 147.316 48.802C146.7 48.704 146.212 48.4487 145.863 48.1938C145.512 47.9336 145.302 47.6634 145.175 47.4757C145.057 47.2804 145.009 47.1719 145.015 47.1685C145.045 47.1431 145.225 47.6202 145.921 48.1112C146.269 48.3455 146.746 48.5778 147.338 48.658C147.924 48.7439 148.637 48.6752 149.278 48.2932L149.389 48.2269L149.416 48.3536C149.63 49.3847 150.561 50.4632 151.882 50.6956C152.531 50.8319 153.218 50.5698 153.768 50.1124C154.321 49.6559 154.779 49.0314 155.063 48.3229L155.107 48.2106L155.221 48.248C155.819 48.4448 156.447 48.6215 157.09 48.6109C157.733 48.6095 158.361 48.3704 158.896 47.9672C159.899 47.2544 160.51 46.1221 160.634 44.9888L160.666 44.7037L160.858 44.9192C161.283 45.3968 161.972 45.5812 162.579 45.4904C162.883 45.4468 163.177 45.3397 163.415 45.165C163.648 44.997 163.829 44.734 164.033 44.5045C164.426 44.0394 164.786 43.5728 165.005 43.0679C165.237 42.5687 165.271 42.0258 165.101 41.5645L165.049 41.4224L165.2 41.4292C166.117 41.4695 166.938 41.1551 167.542 40.7389C168.158 40.3285 168.566 39.812 168.834 39.3647C169.358 38.444 169.326 37.8085 169.369 37.8215Z" fill="#4EA682"/>
<path d="M126.177 91.0396C126.177 91.0396 103.606 98.9888 97.0773 102.273C91.9768 104.838 88.745 114.144 96.5939 118.023C102.447 120.916 134.129 115.388 134.129 115.388L126.177 91.0396Z" fill="#FFBF9D"/>
<path d="M195.079 170.064L137.731 167.894L135.655 187.416L133.357 226.574L162.631 226.698C162.643 226.532 166.282 204.686 166.282 204.686L167.936 204.253L167.783 226.698H195.22C196.66 208.124 197.483 192.524 197.534 191.056C197.933 179.453 195.079 170.064 195.079 170.064Z" fill="#1C0B54"/>
<path d="M164.222 192.52C164.211 192.546 164.518 192.709 165.093 192.963C165.67 193.206 166.518 193.577 167.656 193.74C168.224 193.819 168.866 193.822 169.535 193.674C170.199 193.527 170.903 193.212 171.459 192.648C172.016 192.083 172.357 191.31 172.562 190.515C172.768 189.712 172.871 188.883 173.004 188.039C173.512 184.653 173.822 181.568 173.984 179.331C174.066 178.214 174.112 177.307 174.133 176.68C174.151 176.054 174.146 175.706 174.117 175.704C174.086 175.702 174.036 176.046 173.965 176.668C173.887 177.381 173.792 178.262 173.679 179.304C173.439 181.528 173.082 184.599 172.576 187.975C172.317 189.644 172.165 191.339 171.172 192.371C170.18 193.383 168.747 193.546 167.69 193.436C166.599 193.32 165.744 193 165.153 192.807C164.564 192.602 164.234 192.491 164.222 192.52Z" fill="#4EA682"/>
<path d="M169.681 176.478C169.686 176.459 169.544 176.377 169.256 176.372C168.972 176.363 168.544 176.467 168.131 176.787C167.736 177.104 167.326 177.662 167.339 178.398C167.337 179.145 167.95 179.853 168.719 180.094C169.482 180.355 170.395 180.147 170.836 179.544C171.282 178.958 171.281 178.265 171.149 177.776C171.006 177.274 170.723 176.937 170.488 176.776C170.252 176.61 170.09 176.592 170.083 176.611C170.03 176.669 170.671 176.929 170.852 177.846C170.933 178.279 170.886 178.86 170.525 179.294C170.18 179.737 169.486 179.893 168.854 179.684C168.22 179.478 167.753 178.942 167.736 178.381C167.702 177.818 168.008 177.322 168.329 177.02C169.018 176.387 169.689 176.557 169.681 176.478Z" fill="#4EA682"/>
<path d="M137.727 186.241C137.726 186.271 137.974 186.297 138.425 186.32C138.877 186.35 139.533 186.334 140.339 186.261C141.95 186.121 144.17 185.634 146.418 184.578C148.662 183.514 150.45 182.108 151.582 180.954C152.151 180.378 152.58 179.882 152.843 179.514C153.113 179.151 153.25 178.943 153.226 178.924C153.167 178.876 152.544 179.654 151.371 180.733C150.202 181.814 148.429 183.146 146.234 184.188C144.035 185.22 141.88 185.742 140.303 185.958C138.724 186.178 137.727 186.164 137.727 186.241Z" fill="#4EA682"/>
<path d="M196.235 166.881C195.11 164.32 195.319 164.084 195.319 164.084L192.13 136.183L189.068 109.04L186.585 88.9496L172.239 85.8776C172.239 85.8776 170.587 90.4539 163.653 90.5926C155.663 90.752 151.085 83.6086 151.085 83.6086L128.146 88.5334L136.773 147.699L137.807 163.636C137.807 163.636 136.095 166.214 136.095 168.98C136.095 171.747 135.982 173.59 135.982 173.59C157.274 179.44 178.403 184.505 197.845 178.843C197.845 178.844 197.36 169.442 196.235 166.881Z" fill="#4EA682"/>
<path d="M181.351 87.9023C181.351 87.9023 189.619 88.8259 192.553 91.9401C195.487 95.0543 204.865 110.462 204.865 110.462L191.243 129.098L184.933 120.487L181.351 87.9023Z" fill="#4EA682"/>
<path d="M187.656 97.5454C187.77 97.5344 189.073 107.776 190.565 120.418C192.058 133.065 193.175 143.323 193.06 143.334C192.946 143.345 191.643 133.105 190.15 120.459C188.658 107.816 187.541 97.5565 187.656 97.5454Z" fill="#1C0B54"/>
<path d="M128.147 88.5332L109.78 96.6855L116.426 115.278L134.129 118.083L128.147 88.5332Z" fill="#4EA682"/>
<path d="M130.675 100.858C130.798 100.845 131.674 108.099 132.632 117.058C133.591 126.02 134.269 133.293 134.146 133.307C134.024 133.32 133.148 126.068 132.189 117.105C131.231 108.146 130.553 100.871 130.675 100.858Z" fill="#1C0B54"/>
<g opacity="0.3">
<path d="M135.202 195.128C145.174 191.542 150.699 184.478 155.16 176.984C159.619 169.491 160.257 158.94 157.402 150.7C157.402 150.7 136.793 170.637 136.647 171.076C136.501 171.516 135.202 195.128 135.202 195.128Z" fill="black"/>
</g>
<g opacity="0.3">
<path d="M163.255 90.3345C163.008 92.3586 164.139 94.3103 165.526 95.805C166.914 97.2998 168.593 98.5175 169.858 100.118C171.301 101.944 172.127 104.17 172.931 106.354C174.609 110.916 176.287 115.477 177.965 120.039C179.41 123.968 180.875 127.935 183.166 131.438C185.458 134.941 188.684 137.99 192.67 139.271L189.644 113.571L173.682 87.9014L163.255 90.3345Z" fill="black"/>
</g>
<path d="M179.795 90.5578C179.795 90.2348 180.051 78.3308 179.253 77.0376C178.455 75.745 177.816 74.5325 177.657 73.3205C177.657 73.3205 178.092 72.6135 177.299 72.1704C176.505 71.7274 175.247 72.8074 175.219 74.7178C175.192 76.6282 175.411 79.896 175.411 79.896C175.411 79.896 166.629 74.9117 164.221 74.773C161.814 74.6348 158.203 74.1917 158.011 75.3548C157.82 76.5178 157.984 76.7948 159.242 77.2378C160.501 77.6808 162.498 77.9856 164.468 78.65C166.438 79.3148 167.34 79.766 167.34 79.766C167.34 79.766 162.853 78.445 161.869 79.766C160.884 81.0864 161.02 82.2773 161.65 82.9143C161.65 82.9143 160.309 83.4682 160.446 84.9356C160.583 86.4034 161.239 86.7634 161.239 86.7634C161.239 86.7634 159.926 87.7604 160.555 89.0343C161.185 90.3082 162.662 89.5052 164.057 90.9452C165.452 92.3852 168.926 95.7634 170.267 96.5112C171.608 97.2591 174.672 97.5634 174.672 97.5634L179.795 90.5578Z" fill="#FFBF9D"/>
<path d="M179.794 90.558C179.797 90.559 179.771 90.5998 179.716 90.6794C179.655 90.7654 179.574 90.882 179.467 91.0332C179.239 91.3514 178.909 91.8118 178.483 92.4074C177.608 93.6161 176.336 95.3743 174.723 97.602L174.702 97.6322L174.665 97.6284C174.059 97.5646 173.427 97.4753 172.771 97.3519C172.116 97.2271 171.433 97.075 170.75 96.8167C170.406 96.6938 170.073 96.5033 169.77 96.2825C169.46 96.0665 169.164 95.8265 168.862 95.5812C168.265 95.0858 167.667 94.5526 167.061 93.9943C166.455 93.4351 165.841 92.85 165.218 92.2404C164.909 91.9332 164.596 91.6222 164.279 91.3073C163.966 90.9814 163.659 90.6698 163.267 90.4548C162.882 90.2306 162.439 90.1217 161.984 90.0209C161.542 89.9196 161.007 89.814 160.674 89.395C160.347 89.0052 160.206 88.4551 160.331 87.9478C160.459 87.4414 160.776 87.0156 161.176 86.6825L161.189 86.8553C160.842 86.6138 160.673 86.2634 160.538 85.9025C160.416 85.5358 160.347 85.159 160.334 84.7601C160.32 84.3593 160.44 83.947 160.67 83.6052C160.907 83.2658 161.223 82.9956 161.608 82.8156L161.573 82.9913C161.011 82.4297 160.926 81.5335 161.185 80.8154C161.306 80.4482 161.493 80.1065 161.716 79.7926C161.819 79.6327 161.982 79.4676 162.16 79.3759C162.338 79.277 162.529 79.2137 162.722 79.1666C163.498 79.0034 164.284 79.0706 165.058 79.17C165.834 79.2785 166.603 79.4431 167.372 79.6582L167.289 79.8684C166.136 79.3385 164.888 78.8916 163.619 78.5052C162.343 78.1241 161.01 77.875 159.68 77.4991C159.204 77.3484 158.73 77.2116 158.286 76.9274C158.065 76.7844 157.883 76.5286 157.849 76.2564C157.808 75.99 157.841 75.7385 157.874 75.4942C157.892 75.3823 157.903 75.2326 157.985 75.1025C158.063 74.9777 158.173 74.887 158.285 74.8164C158.517 74.683 158.763 74.6172 159.006 74.5697C159.494 74.4799 159.981 74.4636 160.462 74.4612C161.425 74.4622 162.373 74.5356 163.309 74.6004C163.778 74.6388 164.237 74.6436 164.718 74.7362C164.949 74.7881 165.173 74.8586 165.399 74.9186L166.057 75.1476C167.785 75.8042 169.403 76.6001 170.965 77.3916C172.525 78.1889 174.024 78.9967 175.462 79.807L175.308 79.9034C175.2 78.0175 175.088 76.2127 175.137 74.466C175.202 73.5958 175.533 72.6996 176.26 72.1951C176.443 72.077 176.656 71.9945 176.881 71.9863C177.104 71.9734 177.334 72.0655 177.498 72.1951C177.67 72.3228 177.815 72.5162 177.851 72.7385C177.888 72.9612 177.836 73.1748 177.731 73.3668L177.743 73.3097C177.932 74.6393 178.596 75.785 179.216 76.8266C179.292 76.95 179.384 77.0969 179.425 77.2495C179.476 77.3988 179.503 77.5476 179.534 77.6954C179.588 77.9916 179.626 78.2839 179.655 78.5719C179.716 79.1484 179.751 79.7076 179.78 80.2486C179.884 82.4119 179.882 84.2796 179.882 85.807C179.877 87.3343 179.856 88.5223 179.838 89.3282C179.827 89.7242 179.818 90.03 179.812 90.2455C179.804 90.4514 179.794 90.558 179.794 90.558C179.794 90.558 179.786 90.4529 179.786 90.245C179.786 90.0295 179.786 89.7238 179.787 89.3278C179.786 88.5127 179.785 87.3276 179.784 85.8074C179.77 84.281 179.757 82.4143 179.64 80.2567C179.608 79.7177 179.57 79.1604 179.507 78.5887C179.476 78.3031 179.437 78.0137 179.383 77.7247C179.321 77.4286 179.263 77.1626 179.08 76.9092C178.454 75.8647 177.772 74.7118 177.569 73.3332L177.565 73.3058L177.581 73.2761C177.662 73.1287 177.708 72.9382 177.676 72.7697C177.647 72.5988 177.538 72.449 177.39 72.3391C177.096 72.0924 176.683 72.1318 176.36 72.3497C175.71 72.8004 175.385 73.6495 175.328 74.4804C175.285 76.1945 175.401 78.0142 175.513 79.8905L175.524 80.0796L175.359 79.987C173.924 79.1825 172.424 78.378 170.866 77.585C169.307 76.7978 167.69 76.0058 165.98 75.3583L165.332 75.1337C165.112 75.0761 164.893 75.0065 164.671 74.9575C164.237 74.8721 163.759 74.8639 163.293 74.827C162.357 74.7631 161.412 74.6902 160.462 74.6902C159.988 74.6926 159.51 74.7103 159.049 74.7953C158.605 74.8855 158.088 75.0434 158.101 75.5273C158.068 75.7625 158.041 76.002 158.075 76.2199C158.106 76.4388 158.229 76.6116 158.417 76.7393C158.8 76.9874 159.284 77.1348 159.745 77.2788C161.053 77.6494 162.396 77.9014 163.683 78.2854C164.97 78.679 166.206 79.121 167.39 79.6658L167.307 79.8761C166.555 79.6649 165.789 79.5002 165.027 79.3932C164.268 79.2934 163.492 79.2314 162.771 79.3836C162.417 79.469 162.08 79.614 161.896 79.9207C161.682 80.2198 161.506 80.5433 161.393 80.8841C161.152 81.5551 161.237 82.349 161.726 82.8396L161.834 82.9481L161.69 83.0153C161.359 83.1698 161.054 83.4247 160.847 83.7257C160.641 84.0314 160.534 84.3938 160.545 84.7577C160.556 85.1215 160.622 85.4964 160.736 85.8338C160.85 86.1646 161.039 86.5006 161.288 86.6738L161.409 86.7578L161.301 86.8471C160.94 87.1447 160.638 87.5513 160.528 87.9953C160.416 88.4364 160.542 88.926 160.826 89.2668C161.103 89.6239 161.578 89.7271 162.026 89.8294C162.481 89.9316 162.951 90.0473 163.36 90.2868C163.775 90.5143 164.11 90.858 164.412 91.1753C164.727 91.4906 165.038 91.8022 165.346 92.1098C165.965 92.7204 166.576 93.3065 167.179 93.8666C167.782 94.4263 168.375 94.9601 168.966 95.455C169.565 95.9359 170.136 96.4327 170.805 96.6742C171.47 96.9295 172.147 97.085 172.797 97.2127C173.447 97.339 174.077 97.4321 174.677 97.4993L174.619 97.5252C176.249 95.3191 177.535 93.5777 178.42 92.3806C178.86 91.7916 179.199 91.3366 179.434 91.0217C179.547 90.8729 179.634 90.7582 179.699 90.6737C179.759 90.5964 179.794 90.558 179.794 90.558Z" fill="#FF9A6C"/>
<path d="M208.256 118.349C207.378 116.672 205.397 113.182 204.441 111.045L198.164 113.326C198.164 113.326 180.381 89.3052 179.814 89.3052C179.246 89.3052 171.522 96.4658 171.522 96.4658C171.863 96.8066 187.874 133.502 194.007 137.477C200.14 141.451 204.711 143.976 208.004 138.297C211.297 132.619 212.117 125.731 208.256 118.349Z" fill="#FFBF9D"/>
<path d="M206.205 124.108C206.191 124.115 206.086 123.948 205.91 123.642C205.736 123.334 205.477 122.893 205.149 122.354C204.496 121.274 203.529 119.822 202.355 118.294C201.181 116.767 200.042 115.444 199.213 114.489C198.823 114.039 198.494 113.66 198.231 113.358C198 113.089 197.879 112.936 197.89 112.925C197.902 112.914 198.046 113.047 198.296 113.298C198.548 113.547 198.902 113.917 199.334 114.381C200.195 115.309 201.358 116.62 202.538 118.155C203.717 119.69 204.669 121.166 205.29 122.272C205.601 122.825 205.839 123.279 205.989 123.601C206.142 123.921 206.219 124.101 206.205 124.108Z" fill="#FF9A6C"/>
<path d="M170.03 70.6164C169.871 70.734 169.209 70.0519 168.158 69.6847C167.116 69.2906 166.171 69.3876 166.124 69.1951C166.104 69.1077 166.33 68.956 166.75 68.8759C167.166 68.7943 167.776 68.813 168.394 69.0367C169.011 69.2618 169.489 69.6396 169.756 69.9693C170.026 70.301 170.102 70.5626 170.03 70.6164Z" fill="#1C0B54"/>
<path d="M186.082 166.716C186.086 166.723 186.01 166.767 185.863 166.845C185.713 166.917 185.5 167.045 185.206 167.164C184.623 167.413 183.741 167.703 182.613 167.862C181.486 168.018 180.12 168.036 178.63 167.842C177.139 167.653 175.527 167.277 173.872 166.779C170.567 165.769 167.641 164.661 165.547 163.804C164.5 163.375 163.661 163.009 163.085 162.747C162.817 162.622 162.599 162.52 162.425 162.439C162.275 162.366 162.198 162.324 162.201 162.317C162.205 162.309 162.288 162.337 162.443 162.396C162.621 162.467 162.845 162.556 163.12 162.665C163.736 162.909 164.579 163.244 165.607 163.652C167.713 164.469 170.643 165.551 173.939 166.558C175.586 167.054 177.183 167.432 178.658 167.631C180.131 167.834 181.479 167.834 182.593 167.7C183.708 167.564 184.585 167.302 185.174 167.08C185.756 166.849 186.073 166.697 186.082 166.716Z" fill="#1C0B54"/>
<path d="M142.649 120.92C134.633 115.52 125.098 113.591 118.848 113.588C112.995 113.584 104.381 114.501 96.5822 118.894C91.7385 121.621 87.8726 125.351 85.0924 129.976C81.7992 135.456 80.014 142.237 79.787 150.132C79.7529 151.317 80.1897 152.438 81.0168 153.29C81.8481 154.147 82.9632 154.619 84.1564 154.619L99.5035 154.63C101.669 154.631 103.531 153.017 103.836 150.874C104.519 146.062 107.381 137.961 118.866 137.77C127.619 137.629 131.221 143.962 132.366 146.693C134.228 151.138 133.751 156.407 131.09 160.787C127.002 167.518 119.489 168.544 115.374 168.556C110.642 168.57 106.79 172.409 106.787 177.113L106.776 193.627C106.775 196.039 108.735 198.002 111.147 198.004L126.1 198.014C128.511 198.015 130.475 196.055 130.476 193.643L130.479 190.173C130.479 190.09 130.531 190.018 130.611 189.99C133.999 188.804 140.567 185.936 146.484 180.06C154.039 172.56 157.873 162.874 157.881 151.274C157.892 134.673 149.604 125.604 142.649 120.92Z" fill="#1C0B54"/>
<path d="M119.366 202.167L118.058 202.166C111.804 202.161 106.713 207.246 106.709 213.5C106.705 219.753 111.789 224.844 118.043 224.848L119.351 224.849C125.604 224.853 130.695 219.769 130.699 213.515C130.703 207.262 125.619 202.171 119.366 202.167Z" fill="#1C0B54"/>
<g opacity="0.3">
<path d="M157.304 140.668C157.104 138.977 156.663 137.359 156.04 135.805C153.046 128.335 146.021 123.245 138.025 122.335L99.4395 117.947C103.635 122.236 109.113 123.09 114.921 124.595C120.728 126.1 126.981 128.357 132.848 129.606C134.731 130.007 136.677 130.507 138.141 131.756C139.57 132.975 140.368 134.757 141.12 136.478C142.236 139.028 143.352 141.578 144.467 144.128C145.741 147.04 147.436 150.328 150.865 150.515C152.249 150.591 153.607 150.073 154.659 149.171C157.142 147.041 157.667 143.724 157.304 140.668Z" fill="black"/>
</g>
<path d="M156.755 130.332C156.456 129.807 150.592 122.636 147.676 119.856C145.794 118.061 142.957 116.823 141.179 116.169C141.179 116.169 111.818 105.566 109.78 104.531L96.5938 118.023C101.184 119.3 132.352 126.803 140.041 128.491C141.386 130.06 142.74 131.346 142.74 131.346L144.974 136.597C144.974 136.597 145.232 138.508 145.071 140.558C144.91 142.608 146.572 141.809 146.572 141.809C146.572 141.809 146.494 143.083 146.602 144.919C146.603 144.937 146.604 144.955 146.606 144.973C146.715 146.346 148.688 146.516 149.107 145.204L150.622 140.471C150.622 140.471 150.424 144.779 150.343 147.176C150.328 147.611 150.405 147.969 150.539 148.263C151.118 149.534 153.011 149.297 153.333 147.937L155.107 140.448L154.533 135.862L156.022 140.053C156.022 140.053 156.433 142.293 156.35 145.44C156.317 146.699 156.741 147.234 157.262 147.424C158.135 147.741 159.057 147.046 159.133 146.12L159.7 139.181C159.7 139.181 157.053 130.858 156.755 130.332Z" fill="#FFBF9D"/>
<path d="M107.886 104.007C107.898 103.953 108.733 104.086 110.045 104.451C111.359 104.811 113.14 105.424 115.065 106.188C116.992 106.954 118.713 107.693 119.96 108.222C121.206 108.754 121.976 109.088 121.954 109.148C121.934 109.204 121.124 108.974 119.845 108.515C118.565 108.059 116.822 107.366 114.901 106.603C112.981 105.84 111.232 105.186 109.951 104.751C108.674 104.313 107.871 104.073 107.886 104.007Z" fill="#FF9A6C"/>
</svg>
