<svg width="411" height="412" viewBox="0 0 411 412" fill="none" xmlns="http://www.w3.org/2000/svg">
<path d="M361.719 350.959C353.323 359.658 345.379 365.268 339.103 369.701C265.328 421.803 178.033 406.615 159.48 402.907C132.084 397.43 79.1269 386.843 40.84 342.526C-17.0848 275.479 -8.06511 169.848 36.8653 100.119C45.0837 87.3642 88.4961 16.5734 176.732 5.22082C230.131 -1.64967 292.377 12.2073 337.454 49.3791C432.075 127.406 425.339 285.034 361.719 350.959Z" fill="#EEF8F4"/>
<path d="M78.4833 117.05C78.5213 115.079 80.1779 113.492 82.2083 113.492H205.365C207.422 113.492 209.608 115.128 209.608 117.126V396.265C209.608 397.756 208.738 399.187 207.65 400.24C206.563 401.293 204.959 401.883 203.423 401.879L78.9177 401.549C77.3684 401.545 75.8536 400.937 74.7698 399.862C73.686 398.786 73.0759 397.33 73.105 395.825L78.4833 117.05Z" fill="#B9B3CA"/>
<g opacity="0.52">
<path d="M149.21 133.274L189.497 133.139L189.482 128.244L149.24 128.367L149.21 133.274Z" fill="white"/>
<path d="M149.1 151.306L189.552 151.127L189.537 146.191L149.13 146.358L149.1 151.306Z" fill="white"/>
<path d="M148.988 169.486L189.608 169.263L189.593 164.286L149.019 164.498L148.988 169.486Z" fill="white"/>
<path d="M148.876 187.818L189.664 187.549L189.649 182.531L148.907 182.788L148.876 187.818Z" fill="white"/>
<path d="M148.763 206.302L189.721 205.987L189.705 200.928L148.794 201.23L148.763 206.302Z" fill="white"/>
<path d="M148.533 243.736L189.835 243.327L189.819 238.182L148.565 238.579L148.533 243.736Z" fill="white"/>
<path d="M148.182 301.083L190.011 300.525L189.995 295.249L148.215 295.792L148.182 301.083Z" fill="white"/>
<path d="M148.648 224.941L189.778 224.579L189.762 219.477L148.68 219.826L148.648 224.941Z" fill="white"/>
<path d="M148.417 262.691L189.893 262.232L189.877 257.044L148.449 257.489L148.417 262.691Z" fill="white"/>
<path d="M148.3 281.806L189.952 281.298L189.936 276.066L148.332 276.56L148.3 281.806Z" fill="white"/>
<path d="M148.063 320.525L190.071 319.917L190.054 314.595L148.096 315.189L148.063 320.525Z" fill="white"/>
<path d="M147.943 340.134L190.131 339.474L190.114 334.107L147.976 334.753L147.943 340.134Z" fill="white"/>
<path d="M147.822 359.912L190.191 359.199L190.175 353.786L147.855 354.484L147.822 359.912Z" fill="white"/>
<path d="M147.699 379.861L190.252 379.095L190.235 373.635L147.733 374.386L147.699 379.861Z" fill="white"/>
<path d="M96.3901 133.452L136.93 133.316L136.974 128.405L96.4795 128.529L96.3901 133.452Z" fill="white"/>
<path d="M96.0615 151.541L136.769 151.361L136.813 146.409L96.1518 146.577L96.0615 151.541Z" fill="white"/>
<path d="M95.73 169.78L136.607 169.555L136.651 164.562L95.8208 164.775L95.73 169.78Z" fill="white"/>
<path d="M95.3955 188.171L136.443 187.9L136.488 182.866L95.4873 183.125L95.3955 188.171Z" fill="white"/>
<path d="M95.0586 206.715L136.278 206.398L136.323 201.322L95.1511 201.627L95.0586 206.715Z" fill="white"/>
<path d="M94.3755 244.274L135.943 243.861L135.989 238.7L94.4696 239.099L94.3755 244.274Z" fill="white"/>
<path d="M93.3296 301.813L135.431 301.252L135.478 295.958L93.4261 296.505L93.3296 301.813Z" fill="white"/>
<path d="M94.7188 225.416L136.112 225.051L136.157 219.933L94.812 220.284L94.7188 225.416Z" fill="white"/>
<path d="M94.0298 263.291L135.774 262.83L135.82 257.625L94.1247 258.072L94.0298 263.291Z" fill="white"/>
<path d="M93.6812 282.471L135.603 281.96L135.65 276.71L93.7769 277.207L93.6812 282.471Z" fill="white"/>
<path d="M92.9751 321.322L135.257 320.71L135.305 315.371L93.0725 315.969L92.9751 321.322Z" fill="white"/>
<path d="M92.6172 340.999L135.082 340.335L135.13 334.949L92.7153 335.599L92.6172 340.999Z" fill="white"/>
<path d="M92.2563 360.846L134.905 360.129L134.954 354.697L92.3554 355.399L92.2563 360.846Z" fill="white"/>
<path d="M91.8926 380.865L134.727 380.094L134.776 374.615L91.9925 375.371L91.8926 380.865Z" fill="white"/>
</g>
<path d="M7.81049 194.045C7.86451 191.765 10.2057 189.889 13.0754 189.889H121.546C124.454 189.889 127.31 191.863 127.31 194.174V400.738C127.31 401.85 126.504 402.916 125.513 403.701C124.523 404.486 123.055 404.926 121.656 404.923L8.24437 404.677C6.8331 404.673 5.45142 404.221 4.46441 403.419C3.47739 402.617 2.92084 401.51 2.94718 400.388L7.81049 194.045Z" fill="#B9B3CA"/>
<path d="M87.6934 214.23L118.594 214.197L118.839 201.61H87.9085L87.6934 214.23Z" fill="url(#paint0_linear_297_4845)"/>
<path d="M53.0571 214.224L83.9269 214.19L84.1385 201.61H53.2387L53.0571 214.224Z" fill="url(#paint1_linear_297_4845)"/>
<path d="M18.4556 214.217L49.2944 214.184L49.4723 201.61H18.6037L18.4556 214.217Z" fill="url(#paint2_linear_297_4845)"/>
<path d="M87.3071 236.823L118.154 236.838L118.398 224.334L87.5215 224.324L87.3071 236.823Z" fill="url(#paint3_linear_297_4845)"/>
<path d="M52.731 236.805L83.547 236.82L83.7579 224.322L52.9119 224.312L52.731 236.805Z" fill="url(#paint4_linear_297_4845)"/>
<path d="M18.1899 236.787L48.9751 236.803L49.1524 224.311L18.3375 224.301L18.1899 236.787Z" fill="url(#paint5_linear_297_4845)"/>
<path d="M86.9224 259.26L117.716 259.285L117.959 246.824L87.136 246.804L86.9224 259.26Z" fill="url(#paint6_linear_297_4845)"/>
<path d="M52.4062 259.231L83.1687 259.257L83.3787 246.802L52.5865 246.782L52.4062 259.231Z" fill="url(#paint7_linear_297_4845)"/>
<path d="M17.9253 259.202L48.6569 259.228L48.8334 246.779L18.0722 246.759L17.9253 259.202Z" fill="url(#paint8_linear_297_4845)"/>
<path d="M86.5391 281.619L117.279 281.655L117.521 269.237L86.7519 269.207L86.5391 281.619Z" fill="url(#paint9_linear_297_4845)"/>
<path d="M52.083 281.579L82.7922 281.615L83.0015 269.203L52.2627 269.173L52.083 281.579Z" fill="url(#paint10_linear_297_4845)"/>
<path d="M17.6616 281.539L48.3399 281.575L48.516 269.169L17.808 269.139L17.6616 281.539Z" fill="url(#paint11_linear_297_4845)"/>
<path d="M86.1567 303.901L116.843 303.947L117.085 291.572L86.369 291.532L86.1567 303.901Z" fill="url(#paint12_linear_297_4845)"/>
<path d="M51.7603 303.851L82.4162 303.896L82.6247 291.527L51.9393 291.487L51.7603 303.851Z" fill="url(#paint13_linear_297_4845)"/>
<path d="M17.3984 303.8L48.0238 303.845L48.1991 291.482L17.5443 291.442L17.3984 303.8Z" fill="url(#paint14_linear_297_4845)"/>
<path d="M85.7764 326.107L116.41 326.162L116.651 313.83L85.9877 313.78L85.7764 326.107Z" fill="url(#paint15_linear_297_4845)"/>
<path d="M51.4395 326.045L82.0424 326.1L82.2502 313.774L51.6179 313.724L51.4395 326.045Z" fill="url(#paint16_linear_297_4845)"/>
<path d="M17.1367 325.983L47.7091 326.038L47.8838 313.718L17.2822 313.668L17.1367 325.983Z" fill="url(#paint17_linear_297_4845)"/>
<path d="M85.396 348.236L115.976 348.301L116.217 336.011L85.6067 335.951L85.396 348.236Z" fill="url(#paint18_linear_297_4845)"/>
<path d="M51.1187 348.163L81.6688 348.228L81.8758 335.944L51.2964 335.884L51.1187 348.163Z" fill="url(#paint19_linear_297_4845)"/>
<path d="M16.8755 348.09L47.3951 348.155L47.5695 335.877L17.0205 335.818L16.8755 348.09Z" fill="url(#paint20_linear_297_4845)"/>
<path d="M85.0181 370.288L115.546 370.363L115.785 358.116L85.2281 358.046L85.0181 370.288Z" fill="url(#paint21_linear_297_4845)"/>
<path d="M50.7998 370.205L81.2971 370.28L81.5036 358.038L50.9769 357.969L50.7998 370.205Z" fill="url(#paint22_linear_297_4845)"/>
<path d="M16.6152 370.121L47.0824 370.196L47.2558 357.96L16.7597 357.891L16.6152 370.121Z" fill="url(#paint23_linear_297_4845)"/>
<path d="M84.6411 392.266L115.116 392.35L115.355 380.144L84.8503 380.065L84.6411 392.266Z" fill="url(#paint24_linear_297_4845)"/>
<path d="M50.4814 392.171L80.9264 392.256L81.1322 380.056L50.658 379.977L50.4814 392.171Z" fill="url(#paint25_linear_297_4845)"/>
<path d="M16.356 392.077L46.7706 392.161L46.9437 379.967L16.4998 379.889L16.356 392.077Z" fill="url(#paint26_linear_297_4845)"/>
<path d="M290.95 198.978C291.004 196.698 293.346 194.821 296.215 194.821H404.686C407.594 194.821 410.45 196.795 410.45 199.106V405.671C410.45 406.782 409.644 407.849 408.653 408.634C407.663 409.419 406.195 409.858 404.796 409.855L291.384 409.609C289.973 409.606 288.591 409.153 287.604 408.352C286.617 407.55 286.061 406.442 286.087 405.321L290.95 198.978Z" fill="#B9B3CA"/>
<g opacity="0.5">
<path d="M370.833 219.162L401.734 219.13L401.979 206.543H371.048L370.833 219.162Z" fill="white"/>
<path d="M336.197 219.156L367.067 219.123L367.278 206.543H336.378L336.197 219.156Z" fill="white"/>
<path d="M301.595 219.15L332.434 219.117L332.612 206.543H301.743L301.595 219.15Z" fill="white"/>
<path d="M370.447 241.755L401.294 241.77L401.538 229.266L370.661 229.256L370.447 241.755Z" fill="white"/>
<path d="M335.871 241.737L366.687 241.753L366.898 229.255L336.052 229.245L335.871 241.737Z" fill="white"/>
<path d="M301.33 241.72L332.115 241.735L332.292 229.244L301.477 229.233L301.33 241.72Z" fill="white"/>
<path d="M370.062 264.192L400.855 264.218L401.099 251.756L370.276 251.736L370.062 264.192Z" fill="white"/>
<path d="M335.546 264.163L366.309 264.189L366.519 251.734L335.727 251.714L335.546 264.163Z" fill="white"/>
<path d="M301.065 264.134L331.797 264.16L331.973 251.712L301.212 251.691L301.065 264.134Z" fill="white"/>
<path d="M369.679 286.552L400.419 286.587L400.661 274.169L369.892 274.139L369.679 286.552Z" fill="white"/>
<path d="M335.223 286.512L365.932 286.547L366.141 274.135L335.402 274.105L335.223 286.512Z" fill="white"/>
<path d="M300.801 286.471L331.48 286.507L331.656 274.101L300.948 274.071L300.801 286.471Z" fill="white"/>
<path d="M369.296 308.834L399.983 308.879L400.224 296.504L369.509 296.464L369.296 308.834Z" fill="white"/>
<path d="M334.9 308.783L365.556 308.828L365.764 296.46L335.079 296.419L334.9 308.783Z" fill="white"/>
<path d="M300.538 308.732L331.163 308.777L331.339 296.414L300.684 296.375L300.538 308.732Z" fill="white"/>
<path d="M368.916 331.039L399.549 331.094L399.79 318.762L369.127 318.712L368.916 331.039Z" fill="white"/>
<path d="M334.579 330.977L365.182 331.032L365.39 318.706L334.757 318.656L334.579 330.977Z" fill="white"/>
<path d="M300.276 330.915L330.849 330.97L331.024 318.65L300.422 318.601L300.276 330.915Z" fill="white"/>
<path d="M368.536 353.168L399.116 353.233L399.357 340.943L368.747 340.884L368.536 353.168Z" fill="white"/>
<path d="M334.258 353.095L364.808 353.16L365.015 340.876L334.436 340.817L334.258 353.095Z" fill="white"/>
<path d="M300.015 353.022L330.535 353.087L330.709 340.81L300.16 340.75L300.015 353.022Z" fill="white"/>
<path d="M368.158 375.221L398.686 375.295L398.925 363.048L368.368 362.979L368.158 375.221Z" fill="white"/>
<path d="M333.939 375.137L364.437 375.212L364.643 362.97L334.117 362.901L333.939 375.137Z" fill="white"/>
<path d="M299.755 375.053L330.222 375.128L330.396 362.892L299.899 362.823L299.755 375.053Z" fill="white"/>
<path d="M367.781 397.198L398.256 397.282L398.494 385.076L367.99 384.998L367.781 397.198Z" fill="white"/>
<path d="M333.621 397.103L364.066 397.188L364.272 384.988L333.798 384.909L333.621 397.103Z" fill="white"/>
<path d="M299.496 397.009L329.91 397.093L330.083 384.9L299.64 384.821L299.496 397.009Z" fill="white"/>
</g>
<path d="M183.117 255.17C174.265 227.376 157.137 205.225 136.848 192.203C118.712 180.562 105.645 162.433 100.807 141.492C100.298 139.291 99.694 137.083 98.9911 134.877C88.3442 101.449 59.1426 80.9028 33.7672 88.9849C8.39158 97.0669 -3.54851 130.717 7.09839 164.144C9.27515 170.98 12.2285 177.275 15.7664 182.896C27.0574 200.835 31.4758 222.352 27.3214 243.163C23.6082 261.761 24.6158 282.701 31.2528 303.539C41.1513 334.618 61.3966 358.642 84.8383 370.736C93.705 375.311 101.701 381.463 108.321 388.896C119.324 401.249 134.83 407.055 149.076 402.518C164.445 397.623 174.046 382.06 174.737 363.902C175.128 353.627 177.544 343.556 181.482 334.035C190.779 311.557 192.068 283.271 183.117 255.17Z" fill="#57B890"/>
<path opacity="0.57" d="M53.9788 121.715C64.3302 142.752 73.9943 164.104 83.4338 185.558C85.796 190.92 88.0716 196.32 90.3644 201.712L93.8024 209.801L97.1724 217.919C99.3979 223.339 101.699 228.729 103.863 234.175L110.356 250.512C114.545 261.459 118.827 272.37 122.811 283.395C124.811 288.904 126.919 294.373 128.806 299.923L134.545 316.544C141.971 338.78 148.839 361.216 154.553 383.956L153.572 384.213L148.645 367.363L147.423 363.15L146.096 358.966L143.425 350.606L140.77 342.242C139.891 339.453 138.907 336.696 137.98 333.921C136.089 328.385 134.243 322.833 132.316 317.309C124.466 295.261 116.322 273.317 107.723 251.545C103.341 240.692 99.0519 229.802 94.5932 218.979L91.2716 210.853L87.8816 202.754C85.6249 197.354 83.368 191.954 81.0564 186.576C76.5256 175.782 71.9166 165.019 67.2198 154.295C62.5792 143.545 57.8359 132.838 53.0615 122.149L53.9788 121.715Z" fill="white"/>
<path d="M257.175 199.923C253.037 169.568 239.363 143.551 220.795 126.405C204.196 111.076 193.984 89.9556 192.754 67.4176C192.625 65.0486 192.398 62.6555 192.07 60.2456C187.094 23.7391 160.693 -2.80658 133.1 0.95414C105.507 4.71472 87.1729 37.3577 92.1485 73.8642C93.1659 81.3291 95.08 88.3757 97.7171 94.8314C106.133 115.434 106.828 138.491 98.816 159.265C91.6563 177.829 88.9397 199.672 92.0414 222.429C96.6675 256.371 113.218 284.89 135.201 301.649C143.516 307.989 150.65 315.801 156.139 324.69C165.26 339.461 180.194 348.278 195.685 346.167C212.396 343.889 225.078 329.532 229.046 310.875C231.291 300.317 235.586 290.338 241.35 281.202C254.958 259.638 261.358 230.613 257.175 199.923Z" fill="#1C0B54"/>
<path opacity="0.57" d="M148.055 38.4731C154.948 62.1089 161.076 85.947 166.955 109.849C168.427 115.824 169.804 121.822 171.199 127.815L173.291 136.805L175.307 145.813C176.628 151.823 178.032 157.816 179.285 163.841L183.046 181.917C185.399 193.999 187.854 206.061 189.982 218.187C191.055 224.248 192.246 230.287 193.195 236.371L196.128 254.603C199.791 278.95 202.845 303.401 204.656 327.959L203.598 328.048L201.544 309.725L201.04 305.145L200.422 300.578L199.17 291.446L197.934 282.313C197.528 279.269 197.008 276.239 196.551 273.201C195.596 267.131 194.689 261.054 193.695 254.991C189.56 230.762 185.103 206.588 180.148 182.508C177.579 170.488 175.113 158.446 172.459 146.443L170.494 137.435L168.454 128.444C167.097 122.449 165.74 116.453 164.323 110.472C161.59 98.4855 158.771 86.5173 155.855 74.5728C153.002 62.613 150.035 50.6771 147.032 38.7559L148.055 38.4731Z" fill="white"/>
<path d="M383.995 408.553H143.137C141.255 408.553 139.729 407.027 139.729 405.145V79.6673C139.729 77.7849 141.255 76.2588 143.137 76.2588H383.995C385.877 76.2588 387.404 77.7849 387.404 79.6673V405.145C387.403 407.027 385.877 408.553 383.995 408.553Z" fill="#CBE9DD"/>
<path d="M345.24 364.781H181.364C175.152 364.781 170.117 359.746 170.117 353.534V137.429C170.117 131.217 175.152 126.181 181.364 126.181H345.24C351.452 126.181 356.488 131.217 356.488 137.429V353.534C356.488 359.746 351.452 364.781 345.24 364.781Z" fill="#1C0B54"/>
<path d="M339.039 348.182H187.713C185.85 348.182 184.339 346.672 184.339 344.808V149.183C184.339 147.319 185.85 145.809 187.713 145.809H339.039C340.903 145.809 342.413 147.319 342.413 149.183V344.808C342.413 346.672 340.903 348.182 339.039 348.182Z" fill="#418A6C"/>
<path d="M263.115 109.148C267.207 109.148 270.524 105.831 270.524 101.739C270.524 97.6469 267.207 94.3296 263.115 94.3296C259.022 94.3296 255.705 97.6469 255.705 101.739C255.705 105.831 259.022 109.148 263.115 109.148Z" fill="#469373"/>
<path d="M310.983 221.351L215.659 222.936C208.404 223.057 202.501 228.698 202.501 235.537V295.568C202.501 302.406 208.404 307.713 215.659 307.421L310.983 303.594C317.83 303.319 323.361 297.739 323.361 291.13V233.112C323.361 226.503 317.83 221.238 310.983 221.351Z" fill="#CBE9DD"/>
<path d="M315.807 210.494C312.92 210.537 310.576 208.309 310.576 205.517V192.379C310.576 179.198 299.427 168.507 285.625 168.547L254.571 168.636C240.414 168.677 228.813 179.684 228.813 193.173V206.618C228.813 209.475 226.355 211.828 223.318 211.873C220.276 211.918 217.806 209.632 217.806 206.766V193.28C217.806 174.028 234.393 158.365 254.571 158.365H285.625C305.232 158.365 321.023 173.578 321.023 192.277V205.377C321.023 208.16 318.69 210.451 315.807 210.494Z" fill="#CBE9DD"/>
<path d="M278.743 254.621C278.743 247.95 272.919 242.712 265.839 243.193C259.578 243.618 254.401 248.632 254.063 254.619C253.801 259.264 256.353 263.279 260.234 265.31C261.885 266.174 262.705 267.995 262.384 269.795L259.662 285.069C259.315 287.014 260.879 288.723 262.936 288.649L269.931 288.398C271.977 288.325 273.53 286.512 273.186 284.598L270.466 269.467C270.141 267.662 271.08 265.869 272.735 264.879C276.334 262.728 278.743 258.911 278.743 254.621Z" fill="#EEF8F4"/>
<path d="M87.2919 409.133C87.2939 409.003 87.2852 408.87 87.2516 408.737C85.2749 400.9 75.4639 396.019 75.4639 396.019L71.5762 396.324C69.341 403.231 69.6283 407.467 69.9873 409.354C69.9972 409.407 70.0133 409.457 70.0274 409.508C73.2343 409.795 79.8351 409.982 87.2919 409.133Z" fill="#57B890"/>
<path d="M70.0273 409.508C70.2005 410.139 70.6657 410.629 71.261 410.754C75.8231 411.714 83.0739 410.942 86.1182 410.544C86.7899 410.456 87.2809 409.835 87.292 409.133C79.8351 409.982 73.2343 409.795 70.0273 409.508Z" fill="#CBE9DD"/>
<path d="M70.0132 390.533L71.6597 398.46C71.7803 399.04 72.2266 399.475 72.7672 399.526C73.4288 399.588 74.3708 399.625 75.3182 399.486C76.1676 399.361 76.7592 398.498 76.6086 397.571L75.4641 390.533H70.0132Z" fill="url(#paint27_linear_297_4845)"/>
<path d="M104.129 409.408C99.8352 409.288 97.6145 408.782 96.4663 408.313C96.4636 408.74 96.466 409.174 96.4799 409.625C96.4947 410.105 96.8507 410.489 97.2889 410.487L120.864 410.334C121.616 410.329 122.056 409.457 121.73 408.767C118.639 409.022 110.766 409.594 104.129 409.408Z" fill="#CBE9DD"/>
<path d="M121.73 408.767C121.702 408.707 121.677 408.646 121.637 408.589C119.555 405.68 114.252 399.887 103.774 397.375L98.747 397.216C98.747 397.216 96.5086 401.107 96.4663 408.313C97.6145 408.782 99.8352 409.288 104.129 409.408C110.766 409.594 118.639 409.023 121.73 408.767Z" fill="#469373"/>
<path d="M97.5913 389.832C97.6706 390.202 98.7165 395.843 99.1217 398.029C99.218 398.549 99.6229 398.93 100.105 398.957C100.965 399.006 102.353 399.011 103.547 398.687C104.191 398.512 104.624 397.856 104.578 397.127L104.016 388.206L97.5913 389.832Z" fill="url(#paint28_linear_297_4845)"/>
<path d="M93.7819 285.693C93.7819 285.693 100.697 333.208 105.687 389.751C105.78 390.804 104.941 391.72 103.906 391.938C102.382 392.259 100.141 392.64 98.2859 392.588C97.2957 392.561 96.4679 391.826 96.3012 390.85C94.6013 380.88 82.4707 327.376 79.287 315.6C79.287 315.6 75.6298 365.621 76.7989 391.572C76.828 392.217 76.3555 392.777 75.7139 392.851C74.7405 392.963 73.1835 393.049 71.2017 392.838C70.4496 392.758 69.8427 392.19 69.7351 391.441C68.5242 383.004 61.5546 332.782 61.851 296.604C61.8677 294.563 64.2447 277.801 64.2447 277.801L93.7819 285.693Z" fill="#469373"/>
<path d="M96.4614 205.788L97.3872 230.652C100.017 231.556 102.52 232.26 104.904 232.786C106.395 227.985 109.679 222.093 112.367 217.712C102.489 214.22 96.4614 205.788 96.4614 205.788Z" fill="#469373"/>
<path d="M63.2054 288.432C62.4943 288.179 61.9988 287.534 61.9214 286.784C61.0018 277.863 56.5496 222.548 84.6578 199.794C84.6578 199.794 86.2697 195.576 99.5193 205.943C112.769 216.31 105.675 227.177 102.503 242.164C98.6644 260.301 91.9295 275.126 94.9093 286.287C95.115 287.057 94.71 287.866 93.962 288.141C83.6698 291.935 73.4171 292.06 63.2054 288.432Z" fill="#1C0B54"/>
<path d="M95.6219 183.22C95.613 184.007 84.3892 199.949 84.3892 199.949C84.3892 199.949 86.4037 203.917 96.0215 207.139L104.323 190.069L95.6219 183.22Z" fill="url(#paint29_linear_297_4845)"/>
<path d="M90.062 237.771C89.9919 237.771 89.9207 237.751 89.8584 237.708C80.8921 231.65 76.6741 221.872 76.6324 221.774C76.5541 221.588 76.6405 221.374 76.8256 221.296C77.0115 221.217 77.2247 221.303 77.3038 221.489C77.3444 221.585 81.484 231.17 90.2664 237.104C90.4333 237.217 90.4771 237.443 90.3642 237.61C90.2942 237.714 90.1791 237.771 90.062 237.771Z" fill="#1C0B54"/>
<path d="M103.417 224.218C103.298 224.218 103.18 224.159 103.111 224.051C103.083 224.009 100.344 219.745 95.127 210.403C93.5226 207.53 91.414 205.711 88.8601 204.996C84.6304 203.814 80.554 206.082 80.5138 206.104C80.3383 206.201 80.1165 206.143 80.0169 205.968C79.9176 205.793 79.9784 205.571 80.1535 205.471C80.3293 205.371 84.5221 203.025 89.0496 204.293C91.8007 205.06 94.0597 206.996 95.7634 210.047C100.968 219.365 103.696 223.614 103.723 223.656C103.833 223.825 103.784 224.051 103.615 224.16C103.553 224.199 103.485 224.218 103.417 224.218Z" fill="#1C0B54"/>
<path d="M104.459 174.085C104.459 174.085 108.453 183.259 108.721 188.074C108.989 192.89 110.027 196.014 104.459 196.984C98.8912 197.953 94.2011 195.18 91.6601 190.383C91.6601 190.383 87.6789 182.993 88.572 179.966C89.465 176.939 104.459 174.085 104.459 174.085Z" fill="url(#paint30_linear_297_4845)"/>
<path d="M93.5628 186.935L93.8798 186.795C94.2831 186.617 94.456 186.137 94.2533 185.745C93.4682 184.228 91.9375 180.752 93.9148 179.941C96.463 178.896 106.557 176.838 108.734 173.256C110.827 169.814 108.973 165.371 106.186 164.107C105.999 164.022 105.78 164.09 105.684 164.271L105.452 164.71C105.293 165.011 104.848 164.965 104.754 164.639C104.663 164.325 104.246 164.264 104.072 164.541C103.403 165.612 101.596 167.35 96.7627 168.242C89.894 169.509 85.3528 172.289 85.2397 177.035C85.2326 177.337 84.9118 177.504 84.6542 177.347C84.1471 177.038 83.3356 176.893 82.2509 177.805C80.3644 179.391 81.1365 183.506 85.2717 186.891C85.4682 187.051 85.4666 187.358 85.2538 187.497C84.5041 187.984 83.3866 189.146 86.2823 190.694C89.2773 192.295 91.5139 192.163 92.3753 192.021C92.5895 191.986 92.7276 191.778 92.6808 191.566L91.7617 187.395C91.7097 187.159 91.8895 186.935 92.1311 186.935H93.5628V186.935Z" fill="#469373"/>
<path d="M93.7358 187.815C93.7358 187.815 92.2122 181.955 89.5849 183.598C86.9575 185.241 90.9483 190.164 93.0607 190.383L93.7358 187.815Z" fill="url(#paint31_linear_297_4845)"/>
<path d="M145.449 203.918C145.449 203.918 143.447 200.369 143.575 198.644C143.702 196.92 142.628 194.388 143.771 194.575C144.914 194.763 145.15 194.61 145.461 196.679C145.771 198.748 149.38 207.785 145.449 203.918Z" fill="url(#paint32_linear_297_4845)"/>
<path d="M145.825 198.275L145.779 205.365C132.229 219.995 121.261 220.856 112.367 217.712C109.678 222.093 106.395 227.986 104.904 232.786C141.09 240.764 149.612 207.497 149.612 207.497C154.513 205.467 155.501 204.28 155.29 202.949L145.825 198.275Z" fill="url(#paint33_linear_297_4845)"/>
<path d="M156.246 191.241C155.09 190.771 152.827 186.457 152.393 187.876C151.96 189.296 152.576 191.241 152.393 191.844C152.21 192.448 149.389 199.392 149.952 200.935C150.359 202.048 152.599 201.884 152.941 203.705C153.054 204.309 153.537 204.743 154.098 204.743C154.658 204.744 155.142 204.311 155.256 203.706C155.301 203.464 157.403 191.71 156.246 191.241Z" fill="url(#paint34_linear_297_4845)"/>
<path d="M119.312 176.475C110.174 194.547 117.417 216.605 135.49 225.742C150.179 233.169 167.501 229.774 178.378 218.539L241.17 250.286C242.212 250.813 243.453 250.771 244.457 250.172L250.598 246.514C250.704 246.451 250.803 246.382 250.9 246.309C250.927 246.289 250.953 246.267 250.979 246.246C251.051 246.189 251.12 246.13 251.186 246.068C251.208 246.047 251.23 246.026 251.252 246.004C251.334 245.924 251.411 245.84 251.484 245.752C251.485 245.751 251.486 245.749 251.487 245.748C252.258 244.81 252.494 243.5 252.022 242.316L247.031 229.807C246.723 229.034 246.143 228.401 245.401 228.025L239.111 224.845L237.447 228.137L232.044 225.406L233.708 222.114L228.654 219.558L227.123 222.586L220.556 219.266L222.087 216.238L219.641 215.001L218.853 216.56L213.348 213.777L214.136 212.218L209.854 210.053L208.19 213.345L205.132 211.798L206.796 208.507L204.146 207.167L202.481 210.458L197.181 207.778L198.845 204.486L191.394 200.719L188.203 199.106C190.803 183.686 183.269 167.723 168.579 160.296C150.507 151.159 128.449 158.402 119.312 176.475ZM140.705 178.971C144.365 180.821 145.831 185.288 143.981 188.948C142.131 192.607 137.664 194.074 134.005 192.224C130.345 190.373 128.878 185.907 130.729 182.247C132.579 178.588 137.046 177.121 140.705 178.971Z" fill="#B9B3CA"/>
<path d="M170.208 187.549L199.975 202.599L198.311 205.891L203.611 208.571L205.276 205.279L207.926 206.62L206.262 209.911L209.32 211.458L210.984 208.166L215.266 210.331L214.478 211.889L219.983 214.673L220.771 213.114L223.217 214.351L221.686 217.379L228.253 220.699L229.784 217.671L234.839 220.226L233.174 223.518L238.577 226.25L240.241 222.958L246.531 226.138C247.273 226.514 247.853 227.147 248.161 227.92L253.152 240.429C253.774 241.988 253.17 243.768 251.728 244.627L245.587 248.285C244.583 248.883 243.342 248.926 242.3 248.399L166.5 210.074L170.208 187.549Z" fill="#1C0B54"/>
<path d="M136.62 223.855C154.693 232.993 176.75 225.749 185.888 207.677C195.025 189.605 187.782 167.547 169.71 158.409C151.637 149.272 129.579 156.515 120.442 174.587C111.305 192.66 118.548 214.718 136.62 223.855ZM135.135 190.336C131.476 188.486 130.009 184.019 131.859 180.36C133.709 176.7 138.176 175.234 141.836 177.084C145.495 178.934 146.962 183.401 145.112 187.06C143.261 190.72 138.795 192.187 135.135 190.336Z" fill="url(#paint35_linear_297_4845)"/>
<path d="M179.508 216.651L242.3 248.399C243.343 248.926 244.583 248.883 245.587 248.285L251.728 244.627C252.654 244.075 253.228 243.143 253.361 242.134C247.637 235.933 193.238 212.179 191.203 207.29C190.48 205.551 190.356 202.917 192.524 198.832L189.333 197.219C191.933 181.799 184.399 165.836 169.71 158.409C151.637 149.272 129.579 156.515 120.442 174.587C111.305 192.66 118.548 214.718 136.62 223.855C151.309 231.282 168.631 227.887 179.508 216.651ZM141.835 177.084C145.495 178.934 146.962 183.401 145.112 187.06C143.261 190.72 138.794 192.186 135.135 190.336C131.476 188.486 130.009 184.02 131.859 180.36C133.709 176.7 138.176 175.234 141.835 177.084Z" fill="#1C0B54"/>
<path d="M139.867 217.433C154.393 224.777 172.121 218.955 179.465 204.43C186.809 189.905 180.988 172.176 166.462 164.832C151.937 157.488 134.208 163.309 126.864 177.835C119.52 192.36 125.341 210.089 139.867 217.433ZM135.135 190.336C131.476 188.486 130.009 184.02 131.859 180.36C133.709 176.7 138.176 175.234 141.835 177.084C145.495 178.934 146.962 183.401 145.111 187.06C143.261 190.72 138.794 192.187 135.135 190.336Z" fill="#EEF8F4"/>
<path d="M90.0615 237.77C90.0615 237.77 124.592 249.33 143.907 234.624C145.105 233.712 146.616 233.315 148.102 233.557L155.481 234.759C158.578 235.263 161.529 233.256 162.196 230.19C162.577 228.441 162.761 226.528 162.373 224.885L148.443 224.045L148.841 222.237C148.841 222.237 142.684 223.743 142.56 228.56C142.56 228.56 128.118 238.021 101.777 223.337C101.777 223.337 91.5194 231.364 90.0615 237.77Z" fill="url(#paint36_linear_297_4845)"/>
<g opacity="0.3">
<path d="M356.77 64.6513C355.966 64.6185 355.341 63.9397 355.374 63.1359C355.438 61.5738 355.436 59.986 355.366 58.4159C355.331 57.6216 355.939 56.9477 356.729 56.8975C356.738 56.8969 356.747 56.8963 356.757 56.8958C357.561 56.8601 358.241 57.4829 358.277 58.287C358.35 59.9395 358.353 61.6114 358.286 63.2556C358.255 64.0075 357.659 64.6029 356.924 64.6495C356.873 64.6526 356.822 64.6537 356.77 64.6513ZM354.503 50.7974C354.22 49.2522 353.868 47.7048 353.457 46.1963C353.246 45.4206 353.703 44.6193 354.479 44.4076C355.259 44.1979 356.057 44.6541 356.268 45.4305C356.701 47.0174 357.071 48.6465 357.369 50.2721C357.514 51.0635 356.99 51.8228 356.198 51.9676C356.141 51.9781 356.083 51.9851 356.026 51.9888C355.3 52.035 354.637 51.5314 354.503 50.7974ZM350.932 38.9611C350.314 37.5217 349.626 36.0918 348.887 34.7102C348.507 34.001 348.774 33.1178 349.483 32.7381C350.192 32.3594 351.075 32.6257 351.455 33.3349C352.234 34.7897 352.959 36.296 353.61 37.8114C353.927 38.5507 353.585 39.4074 352.846 39.7252C352.688 39.7928 352.525 39.8306 352.363 39.8408C351.766 39.8787 351.182 39.5428 350.932 38.9611ZM344.804 28.2205C343.879 26.9539 342.888 25.7133 341.859 24.532C341.331 23.9251 341.394 23.0047 342 22.4764C342.608 21.9486 343.527 22.0122 344.056 22.6179C345.14 23.8618 346.183 25.1683 347.157 26.5007C347.631 27.1503 347.49 28.062 346.84 28.5366C346.608 28.7065 346.342 28.7975 346.074 28.8145C345.594 28.845 345.109 28.6373 344.804 28.2205ZM336.436 19.1127C335.256 18.0859 334.015 17.0949 332.747 16.1684C332.097 15.6931 331.956 14.7815 332.431 14.1322C332.906 13.4823 333.818 13.3411 334.467 13.8166C335.8 14.7914 337.107 15.8342 338.349 16.9146C338.956 17.4423 339.02 18.3628 338.492 18.9699C338.226 19.2759 337.86 19.444 337.485 19.4679C337.116 19.4911 336.738 19.3748 336.436 19.1127ZM326.262 12.0836C324.882 11.3421 323.452 10.651 322.013 10.0289C321.275 9.70972 320.935 8.85189 321.254 8.11377C321.573 7.37506 322.43 7.03486 323.169 7.35405C324.684 8.00841 326.188 8.73632 327.641 9.51661C328.35 9.89766 328.616 10.7806 328.235 11.4896C327.988 11.9501 327.528 12.2233 327.042 12.2542C326.78 12.2709 326.51 12.2174 326.262 12.0836ZM272.164 11.4054C271.786 10.6956 272.054 9.81286 272.764 9.43419C274.219 8.65878 275.727 7.9362 277.247 7.28716C277.987 6.97108 278.843 7.31469 279.159 8.05488C279.475 8.79433 279.131 9.65053 278.391 9.96661C276.948 10.5828 275.516 11.2691 274.135 12.0056C273.946 12.1067 273.744 12.1616 273.543 12.1743C272.99 12.2094 272.442 11.926 272.164 11.4054ZM314.789 7.48753C313.279 7.07185 311.733 6.71656 310.193 6.43229C309.402 6.2858 308.879 5.52578 309.025 4.73468C309.171 3.943 309.931 3.42433 310.723 3.56684C312.344 3.86649 313.973 4.24043 315.563 4.67845C316.338 4.89213 316.794 5.69403 316.58 6.47003C316.411 7.08532 315.871 7.49937 315.268 7.53754C315.111 7.54746 314.95 7.53148 314.789 7.48753ZM283.847 6.42919C283.636 5.65274 284.096 4.85262 284.873 4.64249C286.464 4.21247 288.095 3.84548 289.719 3.55086C290.511 3.40362 291.269 3.93323 291.413 4.72462C291.556 5.51616 291.031 6.27425 290.239 6.41809C288.695 6.69806 287.145 7.0467 285.633 7.45571C285.536 7.48175 285.44 7.497 285.344 7.50321C284.667 7.54613 284.03 7.1093 283.847 6.42919ZM302.58 5.57091C301.016 5.50358 299.428 5.50284 297.861 5.56928C297.057 5.60376 296.378 4.97974 296.344 4.17547C296.31 3.38216 296.918 2.71004 297.707 2.65988C297.717 2.65929 297.727 2.65855 297.737 2.65855C299.387 2.58811 301.058 2.58855 302.704 2.65914C303.508 2.69421 304.132 3.37372 304.097 4.17769C304.065 4.92839 303.47 5.52222 302.736 5.56884C302.685 5.57224 302.632 5.57269 302.58 5.57091Z" fill="#418A6C"/>
<path d="M264.988 17.7852C265.275 17.767 265.558 17.6646 265.8 17.4726C266.388 17.0052 266.996 16.543 267.607 16.0971C268.257 15.623 268.399 14.7113 267.925 14.0616C267.451 13.4114 266.539 13.268 265.889 13.7438C265.247 14.2123 264.608 14.6987 263.989 15.1903C263.358 15.6904 263.253 16.6073 263.753 17.237C264.062 17.6257 264.528 17.8145 264.988 17.7852Z" fill="#418A6C"/>
</g>
<g opacity="0.3">
<path d="M243.748 56.7959C244.45 56.7514 245.035 56.2033 245.105 55.481C245.176 54.7334 245.265 53.9746 245.368 53.2261C245.477 52.4288 244.92 51.6938 244.123 51.5841C243.322 51.4742 242.591 52.0321 242.481 52.8289C242.373 53.6169 242.279 54.4162 242.204 55.2033C242.127 56.0043 242.715 56.7156 243.516 56.7925C243.594 56.7999 243.672 56.8008 243.748 56.7959Z" fill="#418A6C"/>
<path d="M300.899 118.993C300.095 119.004 299.433 118.362 299.422 117.556C299.41 116.752 300.052 116.092 300.857 116.079C302.389 116.057 303.944 115.969 305.496 115.818C306.292 115.738 307.009 116.327 307.087 117.128C307.165 117.929 306.579 118.641 305.778 118.719C305.106 118.784 304.435 118.838 303.766 118.881C302.811 118.942 301.847 118.979 300.899 118.993ZM311.857 116.334C311.671 115.551 312.155 114.766 312.938 114.581C314.441 114.224 315.946 113.801 317.409 113.321C318.172 113.069 318.997 113.487 319.247 114.252C319.498 115.016 319.081 115.84 318.316 116.09C316.776 116.595 315.192 117.041 313.61 117.416C313.528 117.435 313.446 117.447 313.365 117.452C312.669 117.496 312.023 117.035 311.857 116.334ZM292.972 118.563C291.363 118.365 289.741 118.095 288.15 117.76C287.362 117.594 286.858 116.822 287.024 116.034C287.189 115.247 287.962 114.744 288.75 114.908C290.26 115.226 291.801 115.483 293.328 115.671C294.127 115.77 294.695 116.497 294.596 117.296C294.509 118.002 293.93 118.527 293.244 118.571C293.155 118.577 293.064 118.574 292.972 118.563ZM323.728 112.435C323.375 111.712 323.675 110.839 324.398 110.487C325.784 109.81 327.158 109.066 328.481 108.276C329.172 107.862 330.066 108.088 330.479 108.779C330.891 109.469 330.666 110.364 329.976 110.776C328.582 111.609 327.136 112.393 325.676 113.105C325.5 113.191 325.315 113.239 325.13 113.25C324.558 113.287 323.995 112.981 323.728 112.435ZM280.517 115.597C278.992 115.05 277.47 114.43 275.991 113.754C275.26 113.42 274.938 112.556 275.272 111.824C275.606 111.092 276.471 110.77 277.203 111.104C278.607 111.746 280.053 112.335 281.501 112.855C282.259 113.126 282.653 113.961 282.381 114.718C282.178 115.283 281.664 115.645 281.101 115.681C280.908 115.693 280.71 115.667 280.517 115.597ZM269.015 109.972C267.643 109.103 266.292 108.166 265 107.186C264.358 106.7 264.232 105.787 264.718 105.145C265.205 104.503 266.118 104.377 266.759 104.864C267.987 105.794 269.271 106.685 270.574 107.511C271.254 107.942 271.456 108.842 271.025 109.522C270.765 109.931 270.335 110.167 269.886 110.196C269.589 110.215 269.284 110.143 269.015 109.972ZM259.011 101.973C257.86 100.826 256.746 99.6162 255.698 98.3797C255.178 97.7654 255.254 96.8466 255.868 96.3263C256.482 95.8054 257.401 95.8824 257.921 96.4959C258.917 97.6713 259.976 98.8198 261.069 99.9108C261.639 100.479 261.64 101.402 261.071 101.971C260.81 102.233 260.475 102.374 260.133 102.396C259.73 102.422 259.319 102.281 259.011 101.973ZM250.99 91.9833C250.119 90.6118 249.296 89.1871 248.545 87.7488C248.172 87.0357 248.448 86.1553 249.162 85.7827C249.873 85.4107 250.755 85.6867 251.127 86.3998C251.841 87.7653 252.622 89.118 253.45 90.421C253.881 91.1 253.681 92.0002 253.002 92.4315C252.787 92.5678 252.551 92.6409 252.314 92.656C251.801 92.6886 251.286 92.4481 250.99 91.9833ZM245.358 80.4688C244.812 78.9427 244.324 77.373 243.907 75.8029C243.7 75.0251 244.163 74.2269 244.941 74.0208C245.717 73.8153 246.517 74.2773 246.723 75.055C247.119 76.5468 247.583 78.0375 248.101 79.4873C248.373 80.2445 247.978 81.0786 247.221 81.3497C247.089 81.3969 246.955 81.4243 246.822 81.4327C246.19 81.4727 245.582 81.0945 245.358 80.4688ZM242.395 68.0117C242.247 66.8264 242.133 65.6218 242.058 64.4319C242.03 64.0009 242.008 63.5713 241.99 63.1417C241.957 62.3382 242.57 61.6439 243.385 61.6258C244.189 61.5919 244.868 62.2166 244.902 63.0208C244.919 63.4286 244.94 63.8378 244.966 64.2473C245.038 65.3787 245.145 66.5232 245.286 67.6502C245.386 68.4484 244.82 69.1766 244.021 69.2763C243.991 69.2799 243.961 69.283 243.932 69.2849C243.169 69.3334 242.491 68.78 242.395 68.0117Z" fill="#418A6C"/>
<path d="M335.708 106.538C335.997 106.52 336.283 106.416 336.526 106.221C337.141 105.728 337.758 105.212 338.358 104.688C338.965 104.159 339.027 103.239 338.498 102.632C337.969 102.026 337.05 101.962 336.443 102.492C335.872 102.99 335.287 103.479 334.703 103.948C334.075 104.451 333.974 105.368 334.478 105.996C334.786 106.381 335.25 106.567 335.708 106.538Z" fill="#418A6C"/>
</g>
<path d="M338.46 81.7138C338.629 81.4773 338.63 81.16 338.462 80.9231L333.662 74.1669C335.137 70.5886 336.052 66.7495 336.313 62.775L343.596 58.8305C343.851 58.6922 343.991 58.4069 343.943 58.1204L342.317 48.3136C342.27 48.0269 342.045 47.802 341.759 47.7536L333.593 46.3711C332.062 42.6939 329.957 39.3554 327.406 36.445L329.768 28.5012C329.85 28.2227 329.747 27.9224 329.511 27.7534L321.427 21.9688C321.191 21.7998 320.873 21.7992 320.636 21.9675L313.88 26.7672C310.302 25.2921 306.463 24.377 302.488 24.1154L298.544 16.8328C298.405 16.5772 298.12 16.4377 297.834 16.4853L288.026 18.1116C287.74 18.1593 287.515 18.3833 287.466 18.6696L286.084 26.8358C282.407 28.3664 279.068 30.4717 276.158 33.0228L268.214 30.6608C267.935 30.5781 267.635 30.6809 267.466 30.9172L261.682 39.0017C261.513 39.2379 261.512 39.5555 261.68 39.7922L266.48 46.5486C265.005 50.1267 264.09 53.9659 263.828 57.9404L256.546 61.885C256.29 62.0232 256.151 62.3085 256.198 62.595L257.824 72.4021C257.872 72.6887 258.096 72.9135 258.383 72.962L266.549 74.3447C268.079 78.0219 270.185 81.3603 272.736 84.2708L270.374 92.2146C270.291 92.493 270.394 92.7934 270.63 92.9625L278.715 98.7471C278.951 98.9161 279.268 98.9167 279.505 98.7485L286.261 93.9486C289.84 95.4237 293.679 96.3386 297.653 96.6004L301.598 103.883C301.736 104.138 302.021 104.278 302.308 104.23L312.115 102.604C312.401 102.557 312.627 102.332 312.675 102.046L314.057 93.88C317.735 92.3493 321.073 90.244 323.984 87.693L331.928 90.0549C332.206 90.1377 332.506 90.0346 332.675 89.7984L338.46 81.7138Z" fill="#418A6C"/>
<path d="M299.243 70.3159C293.752 69.8592 289.656 65.0212 290.113 59.5299C290.334 56.87 291.578 54.4553 293.615 52.731C295.651 51.0068 298.238 50.1782 300.899 50.4001C306.389 50.8567 310.485 55.6947 310.029 61.1861C309.613 66.1815 305.572 70.0222 300.71 70.3307C300.229 70.3612 299.738 70.3569 299.243 70.3159ZM295.121 54.5103C293.559 55.8326 292.605 57.6837 292.436 59.7234C292.086 63.933 295.226 67.6433 299.436 67.9931C303.647 68.3445 307.356 65.2025 307.706 60.9925C308.056 56.783 304.915 53.0727 300.705 52.7229C300.324 52.6912 299.945 52.688 299.569 52.7118C297.939 52.8151 296.39 53.4358 295.121 54.5103Z" fill="#CBE9DD"/>
<path d="M301.421 84.7466C302.256 84.6936 303.093 84.5983 303.929 84.4597C304.192 84.4162 304.455 84.3681 304.717 84.3161C306.008 84.0591 307.276 83.6998 308.503 83.2439C308.52 83.2377 308.536 83.2315 308.553 83.2254C308.601 83.2076 308.648 83.1897 308.695 83.1714C308.787 83.1365 308.879 83.1003 308.971 83.0644C309.212 82.9692 309.354 82.7316 309.338 82.4862C309.334 82.4266 309.321 82.3664 309.298 82.3081C309.18 82.0087 308.841 81.8632 308.542 81.9809C307.002 82.5901 305.386 83.0372 303.739 83.3099C295.557 84.668 287.647 81.5843 282.478 75.8291C279.602 72.6284 277.575 68.6005 276.821 64.05C276.688 63.2521 276.597 62.4534 276.547 61.6569C276.207 56.2978 277.709 51.0285 280.876 46.6027C284.513 41.5184 289.913 38.155 296.08 37.1323C308.817 35.0214 320.887 43.6614 322.998 56.3922C323.128 57.1772 323.218 57.9658 323.268 58.7546C323.485 62.1732 322.951 65.6013 321.692 68.7907C321.66 68.8731 321.647 68.9583 321.653 69.0412C321.667 69.2593 321.803 69.461 322.021 69.5464C322.321 69.6636 322.659 69.5184 322.777 69.2179C324.097 65.8694 324.658 62.2703 324.431 58.6814C324.379 57.8533 324.285 57.0257 324.148 56.2017C321.932 42.8356 309.251 33.7666 295.89 35.9821C289.415 37.0557 283.747 40.5866 279.928 45.9242C276.603 50.5705 275.027 56.1023 275.383 61.7284C275.436 62.5645 275.532 63.4029 275.67 64.2403C276.744 70.7151 280.275 76.3841 285.612 80.2029C290.26 83.5282 295.793 85.1037 301.421 84.7466Z" fill="#CBE9DD"/>
<g opacity="0.3">
<path d="M408.973 99.817C409.362 99.7923 409.703 99.5162 409.793 99.1169C409.962 98.3719 410.11 97.6114 410.233 96.8568C410.313 96.3666 409.981 95.9043 409.491 95.8235C409 95.7411 408.538 96.076 408.457 96.5662C408.34 97.2852 408.198 98.0099 408.038 98.7211C407.928 99.2053 408.233 99.6869 408.717 99.797C408.803 99.8163 408.889 99.8223 408.973 99.817Z" fill="#418A6C"/>
<path d="M409.78 92.9548C409.283 92.9353 408.896 92.5179 408.915 92.0208C408.963 90.7674 408.947 89.497 408.867 88.2456C408.851 87.9816 408.831 87.7168 408.808 87.4515C408.767 86.9567 409.134 86.5213 409.629 86.4793C410.099 86.4583 410.559 86.8052 410.602 87.3007C410.625 87.5783 410.646 87.8554 410.663 88.1316C410.747 89.4436 410.763 90.7756 410.713 92.0899C410.695 92.555 410.327 92.9245 409.872 92.9534C409.842 92.9553 409.811 92.9554 409.78 92.9548ZM408.147 82.9299C407.835 81.4414 407.429 79.9588 406.938 78.5238C406.778 78.0533 407.028 77.5426 407.499 77.3814C407.967 77.2222 408.481 77.4714 408.641 77.942C409.155 79.4459 409.582 81.0003 409.908 82.561C410.01 83.0475 409.698 83.5243 409.211 83.6266C409.169 83.6355 409.125 83.6408 409.083 83.6434C408.643 83.6714 408.239 83.3731 408.147 82.9299ZM405.194 74.2998C404.528 72.935 403.77 71.598 402.939 70.3246C402.668 69.9087 402.785 69.3509 403.201 69.0797C403.619 68.8076 404.175 68.9246 404.447 69.3415C405.318 70.6764 406.113 72.0797 406.811 73.5103C407.029 73.9569 406.844 74.4962 406.397 74.7138C406.288 74.7665 406.174 74.7958 406.06 74.8031C405.707 74.8256 405.359 74.6372 405.194 74.2998ZM400.21 66.6589C399.229 65.4973 398.166 64.3858 397.052 63.3575C396.687 63.0197 396.665 62.4506 397.002 62.0858C397.339 61.7219 397.908 61.6981 398.274 62.035C399.442 63.1144 400.556 64.279 401.585 65.4974C401.906 65.8769 401.858 66.4451 401.479 66.7661C401.325 66.8946 401.142 66.9644 400.956 66.9762C400.681 66.9935 400.402 66.8853 400.21 66.6589ZM393.513 60.466C392.279 59.5785 390.979 58.7592 389.648 58.0302C389.212 57.7919 389.052 57.2447 389.291 56.8087C389.53 56.3726 390.077 56.2121 390.513 56.4521C391.908 57.2158 393.27 58.075 394.564 59.0047C394.967 59.2952 395.059 59.8574 394.769 60.2605C394.606 60.4884 394.355 60.617 394.095 60.6335C393.895 60.6461 393.689 60.5922 393.513 60.466ZM385.515 56.0868C384.104 55.5265 382.644 55.0494 381.177 54.669C380.696 54.5445 380.407 54.0531 380.532 53.5723C380.656 53.0915 381.146 52.8034 381.629 52.9268C383.168 53.3258 384.699 53.8265 386.179 54.414C386.641 54.5978 386.867 55.1206 386.684 55.5821C386.551 55.9163 386.24 56.1271 385.904 56.1486C385.775 56.1566 385.643 56.1377 385.515 56.0868ZM376.693 53.7974C375.192 53.6013 373.658 53.4968 372.135 53.488C371.638 53.4843 371.238 53.0791 371.241 52.5823C371.244 52.0856 371.649 51.6927 372.147 51.6875C373.744 51.698 375.351 51.8072 376.925 52.0129C377.418 52.0776 377.766 52.5292 377.701 53.022C377.645 53.4553 377.288 53.7764 376.867 53.8031C376.81 53.8067 376.752 53.8052 376.693 53.7974ZM361.987 53.8891C361.869 53.4063 362.165 52.9199 362.648 52.8019C363.984 52.4758 365.362 52.2176 366.738 52.0342C366.947 52.0052 367.155 51.9796 367.364 51.9549C367.854 51.8833 368.305 52.2509 368.361 52.7457C368.419 53.2395 368.065 53.6855 367.571 53.7432C367.375 53.7654 367.179 53.7901 366.98 53.8178C365.663 53.9929 364.349 54.2392 363.074 54.55C363.021 54.563 362.969 54.5707 362.917 54.574C362.489 54.6012 362.092 54.3191 361.987 53.8891Z" fill="#418A6C"/>
</g>
<g opacity="0.3">
<path d="M373.796 129.375C372.229 129.454 370.645 129.437 369.085 129.328C368.59 129.292 368.216 128.862 368.251 128.366C368.286 127.87 368.72 127.502 369.213 127.532C370.7 127.637 372.211 127.652 373.705 127.577C374.202 127.551 374.624 127.934 374.649 128.43C374.674 128.923 374.298 129.343 373.808 129.374C373.804 129.374 373.799 129.374 373.796 129.375ZM377.441 128.12C377.357 127.63 377.685 127.165 378.175 127.081C379.648 126.827 381.121 126.482 382.552 126.054C383.026 125.914 383.53 126.182 383.672 126.659C383.814 127.135 383.544 127.636 383.068 127.779C381.568 128.227 380.024 128.589 378.48 128.854C378.448 128.86 378.416 128.864 378.383 128.866C377.931 128.895 377.52 128.578 377.441 128.12ZM364.412 128.707C362.872 128.405 361.338 128.007 359.852 127.523C359.379 127.369 359.121 126.861 359.275 126.389C359.428 125.916 359.934 125.659 360.409 125.811C361.826 126.273 363.29 126.653 364.759 126.942C365.247 127.038 365.564 127.511 365.468 127.998C365.388 128.408 365.041 128.697 364.643 128.723C364.567 128.728 364.49 128.723 364.412 128.707ZM386.308 125.691C386.109 125.236 386.316 124.705 386.771 124.505C388.14 123.905 389.485 123.215 390.77 122.452C391.197 122.2 391.749 122.341 392.003 122.767C392.256 123.194 392.116 123.747 391.688 124C390.341 124.8 388.93 125.524 387.494 126.153C387.394 126.196 387.292 126.221 387.19 126.227C386.823 126.25 386.464 126.046 386.308 125.691ZM355.471 125.794C354.053 125.132 352.66 124.376 351.33 123.547C350.909 123.284 350.78 122.729 351.043 122.307C351.306 121.885 351.861 121.756 352.283 122.019C353.551 122.811 354.879 123.531 356.233 124.162C356.683 124.372 356.878 124.907 356.667 125.358C356.524 125.667 356.226 125.855 355.908 125.876C355.763 125.885 355.613 125.859 355.471 125.794ZM347.489 120.819C346.268 119.834 345.096 118.767 344.005 117.647C343.658 117.291 343.666 116.722 344.022 116.375C344.377 116.028 344.947 116.035 345.295 116.392C346.335 117.46 347.454 118.478 348.619 119.418C349.006 119.729 349.067 120.296 348.755 120.683C348.59 120.887 348.354 121.001 348.111 121.016C347.894 121.03 347.672 120.966 347.489 120.819ZM340.928 114.076C339.977 112.827 339.094 111.508 338.305 110.158C338.054 109.729 338.199 109.178 338.628 108.927C339.057 108.676 339.608 108.822 339.859 109.25C340.611 110.538 341.453 111.794 342.36 112.985C342.661 113.38 342.585 113.945 342.189 114.246C342.042 114.358 341.873 114.417 341.702 114.428C341.411 114.447 341.117 114.324 340.928 114.076Z" fill="#418A6C"/>
<path d="M395.13 121.513C395.303 121.502 395.475 121.441 395.623 121.327C396.232 120.856 396.83 120.364 397.401 119.867C397.775 119.54 397.814 118.972 397.488 118.597C397.161 118.224 396.593 118.184 396.218 118.51C395.674 118.985 395.103 119.454 394.522 119.904C394.128 120.208 394.057 120.773 394.36 121.166C394.55 121.411 394.842 121.532 395.13 121.513Z" fill="#418A6C"/>
</g>
<path d="M397.518 104.55C397.631 104.392 397.631 104.179 397.519 104.021L394.307 99.4998C395.294 97.1053 395.906 94.5364 396.081 91.877L400.955 89.2375C401.126 89.1448 401.219 88.9541 401.187 88.7622L400.099 82.1999C400.067 82.0081 399.917 81.8575 399.726 81.8252L394.261 80.9001C393.237 78.4395 391.828 76.2055 390.121 74.2579L391.702 68.9422C391.757 68.7559 391.688 68.555 391.53 68.4418L386.12 64.5709C385.962 64.4579 385.75 64.4575 385.591 64.5701L381.07 67.7818C378.676 66.7948 376.107 66.1824 373.447 66.0074L370.808 61.1342C370.715 60.9632 370.524 60.8699 370.333 60.9017L363.77 61.9899C363.578 62.0217 363.428 62.1718 363.396 62.3634L362.47 67.8278C360.01 68.852 357.776 70.2607 355.828 71.9679L350.513 70.3874C350.326 70.3321 350.125 70.4009 350.012 70.559L346.142 75.969C346.029 76.127 346.028 76.3394 346.141 76.4979L349.353 81.019C348.366 83.4133 347.753 85.9824 347.578 88.6419L342.705 91.2813C342.534 91.3738 342.441 91.5646 342.472 91.7565L343.561 98.3189C343.593 98.5107 343.742 98.661 343.934 98.6936L349.399 99.6188C350.423 102.079 351.832 104.313 353.539 106.261L351.958 111.577C351.903 111.763 351.972 111.964 352.13 112.077L357.54 115.948C357.698 116.061 357.91 116.061 358.069 115.949L362.59 112.737C364.984 113.724 367.553 114.336 370.213 114.511L372.852 119.385C372.945 119.555 373.136 119.649 373.327 119.617L379.89 118.529C380.082 118.497 380.232 118.347 380.265 118.155L381.19 112.691C383.65 111.667 385.884 110.258 387.832 108.551L393.147 110.131C393.334 110.187 393.535 110.118 393.648 109.96L397.518 104.55Z" fill="#418A6C"/>
<path d="M371.267 97.0423C369.454 96.8922 367.809 96.0449 366.635 94.6569C365.46 93.2697 364.896 91.5076 365.047 89.6955C365.358 85.9556 368.648 83.1712 372.394 83.4759C376.134 83.7879 378.924 87.0836 378.613 90.8226C378.462 92.6346 377.615 94.2794 376.228 95.4541C375.1 96.4088 373.724 96.9602 372.276 97.0521C371.943 97.0734 371.605 97.0701 371.267 97.0423ZM366.84 89.844C366.729 91.1772 367.144 92.4733 368.008 93.4945C368.872 94.5148 370.082 95.138 371.415 95.249C372.748 95.358 374.044 94.9447 375.065 94.0804C376.086 93.217 376.709 92.0063 376.819 90.6741C377.048 87.9228 374.996 85.4986 372.245 85.2693C371.997 85.249 371.751 85.2469 371.51 85.2622C369.074 85.4168 367.048 87.3417 366.84 89.844Z" fill="#CBE9DD"/>
<path d="M372.783 107.086C373.351 107.05 373.922 106.985 374.495 106.89C375.633 106.702 376.754 106.397 377.828 105.984C377.876 105.965 377.924 105.946 377.972 105.927C378.344 105.78 378.563 105.413 378.54 105.035C378.534 104.942 378.514 104.85 378.478 104.759C378.295 104.297 377.772 104.073 377.311 104.254C376.312 104.649 375.265 104.939 374.201 105.114H374.201C374.143 105.124 374.084 105.133 374.026 105.142C371.504 105.536 368.979 105.286 366.638 104.448C365.367 103.993 364.15 103.364 363.017 102.569C363.008 102.563 362.999 102.556 362.99 102.55C362.961 102.529 362.933 102.51 362.906 102.49C359.615 100.135 357.437 96.6389 356.775 92.6463C356.689 92.1296 356.63 91.613 356.598 91.0973C356.378 87.628 357.35 84.2168 359.4 81.3509C361.755 78.0597 365.251 75.8831 369.243 75.221C373.233 74.5609 377.247 75.4914 380.539 77.8457C383.83 80.2008 386.007 83.6965 386.669 87.6891C386.754 88.1969 386.812 88.7076 386.844 89.218C386.984 91.4316 386.639 93.6504 385.824 95.715C385.774 95.8422 385.755 95.9738 385.763 96.1019C385.784 96.4387 385.996 96.7502 386.331 96.8822C386.793 97.0634 387.315 96.8383 387.498 96.375C388.409 94.0647 388.796 91.5818 388.64 89.1061C388.604 88.5343 388.539 87.9634 388.445 87.3953C387.704 82.928 385.268 79.0172 381.585 76.3823C377.903 73.7482 373.417 72.7015 368.949 73.4457C364.482 74.1862 360.571 76.6216 357.937 80.3048C355.643 83.5103 354.555 87.3267 354.801 91.2083C354.838 91.7845 354.903 92.3633 354.999 92.9408C356.434 101.589 364.215 107.63 372.783 107.086Z" fill="#CBE9DD"/>
<defs>
<linearGradient id="paint0_linear_297_4845" x1="87.6934" y1="207.92" x2="118.839" y2="207.92" gradientUnits="userSpaceOnUse">
<stop stop-color="#DAE3FE"/>
<stop offset="1" stop-color="#E9EFFD"/>
</linearGradient>
<linearGradient id="paint1_linear_297_4845" x1="53.0571" y1="207.917" x2="84.1385" y2="207.917" gradientUnits="userSpaceOnUse">
<stop stop-color="#DAE3FE"/>
<stop offset="1" stop-color="#E9EFFD"/>
</linearGradient>
<linearGradient id="paint2_linear_297_4845" x1="18.4556" y1="207.914" x2="49.4722" y2="207.914" gradientUnits="userSpaceOnUse">
<stop stop-color="#DAE3FE"/>
<stop offset="1" stop-color="#E9EFFD"/>
</linearGradient>
<linearGradient id="paint3_linear_297_4845" x1="87.3071" y1="230.581" x2="118.398" y2="230.581" gradientUnits="userSpaceOnUse">
<stop stop-color="#DAE3FE"/>
<stop offset="1" stop-color="#E9EFFD"/>
</linearGradient>
<linearGradient id="paint4_linear_297_4845" x1="52.731" y1="230.566" x2="83.7579" y2="230.566" gradientUnits="userSpaceOnUse">
<stop stop-color="#DAE3FE"/>
<stop offset="1" stop-color="#E9EFFD"/>
</linearGradient>
<linearGradient id="paint5_linear_297_4845" x1="18.19" y1="230.552" x2="49.1523" y2="230.552" gradientUnits="userSpaceOnUse">
<stop stop-color="#DAE3FE"/>
<stop offset="1" stop-color="#E9EFFD"/>
</linearGradient>
<linearGradient id="paint6_linear_297_4845" x1="86.9224" y1="253.045" x2="117.959" y2="253.045" gradientUnits="userSpaceOnUse">
<stop stop-color="#DAE3FE"/>
<stop offset="1" stop-color="#E9EFFD"/>
</linearGradient>
<linearGradient id="paint7_linear_297_4845" x1="52.4062" y1="253.019" x2="83.3787" y2="253.019" gradientUnits="userSpaceOnUse">
<stop stop-color="#DAE3FE"/>
<stop offset="1" stop-color="#E9EFFD"/>
</linearGradient>
<linearGradient id="paint8_linear_297_4845" x1="17.9252" y1="252.994" x2="48.8334" y2="252.994" gradientUnits="userSpaceOnUse">
<stop stop-color="#DAE3FE"/>
<stop offset="1" stop-color="#E9EFFD"/>
</linearGradient>
<linearGradient id="paint9_linear_297_4845" x1="86.539" y1="275.431" x2="117.521" y2="275.431" gradientUnits="userSpaceOnUse">
<stop stop-color="#DAE3FE"/>
<stop offset="1" stop-color="#E9EFFD"/>
</linearGradient>
<linearGradient id="paint10_linear_297_4845" x1="52.083" y1="275.394" x2="83.0014" y2="275.394" gradientUnits="userSpaceOnUse">
<stop stop-color="#DAE3FE"/>
<stop offset="1" stop-color="#E9EFFD"/>
</linearGradient>
<linearGradient id="paint11_linear_297_4845" x1="17.6616" y1="275.357" x2="48.516" y2="275.357" gradientUnits="userSpaceOnUse">
<stop stop-color="#DAE3FE"/>
<stop offset="1" stop-color="#E9EFFD"/>
</linearGradient>
<linearGradient id="paint12_linear_297_4845" x1="86.1568" y1="297.739" x2="117.085" y2="297.739" gradientUnits="userSpaceOnUse">
<stop stop-color="#DAE3FE"/>
<stop offset="1" stop-color="#E9EFFD"/>
</linearGradient>
<linearGradient id="paint13_linear_297_4845" x1="51.7603" y1="297.692" x2="82.6247" y2="297.692" gradientUnits="userSpaceOnUse">
<stop stop-color="#DAE3FE"/>
<stop offset="1" stop-color="#E9EFFD"/>
</linearGradient>
<linearGradient id="paint14_linear_297_4845" x1="17.3984" y1="297.644" x2="48.1991" y2="297.644" gradientUnits="userSpaceOnUse">
<stop stop-color="#DAE3FE"/>
<stop offset="1" stop-color="#E9EFFD"/>
</linearGradient>
<linearGradient id="paint15_linear_297_4845" x1="85.7763" y1="319.971" x2="116.651" y2="319.971" gradientUnits="userSpaceOnUse">
<stop stop-color="#DAE3FE"/>
<stop offset="1" stop-color="#E9EFFD"/>
</linearGradient>
<linearGradient id="paint16_linear_297_4845" x1="51.4395" y1="319.912" x2="82.2502" y2="319.912" gradientUnits="userSpaceOnUse">
<stop stop-color="#DAE3FE"/>
<stop offset="1" stop-color="#E9EFFD"/>
</linearGradient>
<linearGradient id="paint17_linear_297_4845" x1="17.1367" y1="319.853" x2="47.8839" y2="319.853" gradientUnits="userSpaceOnUse">
<stop stop-color="#DAE3FE"/>
<stop offset="1" stop-color="#E9EFFD"/>
</linearGradient>
<linearGradient id="paint18_linear_297_4845" x1="85.3961" y1="342.126" x2="116.217" y2="342.126" gradientUnits="userSpaceOnUse">
<stop stop-color="#DAE3FE"/>
<stop offset="1" stop-color="#E9EFFD"/>
</linearGradient>
<linearGradient id="paint19_linear_297_4845" x1="51.1187" y1="342.056" x2="81.8758" y2="342.056" gradientUnits="userSpaceOnUse">
<stop stop-color="#DAE3FE"/>
<stop offset="1" stop-color="#E9EFFD"/>
</linearGradient>
<linearGradient id="paint20_linear_297_4845" x1="16.8755" y1="341.987" x2="47.5694" y2="341.987" gradientUnits="userSpaceOnUse">
<stop stop-color="#DAE3FE"/>
<stop offset="1" stop-color="#E9EFFD"/>
</linearGradient>
<linearGradient id="paint21_linear_297_4845" x1="85.018" y1="364.205" x2="115.785" y2="364.205" gradientUnits="userSpaceOnUse">
<stop stop-color="#DAE3FE"/>
<stop offset="1" stop-color="#E9EFFD"/>
</linearGradient>
<linearGradient id="paint22_linear_297_4845" x1="50.7998" y1="364.124" x2="81.5036" y2="364.124" gradientUnits="userSpaceOnUse">
<stop stop-color="#DAE3FE"/>
<stop offset="1" stop-color="#E9EFFD"/>
</linearGradient>
<linearGradient id="paint23_linear_297_4845" x1="16.6152" y1="364.043" x2="47.2558" y2="364.043" gradientUnits="userSpaceOnUse">
<stop stop-color="#DAE3FE"/>
<stop offset="1" stop-color="#E9EFFD"/>
</linearGradient>
<linearGradient id="paint24_linear_297_4845" x1="84.6411" y1="386.208" x2="115.355" y2="386.208" gradientUnits="userSpaceOnUse">
<stop stop-color="#DAE3FE"/>
<stop offset="1" stop-color="#E9EFFD"/>
</linearGradient>
<linearGradient id="paint25_linear_297_4845" x1="50.4815" y1="386.116" x2="81.1321" y2="386.116" gradientUnits="userSpaceOnUse">
<stop stop-color="#DAE3FE"/>
<stop offset="1" stop-color="#E9EFFD"/>
</linearGradient>
<linearGradient id="paint26_linear_297_4845" x1="16.3559" y1="386.025" x2="46.9437" y2="386.025" gradientUnits="userSpaceOnUse">
<stop stop-color="#DAE3FE"/>
<stop offset="1" stop-color="#E9EFFD"/>
</linearGradient>
<linearGradient id="paint27_linear_297_4845" x1="74.6223" y1="382.904" x2="71.2699" y2="412.162" gradientUnits="userSpaceOnUse">
<stop stop-color="#FEBBBA"/>
<stop offset="1" stop-color="#FF928E"/>
</linearGradient>
<linearGradient id="paint28_linear_297_4845" x1="101.473" y1="385.994" x2="99.9678" y2="415.405" gradientUnits="userSpaceOnUse">
<stop stop-color="#FEBBBA"/>
<stop offset="1" stop-color="#FF928E"/>
</linearGradient>
<linearGradient id="paint29_linear_297_4845" x1="87.9961" y1="212.378" x2="95.7822" y2="191.116" gradientUnits="userSpaceOnUse">
<stop stop-color="#FEBBBA"/>
<stop offset="1" stop-color="#FF928E"/>
</linearGradient>
<linearGradient id="paint30_linear_297_4845" x1="107.134" y1="180.484" x2="60.7427" y2="217.432" gradientUnits="userSpaceOnUse">
<stop stop-color="#FEBBBA"/>
<stop offset="1" stop-color="#FF928E"/>
</linearGradient>
<linearGradient id="paint31_linear_297_4845" x1="102.464" y1="178.459" x2="79.634" y2="195.928" gradientUnits="userSpaceOnUse">
<stop stop-color="#FEBBBA"/>
<stop offset="1" stop-color="#FF928E"/>
</linearGradient>
<linearGradient id="paint32_linear_297_4845" x1="156.499" y1="190" x2="108.16" y2="231.756" gradientUnits="userSpaceOnUse">
<stop stop-color="#FEBBBA"/>
<stop offset="1" stop-color="#FF928E"/>
</linearGradient>
<linearGradient id="paint33_linear_297_4845" x1="157.507" y1="193.893" x2="110.454" y2="234.539" gradientUnits="userSpaceOnUse">
<stop stop-color="#FEBBBA"/>
<stop offset="1" stop-color="#FF928E"/>
</linearGradient>
<linearGradient id="paint34_linear_297_4845" x1="158.288" y1="192.072" x2="109.95" y2="233.827" gradientUnits="userSpaceOnUse">
<stop stop-color="#FEBBBA"/>
<stop offset="1" stop-color="#FF928E"/>
</linearGradient>
<linearGradient id="paint35_linear_297_4845" x1="110.583" y1="187.948" x2="302.277" y2="202.28" gradientUnits="userSpaceOnUse">
<stop stop-color="#FF9085"/>
<stop offset="1" stop-color="#FB6FBB"/>
</linearGradient>
<linearGradient id="paint36_linear_297_4845" x1="127.664" y1="226.33" x2="104.675" y2="341.007" gradientUnits="userSpaceOnUse">
<stop stop-color="#FEBBBA"/>
<stop offset="1" stop-color="#FF928E"/>
</linearGradient>
</defs>
</svg>
