<svg width="721" height="1024" viewBox="0 0 721 1024" fill="none" xmlns="http://www.w3.org/2000/svg">
<rect x="722" y="1024" width="701" height="1024" transform="rotate(-180 722 1024)" fill="#CBE9DD"/>
<g filter="url(#filter0_d_270_7504)">
<g clip-path="url(#clip0_270_7504)">
<path d="M24 1136H303V857H24V1136Z" fill="black"/>
<path d="M24 1136H303V857H24V1136Z" fill="#275341" fill-opacity="0.272941"/>
<mask id="mask0_270_7504" style="mask-type:luminance" maskUnits="userSpaceOnUse" x="24" y="857" width="279" height="279">
<path d="M24 1136H303V857H24V1136Z" fill="white"/>
</mask>
<g mask="url(#mask0_270_7504)">
<g filter="url(#filter1_f_270_7504)">
<path d="M11.7939 1018.82H192.098L192.098 800.502H11.7939L11.7939 1018.82Z" fill="#190A4C"/>
<path d="M124.266 1114.55H279.982V906.697H124.266L124.266 1114.55Z" fill="#57B890"/>
<path d="M-1.63292 1075.32H203.606L203.606 892.747H-1.63292L-1.63292 1075.32Z" fill="#1C0B54"/>
</g>
</g>
<g style="mix-blend-mode:overlay">
<path d="M24 1136H303V857H24V1136Z" fill="#808080"/>
</g>
</g>
</g>
<g filter="url(#filter2_d_270_7504)">
<g clip-path="url(#clip1_270_7504)">
<path d="M530 227L809 227V-52H530V227Z" fill="black"/>
<path d="M530 227L809 227V-52H530V227Z" fill="#275341" fill-opacity="0.272941"/>
<mask id="mask1_270_7504" style="mask-type:luminance" maskUnits="userSpaceOnUse" x="530" y="-52" width="279" height="279">
<path d="M530 227L809 227V-52H530V227Z" fill="white"/>
</mask>
<g mask="url(#mask1_270_7504)">
<g filter="url(#filter3_f_270_7504)">
<path d="M517.794 109.82L698.098 109.82V-108.498L517.794 -108.498V109.82Z" fill="#190A4C"/>
<path d="M630.266 205.552H785.982V-2.30324H630.266V205.552Z" fill="#57B890"/>
<path d="M504.367 166.317L709.606 166.317V-16.2532L504.367 -16.2532V166.317Z" fill="#1C0B54"/>
</g>
</g>
<g style="mix-blend-mode:overlay">
<path d="M530 227L809 227V-52H530V227Z" fill="#808080"/>
</g>
</g>
</g>
<g filter="url(#filter4_d_270_7504)">
<g clip-path="url(#clip2_270_7504)">
<path d="M24 875H98V801H24V875Z" fill="black"/>
<path d="M24 875H98V801H24V875Z" fill="#275341" fill-opacity="0.272941"/>
<mask id="mask2_270_7504" style="mask-type:luminance" maskUnits="userSpaceOnUse" x="24" y="801" width="74" height="74">
<path d="M24 875H98V801H24V875Z" fill="white"/>
</mask>
<g mask="url(#mask2_270_7504)">
<g filter="url(#filter5_f_270_7504)">
<path d="M20.7615 843.92H68.584V786.015H20.7615L20.7615 843.92Z" fill="#190A4C"/>
<path d="M50.5933 869.311H91.8945V814.181H50.5933L50.5933 869.311Z" fill="#57B890"/>
<path d="M17.2005 858.905H71.6367V810.481H17.2005L17.2005 858.905Z" fill="#1C0B54"/>
</g>
</g>
<g style="mix-blend-mode:overlay">
<path d="M24 875H98V801H24V875Z" fill="#808080"/>
</g>
</g>
</g>
<g filter="url(#filter6_d_270_7504)">
<g clip-path="url(#clip3_270_7504)">
<path d="M25 779H80V724H25L25 779Z" fill="black"/>
<path d="M25 779H80V724H25L25 779Z" fill="#275341" fill-opacity="0.272941"/>
<mask id="mask3_270_7504" style="mask-type:luminance" maskUnits="userSpaceOnUse" x="25" y="724" width="55" height="55">
<path d="M25 779H80V724H25L25 779Z" fill="white"/>
</mask>
<g mask="url(#mask3_270_7504)">
<g filter="url(#filter7_f_270_7504)">
<path d="M22.593 755.9H58.1367L58.1367 712.862H22.593L22.593 755.9Z" fill="#190A4C"/>
<path d="M44.765 774.771H75.4619V733.796H44.765V774.771Z" fill="#57B890"/>
<path d="M19.9464 767.037H60.4058V731.046H19.9464V767.037Z" fill="#1C0B54"/>
</g>
</g>
<g style="mix-blend-mode:overlay">
<path d="M25 779H80V724H25L25 779Z" fill="#808080"/>
</g>
</g>
</g>
<g filter="url(#filter8_d_270_7504)">
<g clip-path="url(#clip4_270_7504)">
<path d="M122.776 751H150V722H122.776V751Z" fill="black"/>
<path d="M122.776 751H150V722H122.776V751Z" fill="#275341" fill-opacity="0.272941"/>
<mask id="mask4_270_7504" style="mask-type:luminance" maskUnits="userSpaceOnUse" x="122" y="722" width="28" height="29">
<path d="M122.776 751H150V722H122.776V751Z" fill="white"/>
</mask>
<g mask="url(#mask4_270_7504)">
<g filter="url(#filter9_f_270_7504)">
<path d="M121.584 738.82H139.178V716.127H121.584V738.82Z" fill="#190A4C"/>
<path d="M132.559 748.771H147.754V727.166H132.559V748.771Z" fill="#57B890"/>
<path d="M120.274 744.692H140.301V725.716H120.274V744.692Z" fill="#1C0B54"/>
</g>
</g>
<g style="mix-blend-mode:overlay">
<path d="M122.776 751H150V722H122.776V751Z" fill="#808080"/>
</g>
</g>
</g>
<g filter="url(#filter10_d_270_7504)">
<g clip-path="url(#clip5_270_7504)">
<path d="M626 320H682V264H626V320Z" fill="black"/>
<path d="M626 320H682V264H626V320Z" fill="#275341" fill-opacity="0.272941"/>
<mask id="mask5_270_7504" style="mask-type:luminance" maskUnits="userSpaceOnUse" x="626" y="264" width="56" height="56">
<path d="M626 320H682V264H626V320Z" fill="white"/>
</mask>
<g mask="url(#mask5_270_7504)">
<g filter="url(#filter11_f_270_7504)">
<path d="M623.549 296.48H659.739V252.66H623.549V296.48Z" fill="#190A4C"/>
<path d="M646.125 315.695H677.38V273.975H646.125V315.695Z" fill="#57B890"/>
<path d="M620.855 307.82H662.05V271.175H620.855V307.82Z" fill="#1C0B54"/>
</g>
</g>
<g style="mix-blend-mode:overlay">
<path d="M626 320H682V264H626V320Z" fill="#808080"/>
</g>
</g>
</g>
<g filter="url(#filter12_d_270_7504)">
<g clip-path="url(#clip6_270_7504)">
<path d="M474 41L530 41V-15L474 -15V41Z" fill="black"/>
<path d="M474 41L530 41V-15L474 -15V41Z" fill="#275341" fill-opacity="0.272941"/>
<mask id="mask6_270_7504" style="mask-type:luminance" maskUnits="userSpaceOnUse" x="474" y="-15" width="56" height="56">
<path d="M474 41L530 41V-15L474 -15V41Z" fill="white"/>
</mask>
<g mask="url(#mask6_270_7504)">
<g filter="url(#filter13_f_270_7504)">
<path d="M471.549 17.48L507.739 17.48V-26.34H471.549V17.48Z" fill="#190A4C"/>
<path d="M494.125 36.6948H525.38V-5.02518H494.125V36.6948Z" fill="#57B890"/>
<path d="M468.855 28.8198L510.05 28.8198V-7.82517H468.855V28.8198Z" fill="#1C0B54"/>
</g>
</g>
<g style="mix-blend-mode:overlay">
<path d="M474 41L530 41V-15L474 -15V41Z" fill="#808080"/>
</g>
</g>
</g>
<g filter="url(#filter14_d_270_7504)">
<g clip-path="url(#clip7_270_7504)">
<path d="M494 184H522V156H494V184Z" fill="black"/>
<path d="M494 184H522V156H494V184Z" fill="#275341" fill-opacity="0.272941"/>
<mask id="mask7_270_7504" style="mask-type:luminance" maskUnits="userSpaceOnUse" x="494" y="156" width="28" height="28">
<path d="M494 184H522V156H494V184Z" fill="white"/>
</mask>
<g mask="url(#mask7_270_7504)">
<g filter="url(#filter15_f_270_7504)">
<path d="M492.776 172.239H510.871V150.329H492.776V172.239Z" fill="#190A4C"/>
<path d="M504.064 181.847H519.691V160.987H504.064V181.847Z" fill="#57B890"/>
<path d="M491.429 177.909H512.026V159.587H491.429V177.909Z" fill="#1C0B54"/>
</g>
</g>
<g style="mix-blend-mode:overlay">
<path d="M494 184H522V156H494V184Z" fill="#808080"/>
</g>
</g>
</g>
<g filter="url(#filter16_d_270_7504)">
<g clip-path="url(#clip8_270_7504)">
<path d="M535 249H558V226H535V249Z" fill="black"/>
<path d="M535 249H558V226H535V249Z" fill="#275341" fill-opacity="0.272941"/>
<mask id="mask8_270_7504" style="mask-type:luminance" maskUnits="userSpaceOnUse" x="535" y="226" width="23" height="23">
<path d="M535 249H558V226H535V249Z" fill="white"/>
</mask>
<g mask="url(#mask8_270_7504)">
<g filter="url(#filter17_f_270_7504)">
<path d="M533.995 239.339H548.858V221.341H533.995V239.339Z" fill="#190A4C"/>
<path d="M543.267 247.23H556.104V230.095H543.267V247.23Z" fill="#57B890"/>
<path d="M532.888 243.996H549.808V228.945H532.888V243.996Z" fill="#1C0B54"/>
</g>
</g>
<g style="mix-blend-mode:overlay">
<path d="M535 249H558V226H535V249Z" fill="#808080"/>
</g>
</g>
</g>
<g filter="url(#filter18_d_270_7504)">
<g clip-path="url(#clip9_270_7504)">
<path d="M32 94H55V71H32V94Z" fill="black"/>
<path d="M32 94H55V71H32V94Z" fill="#275341" fill-opacity="0.272941"/>
<mask id="mask9_270_7504" style="mask-type:luminance" maskUnits="userSpaceOnUse" x="32" y="71" width="23" height="23">
<path d="M32 94H55V71H32V94Z" fill="white"/>
</mask>
<g mask="url(#mask9_270_7504)">
<g filter="url(#filter19_f_270_7504)">
<path d="M30.9951 84.3389H45.8589V66.3414H30.9951V84.3389Z" fill="#190A4C"/>
<path d="M40.2671 92.2305H53.104V75.0955H40.2671V92.2305Z" fill="#57B890"/>
<path d="M29.8882 88.9961H46.8076V73.9455H29.8882V88.9961Z" fill="#1C0B54"/>
</g>
</g>
<g style="mix-blend-mode:overlay">
<path d="M32 94H55V71H32V94Z" fill="#808080"/>
</g>
</g>
</g>
<g filter="url(#filter20_d_270_7504)">
<g clip-path="url(#clip10_270_7504)">
<path d="M53 54H90V17H53V54Z" fill="black"/>
<path d="M53 54H90V17H53V54Z" fill="#275341" fill-opacity="0.272941"/>
<mask id="mask10_270_7504" style="mask-type:luminance" maskUnits="userSpaceOnUse" x="53" y="17" width="37" height="37">
<path d="M53 54H90V17H53V54Z" fill="white"/>
</mask>
<g mask="url(#mask10_270_7504)">
<g filter="url(#filter21_f_270_7504)">
<path d="M51.3807 38.46H75.292V9.50746L51.3807 9.50746V38.46Z" fill="#190A4C"/>
<path d="M66.2966 51.1553H86.9473V23.5903H66.2966V51.1553Z" fill="#57B890"/>
<path d="M49.6002 45.9521H76.8184V21.7403L49.6002 21.7403V45.9521Z" fill="#1C0B54"/>
</g>
</g>
<g style="mix-blend-mode:overlay">
<path d="M53 54H90V17H53V54Z" fill="#808080"/>
</g>
</g>
</g>
<g filter="url(#filter22_d_270_7504)">
<g clip-path="url(#clip11_270_7504)">
<path d="M566 355H601V320H566V355Z" fill="black"/>
<path d="M566 355H601V320H566V355Z" fill="#275341" fill-opacity="0.272941"/>
<mask id="mask11_270_7504" style="mask-type:luminance" maskUnits="userSpaceOnUse" x="566" y="320" width="35" height="35">
<path d="M566 355H601V320H566V355Z" fill="white"/>
</mask>
<g mask="url(#mask11_270_7504)">
<g filter="url(#filter23_f_270_7504)">
<path d="M564.468 340.3H587.087V312.912H564.468V340.3Z" fill="#190A4C"/>
<path d="M578.578 352.309H598.112V326.234H578.578V352.309Z" fill="#57B890"/>
<path d="M562.784 347.387H588.531V324.484H562.784V347.387Z" fill="#1C0B54"/>
</g>
</g>
<g style="mix-blend-mode:overlay">
<path d="M566 355H601V320H566V355Z" fill="#808080"/>
</g>
</g>
</g>
<g filter="url(#filter24_d_270_7504)">
<g clip-path="url(#clip12_270_7504)">
<path d="M293 867H328V832H293V867Z" fill="black"/>
<path d="M293 867H328V832H293V867Z" fill="#275341" fill-opacity="0.272941"/>
<mask id="mask12_270_7504" style="mask-type:luminance" maskUnits="userSpaceOnUse" x="293" y="832" width="35" height="35">
<path d="M293 867H328V832H293V867Z" fill="white"/>
</mask>
<g mask="url(#mask12_270_7504)">
<g filter="url(#filter25_f_270_7504)">
<path d="M291.468 852.3H314.087V824.912H291.468V852.3Z" fill="#190A4C"/>
<path d="M305.578 864.309H325.112V838.234H305.578V864.309Z" fill="#57B890"/>
<path d="M289.784 859.387H315.531V836.484H289.784V859.387Z" fill="#1C0B54"/>
</g>
</g>
<g style="mix-blend-mode:overlay">
<path d="M293 867H328V832H293V867Z" fill="#808080"/>
</g>
</g>
</g>
<g filter="url(#filter26_d_270_7504)">
<g clip-path="url(#clip13_270_7504)">
<path d="M179 795H214V760H179V795Z" fill="black"/>
<path d="M179 795H214V760H179V795Z" fill="#275341" fill-opacity="0.272941"/>
<mask id="mask13_270_7504" style="mask-type:luminance" maskUnits="userSpaceOnUse" x="179" y="760" width="35" height="35">
<path d="M179 795H214V760H179V795Z" fill="white"/>
</mask>
<g mask="url(#mask13_270_7504)">
<g filter="url(#filter27_f_270_7504)">
<path d="M177.468 780.3H200.087V752.912H177.468V780.3Z" fill="#190A4C"/>
<path d="M191.578 792.309H211.112V766.234H191.578V792.309Z" fill="#57B890"/>
<path d="M175.784 787.387H201.531V764.484H175.784V787.387Z" fill="#1C0B54"/>
</g>
</g>
<g style="mix-blend-mode:overlay">
<path d="M179 795H214V760H179V795Z" fill="#808080"/>
</g>
</g>
</g>
<g filter="url(#filter28_d_270_7504)">
<g clip-path="url(#clip14_270_7504)">
<path d="M687 1024H722V989H687V1024Z" fill="black"/>
<path d="M687 1024H722V989H687V1024Z" fill="#275341" fill-opacity="0.272941"/>
<mask id="mask14_270_7504" style="mask-type:luminance" maskUnits="userSpaceOnUse" x="687" y="989" width="35" height="35">
<path d="M687 1024H722V989H687V1024Z" fill="white"/>
</mask>
<g mask="url(#mask14_270_7504)">
<g filter="url(#filter29_f_270_7504)">
<path d="M685.468 1009.3H708.087V981.912H685.468V1009.3Z" fill="#190A4C"/>
<path d="M699.578 1021.31H719.112V995.234H699.578V1021.31Z" fill="#57B890"/>
<path d="M683.784 1016.39H709.531V993.484H683.784V1016.39Z" fill="#1C0B54"/>
</g>
</g>
<g style="mix-blend-mode:overlay">
<path d="M687 1024H722V989H687V1024Z" fill="#808080"/>
</g>
</g>
</g>
<g filter="url(#filter30_d_270_7504)">
<g clip-path="url(#clip15_270_7504)">
<path d="M687 963H704V946H687V963Z" fill="black"/>
<path d="M687 963H704V946H687V963Z" fill="#275341" fill-opacity="0.272941"/>
<mask id="mask15_270_7504" style="mask-type:luminance" maskUnits="userSpaceOnUse" x="687" y="946" width="17" height="17">
<path d="M687 963H704V946H687V963Z" fill="white"/>
</mask>
<g mask="url(#mask15_270_7504)">
<g filter="url(#filter31_f_270_7504)">
<path d="M686.255 955.86H697.241V942.558H686.255V955.86Z" fill="#190A4C"/>
<path d="M693.109 961.693H702.597V949.028H693.109V961.693Z" fill="#57B890"/>
<path d="M685.438 959.303H697.943V948.178H685.438V959.303Z" fill="#1C0B54"/>
</g>
</g>
<g style="mix-blend-mode:overlay">
<path d="M687 963H704V946H687V963Z" fill="#808080"/>
</g>
</g>
</g>
<g filter="url(#filter32_d_270_7504)">
<g clip-path="url(#clip16_270_7504)">
<path d="M653 1000H669V984H653V1000Z" fill="black"/>
<path d="M653 1000H669V984H653V1000Z" fill="#275341" fill-opacity="0.272941"/>
<mask id="mask16_270_7504" style="mask-type:luminance" maskUnits="userSpaceOnUse" x="653" y="984" width="16" height="16">
<path d="M653 1000H669V984H653V1000Z" fill="white"/>
</mask>
<g mask="url(#mask16_270_7504)">
<g filter="url(#filter33_f_270_7504)">
<path d="M652.3 993.28H662.64V980.76H652.3V993.28Z" fill="#190A4C"/>
<path d="M658.75 998.77H667.68V986.85H658.75V998.77Z" fill="#57B890"/>
<path d="M651.53 996.52H663.3V986.05H651.53V996.52Z" fill="#1C0B54"/>
</g>
</g>
<g style="mix-blend-mode:overlay">
<path d="M653 1000H669V984H653V1000Z" fill="#808080"/>
</g>
</g>
</g>
<g filter="url(#filter34_d_270_7504)">
<g clip-path="url(#clip17_270_7504)">
<path d="M214 844H230V828H214V844Z" fill="black"/>
<path d="M214 844H230V828H214V844Z" fill="#275341" fill-opacity="0.272941"/>
<mask id="mask17_270_7504" style="mask-type:luminance" maskUnits="userSpaceOnUse" x="214" y="828" width="16" height="16">
<path d="M214 844H230V828H214V844Z" fill="white"/>
</mask>
<g mask="url(#mask17_270_7504)">
<g filter="url(#filter35_f_270_7504)">
<path d="M213.3 837.28H223.64V824.76H213.3V837.28Z" fill="#190A4C"/>
<path d="M219.75 842.77H228.68V830.85H219.75V842.77Z" fill="#57B890"/>
<path d="M212.53 840.52H224.3V830.05H212.53V840.52Z" fill="#1C0B54"/>
</g>
</g>
<g style="mix-blend-mode:overlay">
<path d="M214 844H230V828H214V844Z" fill="#808080"/>
</g>
</g>
</g>
<g filter="url(#filter36_d_270_7504)">
<g clip-path="url(#clip18_270_7504)">
<path d="M478 280H494V264H478V280Z" fill="black"/>
<path d="M478 280H494V264H478V280Z" fill="#275341" fill-opacity="0.272941"/>
<mask id="mask18_270_7504" style="mask-type:luminance" maskUnits="userSpaceOnUse" x="478" y="264" width="16" height="16">
<path d="M478 280H494V264H478V280Z" fill="white"/>
</mask>
<g mask="url(#mask18_270_7504)">
<g filter="url(#filter37_f_270_7504)">
<path d="M477.3 273.28H487.64V260.76H477.3V273.28Z" fill="#190A4C"/>
<path d="M483.75 278.77H492.68V266.85H483.75V278.77Z" fill="#57B890"/>
<path d="M476.53 276.52H488.3V266.05H476.53V276.52Z" fill="#1C0B54"/>
</g>
</g>
<g style="mix-blend-mode:overlay">
<path d="M478 280H494V264H478V280Z" fill="#808080"/>
</g>
</g>
</g>
<g filter="url(#filter38_d_270_7504)">
<g clip-path="url(#clip19_270_7504)">
<path d="M478 98H494V82H478V98Z" fill="black"/>
<path d="M478 98H494V82H478V98Z" fill="#275341" fill-opacity="0.272941"/>
<mask id="mask19_270_7504" style="mask-type:luminance" maskUnits="userSpaceOnUse" x="478" y="82" width="16" height="16">
<path d="M478 98H494V82H478V98Z" fill="white"/>
</mask>
<g mask="url(#mask19_270_7504)">
<g filter="url(#filter39_f_270_7504)">
<path d="M477.3 91.2803H487.64V78.7603H477.3V91.2803Z" fill="#190A4C"/>
<path d="M483.75 96.77H492.68V84.85H483.75V96.77Z" fill="#57B890"/>
<path d="M476.53 94.52H488.3V84.05H476.53V94.52Z" fill="#1C0B54"/>
</g>
</g>
<g style="mix-blend-mode:overlay">
<path d="M478 98H494V82H478V98Z" fill="#808080"/>
</g>
</g>
</g>
<defs>
<filter id="filter0_d_270_7504" x="0" y="837" width="327" height="327" filterUnits="userSpaceOnUse" color-interpolation-filters="sRGB">
<feFlood flood-opacity="0" result="BackgroundImageFix"/>
<feColorMatrix in="SourceAlpha" type="matrix" values="0 0 0 0 0 0 0 0 0 0 0 0 0 0 0 0 0 0 127 0" result="hardAlpha"/>
<feMorphology radius="8" operator="dilate" in="SourceAlpha" result="effect1_dropShadow_270_7504"/>
<feOffset dy="4"/>
<feGaussianBlur stdDeviation="8"/>
<feComposite in2="hardAlpha" operator="out"/>
<feColorMatrix type="matrix" values="0 0 0 0 0.556863 0 0 0 0 0.596078 0 0 0 0 0.658824 0 0 0 0.5 0"/>
<feBlend mode="normal" in2="BackgroundImageFix" result="effect1_dropShadow_270_7504"/>
<feBlend mode="normal" in="SourceGraphic" in2="effect1_dropShadow_270_7504" result="shape"/>
</filter>
<filter id="filter1_f_270_7504" x="-88.8203" y="713.315" width="455.99" height="488.424" filterUnits="userSpaceOnUse" color-interpolation-filters="sRGB">
<feFlood flood-opacity="0" result="BackgroundImageFix"/>
<feBlend mode="normal" in="SourceGraphic" in2="BackgroundImageFix" result="shape"/>
<feGaussianBlur stdDeviation="43.5938" result="effect1_foregroundBlur_270_7504"/>
</filter>
<filter id="filter2_d_270_7504" x="506" y="-72" width="327" height="327" filterUnits="userSpaceOnUse" color-interpolation-filters="sRGB">
<feFlood flood-opacity="0" result="BackgroundImageFix"/>
<feColorMatrix in="SourceAlpha" type="matrix" values="0 0 0 0 0 0 0 0 0 0 0 0 0 0 0 0 0 0 127 0" result="hardAlpha"/>
<feMorphology radius="8" operator="dilate" in="SourceAlpha" result="effect1_dropShadow_270_7504"/>
<feOffset dy="4"/>
<feGaussianBlur stdDeviation="8"/>
<feComposite in2="hardAlpha" operator="out"/>
<feColorMatrix type="matrix" values="0 0 0 0 0.556863 0 0 0 0 0.596078 0 0 0 0 0.658824 0 0 0 0.5 0"/>
<feBlend mode="normal" in2="BackgroundImageFix" result="effect1_dropShadow_270_7504"/>
<feBlend mode="normal" in="SourceGraphic" in2="effect1_dropShadow_270_7504" result="shape"/>
</filter>
<filter id="filter3_f_270_7504" x="417.18" y="-195.685" width="455.99" height="488.424" filterUnits="userSpaceOnUse" color-interpolation-filters="sRGB">
<feFlood flood-opacity="0" result="BackgroundImageFix"/>
<feBlend mode="normal" in="SourceGraphic" in2="BackgroundImageFix" result="shape"/>
<feGaussianBlur stdDeviation="43.5938" result="effect1_foregroundBlur_270_7504"/>
</filter>
<filter id="filter4_d_270_7504" x="17.6344" y="795.695" width="86.7312" height="86.7312" filterUnits="userSpaceOnUse" color-interpolation-filters="sRGB">
<feFlood flood-opacity="0" result="BackgroundImageFix"/>
<feColorMatrix in="SourceAlpha" type="matrix" values="0 0 0 0 0 0 0 0 0 0 0 0 0 0 0 0 0 0 127 0" result="hardAlpha"/>
<feMorphology radius="2.12186" operator="dilate" in="SourceAlpha" result="effect1_dropShadow_270_7504"/>
<feOffset dy="1.06093"/>
<feGaussianBlur stdDeviation="2.12186"/>
<feComposite in2="hardAlpha" operator="out"/>
<feColorMatrix type="matrix" values="0 0 0 0 0.556863 0 0 0 0 0.596078 0 0 0 0 0.658824 0 0 0 0.5 0"/>
<feBlend mode="normal" in2="BackgroundImageFix" result="effect1_dropShadow_270_7504"/>
<feBlend mode="normal" in="SourceGraphic" in2="effect1_dropShadow_270_7504" result="shape"/>
</filter>
<filter id="filter5_f_270_7504" x="-5.92432" y="762.89" width="120.944" height="129.546" filterUnits="userSpaceOnUse" color-interpolation-filters="sRGB">
<feFlood flood-opacity="0" result="BackgroundImageFix"/>
<feBlend mode="normal" in="SourceGraphic" in2="BackgroundImageFix" result="shape"/>
<feGaussianBlur stdDeviation="11.5625" result="effect1_foregroundBlur_270_7504"/>
</filter>
<filter id="filter6_d_270_7504" x="20.2688" y="720.057" width="64.4624" height="64.4624" filterUnits="userSpaceOnUse" color-interpolation-filters="sRGB">
<feFlood flood-opacity="0" result="BackgroundImageFix"/>
<feColorMatrix in="SourceAlpha" type="matrix" values="0 0 0 0 0 0 0 0 0 0 0 0 0 0 0 0 0 0 127 0" result="hardAlpha"/>
<feMorphology radius="1.57706" operator="dilate" in="SourceAlpha" result="effect1_dropShadow_270_7504"/>
<feOffset dy="0.788531"/>
<feGaussianBlur stdDeviation="1.57706"/>
<feComposite in2="hardAlpha" operator="out"/>
<feColorMatrix type="matrix" values="0 0 0 0 0.556863 0 0 0 0 0.596078 0 0 0 0 0.658824 0 0 0 0.5 0"/>
<feBlend mode="normal" in2="BackgroundImageFix" result="effect1_dropShadow_270_7504"/>
<feBlend mode="normal" in="SourceGraphic" in2="effect1_dropShadow_270_7504" result="shape"/>
</filter>
<filter id="filter7_f_270_7504" x="2.75879" y="695.675" width="89.8906" height="96.2842" filterUnits="userSpaceOnUse" color-interpolation-filters="sRGB">
<feFlood flood-opacity="0" result="BackgroundImageFix"/>
<feBlend mode="normal" in="SourceGraphic" in2="BackgroundImageFix" result="shape"/>
<feGaussianBlur stdDeviation="8.59375" result="effect1_foregroundBlur_270_7504"/>
</filter>
<filter id="filter8_d_270_7504" x="119.008" y="718.861" width="34.7594" height="36.5348" filterUnits="userSpaceOnUse" color-interpolation-filters="sRGB">
<feFlood flood-opacity="0" result="BackgroundImageFix"/>
<feColorMatrix in="SourceAlpha" type="matrix" values="0 0 0 0 0 0 0 0 0 0 0 0 0 0 0 0 0 0 127 0" result="hardAlpha"/>
<feMorphology radius="1.2558" operator="dilate" in="SourceAlpha" result="effect1_dropShadow_270_7504"/>
<feOffset dy="0.627899"/>
<feGaussianBlur stdDeviation="1.2558"/>
<feComposite in2="hardAlpha" operator="out"/>
<feColorMatrix type="matrix" values="0 0 0 0 0.556863 0 0 0 0 0.596078 0 0 0 0 0.658824 0 0 0 0.5 0"/>
<feBlend mode="normal" in2="BackgroundImageFix" result="effect1_dropShadow_270_7504"/>
<feBlend mode="normal" in="SourceGraphic" in2="effect1_dropShadow_270_7504" result="shape"/>
</filter>
<filter id="filter9_f_270_7504" x="106.587" y="702.441" width="54.8529" height="60.0155" filterUnits="userSpaceOnUse" color-interpolation-filters="sRGB">
<feFlood flood-opacity="0" result="BackgroundImageFix"/>
<feBlend mode="normal" in="SourceGraphic" in2="BackgroundImageFix" result="shape"/>
<feGaussianBlur stdDeviation="6.84311" result="effect1_foregroundBlur_270_7504"/>
</filter>
<filter id="filter10_d_270_7504" x="621.183" y="259.986" width="65.6344" height="65.6344" filterUnits="userSpaceOnUse" color-interpolation-filters="sRGB">
<feFlood flood-opacity="0" result="BackgroundImageFix"/>
<feColorMatrix in="SourceAlpha" type="matrix" values="0 0 0 0 0 0 0 0 0 0 0 0 0 0 0 0 0 0 127 0" result="hardAlpha"/>
<feMorphology radius="1.60573" operator="dilate" in="SourceAlpha" result="effect1_dropShadow_270_7504"/>
<feOffset dy="0.802867"/>
<feGaussianBlur stdDeviation="1.60573"/>
<feComposite in2="hardAlpha" operator="out"/>
<feColorMatrix type="matrix" values="0 0 0 0 0.556863 0 0 0 0 0.596078 0 0 0 0 0.658824 0 0 0 0.5 0"/>
<feBlend mode="normal" in2="BackgroundImageFix" result="effect1_dropShadow_270_7504"/>
<feBlend mode="normal" in="SourceGraphic" in2="effect1_dropShadow_270_7504" result="shape"/>
</filter>
<filter id="filter11_f_270_7504" x="603.354" y="235.16" width="91.5254" height="98.0347" filterUnits="userSpaceOnUse" color-interpolation-filters="sRGB">
<feFlood flood-opacity="0" result="BackgroundImageFix"/>
<feBlend mode="normal" in="SourceGraphic" in2="BackgroundImageFix" result="shape"/>
<feGaussianBlur stdDeviation="8.75" result="effect1_foregroundBlur_270_7504"/>
</filter>
<filter id="filter12_d_270_7504" x="469.183" y="-19.0143" width="65.6344" height="65.6344" filterUnits="userSpaceOnUse" color-interpolation-filters="sRGB">
<feFlood flood-opacity="0" result="BackgroundImageFix"/>
<feColorMatrix in="SourceAlpha" type="matrix" values="0 0 0 0 0 0 0 0 0 0 0 0 0 0 0 0 0 0 127 0" result="hardAlpha"/>
<feMorphology radius="1.60573" operator="dilate" in="SourceAlpha" result="effect1_dropShadow_270_7504"/>
<feOffset dy="0.802867"/>
<feGaussianBlur stdDeviation="1.60573"/>
<feComposite in2="hardAlpha" operator="out"/>
<feColorMatrix type="matrix" values="0 0 0 0 0.556863 0 0 0 0 0.596078 0 0 0 0 0.658824 0 0 0 0.5 0"/>
<feBlend mode="normal" in2="BackgroundImageFix" result="effect1_dropShadow_270_7504"/>
<feBlend mode="normal" in="SourceGraphic" in2="effect1_dropShadow_270_7504" result="shape"/>
</filter>
<filter id="filter13_f_270_7504" x="451.354" y="-43.8398" width="91.5254" height="98.0347" filterUnits="userSpaceOnUse" color-interpolation-filters="sRGB">
<feFlood flood-opacity="0" result="BackgroundImageFix"/>
<feBlend mode="normal" in="SourceGraphic" in2="BackgroundImageFix" result="shape"/>
<feGaussianBlur stdDeviation="8.75" result="effect1_foregroundBlur_270_7504"/>
</filter>
<filter id="filter14_d_270_7504" x="491.591" y="153.993" width="32.8172" height="32.8172" filterUnits="userSpaceOnUse" color-interpolation-filters="sRGB">
<feFlood flood-opacity="0" result="BackgroundImageFix"/>
<feColorMatrix in="SourceAlpha" type="matrix" values="0 0 0 0 0 0 0 0 0 0 0 0 0 0 0 0 0 0 127 0" result="hardAlpha"/>
<feMorphology radius="0.802867" operator="dilate" in="SourceAlpha" result="effect1_dropShadow_270_7504"/>
<feOffset dy="0.401434"/>
<feGaussianBlur stdDeviation="0.802867"/>
<feComposite in2="hardAlpha" operator="out"/>
<feColorMatrix type="matrix" values="0 0 0 0 0.556863 0 0 0 0 0.596078 0 0 0 0 0.658824 0 0 0 0.5 0"/>
<feBlend mode="normal" in2="BackgroundImageFix" result="effect1_dropShadow_270_7504"/>
<feBlend mode="normal" in="SourceGraphic" in2="effect1_dropShadow_270_7504" result="shape"/>
</filter>
<filter id="filter15_f_270_7504" x="482.679" y="141.579" width="45.7627" height="49.0176" filterUnits="userSpaceOnUse" color-interpolation-filters="sRGB">
<feFlood flood-opacity="0" result="BackgroundImageFix"/>
<feBlend mode="normal" in="SourceGraphic" in2="BackgroundImageFix" result="shape"/>
<feGaussianBlur stdDeviation="4.375" result="effect1_foregroundBlur_270_7504"/>
</filter>
<filter id="filter16_d_270_7504" x="533.022" y="224.351" width="26.957" height="26.957" filterUnits="userSpaceOnUse" color-interpolation-filters="sRGB">
<feFlood flood-opacity="0" result="BackgroundImageFix"/>
<feColorMatrix in="SourceAlpha" type="matrix" values="0 0 0 0 0 0 0 0 0 0 0 0 0 0 0 0 0 0 127 0" result="hardAlpha"/>
<feMorphology radius="0.659498" operator="dilate" in="SourceAlpha" result="effect1_dropShadow_270_7504"/>
<feOffset dy="0.329749"/>
<feGaussianBlur stdDeviation="0.659498"/>
<feComposite in2="hardAlpha" operator="out"/>
<feColorMatrix type="matrix" values="0 0 0 0 0.556863 0 0 0 0 0.596078 0 0 0 0 0.658824 0 0 0 0.5 0"/>
<feBlend mode="normal" in2="BackgroundImageFix" result="effect1_dropShadow_270_7504"/>
<feBlend mode="normal" in="SourceGraphic" in2="effect1_dropShadow_270_7504" result="shape"/>
</filter>
<filter id="filter17_f_270_7504" x="525.701" y="214.154" width="37.5898" height="40.2642" filterUnits="userSpaceOnUse" color-interpolation-filters="sRGB">
<feFlood flood-opacity="0" result="BackgroundImageFix"/>
<feBlend mode="normal" in="SourceGraphic" in2="BackgroundImageFix" result="shape"/>
<feGaussianBlur stdDeviation="3.59375" result="effect1_foregroundBlur_270_7504"/>
</filter>
<filter id="filter18_d_270_7504" x="30.0215" y="69.3513" width="26.957" height="26.957" filterUnits="userSpaceOnUse" color-interpolation-filters="sRGB">
<feFlood flood-opacity="0" result="BackgroundImageFix"/>
<feColorMatrix in="SourceAlpha" type="matrix" values="0 0 0 0 0 0 0 0 0 0 0 0 0 0 0 0 0 0 127 0" result="hardAlpha"/>
<feMorphology radius="0.659498" operator="dilate" in="SourceAlpha" result="effect1_dropShadow_270_7504"/>
<feOffset dy="0.329749"/>
<feGaussianBlur stdDeviation="0.659498"/>
<feComposite in2="hardAlpha" operator="out"/>
<feColorMatrix type="matrix" values="0 0 0 0 0.556863 0 0 0 0 0.596078 0 0 0 0 0.658824 0 0 0 0.5 0"/>
<feBlend mode="normal" in2="BackgroundImageFix" result="effect1_dropShadow_270_7504"/>
<feBlend mode="normal" in="SourceGraphic" in2="effect1_dropShadow_270_7504" result="shape"/>
</filter>
<filter id="filter19_f_270_7504" x="22.7007" y="59.1538" width="37.5908" height="40.2642" filterUnits="userSpaceOnUse" color-interpolation-filters="sRGB">
<feFlood flood-opacity="0" result="BackgroundImageFix"/>
<feBlend mode="normal" in="SourceGraphic" in2="BackgroundImageFix" result="shape"/>
<feGaussianBlur stdDeviation="3.59375" result="effect1_foregroundBlur_270_7504"/>
</filter>
<filter id="filter20_d_270_7504" x="49.8172" y="14.3477" width="43.3656" height="43.3656" filterUnits="userSpaceOnUse" color-interpolation-filters="sRGB">
<feFlood flood-opacity="0" result="BackgroundImageFix"/>
<feColorMatrix in="SourceAlpha" type="matrix" values="0 0 0 0 0 0 0 0 0 0 0 0 0 0 0 0 0 0 127 0" result="hardAlpha"/>
<feMorphology radius="1.06093" operator="dilate" in="SourceAlpha" result="effect1_dropShadow_270_7504"/>
<feOffset dy="0.530466"/>
<feGaussianBlur stdDeviation="1.06093"/>
<feComposite in2="hardAlpha" operator="out"/>
<feColorMatrix type="matrix" values="0 0 0 0 0.556863 0 0 0 0 0.596078 0 0 0 0 0.658824 0 0 0 0.5 0"/>
<feBlend mode="normal" in2="BackgroundImageFix" result="effect1_dropShadow_270_7504"/>
<feBlend mode="normal" in="SourceGraphic" in2="effect1_dropShadow_270_7504" result="shape"/>
</filter>
<filter id="filter21_f_270_7504" x="38.0376" y="-2.05518" width="60.4722" height="64.7729" filterUnits="userSpaceOnUse" color-interpolation-filters="sRGB">
<feFlood flood-opacity="0" result="BackgroundImageFix"/>
<feBlend mode="normal" in="SourceGraphic" in2="BackgroundImageFix" result="shape"/>
<feGaussianBlur stdDeviation="5.78125" result="effect1_foregroundBlur_270_7504"/>
</filter>
<filter id="filter22_d_270_7504" x="562.989" y="317.491" width="41.0215" height="41.0215" filterUnits="userSpaceOnUse" color-interpolation-filters="sRGB">
<feFlood flood-opacity="0" result="BackgroundImageFix"/>
<feColorMatrix in="SourceAlpha" type="matrix" values="0 0 0 0 0 0 0 0 0 0 0 0 0 0 0 0 0 0 127 0" result="hardAlpha"/>
<feMorphology radius="1.00358" operator="dilate" in="SourceAlpha" result="effect1_dropShadow_270_7504"/>
<feOffset dy="0.501792"/>
<feGaussianBlur stdDeviation="1.00358"/>
<feComposite in2="hardAlpha" operator="out"/>
<feColorMatrix type="matrix" values="0 0 0 0 0.556863 0 0 0 0 0.596078 0 0 0 0 0.658824 0 0 0 0.5 0"/>
<feBlend mode="normal" in2="BackgroundImageFix" result="effect1_dropShadow_270_7504"/>
<feBlend mode="normal" in="SourceGraphic" in2="effect1_dropShadow_270_7504" result="shape"/>
</filter>
<filter id="filter23_f_270_7504" x="551.847" y="301.975" width="57.2031" height="61.272" filterUnits="userSpaceOnUse" color-interpolation-filters="sRGB">
<feFlood flood-opacity="0" result="BackgroundImageFix"/>
<feBlend mode="normal" in="SourceGraphic" in2="BackgroundImageFix" result="shape"/>
<feGaussianBlur stdDeviation="5.46875" result="effect1_foregroundBlur_270_7504"/>
</filter>
<filter id="filter24_d_270_7504" x="289.989" y="829.491" width="41.0215" height="41.0215" filterUnits="userSpaceOnUse" color-interpolation-filters="sRGB">
<feFlood flood-opacity="0" result="BackgroundImageFix"/>
<feColorMatrix in="SourceAlpha" type="matrix" values="0 0 0 0 0 0 0 0 0 0 0 0 0 0 0 0 0 0 127 0" result="hardAlpha"/>
<feMorphology radius="1.00358" operator="dilate" in="SourceAlpha" result="effect1_dropShadow_270_7504"/>
<feOffset dy="0.501792"/>
<feGaussianBlur stdDeviation="1.00358"/>
<feComposite in2="hardAlpha" operator="out"/>
<feColorMatrix type="matrix" values="0 0 0 0 0.556863 0 0 0 0 0.596078 0 0 0 0 0.658824 0 0 0 0.5 0"/>
<feBlend mode="normal" in2="BackgroundImageFix" result="effect1_dropShadow_270_7504"/>
<feBlend mode="normal" in="SourceGraphic" in2="effect1_dropShadow_270_7504" result="shape"/>
</filter>
<filter id="filter25_f_270_7504" x="278.847" y="813.975" width="57.2031" height="61.272" filterUnits="userSpaceOnUse" color-interpolation-filters="sRGB">
<feFlood flood-opacity="0" result="BackgroundImageFix"/>
<feBlend mode="normal" in="SourceGraphic" in2="BackgroundImageFix" result="shape"/>
<feGaussianBlur stdDeviation="5.46875" result="effect1_foregroundBlur_270_7504"/>
</filter>
<filter id="filter26_d_270_7504" x="175.989" y="757.491" width="41.0215" height="41.0215" filterUnits="userSpaceOnUse" color-interpolation-filters="sRGB">
<feFlood flood-opacity="0" result="BackgroundImageFix"/>
<feColorMatrix in="SourceAlpha" type="matrix" values="0 0 0 0 0 0 0 0 0 0 0 0 0 0 0 0 0 0 127 0" result="hardAlpha"/>
<feMorphology radius="1.00358" operator="dilate" in="SourceAlpha" result="effect1_dropShadow_270_7504"/>
<feOffset dy="0.501792"/>
<feGaussianBlur stdDeviation="1.00358"/>
<feComposite in2="hardAlpha" operator="out"/>
<feColorMatrix type="matrix" values="0 0 0 0 0.556863 0 0 0 0 0.596078 0 0 0 0 0.658824 0 0 0 0.5 0"/>
<feBlend mode="normal" in2="BackgroundImageFix" result="effect1_dropShadow_270_7504"/>
<feBlend mode="normal" in="SourceGraphic" in2="effect1_dropShadow_270_7504" result="shape"/>
</filter>
<filter id="filter27_f_270_7504" x="164.847" y="741.975" width="57.2031" height="61.272" filterUnits="userSpaceOnUse" color-interpolation-filters="sRGB">
<feFlood flood-opacity="0" result="BackgroundImageFix"/>
<feBlend mode="normal" in="SourceGraphic" in2="BackgroundImageFix" result="shape"/>
<feGaussianBlur stdDeviation="5.46875" result="effect1_foregroundBlur_270_7504"/>
</filter>
<filter id="filter28_d_270_7504" x="683.989" y="986.491" width="41.0215" height="41.0215" filterUnits="userSpaceOnUse" color-interpolation-filters="sRGB">
<feFlood flood-opacity="0" result="BackgroundImageFix"/>
<feColorMatrix in="SourceAlpha" type="matrix" values="0 0 0 0 0 0 0 0 0 0 0 0 0 0 0 0 0 0 127 0" result="hardAlpha"/>
<feMorphology radius="1.00358" operator="dilate" in="SourceAlpha" result="effect1_dropShadow_270_7504"/>
<feOffset dy="0.501792"/>
<feGaussianBlur stdDeviation="1.00358"/>
<feComposite in2="hardAlpha" operator="out"/>
<feColorMatrix type="matrix" values="0 0 0 0 0.556863 0 0 0 0 0.596078 0 0 0 0 0.658824 0 0 0 0.5 0"/>
<feBlend mode="normal" in2="BackgroundImageFix" result="effect1_dropShadow_270_7504"/>
<feBlend mode="normal" in="SourceGraphic" in2="effect1_dropShadow_270_7504" result="shape"/>
</filter>
<filter id="filter29_f_270_7504" x="672.847" y="970.975" width="57.2031" height="61.272" filterUnits="userSpaceOnUse" color-interpolation-filters="sRGB">
<feFlood flood-opacity="0" result="BackgroundImageFix"/>
<feBlend mode="normal" in="SourceGraphic" in2="BackgroundImageFix" result="shape"/>
<feGaussianBlur stdDeviation="5.46875" result="effect1_foregroundBlur_270_7504"/>
</filter>
<filter id="filter30_d_270_7504" x="685.538" y="944.781" width="19.9247" height="19.9247" filterUnits="userSpaceOnUse" color-interpolation-filters="sRGB">
<feFlood flood-opacity="0" result="BackgroundImageFix"/>
<feColorMatrix in="SourceAlpha" type="matrix" values="0 0 0 0 0 0 0 0 0 0 0 0 0 0 0 0 0 0 127 0" result="hardAlpha"/>
<feMorphology radius="0.487455" operator="dilate" in="SourceAlpha" result="effect1_dropShadow_270_7504"/>
<feOffset dy="0.243728"/>
<feGaussianBlur stdDeviation="0.487455"/>
<feComposite in2="hardAlpha" operator="out"/>
<feColorMatrix type="matrix" values="0 0 0 0 0.556863 0 0 0 0 0.596078 0 0 0 0 0.658824 0 0 0 0.5 0"/>
<feBlend mode="normal" in2="BackgroundImageFix" result="effect1_dropShadow_270_7504"/>
<feBlend mode="normal" in="SourceGraphic" in2="effect1_dropShadow_270_7504" result="shape"/>
</filter>
<filter id="filter31_f_270_7504" x="680.125" y="937.245" width="27.7842" height="29.7607" filterUnits="userSpaceOnUse" color-interpolation-filters="sRGB">
<feFlood flood-opacity="0" result="BackgroundImageFix"/>
<feBlend mode="normal" in="SourceGraphic" in2="BackgroundImageFix" result="shape"/>
<feGaussianBlur stdDeviation="2.65625" result="effect1_foregroundBlur_270_7504"/>
</filter>
<filter id="filter32_d_270_7504" x="651.624" y="982.853" width="18.7527" height="18.7527" filterUnits="userSpaceOnUse" color-interpolation-filters="sRGB">
<feFlood flood-opacity="0" result="BackgroundImageFix"/>
<feColorMatrix in="SourceAlpha" type="matrix" values="0 0 0 0 0 0 0 0 0 0 0 0 0 0 0 0 0 0 127 0" result="hardAlpha"/>
<feMorphology radius="0.458781" operator="dilate" in="SourceAlpha" result="effect1_dropShadow_270_7504"/>
<feOffset dy="0.229391"/>
<feGaussianBlur stdDeviation="0.458781"/>
<feComposite in2="hardAlpha" operator="out"/>
<feColorMatrix type="matrix" values="0 0 0 0 0.556863 0 0 0 0 0.596078 0 0 0 0 0.658824 0 0 0 0.5 0"/>
<feBlend mode="normal" in2="BackgroundImageFix" result="effect1_dropShadow_270_7504"/>
<feBlend mode="normal" in="SourceGraphic" in2="effect1_dropShadow_270_7504" result="shape"/>
</filter>
<filter id="filter33_f_270_7504" x="646.53" y="975.76" width="26.1494" height="28.0098" filterUnits="userSpaceOnUse" color-interpolation-filters="sRGB">
<feFlood flood-opacity="0" result="BackgroundImageFix"/>
<feBlend mode="normal" in="SourceGraphic" in2="BackgroundImageFix" result="shape"/>
<feGaussianBlur stdDeviation="2.5" result="effect1_foregroundBlur_270_7504"/>
</filter>
<filter id="filter34_d_270_7504" x="212.624" y="826.853" width="18.7527" height="18.7527" filterUnits="userSpaceOnUse" color-interpolation-filters="sRGB">
<feFlood flood-opacity="0" result="BackgroundImageFix"/>
<feColorMatrix in="SourceAlpha" type="matrix" values="0 0 0 0 0 0 0 0 0 0 0 0 0 0 0 0 0 0 127 0" result="hardAlpha"/>
<feMorphology radius="0.458781" operator="dilate" in="SourceAlpha" result="effect1_dropShadow_270_7504"/>
<feOffset dy="0.229391"/>
<feGaussianBlur stdDeviation="0.458781"/>
<feComposite in2="hardAlpha" operator="out"/>
<feColorMatrix type="matrix" values="0 0 0 0 0.556863 0 0 0 0 0.596078 0 0 0 0 0.658824 0 0 0 0.5 0"/>
<feBlend mode="normal" in2="BackgroundImageFix" result="effect1_dropShadow_270_7504"/>
<feBlend mode="normal" in="SourceGraphic" in2="effect1_dropShadow_270_7504" result="shape"/>
</filter>
<filter id="filter35_f_270_7504" x="207.53" y="819.76" width="26.1494" height="28.0098" filterUnits="userSpaceOnUse" color-interpolation-filters="sRGB">
<feFlood flood-opacity="0" result="BackgroundImageFix"/>
<feBlend mode="normal" in="SourceGraphic" in2="BackgroundImageFix" result="shape"/>
<feGaussianBlur stdDeviation="2.5" result="effect1_foregroundBlur_270_7504"/>
</filter>
<filter id="filter36_d_270_7504" x="476.624" y="262.853" width="18.7527" height="18.7527" filterUnits="userSpaceOnUse" color-interpolation-filters="sRGB">
<feFlood flood-opacity="0" result="BackgroundImageFix"/>
<feColorMatrix in="SourceAlpha" type="matrix" values="0 0 0 0 0 0 0 0 0 0 0 0 0 0 0 0 0 0 127 0" result="hardAlpha"/>
<feMorphology radius="0.458781" operator="dilate" in="SourceAlpha" result="effect1_dropShadow_270_7504"/>
<feOffset dy="0.229391"/>
<feGaussianBlur stdDeviation="0.458781"/>
<feComposite in2="hardAlpha" operator="out"/>
<feColorMatrix type="matrix" values="0 0 0 0 0.556863 0 0 0 0 0.596078 0 0 0 0 0.658824 0 0 0 0.5 0"/>
<feBlend mode="normal" in2="BackgroundImageFix" result="effect1_dropShadow_270_7504"/>
<feBlend mode="normal" in="SourceGraphic" in2="effect1_dropShadow_270_7504" result="shape"/>
</filter>
<filter id="filter37_f_270_7504" x="471.53" y="255.76" width="26.1494" height="28.0098" filterUnits="userSpaceOnUse" color-interpolation-filters="sRGB">
<feFlood flood-opacity="0" result="BackgroundImageFix"/>
<feBlend mode="normal" in="SourceGraphic" in2="BackgroundImageFix" result="shape"/>
<feGaussianBlur stdDeviation="2.5" result="effect1_foregroundBlur_270_7504"/>
</filter>
<filter id="filter38_d_270_7504" x="476.624" y="80.853" width="18.7527" height="18.7527" filterUnits="userSpaceOnUse" color-interpolation-filters="sRGB">
<feFlood flood-opacity="0" result="BackgroundImageFix"/>
<feColorMatrix in="SourceAlpha" type="matrix" values="0 0 0 0 0 0 0 0 0 0 0 0 0 0 0 0 0 0 127 0" result="hardAlpha"/>
<feMorphology radius="0.458781" operator="dilate" in="SourceAlpha" result="effect1_dropShadow_270_7504"/>
<feOffset dy="0.229391"/>
<feGaussianBlur stdDeviation="0.458781"/>
<feComposite in2="hardAlpha" operator="out"/>
<feColorMatrix type="matrix" values="0 0 0 0 0.556863 0 0 0 0 0.596078 0 0 0 0 0.658824 0 0 0 0.5 0"/>
<feBlend mode="normal" in2="BackgroundImageFix" result="effect1_dropShadow_270_7504"/>
<feBlend mode="normal" in="SourceGraphic" in2="effect1_dropShadow_270_7504" result="shape"/>
</filter>
<filter id="filter39_f_270_7504" x="471.53" y="73.7603" width="26.1494" height="28.0098" filterUnits="userSpaceOnUse" color-interpolation-filters="sRGB">
<feFlood flood-opacity="0" result="BackgroundImageFix"/>
<feBlend mode="normal" in="SourceGraphic" in2="BackgroundImageFix" result="shape"/>
<feGaussianBlur stdDeviation="2.5" result="effect1_foregroundBlur_270_7504"/>
</filter>
<clipPath id="clip0_270_7504">
<rect x="303" y="1136" width="279" height="279" rx="139.5" transform="rotate(-180 303 1136)" fill="white"/>
</clipPath>
<clipPath id="clip1_270_7504">
<rect x="809" y="227" width="279" height="279" rx="139.5" transform="rotate(-180 809 227)" fill="white"/>
</clipPath>
<clipPath id="clip2_270_7504">
<rect x="98" y="875" width="74" height="74" rx="37" transform="rotate(-180 98 875)" fill="white"/>
</clipPath>
<clipPath id="clip3_270_7504">
<rect x="80" y="779" width="55" height="55" rx="27.5" transform="rotate(-180 80 779)" fill="white"/>
</clipPath>
<clipPath id="clip4_270_7504">
<rect x="150" y="751" width="27.2245" height="29" rx="13.6122" transform="rotate(-180 150 751)" fill="white"/>
</clipPath>
<clipPath id="clip5_270_7504">
<rect x="682" y="320" width="56" height="56" rx="28" transform="rotate(-180 682 320)" fill="white"/>
</clipPath>
<clipPath id="clip6_270_7504">
<rect x="530" y="41" width="56" height="56" rx="28" transform="rotate(-180 530 41)" fill="white"/>
</clipPath>
<clipPath id="clip7_270_7504">
<rect x="522" y="184" width="28" height="28" rx="14" transform="rotate(-180 522 184)" fill="white"/>
</clipPath>
<clipPath id="clip8_270_7504">
<rect x="558" y="249" width="23" height="23" rx="11.5" transform="rotate(-180 558 249)" fill="white"/>
</clipPath>
<clipPath id="clip9_270_7504">
<rect x="55" y="94" width="23" height="23" rx="11.5" transform="rotate(-180 55 94)" fill="white"/>
</clipPath>
<clipPath id="clip10_270_7504">
<rect x="90" y="54" width="37" height="37" rx="18.5" transform="rotate(-180 90 54)" fill="white"/>
</clipPath>
<clipPath id="clip11_270_7504">
<rect x="601" y="355" width="35" height="35" rx="17.5" transform="rotate(-180 601 355)" fill="white"/>
</clipPath>
<clipPath id="clip12_270_7504">
<rect x="328" y="867" width="35" height="35" rx="17.5" transform="rotate(-180 328 867)" fill="white"/>
</clipPath>
<clipPath id="clip13_270_7504">
<rect x="214" y="795" width="35" height="35" rx="17.5" transform="rotate(-180 214 795)" fill="white"/>
</clipPath>
<clipPath id="clip14_270_7504">
<rect x="722" y="1024" width="35" height="35" rx="17.5" transform="rotate(-180 722 1024)" fill="white"/>
</clipPath>
<clipPath id="clip15_270_7504">
<rect x="704" y="963" width="17" height="17" rx="8.5" transform="rotate(-180 704 963)" fill="white"/>
</clipPath>
<clipPath id="clip16_270_7504">
<rect x="669" y="1000" width="16" height="16" rx="8" transform="rotate(-180 669 1000)" fill="white"/>
</clipPath>
<clipPath id="clip17_270_7504">
<rect x="230" y="844" width="16" height="16" rx="8" transform="rotate(-180 230 844)" fill="white"/>
</clipPath>
<clipPath id="clip18_270_7504">
<rect x="494" y="280" width="16" height="16" rx="8" transform="rotate(-180 494 280)" fill="white"/>
</clipPath>
<clipPath id="clip19_270_7504">
<rect x="494" y="98" width="16" height="16" rx="8" transform="rotate(-180 494 98)" fill="white"/>
</clipPath>
</defs>
</svg>
